M48
; DRILL file {KiCad (5.1.4)-1} date 08/09/2019 23:44:11
; FORMAT={-:-/ absolute / inch / decimal}
; #@! TF.CreationDate,2019-09-08T23:44:11+01:00
; #@! TF.GenerationSoftware,Kicad,Pcbnew,(5.1.4)-1
; #@! TF.FileFunction,Plated,1,2,PTH
FMAT,2
INCH
T1C0.0315
T2C0.0354
T3C0.0433
T4C0.0472
T5C0.0591
%
G90
G05
T1
X6.1835Y-3.3559
X6.1835Y-3.4559
X6.1835Y-3.5559
X6.1835Y-3.6559
X6.4835Y-3.3559
X6.4835Y-3.4559
X6.4835Y-3.5559
X6.4835Y-3.6559
T2
X6.8735Y-4.3959
X7.2735Y-4.3959
X6.8635Y-2.9909
X7.2635Y-2.9909
T3
X6.8635Y-4.7509
X7.2635Y-4.7509
X7.2735Y-3.6959
X7.2735Y-3.9959
X7.2635Y-2.2909
X7.2635Y-2.5909
X6.8635Y-3.3509
X7.2635Y-3.3509
T4
X5.6335Y-3.3059
X5.6335Y-3.9059
X8.1185Y-2.6091
X8.1185Y-2.7075
X8.1185Y-2.8059
X5.6335Y-4.2059
X5.6335Y-4.9146
X5.6335Y-2.3559
X5.6335Y-2.9559
X8.1185Y-3.4106
X8.1185Y-3.5091
X8.1185Y-3.6075
X8.1185Y-3.7059
X8.1185Y-3.9075
X8.1185Y-4.0059
X6.4835Y-4.2059
X6.4835Y-4.9146
X8.1185Y-2.3075
X8.1185Y-2.4059
X8.1185Y-3.0091
X8.1185Y-3.1075
X8.1185Y-3.2059
T5
X4.7885Y-4.7609
X4.2885Y-4.7609
X3.7385Y-3.1609
X3.7385Y-4.7609
X4.7885Y-3.1609
X3.7385Y-4.2109
X4.5385Y-4.2109
X4.5385Y-2.6109
X3.7385Y-2.6109
X4.2885Y-3.1609
T0
M30
