G04 #@! TF.GenerationSoftware,KiCad,Pcbnew,(5.1.4)-1*
G04 #@! TF.CreationDate,2019-09-08T23:44:08+01:00*
G04 #@! TF.ProjectId,lightsBoard,6c696768-7473-4426-9f61-72642e6b6963,rev?*
G04 #@! TF.SameCoordinates,Original*
G04 #@! TF.FileFunction,Soldermask,Bot*
G04 #@! TF.FilePolarity,Negative*
%FSLAX46Y46*%
G04 Gerber Fmt 4.6, Leading zero omitted, Abs format (unit mm)*
G04 Created by KiCad (PCBNEW (5.1.4)-1) date 2019-09-08 23:44:08*
%MOMM*%
%LPD*%
G04 APERTURE LIST*
%ADD10C,3.100000*%
%ADD11R,2.800000X2.800000*%
%ADD12O,2.800000X2.800000*%
%ADD13O,2.600000X2.600000*%
%ADD14R,2.600000X2.600000*%
%ADD15C,2.400000*%
%ADD16C,2.800000*%
%ADD17R,2.000000X2.000000*%
%ADD18O,2.000000X2.000000*%
%ADD19C,4.400500*%
%ADD20C,2.200000*%
G04 APERTURE END LIST*
D10*
X58600000Y-139450000D03*
X58600000Y-50550000D03*
X212240000Y-139450000D03*
X212240000Y-50550000D03*
D11*
X143091000Y-106830000D03*
D12*
X143091000Y-124830000D03*
D11*
X164681000Y-106830000D03*
D12*
X164681000Y-124830000D03*
D13*
X184493000Y-85113000D03*
D14*
X174333000Y-85113000D03*
X174333000Y-120673000D03*
D13*
X184493000Y-120673000D03*
D15*
X206210000Y-61110000D03*
X206210000Y-58610000D03*
X206210000Y-71270000D03*
X206210000Y-68770000D03*
X206210000Y-66270000D03*
X206210000Y-76430000D03*
X206210000Y-78930000D03*
X206210000Y-81430000D03*
X206210000Y-94130000D03*
X206210000Y-91630000D03*
X206210000Y-89130000D03*
X206210000Y-86630000D03*
X206210000Y-99250000D03*
X206210000Y-101750000D03*
D12*
X143091000Y-75080000D03*
D16*
X143091000Y-59840000D03*
X143091000Y-83970000D03*
D12*
X143091000Y-99210000D03*
D17*
X157061000Y-85240000D03*
D18*
X164681000Y-92860000D03*
X157061000Y-87780000D03*
X164681000Y-90320000D03*
X157061000Y-90320000D03*
X164681000Y-87780000D03*
X157061000Y-92860000D03*
X164681000Y-85240000D03*
D19*
X94958000Y-66317000D03*
X115278000Y-66317000D03*
X94958000Y-80287000D03*
X108928000Y-80287000D03*
X121628000Y-80287000D03*
X94958000Y-106957000D03*
X115278000Y-106957000D03*
X94958000Y-120927000D03*
X108928000Y-120927000D03*
X121628000Y-120927000D03*
D15*
X184493000Y-58189000D03*
X184493000Y-65809000D03*
D20*
X184493000Y-75969000D03*
X174333000Y-75969000D03*
X174587000Y-111656000D03*
X184747000Y-111656000D03*
D15*
X184747000Y-101496000D03*
X184747000Y-93876000D03*
M02*
