G04 #@! TF.GenerationSoftware,KiCad,Pcbnew,(5.1.4)-1*
G04 #@! TF.CreationDate,2019-09-08T23:44:08+01:00*
G04 #@! TF.ProjectId,lightsBoard,6c696768-7473-4426-9f61-72642e6b6963,rev?*
G04 #@! TF.SameCoordinates,Original*
G04 #@! TF.FileFunction,Copper,L1,Top*
G04 #@! TF.FilePolarity,Positive*
%FSLAX46Y46*%
G04 Gerber Fmt 4.6, Leading zero omitted, Abs format (unit mm)*
G04 Created by KiCad (PCBNEW (5.1.4)-1) date 2019-09-08 23:44:08*
%MOMM*%
%LPD*%
G04 APERTURE LIST*
%ADD10R,2.400000X2.400000*%
%ADD11O,2.400000X2.400000*%
%ADD12O,2.200000X2.200000*%
%ADD13R,2.200000X2.200000*%
%ADD14C,2.000000*%
%ADD15C,2.400000*%
%ADD16R,1.600000X1.600000*%
%ADD17O,1.600000X1.600000*%
%ADD18C,4.000500*%
%ADD19C,1.800000*%
%ADD20C,0.500000*%
%ADD21C,0.254000*%
G04 APERTURE END LIST*
D10*
X143091000Y-106830000D03*
D11*
X143091000Y-124830000D03*
D10*
X164681000Y-106830000D03*
D11*
X164681000Y-124830000D03*
D12*
X184493000Y-85113000D03*
D13*
X174333000Y-85113000D03*
X174333000Y-120673000D03*
D12*
X184493000Y-120673000D03*
D14*
X206210000Y-61110000D03*
X206210000Y-58610000D03*
X206210000Y-71270000D03*
X206210000Y-68770000D03*
X206210000Y-66270000D03*
X206210000Y-76430000D03*
X206210000Y-78930000D03*
X206210000Y-81430000D03*
X206210000Y-94130000D03*
X206210000Y-91630000D03*
X206210000Y-89130000D03*
X206210000Y-86630000D03*
X206210000Y-99250000D03*
X206210000Y-101750000D03*
D11*
X143091000Y-75080000D03*
D15*
X143091000Y-59840000D03*
X143091000Y-83970000D03*
D11*
X143091000Y-99210000D03*
D16*
X157061000Y-85240000D03*
D17*
X164681000Y-92860000D03*
X157061000Y-87780000D03*
X164681000Y-90320000D03*
X157061000Y-90320000D03*
X164681000Y-87780000D03*
X157061000Y-92860000D03*
X164681000Y-85240000D03*
D18*
X94958000Y-66317000D03*
X115278000Y-66317000D03*
X94958000Y-80287000D03*
X108928000Y-80287000D03*
X121628000Y-80287000D03*
X94958000Y-106957000D03*
X115278000Y-106957000D03*
X94958000Y-120927000D03*
X108928000Y-120927000D03*
X121628000Y-120927000D03*
D14*
X184493000Y-58189000D03*
X184493000Y-65809000D03*
D19*
X184493000Y-75969000D03*
X174333000Y-75969000D03*
X174587000Y-111656000D03*
X184747000Y-111656000D03*
D14*
X184747000Y-101496000D03*
X184747000Y-93876000D03*
D20*
X143091000Y-99210000D02*
X143091000Y-106830000D01*
X143091000Y-99210000D02*
X143091000Y-96670000D01*
X151981000Y-87780000D02*
X157061000Y-87780000D01*
X143091000Y-96670000D02*
X151981000Y-87780000D01*
X157061000Y-87780000D02*
X159601000Y-87780000D01*
X162141000Y-90320000D02*
X164681000Y-90320000D01*
X159601000Y-87780000D02*
X162141000Y-90320000D01*
X164681000Y-92860000D02*
X164681000Y-106830000D01*
X121628000Y-80287000D02*
X121628000Y-120927000D01*
X108928000Y-80287000D02*
X108928000Y-120927000D01*
X183270000Y-120800000D02*
X184620000Y-120800000D01*
X174333000Y-77241792D02*
X174333000Y-85113000D01*
X174333000Y-75969000D02*
X174333000Y-77241792D01*
X174587000Y-120419000D02*
X174333000Y-120673000D01*
X174587000Y-111656000D02*
X174587000Y-120419000D01*
X174333000Y-129737000D02*
X174333000Y-120673000D01*
X171713000Y-132357000D02*
X174333000Y-129737000D01*
X112738000Y-132357000D02*
X171713000Y-132357000D01*
X108928000Y-120927000D02*
X108928000Y-128547000D01*
X108928000Y-128547000D02*
X112738000Y-132357000D01*
X206130000Y-66190000D02*
X206210000Y-66270000D01*
X201130000Y-66190000D02*
X201130000Y-76350000D01*
X201130000Y-66190000D02*
X206130000Y-66190000D01*
X201210000Y-76430000D02*
X206210000Y-76430000D01*
X201130000Y-76350000D02*
X201210000Y-76430000D01*
X201130000Y-76350000D02*
X201130000Y-86510000D01*
X201250000Y-86630000D02*
X206210000Y-86630000D01*
X201130000Y-86510000D02*
X201250000Y-86630000D01*
X186288213Y-66190000D02*
X201130000Y-66190000D01*
X185907213Y-65809000D02*
X186288213Y-66190000D01*
X184493000Y-65809000D02*
X185907213Y-65809000D01*
X206210000Y-101750000D02*
X201130000Y-101750000D01*
X201130000Y-101750000D02*
X201130000Y-91590000D01*
X201170000Y-91630000D02*
X206210000Y-91630000D01*
X201130000Y-91590000D02*
X201170000Y-91630000D01*
X143091000Y-75080000D02*
X143091000Y-83970000D01*
X143091000Y-83970000D02*
X149441000Y-83970000D01*
X149441000Y-83970000D02*
X150711000Y-82700000D01*
X159601000Y-82700000D02*
X164681000Y-87780000D01*
X150711000Y-82700000D02*
X159601000Y-82700000D01*
X143091000Y-59840000D02*
X160871000Y-59840000D01*
X164681000Y-63650000D02*
X164681000Y-85240000D01*
X160871000Y-59840000D02*
X164681000Y-63650000D01*
X94958000Y-80287000D02*
X88608000Y-86637000D01*
X88608000Y-114577000D02*
X94958000Y-120927000D01*
X88608000Y-86637000D02*
X88608000Y-114577000D01*
X110325000Y-59840000D02*
X143091000Y-59840000D01*
X94958000Y-80287000D02*
X94958000Y-75207000D01*
X94958000Y-75207000D02*
X110325000Y-59840000D01*
X115278000Y-66317000D02*
X115278000Y-106957000D01*
D21*
G36*
X207353000Y-56030000D02*
G01*
X207355440Y-56054776D01*
X207362667Y-56078601D01*
X207374403Y-56100557D01*
X207390197Y-56119803D01*
X207409443Y-56135597D01*
X207431399Y-56147333D01*
X207455224Y-56154560D01*
X207480000Y-56157000D01*
X212433000Y-56157000D01*
X212433000Y-134643000D01*
X206210000Y-134643000D01*
X206185224Y-134645440D01*
X206161399Y-134652667D01*
X206139443Y-134664403D01*
X206120197Y-134680197D01*
X206104403Y-134699443D01*
X206092667Y-134721399D01*
X206085440Y-134745224D01*
X206083000Y-134770000D01*
X206083000Y-140993000D01*
X62827000Y-140993000D01*
X62827000Y-134770000D01*
X62824560Y-134745224D01*
X62817333Y-134721399D01*
X62805597Y-134699443D01*
X62789803Y-134680197D01*
X62770557Y-134664403D01*
X62748601Y-134652667D01*
X62724776Y-134645440D01*
X62700000Y-134643000D01*
X56477000Y-134643000D01*
X56477000Y-86637000D01*
X87718719Y-86637000D01*
X87723000Y-86680469D01*
X87723001Y-114533521D01*
X87718719Y-114577000D01*
X87735805Y-114750490D01*
X87786412Y-114917313D01*
X87868590Y-115071059D01*
X87951468Y-115172046D01*
X87951471Y-115172049D01*
X87979184Y-115205817D01*
X88012952Y-115233530D01*
X92574488Y-119795067D01*
X92424021Y-120158326D01*
X92322750Y-120667451D01*
X92322750Y-121186549D01*
X92424021Y-121695674D01*
X92622672Y-122175259D01*
X92911068Y-122606874D01*
X93278126Y-122973932D01*
X93709741Y-123262328D01*
X94189326Y-123460979D01*
X94698451Y-123562250D01*
X95217549Y-123562250D01*
X95726674Y-123460979D01*
X96206259Y-123262328D01*
X96637874Y-122973932D01*
X97004932Y-122606874D01*
X97293328Y-122175259D01*
X97491979Y-121695674D01*
X97593250Y-121186549D01*
X97593250Y-120667451D01*
X97491979Y-120158326D01*
X97293328Y-119678741D01*
X97004932Y-119247126D01*
X96637874Y-118880068D01*
X96206259Y-118591672D01*
X95726674Y-118393021D01*
X95217549Y-118291750D01*
X94698451Y-118291750D01*
X94189326Y-118393021D01*
X93826067Y-118543488D01*
X89493000Y-114210422D01*
X89493000Y-108804676D01*
X93289929Y-108804676D01*
X93506080Y-109171461D01*
X93965998Y-109412167D01*
X94464039Y-109558522D01*
X94981062Y-109604901D01*
X95497199Y-109549524D01*
X95992614Y-109394517D01*
X96409920Y-109171461D01*
X96626071Y-108804676D01*
X94958000Y-107136605D01*
X93289929Y-108804676D01*
X89493000Y-108804676D01*
X89493000Y-106980062D01*
X92310099Y-106980062D01*
X92365476Y-107496199D01*
X92520483Y-107991614D01*
X92743539Y-108408920D01*
X93110324Y-108625071D01*
X94778395Y-106957000D01*
X95137605Y-106957000D01*
X96805676Y-108625071D01*
X97172461Y-108408920D01*
X97413167Y-107949002D01*
X97559522Y-107450961D01*
X97605901Y-106933938D01*
X97550524Y-106417801D01*
X97395517Y-105922386D01*
X97172461Y-105505080D01*
X96805676Y-105288929D01*
X95137605Y-106957000D01*
X94778395Y-106957000D01*
X93110324Y-105288929D01*
X92743539Y-105505080D01*
X92502833Y-105964998D01*
X92356478Y-106463039D01*
X92310099Y-106980062D01*
X89493000Y-106980062D01*
X89493000Y-105109324D01*
X93289929Y-105109324D01*
X94958000Y-106777395D01*
X96626071Y-105109324D01*
X96409920Y-104742539D01*
X95950002Y-104501833D01*
X95451961Y-104355478D01*
X94934938Y-104309099D01*
X94418801Y-104364476D01*
X93923386Y-104519483D01*
X93506080Y-104742539D01*
X93289929Y-105109324D01*
X89493000Y-105109324D01*
X89493000Y-87003578D01*
X93826067Y-82670512D01*
X94189326Y-82820979D01*
X94698451Y-82922250D01*
X95217549Y-82922250D01*
X95726674Y-82820979D01*
X96206259Y-82622328D01*
X96637874Y-82333932D01*
X97004932Y-81966874D01*
X97293328Y-81535259D01*
X97491979Y-81055674D01*
X97593250Y-80546549D01*
X97593250Y-80027451D01*
X106292750Y-80027451D01*
X106292750Y-80546549D01*
X106394021Y-81055674D01*
X106592672Y-81535259D01*
X106881068Y-81966874D01*
X107248126Y-82333932D01*
X107679741Y-82622328D01*
X108043000Y-82772795D01*
X108043001Y-118441205D01*
X107679741Y-118591672D01*
X107248126Y-118880068D01*
X106881068Y-119247126D01*
X106592672Y-119678741D01*
X106394021Y-120158326D01*
X106292750Y-120667451D01*
X106292750Y-121186549D01*
X106394021Y-121695674D01*
X106592672Y-122175259D01*
X106881068Y-122606874D01*
X107248126Y-122973932D01*
X107679741Y-123262328D01*
X108043000Y-123412795D01*
X108043001Y-128503521D01*
X108038719Y-128547000D01*
X108055805Y-128720490D01*
X108106412Y-128887313D01*
X108188590Y-129041059D01*
X108271468Y-129142046D01*
X108271471Y-129142049D01*
X108299184Y-129175817D01*
X108332951Y-129203530D01*
X112081470Y-132952049D01*
X112109183Y-132985817D01*
X112142951Y-133013530D01*
X112142953Y-133013532D01*
X112243941Y-133096411D01*
X112397686Y-133178589D01*
X112564510Y-133229195D01*
X112694523Y-133242000D01*
X112694531Y-133242000D01*
X112738000Y-133246281D01*
X112781469Y-133242000D01*
X171669531Y-133242000D01*
X171713000Y-133246281D01*
X171756469Y-133242000D01*
X171756477Y-133242000D01*
X171886490Y-133229195D01*
X172053313Y-133178589D01*
X172207059Y-133096411D01*
X172341817Y-132985817D01*
X172369534Y-132952044D01*
X174928050Y-130393529D01*
X174961817Y-130365817D01*
X175072411Y-130231059D01*
X175072412Y-130231058D01*
X175154589Y-130077314D01*
X175205195Y-129910490D01*
X175205195Y-129910489D01*
X175218000Y-129780477D01*
X175218000Y-129780469D01*
X175222281Y-129737000D01*
X175218000Y-129693531D01*
X175218000Y-122411072D01*
X175433000Y-122411072D01*
X175557482Y-122398812D01*
X175677180Y-122362502D01*
X175787494Y-122303537D01*
X175884185Y-122224185D01*
X175963537Y-122127494D01*
X176022502Y-122017180D01*
X176058812Y-121897482D01*
X176071072Y-121773000D01*
X176071072Y-120800000D01*
X182380718Y-120800000D01*
X182397805Y-120973490D01*
X182448411Y-121140313D01*
X182530589Y-121294059D01*
X182641183Y-121428817D01*
X182775941Y-121539411D01*
X182929687Y-121621589D01*
X183059279Y-121660901D01*
X183260234Y-121905766D01*
X183524422Y-122122579D01*
X183825832Y-122283686D01*
X184152881Y-122382895D01*
X184407775Y-122408000D01*
X184578225Y-122408000D01*
X184833119Y-122382895D01*
X185160168Y-122283686D01*
X185461578Y-122122579D01*
X185725766Y-121905766D01*
X185942579Y-121641578D01*
X186103686Y-121340168D01*
X186202895Y-121013119D01*
X186236394Y-120673000D01*
X186202895Y-120332881D01*
X186103686Y-120005832D01*
X185942579Y-119704422D01*
X185725766Y-119440234D01*
X185461578Y-119223421D01*
X185160168Y-119062314D01*
X184833119Y-118963105D01*
X184578225Y-118938000D01*
X184407775Y-118938000D01*
X184152881Y-118963105D01*
X183825832Y-119062314D01*
X183524422Y-119223421D01*
X183260234Y-119440234D01*
X183043421Y-119704422D01*
X182883885Y-120002892D01*
X182775941Y-120060589D01*
X182641183Y-120171183D01*
X182530589Y-120305941D01*
X182448411Y-120459687D01*
X182397805Y-120626510D01*
X182380718Y-120800000D01*
X176071072Y-120800000D01*
X176071072Y-119573000D01*
X176058812Y-119448518D01*
X176022502Y-119328820D01*
X175963537Y-119218506D01*
X175884185Y-119121815D01*
X175787494Y-119042463D01*
X175677180Y-118983498D01*
X175557482Y-118947188D01*
X175472000Y-118938769D01*
X175472000Y-112910790D01*
X175565505Y-112848312D01*
X175779312Y-112634505D01*
X175947299Y-112383095D01*
X176063011Y-112103743D01*
X176122000Y-111807184D01*
X176122000Y-111504816D01*
X183212000Y-111504816D01*
X183212000Y-111807184D01*
X183270989Y-112103743D01*
X183386701Y-112383095D01*
X183554688Y-112634505D01*
X183768495Y-112848312D01*
X184019905Y-113016299D01*
X184299257Y-113132011D01*
X184595816Y-113191000D01*
X184898184Y-113191000D01*
X185194743Y-113132011D01*
X185474095Y-113016299D01*
X185725505Y-112848312D01*
X185939312Y-112634505D01*
X186107299Y-112383095D01*
X186223011Y-112103743D01*
X186282000Y-111807184D01*
X186282000Y-111504816D01*
X186223011Y-111208257D01*
X186107299Y-110928905D01*
X185939312Y-110677495D01*
X185725505Y-110463688D01*
X185474095Y-110295701D01*
X185194743Y-110179989D01*
X184898184Y-110121000D01*
X184595816Y-110121000D01*
X184299257Y-110179989D01*
X184019905Y-110295701D01*
X183768495Y-110463688D01*
X183554688Y-110677495D01*
X183386701Y-110928905D01*
X183270989Y-111208257D01*
X183212000Y-111504816D01*
X176122000Y-111504816D01*
X176063011Y-111208257D01*
X175947299Y-110928905D01*
X175779312Y-110677495D01*
X175565505Y-110463688D01*
X175314095Y-110295701D01*
X175034743Y-110179989D01*
X174738184Y-110121000D01*
X174435816Y-110121000D01*
X174139257Y-110179989D01*
X173859905Y-110295701D01*
X173608495Y-110463688D01*
X173394688Y-110677495D01*
X173226701Y-110928905D01*
X173110989Y-111208257D01*
X173052000Y-111504816D01*
X173052000Y-111807184D01*
X173110989Y-112103743D01*
X173226701Y-112383095D01*
X173394688Y-112634505D01*
X173608495Y-112848312D01*
X173702000Y-112910790D01*
X173702001Y-118934928D01*
X173233000Y-118934928D01*
X173108518Y-118947188D01*
X172988820Y-118983498D01*
X172878506Y-119042463D01*
X172781815Y-119121815D01*
X172702463Y-119218506D01*
X172643498Y-119328820D01*
X172607188Y-119448518D01*
X172594928Y-119573000D01*
X172594928Y-121773000D01*
X172607188Y-121897482D01*
X172643498Y-122017180D01*
X172702463Y-122127494D01*
X172781815Y-122224185D01*
X172878506Y-122303537D01*
X172988820Y-122362502D01*
X173108518Y-122398812D01*
X173233000Y-122411072D01*
X173448001Y-122411072D01*
X173448000Y-129370421D01*
X171346422Y-131472000D01*
X113104579Y-131472000D01*
X109813000Y-128180422D01*
X109813000Y-124830000D01*
X141247122Y-124830000D01*
X141282552Y-125189723D01*
X141387479Y-125535622D01*
X141557871Y-125854404D01*
X141787181Y-126133819D01*
X142066596Y-126363129D01*
X142385378Y-126533521D01*
X142731277Y-126638448D01*
X143000861Y-126665000D01*
X143181139Y-126665000D01*
X143450723Y-126638448D01*
X143796622Y-126533521D01*
X144115404Y-126363129D01*
X144394819Y-126133819D01*
X144624129Y-125854404D01*
X144794521Y-125535622D01*
X144899448Y-125189723D01*
X144934878Y-124830000D01*
X162837122Y-124830000D01*
X162872552Y-125189723D01*
X162977479Y-125535622D01*
X163147871Y-125854404D01*
X163377181Y-126133819D01*
X163656596Y-126363129D01*
X163975378Y-126533521D01*
X164321277Y-126638448D01*
X164590861Y-126665000D01*
X164771139Y-126665000D01*
X165040723Y-126638448D01*
X165386622Y-126533521D01*
X165705404Y-126363129D01*
X165984819Y-126133819D01*
X166214129Y-125854404D01*
X166384521Y-125535622D01*
X166489448Y-125189723D01*
X166524878Y-124830000D01*
X166489448Y-124470277D01*
X166384521Y-124124378D01*
X166214129Y-123805596D01*
X165984819Y-123526181D01*
X165705404Y-123296871D01*
X165386622Y-123126479D01*
X165040723Y-123021552D01*
X164771139Y-122995000D01*
X164590861Y-122995000D01*
X164321277Y-123021552D01*
X163975378Y-123126479D01*
X163656596Y-123296871D01*
X163377181Y-123526181D01*
X163147871Y-123805596D01*
X162977479Y-124124378D01*
X162872552Y-124470277D01*
X162837122Y-124830000D01*
X144934878Y-124830000D01*
X144899448Y-124470277D01*
X144794521Y-124124378D01*
X144624129Y-123805596D01*
X144394819Y-123526181D01*
X144115404Y-123296871D01*
X143796622Y-123126479D01*
X143450723Y-123021552D01*
X143181139Y-122995000D01*
X143000861Y-122995000D01*
X142731277Y-123021552D01*
X142385378Y-123126479D01*
X142066596Y-123296871D01*
X141787181Y-123526181D01*
X141557871Y-123805596D01*
X141387479Y-124124378D01*
X141282552Y-124470277D01*
X141247122Y-124830000D01*
X109813000Y-124830000D01*
X109813000Y-123412795D01*
X110176259Y-123262328D01*
X110607874Y-122973932D01*
X110974932Y-122606874D01*
X111263328Y-122175259D01*
X111461979Y-121695674D01*
X111563250Y-121186549D01*
X111563250Y-120667451D01*
X111461979Y-120158326D01*
X111263328Y-119678741D01*
X110974932Y-119247126D01*
X110607874Y-118880068D01*
X110176259Y-118591672D01*
X109813000Y-118441205D01*
X109813000Y-82772795D01*
X110176259Y-82622328D01*
X110607874Y-82333932D01*
X110974932Y-81966874D01*
X111263328Y-81535259D01*
X111461979Y-81055674D01*
X111563250Y-80546549D01*
X111563250Y-80027451D01*
X111461979Y-79518326D01*
X111263328Y-79038741D01*
X110974932Y-78607126D01*
X110607874Y-78240068D01*
X110176259Y-77951672D01*
X109696674Y-77753021D01*
X109187549Y-77651750D01*
X108668451Y-77651750D01*
X108159326Y-77753021D01*
X107679741Y-77951672D01*
X107248126Y-78240068D01*
X106881068Y-78607126D01*
X106592672Y-79038741D01*
X106394021Y-79518326D01*
X106292750Y-80027451D01*
X97593250Y-80027451D01*
X97491979Y-79518326D01*
X97293328Y-79038741D01*
X97004932Y-78607126D01*
X96637874Y-78240068D01*
X96206259Y-77951672D01*
X95843000Y-77801205D01*
X95843000Y-75573578D01*
X105359127Y-66057451D01*
X112642750Y-66057451D01*
X112642750Y-66576549D01*
X112744021Y-67085674D01*
X112942672Y-67565259D01*
X113231068Y-67996874D01*
X113598126Y-68363932D01*
X114029741Y-68652328D01*
X114393000Y-68802795D01*
X114393001Y-104471205D01*
X114029741Y-104621672D01*
X113598126Y-104910068D01*
X113231068Y-105277126D01*
X112942672Y-105708741D01*
X112744021Y-106188326D01*
X112642750Y-106697451D01*
X112642750Y-107216549D01*
X112744021Y-107725674D01*
X112942672Y-108205259D01*
X113231068Y-108636874D01*
X113598126Y-109003932D01*
X114029741Y-109292328D01*
X114509326Y-109490979D01*
X115018451Y-109592250D01*
X115537549Y-109592250D01*
X116046674Y-109490979D01*
X116526259Y-109292328D01*
X116957874Y-109003932D01*
X117324932Y-108636874D01*
X117613328Y-108205259D01*
X117811979Y-107725674D01*
X117913250Y-107216549D01*
X117913250Y-106697451D01*
X117811979Y-106188326D01*
X117613328Y-105708741D01*
X117324932Y-105277126D01*
X116957874Y-104910068D01*
X116526259Y-104621672D01*
X116163000Y-104471205D01*
X116163000Y-80027451D01*
X118992750Y-80027451D01*
X118992750Y-80546549D01*
X119094021Y-81055674D01*
X119292672Y-81535259D01*
X119581068Y-81966874D01*
X119948126Y-82333932D01*
X120379741Y-82622328D01*
X120743000Y-82772795D01*
X120743001Y-118441205D01*
X120379741Y-118591672D01*
X119948126Y-118880068D01*
X119581068Y-119247126D01*
X119292672Y-119678741D01*
X119094021Y-120158326D01*
X118992750Y-120667451D01*
X118992750Y-121186549D01*
X119094021Y-121695674D01*
X119292672Y-122175259D01*
X119581068Y-122606874D01*
X119948126Y-122973932D01*
X120379741Y-123262328D01*
X120859326Y-123460979D01*
X121368451Y-123562250D01*
X121887549Y-123562250D01*
X122396674Y-123460979D01*
X122876259Y-123262328D01*
X123307874Y-122973932D01*
X123674932Y-122606874D01*
X123963328Y-122175259D01*
X124161979Y-121695674D01*
X124263250Y-121186549D01*
X124263250Y-120667451D01*
X124161979Y-120158326D01*
X123963328Y-119678741D01*
X123674932Y-119247126D01*
X123307874Y-118880068D01*
X122876259Y-118591672D01*
X122513000Y-118441205D01*
X122513000Y-82772795D01*
X122876259Y-82622328D01*
X123307874Y-82333932D01*
X123674932Y-81966874D01*
X123963328Y-81535259D01*
X124161979Y-81055674D01*
X124263250Y-80546549D01*
X124263250Y-80027451D01*
X124161979Y-79518326D01*
X123963328Y-79038741D01*
X123674932Y-78607126D01*
X123307874Y-78240068D01*
X122876259Y-77951672D01*
X122396674Y-77753021D01*
X121887549Y-77651750D01*
X121368451Y-77651750D01*
X120859326Y-77753021D01*
X120379741Y-77951672D01*
X119948126Y-78240068D01*
X119581068Y-78607126D01*
X119292672Y-79038741D01*
X119094021Y-79518326D01*
X118992750Y-80027451D01*
X116163000Y-80027451D01*
X116163000Y-68802795D01*
X116526259Y-68652328D01*
X116957874Y-68363932D01*
X117324932Y-67996874D01*
X117613328Y-67565259D01*
X117811979Y-67085674D01*
X117913250Y-66576549D01*
X117913250Y-66057451D01*
X117811979Y-65548326D01*
X117613328Y-65068741D01*
X117324932Y-64637126D01*
X116957874Y-64270068D01*
X116526259Y-63981672D01*
X116046674Y-63783021D01*
X115537549Y-63681750D01*
X115018451Y-63681750D01*
X114509326Y-63783021D01*
X114029741Y-63981672D01*
X113598126Y-64270068D01*
X113231068Y-64637126D01*
X112942672Y-65068741D01*
X112744021Y-65548326D01*
X112642750Y-66057451D01*
X105359127Y-66057451D01*
X110691579Y-60725000D01*
X141475402Y-60725000D01*
X141665662Y-61009744D01*
X141921256Y-61265338D01*
X142221801Y-61466156D01*
X142555750Y-61604482D01*
X142910268Y-61675000D01*
X143271732Y-61675000D01*
X143626250Y-61604482D01*
X143960199Y-61466156D01*
X144260744Y-61265338D01*
X144516338Y-61009744D01*
X144706598Y-60725000D01*
X160504422Y-60725000D01*
X163796000Y-64016579D01*
X163796001Y-84109921D01*
X163661392Y-84220392D01*
X163482068Y-84438899D01*
X163348818Y-84688192D01*
X163266764Y-84958691D01*
X163252822Y-85100243D01*
X160257534Y-82104956D01*
X160229817Y-82071183D01*
X160095059Y-81960589D01*
X159941313Y-81878411D01*
X159774490Y-81827805D01*
X159644477Y-81815000D01*
X159644469Y-81815000D01*
X159601000Y-81810719D01*
X159557531Y-81815000D01*
X150754465Y-81815000D01*
X150710999Y-81810719D01*
X150667533Y-81815000D01*
X150667523Y-81815000D01*
X150537510Y-81827805D01*
X150370687Y-81878411D01*
X150216941Y-81960589D01*
X150216939Y-81960590D01*
X150216940Y-81960590D01*
X150115953Y-82043468D01*
X150115951Y-82043470D01*
X150082183Y-82071183D01*
X150054470Y-82104951D01*
X149074422Y-83085000D01*
X144706598Y-83085000D01*
X144516338Y-82800256D01*
X144260744Y-82544662D01*
X143976000Y-82354402D01*
X143976000Y-76687642D01*
X144115404Y-76613129D01*
X144394819Y-76383819D01*
X144624129Y-76104404D01*
X144794521Y-75785622D01*
X144899448Y-75439723D01*
X144934878Y-75080000D01*
X144899448Y-74720277D01*
X144794521Y-74374378D01*
X144624129Y-74055596D01*
X144394819Y-73776181D01*
X144115404Y-73546871D01*
X143796622Y-73376479D01*
X143450723Y-73271552D01*
X143181139Y-73245000D01*
X143000861Y-73245000D01*
X142731277Y-73271552D01*
X142385378Y-73376479D01*
X142066596Y-73546871D01*
X141787181Y-73776181D01*
X141557871Y-74055596D01*
X141387479Y-74374378D01*
X141282552Y-74720277D01*
X141247122Y-75080000D01*
X141282552Y-75439723D01*
X141387479Y-75785622D01*
X141557871Y-76104404D01*
X141787181Y-76383819D01*
X142066596Y-76613129D01*
X142206000Y-76687642D01*
X142206001Y-82354401D01*
X141921256Y-82544662D01*
X141665662Y-82800256D01*
X141464844Y-83100801D01*
X141326518Y-83434750D01*
X141256000Y-83789268D01*
X141256000Y-84150732D01*
X141326518Y-84505250D01*
X141464844Y-84839199D01*
X141665662Y-85139744D01*
X141921256Y-85395338D01*
X142221801Y-85596156D01*
X142555750Y-85734482D01*
X142910268Y-85805000D01*
X143271732Y-85805000D01*
X143626250Y-85734482D01*
X143960199Y-85596156D01*
X144260744Y-85395338D01*
X144516338Y-85139744D01*
X144706598Y-84855000D01*
X149397531Y-84855000D01*
X149441000Y-84859281D01*
X149484469Y-84855000D01*
X149484477Y-84855000D01*
X149614490Y-84842195D01*
X149781313Y-84791589D01*
X149935059Y-84709411D01*
X150069817Y-84598817D01*
X150097534Y-84565044D01*
X151077579Y-83585000D01*
X159234422Y-83585000D01*
X163256125Y-87606704D01*
X163239057Y-87780000D01*
X163266764Y-88061309D01*
X163348818Y-88331808D01*
X163482068Y-88581101D01*
X163661392Y-88799608D01*
X163879899Y-88978932D01*
X164012858Y-89050000D01*
X163879899Y-89121068D01*
X163661392Y-89300392D01*
X163550922Y-89435000D01*
X162507579Y-89435000D01*
X160257534Y-87184956D01*
X160229817Y-87151183D01*
X160095059Y-87040589D01*
X159941313Y-86958411D01*
X159774490Y-86907805D01*
X159644477Y-86895000D01*
X159644469Y-86895000D01*
X159601000Y-86890719D01*
X159557531Y-86895000D01*
X158191078Y-86895000D01*
X158080608Y-86760392D01*
X157967518Y-86667581D01*
X157985482Y-86665812D01*
X158105180Y-86629502D01*
X158215494Y-86570537D01*
X158312185Y-86491185D01*
X158391537Y-86394494D01*
X158450502Y-86284180D01*
X158486812Y-86164482D01*
X158499072Y-86040000D01*
X158499072Y-84440000D01*
X158486812Y-84315518D01*
X158450502Y-84195820D01*
X158391537Y-84085506D01*
X158312185Y-83988815D01*
X158215494Y-83909463D01*
X158105180Y-83850498D01*
X157985482Y-83814188D01*
X157861000Y-83801928D01*
X156261000Y-83801928D01*
X156136518Y-83814188D01*
X156016820Y-83850498D01*
X155906506Y-83909463D01*
X155809815Y-83988815D01*
X155730463Y-84085506D01*
X155671498Y-84195820D01*
X155635188Y-84315518D01*
X155622928Y-84440000D01*
X155622928Y-86040000D01*
X155635188Y-86164482D01*
X155671498Y-86284180D01*
X155730463Y-86394494D01*
X155809815Y-86491185D01*
X155906506Y-86570537D01*
X156016820Y-86629502D01*
X156136518Y-86665812D01*
X156154482Y-86667581D01*
X156041392Y-86760392D01*
X155930922Y-86895000D01*
X152024469Y-86895000D01*
X151981000Y-86890719D01*
X151937531Y-86895000D01*
X151937523Y-86895000D01*
X151807510Y-86907805D01*
X151640686Y-86958411D01*
X151486941Y-87040589D01*
X151385953Y-87123468D01*
X151385951Y-87123470D01*
X151352183Y-87151183D01*
X151324470Y-87184951D01*
X142495952Y-96013470D01*
X142462184Y-96041183D01*
X142434471Y-96074951D01*
X142434468Y-96074954D01*
X142351590Y-96175941D01*
X142269412Y-96329687D01*
X142218805Y-96496510D01*
X142201719Y-96670000D01*
X142206001Y-96713479D01*
X142206001Y-97602358D01*
X142066596Y-97676871D01*
X141787181Y-97906181D01*
X141557871Y-98185596D01*
X141387479Y-98504378D01*
X141282552Y-98850277D01*
X141247122Y-99210000D01*
X141282552Y-99569723D01*
X141387479Y-99915622D01*
X141557871Y-100234404D01*
X141787181Y-100513819D01*
X142066596Y-100743129D01*
X142206000Y-100817642D01*
X142206001Y-104991928D01*
X141891000Y-104991928D01*
X141766518Y-105004188D01*
X141646820Y-105040498D01*
X141536506Y-105099463D01*
X141439815Y-105178815D01*
X141360463Y-105275506D01*
X141301498Y-105385820D01*
X141265188Y-105505518D01*
X141252928Y-105630000D01*
X141252928Y-108030000D01*
X141265188Y-108154482D01*
X141301498Y-108274180D01*
X141360463Y-108384494D01*
X141439815Y-108481185D01*
X141536506Y-108560537D01*
X141646820Y-108619502D01*
X141766518Y-108655812D01*
X141891000Y-108668072D01*
X144291000Y-108668072D01*
X144415482Y-108655812D01*
X144535180Y-108619502D01*
X144645494Y-108560537D01*
X144742185Y-108481185D01*
X144821537Y-108384494D01*
X144880502Y-108274180D01*
X144916812Y-108154482D01*
X144929072Y-108030000D01*
X144929072Y-105630000D01*
X144916812Y-105505518D01*
X144880502Y-105385820D01*
X144821537Y-105275506D01*
X144742185Y-105178815D01*
X144645494Y-105099463D01*
X144535180Y-105040498D01*
X144415482Y-105004188D01*
X144291000Y-104991928D01*
X143976000Y-104991928D01*
X143976000Y-100817642D01*
X144115404Y-100743129D01*
X144394819Y-100513819D01*
X144624129Y-100234404D01*
X144794521Y-99915622D01*
X144899448Y-99569723D01*
X144934878Y-99210000D01*
X144899448Y-98850277D01*
X144794521Y-98504378D01*
X144624129Y-98185596D01*
X144394819Y-97906181D01*
X144115404Y-97676871D01*
X143976000Y-97602358D01*
X143976000Y-97036578D01*
X152347579Y-88665000D01*
X155930922Y-88665000D01*
X156041392Y-88799608D01*
X156259899Y-88978932D01*
X156392858Y-89050000D01*
X156259899Y-89121068D01*
X156041392Y-89300392D01*
X155862068Y-89518899D01*
X155728818Y-89768192D01*
X155646764Y-90038691D01*
X155619057Y-90320000D01*
X155646764Y-90601309D01*
X155728818Y-90871808D01*
X155862068Y-91121101D01*
X156041392Y-91339608D01*
X156259899Y-91518932D01*
X156392858Y-91590000D01*
X156259899Y-91661068D01*
X156041392Y-91840392D01*
X155862068Y-92058899D01*
X155728818Y-92308192D01*
X155646764Y-92578691D01*
X155619057Y-92860000D01*
X155646764Y-93141309D01*
X155728818Y-93411808D01*
X155862068Y-93661101D01*
X156041392Y-93879608D01*
X156259899Y-94058932D01*
X156509192Y-94192182D01*
X156779691Y-94274236D01*
X156990508Y-94295000D01*
X157131492Y-94295000D01*
X157342309Y-94274236D01*
X157612808Y-94192182D01*
X157862101Y-94058932D01*
X158080608Y-93879608D01*
X158259932Y-93661101D01*
X158393182Y-93411808D01*
X158475236Y-93141309D01*
X158502943Y-92860000D01*
X158475236Y-92578691D01*
X158393182Y-92308192D01*
X158259932Y-92058899D01*
X158080608Y-91840392D01*
X157862101Y-91661068D01*
X157729142Y-91590000D01*
X157862101Y-91518932D01*
X158080608Y-91339608D01*
X158259932Y-91121101D01*
X158393182Y-90871808D01*
X158475236Y-90601309D01*
X158502943Y-90320000D01*
X158475236Y-90038691D01*
X158393182Y-89768192D01*
X158259932Y-89518899D01*
X158080608Y-89300392D01*
X157862101Y-89121068D01*
X157729142Y-89050000D01*
X157862101Y-88978932D01*
X158080608Y-88799608D01*
X158191078Y-88665000D01*
X159234422Y-88665000D01*
X161484470Y-90915049D01*
X161512183Y-90948817D01*
X161545951Y-90976530D01*
X161545953Y-90976532D01*
X161617140Y-91034954D01*
X161646941Y-91059411D01*
X161800687Y-91141589D01*
X161967510Y-91192195D01*
X162097523Y-91205000D01*
X162097533Y-91205000D01*
X162140999Y-91209281D01*
X162184465Y-91205000D01*
X163550922Y-91205000D01*
X163661392Y-91339608D01*
X163879899Y-91518932D01*
X164012858Y-91590000D01*
X163879899Y-91661068D01*
X163661392Y-91840392D01*
X163482068Y-92058899D01*
X163348818Y-92308192D01*
X163266764Y-92578691D01*
X163239057Y-92860000D01*
X163266764Y-93141309D01*
X163348818Y-93411808D01*
X163482068Y-93661101D01*
X163661392Y-93879608D01*
X163796000Y-93990078D01*
X163796001Y-104991928D01*
X163481000Y-104991928D01*
X163356518Y-105004188D01*
X163236820Y-105040498D01*
X163126506Y-105099463D01*
X163029815Y-105178815D01*
X162950463Y-105275506D01*
X162891498Y-105385820D01*
X162855188Y-105505518D01*
X162842928Y-105630000D01*
X162842928Y-108030000D01*
X162855188Y-108154482D01*
X162891498Y-108274180D01*
X162950463Y-108384494D01*
X163029815Y-108481185D01*
X163126506Y-108560537D01*
X163236820Y-108619502D01*
X163356518Y-108655812D01*
X163481000Y-108668072D01*
X165881000Y-108668072D01*
X166005482Y-108655812D01*
X166125180Y-108619502D01*
X166235494Y-108560537D01*
X166332185Y-108481185D01*
X166411537Y-108384494D01*
X166470502Y-108274180D01*
X166506812Y-108154482D01*
X166519072Y-108030000D01*
X166519072Y-105630000D01*
X166506812Y-105505518D01*
X166470502Y-105385820D01*
X166411537Y-105275506D01*
X166332185Y-105178815D01*
X166235494Y-105099463D01*
X166125180Y-105040498D01*
X166005482Y-105004188D01*
X165881000Y-104991928D01*
X165566000Y-104991928D01*
X165566000Y-101334967D01*
X183112000Y-101334967D01*
X183112000Y-101657033D01*
X183174832Y-101972912D01*
X183298082Y-102270463D01*
X183477013Y-102538252D01*
X183704748Y-102765987D01*
X183972537Y-102944918D01*
X184270088Y-103068168D01*
X184585967Y-103131000D01*
X184908033Y-103131000D01*
X185223912Y-103068168D01*
X185521463Y-102944918D01*
X185789252Y-102765987D01*
X186016987Y-102538252D01*
X186195918Y-102270463D01*
X186319168Y-101972912D01*
X186382000Y-101657033D01*
X186382000Y-101334967D01*
X186319168Y-101019088D01*
X186195918Y-100721537D01*
X186016987Y-100453748D01*
X185789252Y-100226013D01*
X185521463Y-100047082D01*
X185223912Y-99923832D01*
X184908033Y-99861000D01*
X184585967Y-99861000D01*
X184270088Y-99923832D01*
X183972537Y-100047082D01*
X183704748Y-100226013D01*
X183477013Y-100453748D01*
X183298082Y-100721537D01*
X183174832Y-101019088D01*
X183112000Y-101334967D01*
X165566000Y-101334967D01*
X165566000Y-95011413D01*
X183791192Y-95011413D01*
X183886956Y-95275814D01*
X184176571Y-95416704D01*
X184488108Y-95498384D01*
X184809595Y-95517718D01*
X185128675Y-95473961D01*
X185433088Y-95368795D01*
X185607044Y-95275814D01*
X185702808Y-95011413D01*
X184747000Y-94055605D01*
X183791192Y-95011413D01*
X165566000Y-95011413D01*
X165566000Y-93990078D01*
X165628732Y-93938595D01*
X183105282Y-93938595D01*
X183149039Y-94257675D01*
X183254205Y-94562088D01*
X183347186Y-94736044D01*
X183611587Y-94831808D01*
X184567395Y-93876000D01*
X184926605Y-93876000D01*
X185882413Y-94831808D01*
X186146814Y-94736044D01*
X186287704Y-94446429D01*
X186369384Y-94134892D01*
X186388718Y-93813405D01*
X186344961Y-93494325D01*
X186239795Y-93189912D01*
X186146814Y-93015956D01*
X185882413Y-92920192D01*
X184926605Y-93876000D01*
X184567395Y-93876000D01*
X183611587Y-92920192D01*
X183347186Y-93015956D01*
X183206296Y-93305571D01*
X183124616Y-93617108D01*
X183105282Y-93938595D01*
X165628732Y-93938595D01*
X165700608Y-93879608D01*
X165879932Y-93661101D01*
X166013182Y-93411808D01*
X166095236Y-93141309D01*
X166122943Y-92860000D01*
X166111182Y-92740587D01*
X183791192Y-92740587D01*
X184747000Y-93696395D01*
X185702808Y-92740587D01*
X185607044Y-92476186D01*
X185317429Y-92335296D01*
X185005892Y-92253616D01*
X184684405Y-92234282D01*
X184365325Y-92278039D01*
X184060912Y-92383205D01*
X183886956Y-92476186D01*
X183791192Y-92740587D01*
X166111182Y-92740587D01*
X166095236Y-92578691D01*
X166013182Y-92308192D01*
X165879932Y-92058899D01*
X165700608Y-91840392D01*
X165482101Y-91661068D01*
X165349142Y-91590000D01*
X165482101Y-91518932D01*
X165700608Y-91339608D01*
X165879932Y-91121101D01*
X166013182Y-90871808D01*
X166095236Y-90601309D01*
X166122943Y-90320000D01*
X166095236Y-90038691D01*
X166013182Y-89768192D01*
X165879932Y-89518899D01*
X165700608Y-89300392D01*
X165482101Y-89121068D01*
X165349142Y-89050000D01*
X165482101Y-88978932D01*
X165700608Y-88799608D01*
X165879932Y-88581101D01*
X166013182Y-88331808D01*
X166095236Y-88061309D01*
X166122943Y-87780000D01*
X166095236Y-87498691D01*
X166013182Y-87228192D01*
X165879932Y-86978899D01*
X165700608Y-86760392D01*
X165482101Y-86581068D01*
X165349142Y-86510000D01*
X165482101Y-86438932D01*
X165700608Y-86259608D01*
X165879932Y-86041101D01*
X166013182Y-85791808D01*
X166095236Y-85521309D01*
X166122943Y-85240000D01*
X166095236Y-84958691D01*
X166013182Y-84688192D01*
X165879932Y-84438899D01*
X165700608Y-84220392D01*
X165566000Y-84109922D01*
X165566000Y-84013000D01*
X172594928Y-84013000D01*
X172594928Y-86213000D01*
X172607188Y-86337482D01*
X172643498Y-86457180D01*
X172702463Y-86567494D01*
X172781815Y-86664185D01*
X172878506Y-86743537D01*
X172988820Y-86802502D01*
X173108518Y-86838812D01*
X173233000Y-86851072D01*
X175433000Y-86851072D01*
X175557482Y-86838812D01*
X175677180Y-86802502D01*
X175787494Y-86743537D01*
X175884185Y-86664185D01*
X175963537Y-86567494D01*
X176022502Y-86457180D01*
X176058812Y-86337482D01*
X176071072Y-86213000D01*
X176071072Y-85113000D01*
X182749606Y-85113000D01*
X182783105Y-85453119D01*
X182882314Y-85780168D01*
X183043421Y-86081578D01*
X183260234Y-86345766D01*
X183524422Y-86562579D01*
X183825832Y-86723686D01*
X184152881Y-86822895D01*
X184407775Y-86848000D01*
X184578225Y-86848000D01*
X184833119Y-86822895D01*
X185160168Y-86723686D01*
X185461578Y-86562579D01*
X185725766Y-86345766D01*
X185942579Y-86081578D01*
X186103686Y-85780168D01*
X186202895Y-85453119D01*
X186236394Y-85113000D01*
X186202895Y-84772881D01*
X186103686Y-84445832D01*
X185942579Y-84144422D01*
X185725766Y-83880234D01*
X185461578Y-83663421D01*
X185160168Y-83502314D01*
X184833119Y-83403105D01*
X184578225Y-83378000D01*
X184407775Y-83378000D01*
X184152881Y-83403105D01*
X183825832Y-83502314D01*
X183524422Y-83663421D01*
X183260234Y-83880234D01*
X183043421Y-84144422D01*
X182882314Y-84445832D01*
X182783105Y-84772881D01*
X182749606Y-85113000D01*
X176071072Y-85113000D01*
X176071072Y-84013000D01*
X176058812Y-83888518D01*
X176022502Y-83768820D01*
X175963537Y-83658506D01*
X175884185Y-83561815D01*
X175787494Y-83482463D01*
X175677180Y-83423498D01*
X175557482Y-83387188D01*
X175433000Y-83374928D01*
X175218000Y-83374928D01*
X175218000Y-77223790D01*
X175311505Y-77161312D01*
X175525312Y-76947505D01*
X175693299Y-76696095D01*
X175809011Y-76416743D01*
X175868000Y-76120184D01*
X175868000Y-75817816D01*
X182958000Y-75817816D01*
X182958000Y-76120184D01*
X183016989Y-76416743D01*
X183132701Y-76696095D01*
X183300688Y-76947505D01*
X183514495Y-77161312D01*
X183765905Y-77329299D01*
X184045257Y-77445011D01*
X184341816Y-77504000D01*
X184644184Y-77504000D01*
X184940743Y-77445011D01*
X185220095Y-77329299D01*
X185471505Y-77161312D01*
X185685312Y-76947505D01*
X185853299Y-76696095D01*
X185969011Y-76416743D01*
X186028000Y-76120184D01*
X186028000Y-75817816D01*
X185969011Y-75521257D01*
X185853299Y-75241905D01*
X185685312Y-74990495D01*
X185471505Y-74776688D01*
X185220095Y-74608701D01*
X184940743Y-74492989D01*
X184644184Y-74434000D01*
X184341816Y-74434000D01*
X184045257Y-74492989D01*
X183765905Y-74608701D01*
X183514495Y-74776688D01*
X183300688Y-74990495D01*
X183132701Y-75241905D01*
X183016989Y-75521257D01*
X182958000Y-75817816D01*
X175868000Y-75817816D01*
X175809011Y-75521257D01*
X175693299Y-75241905D01*
X175525312Y-74990495D01*
X175311505Y-74776688D01*
X175060095Y-74608701D01*
X174780743Y-74492989D01*
X174484184Y-74434000D01*
X174181816Y-74434000D01*
X173885257Y-74492989D01*
X173605905Y-74608701D01*
X173354495Y-74776688D01*
X173140688Y-74990495D01*
X172972701Y-75241905D01*
X172856989Y-75521257D01*
X172798000Y-75817816D01*
X172798000Y-76120184D01*
X172856989Y-76416743D01*
X172972701Y-76696095D01*
X173140688Y-76947505D01*
X173354495Y-77161312D01*
X173448000Y-77223790D01*
X173448001Y-83374928D01*
X173233000Y-83374928D01*
X173108518Y-83387188D01*
X172988820Y-83423498D01*
X172878506Y-83482463D01*
X172781815Y-83561815D01*
X172702463Y-83658506D01*
X172643498Y-83768820D01*
X172607188Y-83888518D01*
X172594928Y-84013000D01*
X165566000Y-84013000D01*
X165566000Y-65647967D01*
X182858000Y-65647967D01*
X182858000Y-65970033D01*
X182920832Y-66285912D01*
X183044082Y-66583463D01*
X183223013Y-66851252D01*
X183450748Y-67078987D01*
X183718537Y-67257918D01*
X184016088Y-67381168D01*
X184331967Y-67444000D01*
X184654033Y-67444000D01*
X184969912Y-67381168D01*
X185267463Y-67257918D01*
X185535252Y-67078987D01*
X185734107Y-66880132D01*
X185794154Y-66929411D01*
X185947900Y-67011589D01*
X186114723Y-67062195D01*
X186244736Y-67075000D01*
X186244746Y-67075000D01*
X186288212Y-67079281D01*
X186331678Y-67075000D01*
X200245000Y-67075000D01*
X200245001Y-76306514D01*
X200245000Y-76306524D01*
X200245000Y-76306531D01*
X200240719Y-76350000D01*
X200245000Y-76393469D01*
X200245001Y-86466521D01*
X200240719Y-86510000D01*
X200257805Y-86683490D01*
X200308412Y-86850313D01*
X200390590Y-87004059D01*
X200473468Y-87105046D01*
X200473471Y-87105049D01*
X200501184Y-87138817D01*
X200534952Y-87166530D01*
X200593466Y-87225044D01*
X200621183Y-87258817D01*
X200755941Y-87369411D01*
X200909687Y-87451589D01*
X201076510Y-87502195D01*
X201206523Y-87515000D01*
X201206531Y-87515000D01*
X201250000Y-87519281D01*
X201293469Y-87515000D01*
X204834941Y-87515000D01*
X204940013Y-87672252D01*
X205147761Y-87880000D01*
X204940013Y-88087748D01*
X204761082Y-88355537D01*
X204637832Y-88653088D01*
X204575000Y-88968967D01*
X204575000Y-89291033D01*
X204637832Y-89606912D01*
X204761082Y-89904463D01*
X204940013Y-90172252D01*
X205147761Y-90380000D01*
X204940013Y-90587748D01*
X204834941Y-90745000D01*
X201393138Y-90745000D01*
X201303490Y-90717805D01*
X201130000Y-90700718D01*
X200972065Y-90716273D01*
X200956510Y-90717805D01*
X200905904Y-90733157D01*
X200789688Y-90768411D01*
X200635942Y-90850589D01*
X200635940Y-90850590D01*
X200635941Y-90850590D01*
X200501183Y-90961183D01*
X200390590Y-91095941D01*
X200308412Y-91249687D01*
X200257805Y-91416510D01*
X200240719Y-91590000D01*
X200245001Y-91633479D01*
X200245000Y-101706523D01*
X200240718Y-101750000D01*
X200257805Y-101923490D01*
X200308411Y-102090313D01*
X200390589Y-102244059D01*
X200501183Y-102378817D01*
X200635941Y-102489411D01*
X200789687Y-102571589D01*
X200956510Y-102622195D01*
X201130000Y-102639282D01*
X201173476Y-102635000D01*
X204834941Y-102635000D01*
X204940013Y-102792252D01*
X205167748Y-103019987D01*
X205435537Y-103198918D01*
X205733088Y-103322168D01*
X206048967Y-103385000D01*
X206371033Y-103385000D01*
X206686912Y-103322168D01*
X206984463Y-103198918D01*
X207252252Y-103019987D01*
X207479987Y-102792252D01*
X207658918Y-102524463D01*
X207782168Y-102226912D01*
X207845000Y-101911033D01*
X207845000Y-101588967D01*
X207782168Y-101273088D01*
X207658918Y-100975537D01*
X207479987Y-100707748D01*
X207252252Y-100480013D01*
X207155065Y-100415075D01*
X207165808Y-100385413D01*
X206210000Y-99429605D01*
X205254192Y-100385413D01*
X205264935Y-100415075D01*
X205167748Y-100480013D01*
X204940013Y-100707748D01*
X204834941Y-100865000D01*
X202015000Y-100865000D01*
X202015000Y-99312595D01*
X204568282Y-99312595D01*
X204612039Y-99631675D01*
X204717205Y-99936088D01*
X204810186Y-100110044D01*
X205074587Y-100205808D01*
X206030395Y-99250000D01*
X206389605Y-99250000D01*
X207345413Y-100205808D01*
X207609814Y-100110044D01*
X207750704Y-99820429D01*
X207832384Y-99508892D01*
X207851718Y-99187405D01*
X207807961Y-98868325D01*
X207702795Y-98563912D01*
X207609814Y-98389956D01*
X207345413Y-98294192D01*
X206389605Y-99250000D01*
X206030395Y-99250000D01*
X205074587Y-98294192D01*
X204810186Y-98389956D01*
X204669296Y-98679571D01*
X204587616Y-98991108D01*
X204568282Y-99312595D01*
X202015000Y-99312595D01*
X202015000Y-98114587D01*
X205254192Y-98114587D01*
X206210000Y-99070395D01*
X207165808Y-98114587D01*
X207070044Y-97850186D01*
X206780429Y-97709296D01*
X206468892Y-97627616D01*
X206147405Y-97608282D01*
X205828325Y-97652039D01*
X205523912Y-97757205D01*
X205349956Y-97850186D01*
X205254192Y-98114587D01*
X202015000Y-98114587D01*
X202015000Y-92515000D01*
X204834941Y-92515000D01*
X204940013Y-92672252D01*
X205147761Y-92880000D01*
X204940013Y-93087748D01*
X204761082Y-93355537D01*
X204637832Y-93653088D01*
X204575000Y-93968967D01*
X204575000Y-94291033D01*
X204637832Y-94606912D01*
X204761082Y-94904463D01*
X204940013Y-95172252D01*
X205167748Y-95399987D01*
X205435537Y-95578918D01*
X205733088Y-95702168D01*
X206048967Y-95765000D01*
X206371033Y-95765000D01*
X206686912Y-95702168D01*
X206984463Y-95578918D01*
X207252252Y-95399987D01*
X207479987Y-95172252D01*
X207658918Y-94904463D01*
X207782168Y-94606912D01*
X207845000Y-94291033D01*
X207845000Y-93968967D01*
X207782168Y-93653088D01*
X207658918Y-93355537D01*
X207479987Y-93087748D01*
X207272239Y-92880000D01*
X207479987Y-92672252D01*
X207658918Y-92404463D01*
X207782168Y-92106912D01*
X207845000Y-91791033D01*
X207845000Y-91468967D01*
X207782168Y-91153088D01*
X207658918Y-90855537D01*
X207479987Y-90587748D01*
X207272239Y-90380000D01*
X207479987Y-90172252D01*
X207658918Y-89904463D01*
X207782168Y-89606912D01*
X207845000Y-89291033D01*
X207845000Y-88968967D01*
X207782168Y-88653088D01*
X207658918Y-88355537D01*
X207479987Y-88087748D01*
X207272239Y-87880000D01*
X207479987Y-87672252D01*
X207658918Y-87404463D01*
X207782168Y-87106912D01*
X207845000Y-86791033D01*
X207845000Y-86468967D01*
X207782168Y-86153088D01*
X207658918Y-85855537D01*
X207479987Y-85587748D01*
X207252252Y-85360013D01*
X206984463Y-85181082D01*
X206686912Y-85057832D01*
X206371033Y-84995000D01*
X206048967Y-84995000D01*
X205733088Y-85057832D01*
X205435537Y-85181082D01*
X205167748Y-85360013D01*
X204940013Y-85587748D01*
X204834941Y-85745000D01*
X202015000Y-85745000D01*
X202015000Y-77315000D01*
X204834941Y-77315000D01*
X204940013Y-77472252D01*
X205147761Y-77680000D01*
X204940013Y-77887748D01*
X204761082Y-78155537D01*
X204637832Y-78453088D01*
X204575000Y-78768967D01*
X204575000Y-79091033D01*
X204637832Y-79406912D01*
X204761082Y-79704463D01*
X204940013Y-79972252D01*
X205147761Y-80180000D01*
X204940013Y-80387748D01*
X204761082Y-80655537D01*
X204637832Y-80953088D01*
X204575000Y-81268967D01*
X204575000Y-81591033D01*
X204637832Y-81906912D01*
X204761082Y-82204463D01*
X204940013Y-82472252D01*
X205167748Y-82699987D01*
X205435537Y-82878918D01*
X205733088Y-83002168D01*
X206048967Y-83065000D01*
X206371033Y-83065000D01*
X206686912Y-83002168D01*
X206984463Y-82878918D01*
X207252252Y-82699987D01*
X207479987Y-82472252D01*
X207658918Y-82204463D01*
X207782168Y-81906912D01*
X207845000Y-81591033D01*
X207845000Y-81268967D01*
X207782168Y-80953088D01*
X207658918Y-80655537D01*
X207479987Y-80387748D01*
X207272239Y-80180000D01*
X207479987Y-79972252D01*
X207658918Y-79704463D01*
X207782168Y-79406912D01*
X207845000Y-79091033D01*
X207845000Y-78768967D01*
X207782168Y-78453088D01*
X207658918Y-78155537D01*
X207479987Y-77887748D01*
X207272239Y-77680000D01*
X207479987Y-77472252D01*
X207658918Y-77204463D01*
X207782168Y-76906912D01*
X207845000Y-76591033D01*
X207845000Y-76268967D01*
X207782168Y-75953088D01*
X207658918Y-75655537D01*
X207479987Y-75387748D01*
X207252252Y-75160013D01*
X206984463Y-74981082D01*
X206686912Y-74857832D01*
X206371033Y-74795000D01*
X206048967Y-74795000D01*
X205733088Y-74857832D01*
X205435537Y-74981082D01*
X205167748Y-75160013D01*
X204940013Y-75387748D01*
X204834941Y-75545000D01*
X202015000Y-75545000D01*
X202015000Y-67075000D01*
X204781486Y-67075000D01*
X204940013Y-67312252D01*
X205147761Y-67520000D01*
X204940013Y-67727748D01*
X204761082Y-67995537D01*
X204637832Y-68293088D01*
X204575000Y-68608967D01*
X204575000Y-68931033D01*
X204637832Y-69246912D01*
X204761082Y-69544463D01*
X204940013Y-69812252D01*
X205147761Y-70020000D01*
X204940013Y-70227748D01*
X204761082Y-70495537D01*
X204637832Y-70793088D01*
X204575000Y-71108967D01*
X204575000Y-71431033D01*
X204637832Y-71746912D01*
X204761082Y-72044463D01*
X204940013Y-72312252D01*
X205167748Y-72539987D01*
X205435537Y-72718918D01*
X205733088Y-72842168D01*
X206048967Y-72905000D01*
X206371033Y-72905000D01*
X206686912Y-72842168D01*
X206984463Y-72718918D01*
X207252252Y-72539987D01*
X207479987Y-72312252D01*
X207658918Y-72044463D01*
X207782168Y-71746912D01*
X207845000Y-71431033D01*
X207845000Y-71108967D01*
X207782168Y-70793088D01*
X207658918Y-70495537D01*
X207479987Y-70227748D01*
X207272239Y-70020000D01*
X207479987Y-69812252D01*
X207658918Y-69544463D01*
X207782168Y-69246912D01*
X207845000Y-68931033D01*
X207845000Y-68608967D01*
X207782168Y-68293088D01*
X207658918Y-67995537D01*
X207479987Y-67727748D01*
X207272239Y-67520000D01*
X207479987Y-67312252D01*
X207658918Y-67044463D01*
X207782168Y-66746912D01*
X207845000Y-66431033D01*
X207845000Y-66108967D01*
X207782168Y-65793088D01*
X207658918Y-65495537D01*
X207479987Y-65227748D01*
X207252252Y-65000013D01*
X206984463Y-64821082D01*
X206686912Y-64697832D01*
X206371033Y-64635000D01*
X206048967Y-64635000D01*
X205733088Y-64697832D01*
X205435537Y-64821082D01*
X205167748Y-65000013D01*
X204940013Y-65227748D01*
X204888395Y-65305000D01*
X201173476Y-65305000D01*
X201130000Y-65300718D01*
X201086523Y-65305000D01*
X186654791Y-65305000D01*
X186563747Y-65213956D01*
X186536030Y-65180183D01*
X186401272Y-65069589D01*
X186247526Y-64987411D01*
X186080703Y-64936805D01*
X185950690Y-64924000D01*
X185950682Y-64924000D01*
X185907213Y-64919719D01*
X185867793Y-64923601D01*
X185762987Y-64766748D01*
X185535252Y-64539013D01*
X185267463Y-64360082D01*
X184969912Y-64236832D01*
X184654033Y-64174000D01*
X184331967Y-64174000D01*
X184016088Y-64236832D01*
X183718537Y-64360082D01*
X183450748Y-64539013D01*
X183223013Y-64766748D01*
X183044082Y-65034537D01*
X182920832Y-65332088D01*
X182858000Y-65647967D01*
X165566000Y-65647967D01*
X165566000Y-63693469D01*
X165570281Y-63650000D01*
X165566000Y-63606531D01*
X165566000Y-63606523D01*
X165553195Y-63476510D01*
X165502589Y-63309686D01*
X165420411Y-63155941D01*
X165337532Y-63054953D01*
X165337530Y-63054951D01*
X165309817Y-63021183D01*
X165276050Y-62993471D01*
X163231546Y-60948967D01*
X204575000Y-60948967D01*
X204575000Y-61271033D01*
X204637832Y-61586912D01*
X204761082Y-61884463D01*
X204940013Y-62152252D01*
X205167748Y-62379987D01*
X205435537Y-62558918D01*
X205733088Y-62682168D01*
X206048967Y-62745000D01*
X206371033Y-62745000D01*
X206686912Y-62682168D01*
X206984463Y-62558918D01*
X207252252Y-62379987D01*
X207479987Y-62152252D01*
X207658918Y-61884463D01*
X207782168Y-61586912D01*
X207845000Y-61271033D01*
X207845000Y-60948967D01*
X207782168Y-60633088D01*
X207658918Y-60335537D01*
X207479987Y-60067748D01*
X207252252Y-59840013D01*
X207155065Y-59775075D01*
X207165808Y-59745413D01*
X206210000Y-58789605D01*
X205254192Y-59745413D01*
X205264935Y-59775075D01*
X205167748Y-59840013D01*
X204940013Y-60067748D01*
X204761082Y-60335537D01*
X204637832Y-60633088D01*
X204575000Y-60948967D01*
X163231546Y-60948967D01*
X161606992Y-59324413D01*
X183537192Y-59324413D01*
X183632956Y-59588814D01*
X183922571Y-59729704D01*
X184234108Y-59811384D01*
X184555595Y-59830718D01*
X184874675Y-59786961D01*
X185179088Y-59681795D01*
X185353044Y-59588814D01*
X185448808Y-59324413D01*
X184493000Y-58368605D01*
X183537192Y-59324413D01*
X161606992Y-59324413D01*
X161527534Y-59244956D01*
X161499817Y-59211183D01*
X161365059Y-59100589D01*
X161211313Y-59018411D01*
X161044490Y-58967805D01*
X160914477Y-58955000D01*
X160914469Y-58955000D01*
X160871000Y-58950719D01*
X160827531Y-58955000D01*
X144706598Y-58955000D01*
X144516338Y-58670256D01*
X144260744Y-58414662D01*
X144016698Y-58251595D01*
X182851282Y-58251595D01*
X182895039Y-58570675D01*
X183000205Y-58875088D01*
X183093186Y-59049044D01*
X183357587Y-59144808D01*
X184313395Y-58189000D01*
X184672605Y-58189000D01*
X185628413Y-59144808D01*
X185892814Y-59049044D01*
X186033704Y-58759429D01*
X186056470Y-58672595D01*
X204568282Y-58672595D01*
X204612039Y-58991675D01*
X204717205Y-59296088D01*
X204810186Y-59470044D01*
X205074587Y-59565808D01*
X206030395Y-58610000D01*
X206389605Y-58610000D01*
X207345413Y-59565808D01*
X207609814Y-59470044D01*
X207750704Y-59180429D01*
X207832384Y-58868892D01*
X207851718Y-58547405D01*
X207807961Y-58228325D01*
X207702795Y-57923912D01*
X207609814Y-57749956D01*
X207345413Y-57654192D01*
X206389605Y-58610000D01*
X206030395Y-58610000D01*
X205074587Y-57654192D01*
X204810186Y-57749956D01*
X204669296Y-58039571D01*
X204587616Y-58351108D01*
X204568282Y-58672595D01*
X186056470Y-58672595D01*
X186115384Y-58447892D01*
X186134718Y-58126405D01*
X186090961Y-57807325D01*
X185985795Y-57502912D01*
X185970656Y-57474587D01*
X205254192Y-57474587D01*
X206210000Y-58430395D01*
X207165808Y-57474587D01*
X207070044Y-57210186D01*
X206780429Y-57069296D01*
X206468892Y-56987616D01*
X206147405Y-56968282D01*
X205828325Y-57012039D01*
X205523912Y-57117205D01*
X205349956Y-57210186D01*
X205254192Y-57474587D01*
X185970656Y-57474587D01*
X185892814Y-57328956D01*
X185628413Y-57233192D01*
X184672605Y-58189000D01*
X184313395Y-58189000D01*
X183357587Y-57233192D01*
X183093186Y-57328956D01*
X182952296Y-57618571D01*
X182870616Y-57930108D01*
X182851282Y-58251595D01*
X144016698Y-58251595D01*
X143960199Y-58213844D01*
X143626250Y-58075518D01*
X143271732Y-58005000D01*
X142910268Y-58005000D01*
X142555750Y-58075518D01*
X142221801Y-58213844D01*
X141921256Y-58414662D01*
X141665662Y-58670256D01*
X141475402Y-58955000D01*
X110368469Y-58955000D01*
X110325000Y-58950719D01*
X110281531Y-58955000D01*
X110281523Y-58955000D01*
X110151510Y-58967805D01*
X109984687Y-59018411D01*
X109830941Y-59100589D01*
X109729953Y-59183468D01*
X109729951Y-59183470D01*
X109696183Y-59211183D01*
X109668470Y-59244951D01*
X94362952Y-74550470D01*
X94329184Y-74578183D01*
X94301471Y-74611951D01*
X94301468Y-74611954D01*
X94218590Y-74712941D01*
X94136412Y-74866687D01*
X94085805Y-75033510D01*
X94068719Y-75207000D01*
X94073001Y-75250479D01*
X94073000Y-77801205D01*
X93709741Y-77951672D01*
X93278126Y-78240068D01*
X92911068Y-78607126D01*
X92622672Y-79038741D01*
X92424021Y-79518326D01*
X92322750Y-80027451D01*
X92322750Y-80546549D01*
X92424021Y-81055674D01*
X92574488Y-81418933D01*
X88012956Y-85980466D01*
X87979183Y-86008183D01*
X87868589Y-86142942D01*
X87786411Y-86296688D01*
X87751157Y-86412904D01*
X87737726Y-86457180D01*
X87735805Y-86463511D01*
X87723000Y-86593524D01*
X87723000Y-86593531D01*
X87718719Y-86637000D01*
X56477000Y-86637000D01*
X56477000Y-68164676D01*
X93289929Y-68164676D01*
X93506080Y-68531461D01*
X93965998Y-68772167D01*
X94464039Y-68918522D01*
X94981062Y-68964901D01*
X95497199Y-68909524D01*
X95992614Y-68754517D01*
X96409920Y-68531461D01*
X96626071Y-68164676D01*
X94958000Y-66496605D01*
X93289929Y-68164676D01*
X56477000Y-68164676D01*
X56477000Y-66340062D01*
X92310099Y-66340062D01*
X92365476Y-66856199D01*
X92520483Y-67351614D01*
X92743539Y-67768920D01*
X93110324Y-67985071D01*
X94778395Y-66317000D01*
X95137605Y-66317000D01*
X96805676Y-67985071D01*
X97172461Y-67768920D01*
X97413167Y-67309002D01*
X97559522Y-66810961D01*
X97605901Y-66293938D01*
X97550524Y-65777801D01*
X97395517Y-65282386D01*
X97172461Y-64865080D01*
X96805676Y-64648929D01*
X95137605Y-66317000D01*
X94778395Y-66317000D01*
X93110324Y-64648929D01*
X92743539Y-64865080D01*
X92502833Y-65324998D01*
X92356478Y-65823039D01*
X92310099Y-66340062D01*
X56477000Y-66340062D01*
X56477000Y-64469324D01*
X93289929Y-64469324D01*
X94958000Y-66137395D01*
X96626071Y-64469324D01*
X96409920Y-64102539D01*
X95950002Y-63861833D01*
X95451961Y-63715478D01*
X94934938Y-63669099D01*
X94418801Y-63724476D01*
X93923386Y-63879483D01*
X93506080Y-64102539D01*
X93289929Y-64469324D01*
X56477000Y-64469324D01*
X56477000Y-57053587D01*
X183537192Y-57053587D01*
X184493000Y-58009395D01*
X185448808Y-57053587D01*
X185353044Y-56789186D01*
X185063429Y-56648296D01*
X184751892Y-56566616D01*
X184430405Y-56547282D01*
X184111325Y-56591039D01*
X183806912Y-56696205D01*
X183632956Y-56789186D01*
X183537192Y-57053587D01*
X56477000Y-57053587D01*
X56477000Y-56157000D01*
X63970000Y-56157000D01*
X63994776Y-56154560D01*
X64018601Y-56147333D01*
X64040557Y-56135597D01*
X64059803Y-56119803D01*
X64075597Y-56100557D01*
X64087333Y-56078601D01*
X64094560Y-56054776D01*
X64097000Y-56030000D01*
X64097000Y-49807000D01*
X207353000Y-49807000D01*
X207353000Y-56030000D01*
X207353000Y-56030000D01*
G37*
X207353000Y-56030000D02*
X207355440Y-56054776D01*
X207362667Y-56078601D01*
X207374403Y-56100557D01*
X207390197Y-56119803D01*
X207409443Y-56135597D01*
X207431399Y-56147333D01*
X207455224Y-56154560D01*
X207480000Y-56157000D01*
X212433000Y-56157000D01*
X212433000Y-134643000D01*
X206210000Y-134643000D01*
X206185224Y-134645440D01*
X206161399Y-134652667D01*
X206139443Y-134664403D01*
X206120197Y-134680197D01*
X206104403Y-134699443D01*
X206092667Y-134721399D01*
X206085440Y-134745224D01*
X206083000Y-134770000D01*
X206083000Y-140993000D01*
X62827000Y-140993000D01*
X62827000Y-134770000D01*
X62824560Y-134745224D01*
X62817333Y-134721399D01*
X62805597Y-134699443D01*
X62789803Y-134680197D01*
X62770557Y-134664403D01*
X62748601Y-134652667D01*
X62724776Y-134645440D01*
X62700000Y-134643000D01*
X56477000Y-134643000D01*
X56477000Y-86637000D01*
X87718719Y-86637000D01*
X87723000Y-86680469D01*
X87723001Y-114533521D01*
X87718719Y-114577000D01*
X87735805Y-114750490D01*
X87786412Y-114917313D01*
X87868590Y-115071059D01*
X87951468Y-115172046D01*
X87951471Y-115172049D01*
X87979184Y-115205817D01*
X88012952Y-115233530D01*
X92574488Y-119795067D01*
X92424021Y-120158326D01*
X92322750Y-120667451D01*
X92322750Y-121186549D01*
X92424021Y-121695674D01*
X92622672Y-122175259D01*
X92911068Y-122606874D01*
X93278126Y-122973932D01*
X93709741Y-123262328D01*
X94189326Y-123460979D01*
X94698451Y-123562250D01*
X95217549Y-123562250D01*
X95726674Y-123460979D01*
X96206259Y-123262328D01*
X96637874Y-122973932D01*
X97004932Y-122606874D01*
X97293328Y-122175259D01*
X97491979Y-121695674D01*
X97593250Y-121186549D01*
X97593250Y-120667451D01*
X97491979Y-120158326D01*
X97293328Y-119678741D01*
X97004932Y-119247126D01*
X96637874Y-118880068D01*
X96206259Y-118591672D01*
X95726674Y-118393021D01*
X95217549Y-118291750D01*
X94698451Y-118291750D01*
X94189326Y-118393021D01*
X93826067Y-118543488D01*
X89493000Y-114210422D01*
X89493000Y-108804676D01*
X93289929Y-108804676D01*
X93506080Y-109171461D01*
X93965998Y-109412167D01*
X94464039Y-109558522D01*
X94981062Y-109604901D01*
X95497199Y-109549524D01*
X95992614Y-109394517D01*
X96409920Y-109171461D01*
X96626071Y-108804676D01*
X94958000Y-107136605D01*
X93289929Y-108804676D01*
X89493000Y-108804676D01*
X89493000Y-106980062D01*
X92310099Y-106980062D01*
X92365476Y-107496199D01*
X92520483Y-107991614D01*
X92743539Y-108408920D01*
X93110324Y-108625071D01*
X94778395Y-106957000D01*
X95137605Y-106957000D01*
X96805676Y-108625071D01*
X97172461Y-108408920D01*
X97413167Y-107949002D01*
X97559522Y-107450961D01*
X97605901Y-106933938D01*
X97550524Y-106417801D01*
X97395517Y-105922386D01*
X97172461Y-105505080D01*
X96805676Y-105288929D01*
X95137605Y-106957000D01*
X94778395Y-106957000D01*
X93110324Y-105288929D01*
X92743539Y-105505080D01*
X92502833Y-105964998D01*
X92356478Y-106463039D01*
X92310099Y-106980062D01*
X89493000Y-106980062D01*
X89493000Y-105109324D01*
X93289929Y-105109324D01*
X94958000Y-106777395D01*
X96626071Y-105109324D01*
X96409920Y-104742539D01*
X95950002Y-104501833D01*
X95451961Y-104355478D01*
X94934938Y-104309099D01*
X94418801Y-104364476D01*
X93923386Y-104519483D01*
X93506080Y-104742539D01*
X93289929Y-105109324D01*
X89493000Y-105109324D01*
X89493000Y-87003578D01*
X93826067Y-82670512D01*
X94189326Y-82820979D01*
X94698451Y-82922250D01*
X95217549Y-82922250D01*
X95726674Y-82820979D01*
X96206259Y-82622328D01*
X96637874Y-82333932D01*
X97004932Y-81966874D01*
X97293328Y-81535259D01*
X97491979Y-81055674D01*
X97593250Y-80546549D01*
X97593250Y-80027451D01*
X106292750Y-80027451D01*
X106292750Y-80546549D01*
X106394021Y-81055674D01*
X106592672Y-81535259D01*
X106881068Y-81966874D01*
X107248126Y-82333932D01*
X107679741Y-82622328D01*
X108043000Y-82772795D01*
X108043001Y-118441205D01*
X107679741Y-118591672D01*
X107248126Y-118880068D01*
X106881068Y-119247126D01*
X106592672Y-119678741D01*
X106394021Y-120158326D01*
X106292750Y-120667451D01*
X106292750Y-121186549D01*
X106394021Y-121695674D01*
X106592672Y-122175259D01*
X106881068Y-122606874D01*
X107248126Y-122973932D01*
X107679741Y-123262328D01*
X108043000Y-123412795D01*
X108043001Y-128503521D01*
X108038719Y-128547000D01*
X108055805Y-128720490D01*
X108106412Y-128887313D01*
X108188590Y-129041059D01*
X108271468Y-129142046D01*
X108271471Y-129142049D01*
X108299184Y-129175817D01*
X108332951Y-129203530D01*
X112081470Y-132952049D01*
X112109183Y-132985817D01*
X112142951Y-133013530D01*
X112142953Y-133013532D01*
X112243941Y-133096411D01*
X112397686Y-133178589D01*
X112564510Y-133229195D01*
X112694523Y-133242000D01*
X112694531Y-133242000D01*
X112738000Y-133246281D01*
X112781469Y-133242000D01*
X171669531Y-133242000D01*
X171713000Y-133246281D01*
X171756469Y-133242000D01*
X171756477Y-133242000D01*
X171886490Y-133229195D01*
X172053313Y-133178589D01*
X172207059Y-133096411D01*
X172341817Y-132985817D01*
X172369534Y-132952044D01*
X174928050Y-130393529D01*
X174961817Y-130365817D01*
X175072411Y-130231059D01*
X175072412Y-130231058D01*
X175154589Y-130077314D01*
X175205195Y-129910490D01*
X175205195Y-129910489D01*
X175218000Y-129780477D01*
X175218000Y-129780469D01*
X175222281Y-129737000D01*
X175218000Y-129693531D01*
X175218000Y-122411072D01*
X175433000Y-122411072D01*
X175557482Y-122398812D01*
X175677180Y-122362502D01*
X175787494Y-122303537D01*
X175884185Y-122224185D01*
X175963537Y-122127494D01*
X176022502Y-122017180D01*
X176058812Y-121897482D01*
X176071072Y-121773000D01*
X176071072Y-120800000D01*
X182380718Y-120800000D01*
X182397805Y-120973490D01*
X182448411Y-121140313D01*
X182530589Y-121294059D01*
X182641183Y-121428817D01*
X182775941Y-121539411D01*
X182929687Y-121621589D01*
X183059279Y-121660901D01*
X183260234Y-121905766D01*
X183524422Y-122122579D01*
X183825832Y-122283686D01*
X184152881Y-122382895D01*
X184407775Y-122408000D01*
X184578225Y-122408000D01*
X184833119Y-122382895D01*
X185160168Y-122283686D01*
X185461578Y-122122579D01*
X185725766Y-121905766D01*
X185942579Y-121641578D01*
X186103686Y-121340168D01*
X186202895Y-121013119D01*
X186236394Y-120673000D01*
X186202895Y-120332881D01*
X186103686Y-120005832D01*
X185942579Y-119704422D01*
X185725766Y-119440234D01*
X185461578Y-119223421D01*
X185160168Y-119062314D01*
X184833119Y-118963105D01*
X184578225Y-118938000D01*
X184407775Y-118938000D01*
X184152881Y-118963105D01*
X183825832Y-119062314D01*
X183524422Y-119223421D01*
X183260234Y-119440234D01*
X183043421Y-119704422D01*
X182883885Y-120002892D01*
X182775941Y-120060589D01*
X182641183Y-120171183D01*
X182530589Y-120305941D01*
X182448411Y-120459687D01*
X182397805Y-120626510D01*
X182380718Y-120800000D01*
X176071072Y-120800000D01*
X176071072Y-119573000D01*
X176058812Y-119448518D01*
X176022502Y-119328820D01*
X175963537Y-119218506D01*
X175884185Y-119121815D01*
X175787494Y-119042463D01*
X175677180Y-118983498D01*
X175557482Y-118947188D01*
X175472000Y-118938769D01*
X175472000Y-112910790D01*
X175565505Y-112848312D01*
X175779312Y-112634505D01*
X175947299Y-112383095D01*
X176063011Y-112103743D01*
X176122000Y-111807184D01*
X176122000Y-111504816D01*
X183212000Y-111504816D01*
X183212000Y-111807184D01*
X183270989Y-112103743D01*
X183386701Y-112383095D01*
X183554688Y-112634505D01*
X183768495Y-112848312D01*
X184019905Y-113016299D01*
X184299257Y-113132011D01*
X184595816Y-113191000D01*
X184898184Y-113191000D01*
X185194743Y-113132011D01*
X185474095Y-113016299D01*
X185725505Y-112848312D01*
X185939312Y-112634505D01*
X186107299Y-112383095D01*
X186223011Y-112103743D01*
X186282000Y-111807184D01*
X186282000Y-111504816D01*
X186223011Y-111208257D01*
X186107299Y-110928905D01*
X185939312Y-110677495D01*
X185725505Y-110463688D01*
X185474095Y-110295701D01*
X185194743Y-110179989D01*
X184898184Y-110121000D01*
X184595816Y-110121000D01*
X184299257Y-110179989D01*
X184019905Y-110295701D01*
X183768495Y-110463688D01*
X183554688Y-110677495D01*
X183386701Y-110928905D01*
X183270989Y-111208257D01*
X183212000Y-111504816D01*
X176122000Y-111504816D01*
X176063011Y-111208257D01*
X175947299Y-110928905D01*
X175779312Y-110677495D01*
X175565505Y-110463688D01*
X175314095Y-110295701D01*
X175034743Y-110179989D01*
X174738184Y-110121000D01*
X174435816Y-110121000D01*
X174139257Y-110179989D01*
X173859905Y-110295701D01*
X173608495Y-110463688D01*
X173394688Y-110677495D01*
X173226701Y-110928905D01*
X173110989Y-111208257D01*
X173052000Y-111504816D01*
X173052000Y-111807184D01*
X173110989Y-112103743D01*
X173226701Y-112383095D01*
X173394688Y-112634505D01*
X173608495Y-112848312D01*
X173702000Y-112910790D01*
X173702001Y-118934928D01*
X173233000Y-118934928D01*
X173108518Y-118947188D01*
X172988820Y-118983498D01*
X172878506Y-119042463D01*
X172781815Y-119121815D01*
X172702463Y-119218506D01*
X172643498Y-119328820D01*
X172607188Y-119448518D01*
X172594928Y-119573000D01*
X172594928Y-121773000D01*
X172607188Y-121897482D01*
X172643498Y-122017180D01*
X172702463Y-122127494D01*
X172781815Y-122224185D01*
X172878506Y-122303537D01*
X172988820Y-122362502D01*
X173108518Y-122398812D01*
X173233000Y-122411072D01*
X173448001Y-122411072D01*
X173448000Y-129370421D01*
X171346422Y-131472000D01*
X113104579Y-131472000D01*
X109813000Y-128180422D01*
X109813000Y-124830000D01*
X141247122Y-124830000D01*
X141282552Y-125189723D01*
X141387479Y-125535622D01*
X141557871Y-125854404D01*
X141787181Y-126133819D01*
X142066596Y-126363129D01*
X142385378Y-126533521D01*
X142731277Y-126638448D01*
X143000861Y-126665000D01*
X143181139Y-126665000D01*
X143450723Y-126638448D01*
X143796622Y-126533521D01*
X144115404Y-126363129D01*
X144394819Y-126133819D01*
X144624129Y-125854404D01*
X144794521Y-125535622D01*
X144899448Y-125189723D01*
X144934878Y-124830000D01*
X162837122Y-124830000D01*
X162872552Y-125189723D01*
X162977479Y-125535622D01*
X163147871Y-125854404D01*
X163377181Y-126133819D01*
X163656596Y-126363129D01*
X163975378Y-126533521D01*
X164321277Y-126638448D01*
X164590861Y-126665000D01*
X164771139Y-126665000D01*
X165040723Y-126638448D01*
X165386622Y-126533521D01*
X165705404Y-126363129D01*
X165984819Y-126133819D01*
X166214129Y-125854404D01*
X166384521Y-125535622D01*
X166489448Y-125189723D01*
X166524878Y-124830000D01*
X166489448Y-124470277D01*
X166384521Y-124124378D01*
X166214129Y-123805596D01*
X165984819Y-123526181D01*
X165705404Y-123296871D01*
X165386622Y-123126479D01*
X165040723Y-123021552D01*
X164771139Y-122995000D01*
X164590861Y-122995000D01*
X164321277Y-123021552D01*
X163975378Y-123126479D01*
X163656596Y-123296871D01*
X163377181Y-123526181D01*
X163147871Y-123805596D01*
X162977479Y-124124378D01*
X162872552Y-124470277D01*
X162837122Y-124830000D01*
X144934878Y-124830000D01*
X144899448Y-124470277D01*
X144794521Y-124124378D01*
X144624129Y-123805596D01*
X144394819Y-123526181D01*
X144115404Y-123296871D01*
X143796622Y-123126479D01*
X143450723Y-123021552D01*
X143181139Y-122995000D01*
X143000861Y-122995000D01*
X142731277Y-123021552D01*
X142385378Y-123126479D01*
X142066596Y-123296871D01*
X141787181Y-123526181D01*
X141557871Y-123805596D01*
X141387479Y-124124378D01*
X141282552Y-124470277D01*
X141247122Y-124830000D01*
X109813000Y-124830000D01*
X109813000Y-123412795D01*
X110176259Y-123262328D01*
X110607874Y-122973932D01*
X110974932Y-122606874D01*
X111263328Y-122175259D01*
X111461979Y-121695674D01*
X111563250Y-121186549D01*
X111563250Y-120667451D01*
X111461979Y-120158326D01*
X111263328Y-119678741D01*
X110974932Y-119247126D01*
X110607874Y-118880068D01*
X110176259Y-118591672D01*
X109813000Y-118441205D01*
X109813000Y-82772795D01*
X110176259Y-82622328D01*
X110607874Y-82333932D01*
X110974932Y-81966874D01*
X111263328Y-81535259D01*
X111461979Y-81055674D01*
X111563250Y-80546549D01*
X111563250Y-80027451D01*
X111461979Y-79518326D01*
X111263328Y-79038741D01*
X110974932Y-78607126D01*
X110607874Y-78240068D01*
X110176259Y-77951672D01*
X109696674Y-77753021D01*
X109187549Y-77651750D01*
X108668451Y-77651750D01*
X108159326Y-77753021D01*
X107679741Y-77951672D01*
X107248126Y-78240068D01*
X106881068Y-78607126D01*
X106592672Y-79038741D01*
X106394021Y-79518326D01*
X106292750Y-80027451D01*
X97593250Y-80027451D01*
X97491979Y-79518326D01*
X97293328Y-79038741D01*
X97004932Y-78607126D01*
X96637874Y-78240068D01*
X96206259Y-77951672D01*
X95843000Y-77801205D01*
X95843000Y-75573578D01*
X105359127Y-66057451D01*
X112642750Y-66057451D01*
X112642750Y-66576549D01*
X112744021Y-67085674D01*
X112942672Y-67565259D01*
X113231068Y-67996874D01*
X113598126Y-68363932D01*
X114029741Y-68652328D01*
X114393000Y-68802795D01*
X114393001Y-104471205D01*
X114029741Y-104621672D01*
X113598126Y-104910068D01*
X113231068Y-105277126D01*
X112942672Y-105708741D01*
X112744021Y-106188326D01*
X112642750Y-106697451D01*
X112642750Y-107216549D01*
X112744021Y-107725674D01*
X112942672Y-108205259D01*
X113231068Y-108636874D01*
X113598126Y-109003932D01*
X114029741Y-109292328D01*
X114509326Y-109490979D01*
X115018451Y-109592250D01*
X115537549Y-109592250D01*
X116046674Y-109490979D01*
X116526259Y-109292328D01*
X116957874Y-109003932D01*
X117324932Y-108636874D01*
X117613328Y-108205259D01*
X117811979Y-107725674D01*
X117913250Y-107216549D01*
X117913250Y-106697451D01*
X117811979Y-106188326D01*
X117613328Y-105708741D01*
X117324932Y-105277126D01*
X116957874Y-104910068D01*
X116526259Y-104621672D01*
X116163000Y-104471205D01*
X116163000Y-80027451D01*
X118992750Y-80027451D01*
X118992750Y-80546549D01*
X119094021Y-81055674D01*
X119292672Y-81535259D01*
X119581068Y-81966874D01*
X119948126Y-82333932D01*
X120379741Y-82622328D01*
X120743000Y-82772795D01*
X120743001Y-118441205D01*
X120379741Y-118591672D01*
X119948126Y-118880068D01*
X119581068Y-119247126D01*
X119292672Y-119678741D01*
X119094021Y-120158326D01*
X118992750Y-120667451D01*
X118992750Y-121186549D01*
X119094021Y-121695674D01*
X119292672Y-122175259D01*
X119581068Y-122606874D01*
X119948126Y-122973932D01*
X120379741Y-123262328D01*
X120859326Y-123460979D01*
X121368451Y-123562250D01*
X121887549Y-123562250D01*
X122396674Y-123460979D01*
X122876259Y-123262328D01*
X123307874Y-122973932D01*
X123674932Y-122606874D01*
X123963328Y-122175259D01*
X124161979Y-121695674D01*
X124263250Y-121186549D01*
X124263250Y-120667451D01*
X124161979Y-120158326D01*
X123963328Y-119678741D01*
X123674932Y-119247126D01*
X123307874Y-118880068D01*
X122876259Y-118591672D01*
X122513000Y-118441205D01*
X122513000Y-82772795D01*
X122876259Y-82622328D01*
X123307874Y-82333932D01*
X123674932Y-81966874D01*
X123963328Y-81535259D01*
X124161979Y-81055674D01*
X124263250Y-80546549D01*
X124263250Y-80027451D01*
X124161979Y-79518326D01*
X123963328Y-79038741D01*
X123674932Y-78607126D01*
X123307874Y-78240068D01*
X122876259Y-77951672D01*
X122396674Y-77753021D01*
X121887549Y-77651750D01*
X121368451Y-77651750D01*
X120859326Y-77753021D01*
X120379741Y-77951672D01*
X119948126Y-78240068D01*
X119581068Y-78607126D01*
X119292672Y-79038741D01*
X119094021Y-79518326D01*
X118992750Y-80027451D01*
X116163000Y-80027451D01*
X116163000Y-68802795D01*
X116526259Y-68652328D01*
X116957874Y-68363932D01*
X117324932Y-67996874D01*
X117613328Y-67565259D01*
X117811979Y-67085674D01*
X117913250Y-66576549D01*
X117913250Y-66057451D01*
X117811979Y-65548326D01*
X117613328Y-65068741D01*
X117324932Y-64637126D01*
X116957874Y-64270068D01*
X116526259Y-63981672D01*
X116046674Y-63783021D01*
X115537549Y-63681750D01*
X115018451Y-63681750D01*
X114509326Y-63783021D01*
X114029741Y-63981672D01*
X113598126Y-64270068D01*
X113231068Y-64637126D01*
X112942672Y-65068741D01*
X112744021Y-65548326D01*
X112642750Y-66057451D01*
X105359127Y-66057451D01*
X110691579Y-60725000D01*
X141475402Y-60725000D01*
X141665662Y-61009744D01*
X141921256Y-61265338D01*
X142221801Y-61466156D01*
X142555750Y-61604482D01*
X142910268Y-61675000D01*
X143271732Y-61675000D01*
X143626250Y-61604482D01*
X143960199Y-61466156D01*
X144260744Y-61265338D01*
X144516338Y-61009744D01*
X144706598Y-60725000D01*
X160504422Y-60725000D01*
X163796000Y-64016579D01*
X163796001Y-84109921D01*
X163661392Y-84220392D01*
X163482068Y-84438899D01*
X163348818Y-84688192D01*
X163266764Y-84958691D01*
X163252822Y-85100243D01*
X160257534Y-82104956D01*
X160229817Y-82071183D01*
X160095059Y-81960589D01*
X159941313Y-81878411D01*
X159774490Y-81827805D01*
X159644477Y-81815000D01*
X159644469Y-81815000D01*
X159601000Y-81810719D01*
X159557531Y-81815000D01*
X150754465Y-81815000D01*
X150710999Y-81810719D01*
X150667533Y-81815000D01*
X150667523Y-81815000D01*
X150537510Y-81827805D01*
X150370687Y-81878411D01*
X150216941Y-81960589D01*
X150216939Y-81960590D01*
X150216940Y-81960590D01*
X150115953Y-82043468D01*
X150115951Y-82043470D01*
X150082183Y-82071183D01*
X150054470Y-82104951D01*
X149074422Y-83085000D01*
X144706598Y-83085000D01*
X144516338Y-82800256D01*
X144260744Y-82544662D01*
X143976000Y-82354402D01*
X143976000Y-76687642D01*
X144115404Y-76613129D01*
X144394819Y-76383819D01*
X144624129Y-76104404D01*
X144794521Y-75785622D01*
X144899448Y-75439723D01*
X144934878Y-75080000D01*
X144899448Y-74720277D01*
X144794521Y-74374378D01*
X144624129Y-74055596D01*
X144394819Y-73776181D01*
X144115404Y-73546871D01*
X143796622Y-73376479D01*
X143450723Y-73271552D01*
X143181139Y-73245000D01*
X143000861Y-73245000D01*
X142731277Y-73271552D01*
X142385378Y-73376479D01*
X142066596Y-73546871D01*
X141787181Y-73776181D01*
X141557871Y-74055596D01*
X141387479Y-74374378D01*
X141282552Y-74720277D01*
X141247122Y-75080000D01*
X141282552Y-75439723D01*
X141387479Y-75785622D01*
X141557871Y-76104404D01*
X141787181Y-76383819D01*
X142066596Y-76613129D01*
X142206000Y-76687642D01*
X142206001Y-82354401D01*
X141921256Y-82544662D01*
X141665662Y-82800256D01*
X141464844Y-83100801D01*
X141326518Y-83434750D01*
X141256000Y-83789268D01*
X141256000Y-84150732D01*
X141326518Y-84505250D01*
X141464844Y-84839199D01*
X141665662Y-85139744D01*
X141921256Y-85395338D01*
X142221801Y-85596156D01*
X142555750Y-85734482D01*
X142910268Y-85805000D01*
X143271732Y-85805000D01*
X143626250Y-85734482D01*
X143960199Y-85596156D01*
X144260744Y-85395338D01*
X144516338Y-85139744D01*
X144706598Y-84855000D01*
X149397531Y-84855000D01*
X149441000Y-84859281D01*
X149484469Y-84855000D01*
X149484477Y-84855000D01*
X149614490Y-84842195D01*
X149781313Y-84791589D01*
X149935059Y-84709411D01*
X150069817Y-84598817D01*
X150097534Y-84565044D01*
X151077579Y-83585000D01*
X159234422Y-83585000D01*
X163256125Y-87606704D01*
X163239057Y-87780000D01*
X163266764Y-88061309D01*
X163348818Y-88331808D01*
X163482068Y-88581101D01*
X163661392Y-88799608D01*
X163879899Y-88978932D01*
X164012858Y-89050000D01*
X163879899Y-89121068D01*
X163661392Y-89300392D01*
X163550922Y-89435000D01*
X162507579Y-89435000D01*
X160257534Y-87184956D01*
X160229817Y-87151183D01*
X160095059Y-87040589D01*
X159941313Y-86958411D01*
X159774490Y-86907805D01*
X159644477Y-86895000D01*
X159644469Y-86895000D01*
X159601000Y-86890719D01*
X159557531Y-86895000D01*
X158191078Y-86895000D01*
X158080608Y-86760392D01*
X157967518Y-86667581D01*
X157985482Y-86665812D01*
X158105180Y-86629502D01*
X158215494Y-86570537D01*
X158312185Y-86491185D01*
X158391537Y-86394494D01*
X158450502Y-86284180D01*
X158486812Y-86164482D01*
X158499072Y-86040000D01*
X158499072Y-84440000D01*
X158486812Y-84315518D01*
X158450502Y-84195820D01*
X158391537Y-84085506D01*
X158312185Y-83988815D01*
X158215494Y-83909463D01*
X158105180Y-83850498D01*
X157985482Y-83814188D01*
X157861000Y-83801928D01*
X156261000Y-83801928D01*
X156136518Y-83814188D01*
X156016820Y-83850498D01*
X155906506Y-83909463D01*
X155809815Y-83988815D01*
X155730463Y-84085506D01*
X155671498Y-84195820D01*
X155635188Y-84315518D01*
X155622928Y-84440000D01*
X155622928Y-86040000D01*
X155635188Y-86164482D01*
X155671498Y-86284180D01*
X155730463Y-86394494D01*
X155809815Y-86491185D01*
X155906506Y-86570537D01*
X156016820Y-86629502D01*
X156136518Y-86665812D01*
X156154482Y-86667581D01*
X156041392Y-86760392D01*
X155930922Y-86895000D01*
X152024469Y-86895000D01*
X151981000Y-86890719D01*
X151937531Y-86895000D01*
X151937523Y-86895000D01*
X151807510Y-86907805D01*
X151640686Y-86958411D01*
X151486941Y-87040589D01*
X151385953Y-87123468D01*
X151385951Y-87123470D01*
X151352183Y-87151183D01*
X151324470Y-87184951D01*
X142495952Y-96013470D01*
X142462184Y-96041183D01*
X142434471Y-96074951D01*
X142434468Y-96074954D01*
X142351590Y-96175941D01*
X142269412Y-96329687D01*
X142218805Y-96496510D01*
X142201719Y-96670000D01*
X142206001Y-96713479D01*
X142206001Y-97602358D01*
X142066596Y-97676871D01*
X141787181Y-97906181D01*
X141557871Y-98185596D01*
X141387479Y-98504378D01*
X141282552Y-98850277D01*
X141247122Y-99210000D01*
X141282552Y-99569723D01*
X141387479Y-99915622D01*
X141557871Y-100234404D01*
X141787181Y-100513819D01*
X142066596Y-100743129D01*
X142206000Y-100817642D01*
X142206001Y-104991928D01*
X141891000Y-104991928D01*
X141766518Y-105004188D01*
X141646820Y-105040498D01*
X141536506Y-105099463D01*
X141439815Y-105178815D01*
X141360463Y-105275506D01*
X141301498Y-105385820D01*
X141265188Y-105505518D01*
X141252928Y-105630000D01*
X141252928Y-108030000D01*
X141265188Y-108154482D01*
X141301498Y-108274180D01*
X141360463Y-108384494D01*
X141439815Y-108481185D01*
X141536506Y-108560537D01*
X141646820Y-108619502D01*
X141766518Y-108655812D01*
X141891000Y-108668072D01*
X144291000Y-108668072D01*
X144415482Y-108655812D01*
X144535180Y-108619502D01*
X144645494Y-108560537D01*
X144742185Y-108481185D01*
X144821537Y-108384494D01*
X144880502Y-108274180D01*
X144916812Y-108154482D01*
X144929072Y-108030000D01*
X144929072Y-105630000D01*
X144916812Y-105505518D01*
X144880502Y-105385820D01*
X144821537Y-105275506D01*
X144742185Y-105178815D01*
X144645494Y-105099463D01*
X144535180Y-105040498D01*
X144415482Y-105004188D01*
X144291000Y-104991928D01*
X143976000Y-104991928D01*
X143976000Y-100817642D01*
X144115404Y-100743129D01*
X144394819Y-100513819D01*
X144624129Y-100234404D01*
X144794521Y-99915622D01*
X144899448Y-99569723D01*
X144934878Y-99210000D01*
X144899448Y-98850277D01*
X144794521Y-98504378D01*
X144624129Y-98185596D01*
X144394819Y-97906181D01*
X144115404Y-97676871D01*
X143976000Y-97602358D01*
X143976000Y-97036578D01*
X152347579Y-88665000D01*
X155930922Y-88665000D01*
X156041392Y-88799608D01*
X156259899Y-88978932D01*
X156392858Y-89050000D01*
X156259899Y-89121068D01*
X156041392Y-89300392D01*
X155862068Y-89518899D01*
X155728818Y-89768192D01*
X155646764Y-90038691D01*
X155619057Y-90320000D01*
X155646764Y-90601309D01*
X155728818Y-90871808D01*
X155862068Y-91121101D01*
X156041392Y-91339608D01*
X156259899Y-91518932D01*
X156392858Y-91590000D01*
X156259899Y-91661068D01*
X156041392Y-91840392D01*
X155862068Y-92058899D01*
X155728818Y-92308192D01*
X155646764Y-92578691D01*
X155619057Y-92860000D01*
X155646764Y-93141309D01*
X155728818Y-93411808D01*
X155862068Y-93661101D01*
X156041392Y-93879608D01*
X156259899Y-94058932D01*
X156509192Y-94192182D01*
X156779691Y-94274236D01*
X156990508Y-94295000D01*
X157131492Y-94295000D01*
X157342309Y-94274236D01*
X157612808Y-94192182D01*
X157862101Y-94058932D01*
X158080608Y-93879608D01*
X158259932Y-93661101D01*
X158393182Y-93411808D01*
X158475236Y-93141309D01*
X158502943Y-92860000D01*
X158475236Y-92578691D01*
X158393182Y-92308192D01*
X158259932Y-92058899D01*
X158080608Y-91840392D01*
X157862101Y-91661068D01*
X157729142Y-91590000D01*
X157862101Y-91518932D01*
X158080608Y-91339608D01*
X158259932Y-91121101D01*
X158393182Y-90871808D01*
X158475236Y-90601309D01*
X158502943Y-90320000D01*
X158475236Y-90038691D01*
X158393182Y-89768192D01*
X158259932Y-89518899D01*
X158080608Y-89300392D01*
X157862101Y-89121068D01*
X157729142Y-89050000D01*
X157862101Y-88978932D01*
X158080608Y-88799608D01*
X158191078Y-88665000D01*
X159234422Y-88665000D01*
X161484470Y-90915049D01*
X161512183Y-90948817D01*
X161545951Y-90976530D01*
X161545953Y-90976532D01*
X161617140Y-91034954D01*
X161646941Y-91059411D01*
X161800687Y-91141589D01*
X161967510Y-91192195D01*
X162097523Y-91205000D01*
X162097533Y-91205000D01*
X162140999Y-91209281D01*
X162184465Y-91205000D01*
X163550922Y-91205000D01*
X163661392Y-91339608D01*
X163879899Y-91518932D01*
X164012858Y-91590000D01*
X163879899Y-91661068D01*
X163661392Y-91840392D01*
X163482068Y-92058899D01*
X163348818Y-92308192D01*
X163266764Y-92578691D01*
X163239057Y-92860000D01*
X163266764Y-93141309D01*
X163348818Y-93411808D01*
X163482068Y-93661101D01*
X163661392Y-93879608D01*
X163796000Y-93990078D01*
X163796001Y-104991928D01*
X163481000Y-104991928D01*
X163356518Y-105004188D01*
X163236820Y-105040498D01*
X163126506Y-105099463D01*
X163029815Y-105178815D01*
X162950463Y-105275506D01*
X162891498Y-105385820D01*
X162855188Y-105505518D01*
X162842928Y-105630000D01*
X162842928Y-108030000D01*
X162855188Y-108154482D01*
X162891498Y-108274180D01*
X162950463Y-108384494D01*
X163029815Y-108481185D01*
X163126506Y-108560537D01*
X163236820Y-108619502D01*
X163356518Y-108655812D01*
X163481000Y-108668072D01*
X165881000Y-108668072D01*
X166005482Y-108655812D01*
X166125180Y-108619502D01*
X166235494Y-108560537D01*
X166332185Y-108481185D01*
X166411537Y-108384494D01*
X166470502Y-108274180D01*
X166506812Y-108154482D01*
X166519072Y-108030000D01*
X166519072Y-105630000D01*
X166506812Y-105505518D01*
X166470502Y-105385820D01*
X166411537Y-105275506D01*
X166332185Y-105178815D01*
X166235494Y-105099463D01*
X166125180Y-105040498D01*
X166005482Y-105004188D01*
X165881000Y-104991928D01*
X165566000Y-104991928D01*
X165566000Y-101334967D01*
X183112000Y-101334967D01*
X183112000Y-101657033D01*
X183174832Y-101972912D01*
X183298082Y-102270463D01*
X183477013Y-102538252D01*
X183704748Y-102765987D01*
X183972537Y-102944918D01*
X184270088Y-103068168D01*
X184585967Y-103131000D01*
X184908033Y-103131000D01*
X185223912Y-103068168D01*
X185521463Y-102944918D01*
X185789252Y-102765987D01*
X186016987Y-102538252D01*
X186195918Y-102270463D01*
X186319168Y-101972912D01*
X186382000Y-101657033D01*
X186382000Y-101334967D01*
X186319168Y-101019088D01*
X186195918Y-100721537D01*
X186016987Y-100453748D01*
X185789252Y-100226013D01*
X185521463Y-100047082D01*
X185223912Y-99923832D01*
X184908033Y-99861000D01*
X184585967Y-99861000D01*
X184270088Y-99923832D01*
X183972537Y-100047082D01*
X183704748Y-100226013D01*
X183477013Y-100453748D01*
X183298082Y-100721537D01*
X183174832Y-101019088D01*
X183112000Y-101334967D01*
X165566000Y-101334967D01*
X165566000Y-95011413D01*
X183791192Y-95011413D01*
X183886956Y-95275814D01*
X184176571Y-95416704D01*
X184488108Y-95498384D01*
X184809595Y-95517718D01*
X185128675Y-95473961D01*
X185433088Y-95368795D01*
X185607044Y-95275814D01*
X185702808Y-95011413D01*
X184747000Y-94055605D01*
X183791192Y-95011413D01*
X165566000Y-95011413D01*
X165566000Y-93990078D01*
X165628732Y-93938595D01*
X183105282Y-93938595D01*
X183149039Y-94257675D01*
X183254205Y-94562088D01*
X183347186Y-94736044D01*
X183611587Y-94831808D01*
X184567395Y-93876000D01*
X184926605Y-93876000D01*
X185882413Y-94831808D01*
X186146814Y-94736044D01*
X186287704Y-94446429D01*
X186369384Y-94134892D01*
X186388718Y-93813405D01*
X186344961Y-93494325D01*
X186239795Y-93189912D01*
X186146814Y-93015956D01*
X185882413Y-92920192D01*
X184926605Y-93876000D01*
X184567395Y-93876000D01*
X183611587Y-92920192D01*
X183347186Y-93015956D01*
X183206296Y-93305571D01*
X183124616Y-93617108D01*
X183105282Y-93938595D01*
X165628732Y-93938595D01*
X165700608Y-93879608D01*
X165879932Y-93661101D01*
X166013182Y-93411808D01*
X166095236Y-93141309D01*
X166122943Y-92860000D01*
X166111182Y-92740587D01*
X183791192Y-92740587D01*
X184747000Y-93696395D01*
X185702808Y-92740587D01*
X185607044Y-92476186D01*
X185317429Y-92335296D01*
X185005892Y-92253616D01*
X184684405Y-92234282D01*
X184365325Y-92278039D01*
X184060912Y-92383205D01*
X183886956Y-92476186D01*
X183791192Y-92740587D01*
X166111182Y-92740587D01*
X166095236Y-92578691D01*
X166013182Y-92308192D01*
X165879932Y-92058899D01*
X165700608Y-91840392D01*
X165482101Y-91661068D01*
X165349142Y-91590000D01*
X165482101Y-91518932D01*
X165700608Y-91339608D01*
X165879932Y-91121101D01*
X166013182Y-90871808D01*
X166095236Y-90601309D01*
X166122943Y-90320000D01*
X166095236Y-90038691D01*
X166013182Y-89768192D01*
X165879932Y-89518899D01*
X165700608Y-89300392D01*
X165482101Y-89121068D01*
X165349142Y-89050000D01*
X165482101Y-88978932D01*
X165700608Y-88799608D01*
X165879932Y-88581101D01*
X166013182Y-88331808D01*
X166095236Y-88061309D01*
X166122943Y-87780000D01*
X166095236Y-87498691D01*
X166013182Y-87228192D01*
X165879932Y-86978899D01*
X165700608Y-86760392D01*
X165482101Y-86581068D01*
X165349142Y-86510000D01*
X165482101Y-86438932D01*
X165700608Y-86259608D01*
X165879932Y-86041101D01*
X166013182Y-85791808D01*
X166095236Y-85521309D01*
X166122943Y-85240000D01*
X166095236Y-84958691D01*
X166013182Y-84688192D01*
X165879932Y-84438899D01*
X165700608Y-84220392D01*
X165566000Y-84109922D01*
X165566000Y-84013000D01*
X172594928Y-84013000D01*
X172594928Y-86213000D01*
X172607188Y-86337482D01*
X172643498Y-86457180D01*
X172702463Y-86567494D01*
X172781815Y-86664185D01*
X172878506Y-86743537D01*
X172988820Y-86802502D01*
X173108518Y-86838812D01*
X173233000Y-86851072D01*
X175433000Y-86851072D01*
X175557482Y-86838812D01*
X175677180Y-86802502D01*
X175787494Y-86743537D01*
X175884185Y-86664185D01*
X175963537Y-86567494D01*
X176022502Y-86457180D01*
X176058812Y-86337482D01*
X176071072Y-86213000D01*
X176071072Y-85113000D01*
X182749606Y-85113000D01*
X182783105Y-85453119D01*
X182882314Y-85780168D01*
X183043421Y-86081578D01*
X183260234Y-86345766D01*
X183524422Y-86562579D01*
X183825832Y-86723686D01*
X184152881Y-86822895D01*
X184407775Y-86848000D01*
X184578225Y-86848000D01*
X184833119Y-86822895D01*
X185160168Y-86723686D01*
X185461578Y-86562579D01*
X185725766Y-86345766D01*
X185942579Y-86081578D01*
X186103686Y-85780168D01*
X186202895Y-85453119D01*
X186236394Y-85113000D01*
X186202895Y-84772881D01*
X186103686Y-84445832D01*
X185942579Y-84144422D01*
X185725766Y-83880234D01*
X185461578Y-83663421D01*
X185160168Y-83502314D01*
X184833119Y-83403105D01*
X184578225Y-83378000D01*
X184407775Y-83378000D01*
X184152881Y-83403105D01*
X183825832Y-83502314D01*
X183524422Y-83663421D01*
X183260234Y-83880234D01*
X183043421Y-84144422D01*
X182882314Y-84445832D01*
X182783105Y-84772881D01*
X182749606Y-85113000D01*
X176071072Y-85113000D01*
X176071072Y-84013000D01*
X176058812Y-83888518D01*
X176022502Y-83768820D01*
X175963537Y-83658506D01*
X175884185Y-83561815D01*
X175787494Y-83482463D01*
X175677180Y-83423498D01*
X175557482Y-83387188D01*
X175433000Y-83374928D01*
X175218000Y-83374928D01*
X175218000Y-77223790D01*
X175311505Y-77161312D01*
X175525312Y-76947505D01*
X175693299Y-76696095D01*
X175809011Y-76416743D01*
X175868000Y-76120184D01*
X175868000Y-75817816D01*
X182958000Y-75817816D01*
X182958000Y-76120184D01*
X183016989Y-76416743D01*
X183132701Y-76696095D01*
X183300688Y-76947505D01*
X183514495Y-77161312D01*
X183765905Y-77329299D01*
X184045257Y-77445011D01*
X184341816Y-77504000D01*
X184644184Y-77504000D01*
X184940743Y-77445011D01*
X185220095Y-77329299D01*
X185471505Y-77161312D01*
X185685312Y-76947505D01*
X185853299Y-76696095D01*
X185969011Y-76416743D01*
X186028000Y-76120184D01*
X186028000Y-75817816D01*
X185969011Y-75521257D01*
X185853299Y-75241905D01*
X185685312Y-74990495D01*
X185471505Y-74776688D01*
X185220095Y-74608701D01*
X184940743Y-74492989D01*
X184644184Y-74434000D01*
X184341816Y-74434000D01*
X184045257Y-74492989D01*
X183765905Y-74608701D01*
X183514495Y-74776688D01*
X183300688Y-74990495D01*
X183132701Y-75241905D01*
X183016989Y-75521257D01*
X182958000Y-75817816D01*
X175868000Y-75817816D01*
X175809011Y-75521257D01*
X175693299Y-75241905D01*
X175525312Y-74990495D01*
X175311505Y-74776688D01*
X175060095Y-74608701D01*
X174780743Y-74492989D01*
X174484184Y-74434000D01*
X174181816Y-74434000D01*
X173885257Y-74492989D01*
X173605905Y-74608701D01*
X173354495Y-74776688D01*
X173140688Y-74990495D01*
X172972701Y-75241905D01*
X172856989Y-75521257D01*
X172798000Y-75817816D01*
X172798000Y-76120184D01*
X172856989Y-76416743D01*
X172972701Y-76696095D01*
X173140688Y-76947505D01*
X173354495Y-77161312D01*
X173448000Y-77223790D01*
X173448001Y-83374928D01*
X173233000Y-83374928D01*
X173108518Y-83387188D01*
X172988820Y-83423498D01*
X172878506Y-83482463D01*
X172781815Y-83561815D01*
X172702463Y-83658506D01*
X172643498Y-83768820D01*
X172607188Y-83888518D01*
X172594928Y-84013000D01*
X165566000Y-84013000D01*
X165566000Y-65647967D01*
X182858000Y-65647967D01*
X182858000Y-65970033D01*
X182920832Y-66285912D01*
X183044082Y-66583463D01*
X183223013Y-66851252D01*
X183450748Y-67078987D01*
X183718537Y-67257918D01*
X184016088Y-67381168D01*
X184331967Y-67444000D01*
X184654033Y-67444000D01*
X184969912Y-67381168D01*
X185267463Y-67257918D01*
X185535252Y-67078987D01*
X185734107Y-66880132D01*
X185794154Y-66929411D01*
X185947900Y-67011589D01*
X186114723Y-67062195D01*
X186244736Y-67075000D01*
X186244746Y-67075000D01*
X186288212Y-67079281D01*
X186331678Y-67075000D01*
X200245000Y-67075000D01*
X200245001Y-76306514D01*
X200245000Y-76306524D01*
X200245000Y-76306531D01*
X200240719Y-76350000D01*
X200245000Y-76393469D01*
X200245001Y-86466521D01*
X200240719Y-86510000D01*
X200257805Y-86683490D01*
X200308412Y-86850313D01*
X200390590Y-87004059D01*
X200473468Y-87105046D01*
X200473471Y-87105049D01*
X200501184Y-87138817D01*
X200534952Y-87166530D01*
X200593466Y-87225044D01*
X200621183Y-87258817D01*
X200755941Y-87369411D01*
X200909687Y-87451589D01*
X201076510Y-87502195D01*
X201206523Y-87515000D01*
X201206531Y-87515000D01*
X201250000Y-87519281D01*
X201293469Y-87515000D01*
X204834941Y-87515000D01*
X204940013Y-87672252D01*
X205147761Y-87880000D01*
X204940013Y-88087748D01*
X204761082Y-88355537D01*
X204637832Y-88653088D01*
X204575000Y-88968967D01*
X204575000Y-89291033D01*
X204637832Y-89606912D01*
X204761082Y-89904463D01*
X204940013Y-90172252D01*
X205147761Y-90380000D01*
X204940013Y-90587748D01*
X204834941Y-90745000D01*
X201393138Y-90745000D01*
X201303490Y-90717805D01*
X201130000Y-90700718D01*
X200972065Y-90716273D01*
X200956510Y-90717805D01*
X200905904Y-90733157D01*
X200789688Y-90768411D01*
X200635942Y-90850589D01*
X200635940Y-90850590D01*
X200635941Y-90850590D01*
X200501183Y-90961183D01*
X200390590Y-91095941D01*
X200308412Y-91249687D01*
X200257805Y-91416510D01*
X200240719Y-91590000D01*
X200245001Y-91633479D01*
X200245000Y-101706523D01*
X200240718Y-101750000D01*
X200257805Y-101923490D01*
X200308411Y-102090313D01*
X200390589Y-102244059D01*
X200501183Y-102378817D01*
X200635941Y-102489411D01*
X200789687Y-102571589D01*
X200956510Y-102622195D01*
X201130000Y-102639282D01*
X201173476Y-102635000D01*
X204834941Y-102635000D01*
X204940013Y-102792252D01*
X205167748Y-103019987D01*
X205435537Y-103198918D01*
X205733088Y-103322168D01*
X206048967Y-103385000D01*
X206371033Y-103385000D01*
X206686912Y-103322168D01*
X206984463Y-103198918D01*
X207252252Y-103019987D01*
X207479987Y-102792252D01*
X207658918Y-102524463D01*
X207782168Y-102226912D01*
X207845000Y-101911033D01*
X207845000Y-101588967D01*
X207782168Y-101273088D01*
X207658918Y-100975537D01*
X207479987Y-100707748D01*
X207252252Y-100480013D01*
X207155065Y-100415075D01*
X207165808Y-100385413D01*
X206210000Y-99429605D01*
X205254192Y-100385413D01*
X205264935Y-100415075D01*
X205167748Y-100480013D01*
X204940013Y-100707748D01*
X204834941Y-100865000D01*
X202015000Y-100865000D01*
X202015000Y-99312595D01*
X204568282Y-99312595D01*
X204612039Y-99631675D01*
X204717205Y-99936088D01*
X204810186Y-100110044D01*
X205074587Y-100205808D01*
X206030395Y-99250000D01*
X206389605Y-99250000D01*
X207345413Y-100205808D01*
X207609814Y-100110044D01*
X207750704Y-99820429D01*
X207832384Y-99508892D01*
X207851718Y-99187405D01*
X207807961Y-98868325D01*
X207702795Y-98563912D01*
X207609814Y-98389956D01*
X207345413Y-98294192D01*
X206389605Y-99250000D01*
X206030395Y-99250000D01*
X205074587Y-98294192D01*
X204810186Y-98389956D01*
X204669296Y-98679571D01*
X204587616Y-98991108D01*
X204568282Y-99312595D01*
X202015000Y-99312595D01*
X202015000Y-98114587D01*
X205254192Y-98114587D01*
X206210000Y-99070395D01*
X207165808Y-98114587D01*
X207070044Y-97850186D01*
X206780429Y-97709296D01*
X206468892Y-97627616D01*
X206147405Y-97608282D01*
X205828325Y-97652039D01*
X205523912Y-97757205D01*
X205349956Y-97850186D01*
X205254192Y-98114587D01*
X202015000Y-98114587D01*
X202015000Y-92515000D01*
X204834941Y-92515000D01*
X204940013Y-92672252D01*
X205147761Y-92880000D01*
X204940013Y-93087748D01*
X204761082Y-93355537D01*
X204637832Y-93653088D01*
X204575000Y-93968967D01*
X204575000Y-94291033D01*
X204637832Y-94606912D01*
X204761082Y-94904463D01*
X204940013Y-95172252D01*
X205167748Y-95399987D01*
X205435537Y-95578918D01*
X205733088Y-95702168D01*
X206048967Y-95765000D01*
X206371033Y-95765000D01*
X206686912Y-95702168D01*
X206984463Y-95578918D01*
X207252252Y-95399987D01*
X207479987Y-95172252D01*
X207658918Y-94904463D01*
X207782168Y-94606912D01*
X207845000Y-94291033D01*
X207845000Y-93968967D01*
X207782168Y-93653088D01*
X207658918Y-93355537D01*
X207479987Y-93087748D01*
X207272239Y-92880000D01*
X207479987Y-92672252D01*
X207658918Y-92404463D01*
X207782168Y-92106912D01*
X207845000Y-91791033D01*
X207845000Y-91468967D01*
X207782168Y-91153088D01*
X207658918Y-90855537D01*
X207479987Y-90587748D01*
X207272239Y-90380000D01*
X207479987Y-90172252D01*
X207658918Y-89904463D01*
X207782168Y-89606912D01*
X207845000Y-89291033D01*
X207845000Y-88968967D01*
X207782168Y-88653088D01*
X207658918Y-88355537D01*
X207479987Y-88087748D01*
X207272239Y-87880000D01*
X207479987Y-87672252D01*
X207658918Y-87404463D01*
X207782168Y-87106912D01*
X207845000Y-86791033D01*
X207845000Y-86468967D01*
X207782168Y-86153088D01*
X207658918Y-85855537D01*
X207479987Y-85587748D01*
X207252252Y-85360013D01*
X206984463Y-85181082D01*
X206686912Y-85057832D01*
X206371033Y-84995000D01*
X206048967Y-84995000D01*
X205733088Y-85057832D01*
X205435537Y-85181082D01*
X205167748Y-85360013D01*
X204940013Y-85587748D01*
X204834941Y-85745000D01*
X202015000Y-85745000D01*
X202015000Y-77315000D01*
X204834941Y-77315000D01*
X204940013Y-77472252D01*
X205147761Y-77680000D01*
X204940013Y-77887748D01*
X204761082Y-78155537D01*
X204637832Y-78453088D01*
X204575000Y-78768967D01*
X204575000Y-79091033D01*
X204637832Y-79406912D01*
X204761082Y-79704463D01*
X204940013Y-79972252D01*
X205147761Y-80180000D01*
X204940013Y-80387748D01*
X204761082Y-80655537D01*
X204637832Y-80953088D01*
X204575000Y-81268967D01*
X204575000Y-81591033D01*
X204637832Y-81906912D01*
X204761082Y-82204463D01*
X204940013Y-82472252D01*
X205167748Y-82699987D01*
X205435537Y-82878918D01*
X205733088Y-83002168D01*
X206048967Y-83065000D01*
X206371033Y-83065000D01*
X206686912Y-83002168D01*
X206984463Y-82878918D01*
X207252252Y-82699987D01*
X207479987Y-82472252D01*
X207658918Y-82204463D01*
X207782168Y-81906912D01*
X207845000Y-81591033D01*
X207845000Y-81268967D01*
X207782168Y-80953088D01*
X207658918Y-80655537D01*
X207479987Y-80387748D01*
X207272239Y-80180000D01*
X207479987Y-79972252D01*
X207658918Y-79704463D01*
X207782168Y-79406912D01*
X207845000Y-79091033D01*
X207845000Y-78768967D01*
X207782168Y-78453088D01*
X207658918Y-78155537D01*
X207479987Y-77887748D01*
X207272239Y-77680000D01*
X207479987Y-77472252D01*
X207658918Y-77204463D01*
X207782168Y-76906912D01*
X207845000Y-76591033D01*
X207845000Y-76268967D01*
X207782168Y-75953088D01*
X207658918Y-75655537D01*
X207479987Y-75387748D01*
X207252252Y-75160013D01*
X206984463Y-74981082D01*
X206686912Y-74857832D01*
X206371033Y-74795000D01*
X206048967Y-74795000D01*
X205733088Y-74857832D01*
X205435537Y-74981082D01*
X205167748Y-75160013D01*
X204940013Y-75387748D01*
X204834941Y-75545000D01*
X202015000Y-75545000D01*
X202015000Y-67075000D01*
X204781486Y-67075000D01*
X204940013Y-67312252D01*
X205147761Y-67520000D01*
X204940013Y-67727748D01*
X204761082Y-67995537D01*
X204637832Y-68293088D01*
X204575000Y-68608967D01*
X204575000Y-68931033D01*
X204637832Y-69246912D01*
X204761082Y-69544463D01*
X204940013Y-69812252D01*
X205147761Y-70020000D01*
X204940013Y-70227748D01*
X204761082Y-70495537D01*
X204637832Y-70793088D01*
X204575000Y-71108967D01*
X204575000Y-71431033D01*
X204637832Y-71746912D01*
X204761082Y-72044463D01*
X204940013Y-72312252D01*
X205167748Y-72539987D01*
X205435537Y-72718918D01*
X205733088Y-72842168D01*
X206048967Y-72905000D01*
X206371033Y-72905000D01*
X206686912Y-72842168D01*
X206984463Y-72718918D01*
X207252252Y-72539987D01*
X207479987Y-72312252D01*
X207658918Y-72044463D01*
X207782168Y-71746912D01*
X207845000Y-71431033D01*
X207845000Y-71108967D01*
X207782168Y-70793088D01*
X207658918Y-70495537D01*
X207479987Y-70227748D01*
X207272239Y-70020000D01*
X207479987Y-69812252D01*
X207658918Y-69544463D01*
X207782168Y-69246912D01*
X207845000Y-68931033D01*
X207845000Y-68608967D01*
X207782168Y-68293088D01*
X207658918Y-67995537D01*
X207479987Y-67727748D01*
X207272239Y-67520000D01*
X207479987Y-67312252D01*
X207658918Y-67044463D01*
X207782168Y-66746912D01*
X207845000Y-66431033D01*
X207845000Y-66108967D01*
X207782168Y-65793088D01*
X207658918Y-65495537D01*
X207479987Y-65227748D01*
X207252252Y-65000013D01*
X206984463Y-64821082D01*
X206686912Y-64697832D01*
X206371033Y-64635000D01*
X206048967Y-64635000D01*
X205733088Y-64697832D01*
X205435537Y-64821082D01*
X205167748Y-65000013D01*
X204940013Y-65227748D01*
X204888395Y-65305000D01*
X201173476Y-65305000D01*
X201130000Y-65300718D01*
X201086523Y-65305000D01*
X186654791Y-65305000D01*
X186563747Y-65213956D01*
X186536030Y-65180183D01*
X186401272Y-65069589D01*
X186247526Y-64987411D01*
X186080703Y-64936805D01*
X185950690Y-64924000D01*
X185950682Y-64924000D01*
X185907213Y-64919719D01*
X185867793Y-64923601D01*
X185762987Y-64766748D01*
X185535252Y-64539013D01*
X185267463Y-64360082D01*
X184969912Y-64236832D01*
X184654033Y-64174000D01*
X184331967Y-64174000D01*
X184016088Y-64236832D01*
X183718537Y-64360082D01*
X183450748Y-64539013D01*
X183223013Y-64766748D01*
X183044082Y-65034537D01*
X182920832Y-65332088D01*
X182858000Y-65647967D01*
X165566000Y-65647967D01*
X165566000Y-63693469D01*
X165570281Y-63650000D01*
X165566000Y-63606531D01*
X165566000Y-63606523D01*
X165553195Y-63476510D01*
X165502589Y-63309686D01*
X165420411Y-63155941D01*
X165337532Y-63054953D01*
X165337530Y-63054951D01*
X165309817Y-63021183D01*
X165276050Y-62993471D01*
X163231546Y-60948967D01*
X204575000Y-60948967D01*
X204575000Y-61271033D01*
X204637832Y-61586912D01*
X204761082Y-61884463D01*
X204940013Y-62152252D01*
X205167748Y-62379987D01*
X205435537Y-62558918D01*
X205733088Y-62682168D01*
X206048967Y-62745000D01*
X206371033Y-62745000D01*
X206686912Y-62682168D01*
X206984463Y-62558918D01*
X207252252Y-62379987D01*
X207479987Y-62152252D01*
X207658918Y-61884463D01*
X207782168Y-61586912D01*
X207845000Y-61271033D01*
X207845000Y-60948967D01*
X207782168Y-60633088D01*
X207658918Y-60335537D01*
X207479987Y-60067748D01*
X207252252Y-59840013D01*
X207155065Y-59775075D01*
X207165808Y-59745413D01*
X206210000Y-58789605D01*
X205254192Y-59745413D01*
X205264935Y-59775075D01*
X205167748Y-59840013D01*
X204940013Y-60067748D01*
X204761082Y-60335537D01*
X204637832Y-60633088D01*
X204575000Y-60948967D01*
X163231546Y-60948967D01*
X161606992Y-59324413D01*
X183537192Y-59324413D01*
X183632956Y-59588814D01*
X183922571Y-59729704D01*
X184234108Y-59811384D01*
X184555595Y-59830718D01*
X184874675Y-59786961D01*
X185179088Y-59681795D01*
X185353044Y-59588814D01*
X185448808Y-59324413D01*
X184493000Y-58368605D01*
X183537192Y-59324413D01*
X161606992Y-59324413D01*
X161527534Y-59244956D01*
X161499817Y-59211183D01*
X161365059Y-59100589D01*
X161211313Y-59018411D01*
X161044490Y-58967805D01*
X160914477Y-58955000D01*
X160914469Y-58955000D01*
X160871000Y-58950719D01*
X160827531Y-58955000D01*
X144706598Y-58955000D01*
X144516338Y-58670256D01*
X144260744Y-58414662D01*
X144016698Y-58251595D01*
X182851282Y-58251595D01*
X182895039Y-58570675D01*
X183000205Y-58875088D01*
X183093186Y-59049044D01*
X183357587Y-59144808D01*
X184313395Y-58189000D01*
X184672605Y-58189000D01*
X185628413Y-59144808D01*
X185892814Y-59049044D01*
X186033704Y-58759429D01*
X186056470Y-58672595D01*
X204568282Y-58672595D01*
X204612039Y-58991675D01*
X204717205Y-59296088D01*
X204810186Y-59470044D01*
X205074587Y-59565808D01*
X206030395Y-58610000D01*
X206389605Y-58610000D01*
X207345413Y-59565808D01*
X207609814Y-59470044D01*
X207750704Y-59180429D01*
X207832384Y-58868892D01*
X207851718Y-58547405D01*
X207807961Y-58228325D01*
X207702795Y-57923912D01*
X207609814Y-57749956D01*
X207345413Y-57654192D01*
X206389605Y-58610000D01*
X206030395Y-58610000D01*
X205074587Y-57654192D01*
X204810186Y-57749956D01*
X204669296Y-58039571D01*
X204587616Y-58351108D01*
X204568282Y-58672595D01*
X186056470Y-58672595D01*
X186115384Y-58447892D01*
X186134718Y-58126405D01*
X186090961Y-57807325D01*
X185985795Y-57502912D01*
X185970656Y-57474587D01*
X205254192Y-57474587D01*
X206210000Y-58430395D01*
X207165808Y-57474587D01*
X207070044Y-57210186D01*
X206780429Y-57069296D01*
X206468892Y-56987616D01*
X206147405Y-56968282D01*
X205828325Y-57012039D01*
X205523912Y-57117205D01*
X205349956Y-57210186D01*
X205254192Y-57474587D01*
X185970656Y-57474587D01*
X185892814Y-57328956D01*
X185628413Y-57233192D01*
X184672605Y-58189000D01*
X184313395Y-58189000D01*
X183357587Y-57233192D01*
X183093186Y-57328956D01*
X182952296Y-57618571D01*
X182870616Y-57930108D01*
X182851282Y-58251595D01*
X144016698Y-58251595D01*
X143960199Y-58213844D01*
X143626250Y-58075518D01*
X143271732Y-58005000D01*
X142910268Y-58005000D01*
X142555750Y-58075518D01*
X142221801Y-58213844D01*
X141921256Y-58414662D01*
X141665662Y-58670256D01*
X141475402Y-58955000D01*
X110368469Y-58955000D01*
X110325000Y-58950719D01*
X110281531Y-58955000D01*
X110281523Y-58955000D01*
X110151510Y-58967805D01*
X109984687Y-59018411D01*
X109830941Y-59100589D01*
X109729953Y-59183468D01*
X109729951Y-59183470D01*
X109696183Y-59211183D01*
X109668470Y-59244951D01*
X94362952Y-74550470D01*
X94329184Y-74578183D01*
X94301471Y-74611951D01*
X94301468Y-74611954D01*
X94218590Y-74712941D01*
X94136412Y-74866687D01*
X94085805Y-75033510D01*
X94068719Y-75207000D01*
X94073001Y-75250479D01*
X94073000Y-77801205D01*
X93709741Y-77951672D01*
X93278126Y-78240068D01*
X92911068Y-78607126D01*
X92622672Y-79038741D01*
X92424021Y-79518326D01*
X92322750Y-80027451D01*
X92322750Y-80546549D01*
X92424021Y-81055674D01*
X92574488Y-81418933D01*
X88012956Y-85980466D01*
X87979183Y-86008183D01*
X87868589Y-86142942D01*
X87786411Y-86296688D01*
X87751157Y-86412904D01*
X87737726Y-86457180D01*
X87735805Y-86463511D01*
X87723000Y-86593524D01*
X87723000Y-86593531D01*
X87718719Y-86637000D01*
X56477000Y-86637000D01*
X56477000Y-68164676D01*
X93289929Y-68164676D01*
X93506080Y-68531461D01*
X93965998Y-68772167D01*
X94464039Y-68918522D01*
X94981062Y-68964901D01*
X95497199Y-68909524D01*
X95992614Y-68754517D01*
X96409920Y-68531461D01*
X96626071Y-68164676D01*
X94958000Y-66496605D01*
X93289929Y-68164676D01*
X56477000Y-68164676D01*
X56477000Y-66340062D01*
X92310099Y-66340062D01*
X92365476Y-66856199D01*
X92520483Y-67351614D01*
X92743539Y-67768920D01*
X93110324Y-67985071D01*
X94778395Y-66317000D01*
X95137605Y-66317000D01*
X96805676Y-67985071D01*
X97172461Y-67768920D01*
X97413167Y-67309002D01*
X97559522Y-66810961D01*
X97605901Y-66293938D01*
X97550524Y-65777801D01*
X97395517Y-65282386D01*
X97172461Y-64865080D01*
X96805676Y-64648929D01*
X95137605Y-66317000D01*
X94778395Y-66317000D01*
X93110324Y-64648929D01*
X92743539Y-64865080D01*
X92502833Y-65324998D01*
X92356478Y-65823039D01*
X92310099Y-66340062D01*
X56477000Y-66340062D01*
X56477000Y-64469324D01*
X93289929Y-64469324D01*
X94958000Y-66137395D01*
X96626071Y-64469324D01*
X96409920Y-64102539D01*
X95950002Y-63861833D01*
X95451961Y-63715478D01*
X94934938Y-63669099D01*
X94418801Y-63724476D01*
X93923386Y-63879483D01*
X93506080Y-64102539D01*
X93289929Y-64469324D01*
X56477000Y-64469324D01*
X56477000Y-57053587D01*
X183537192Y-57053587D01*
X184493000Y-58009395D01*
X185448808Y-57053587D01*
X185353044Y-56789186D01*
X185063429Y-56648296D01*
X184751892Y-56566616D01*
X184430405Y-56547282D01*
X184111325Y-56591039D01*
X183806912Y-56696205D01*
X183632956Y-56789186D01*
X183537192Y-57053587D01*
X56477000Y-57053587D01*
X56477000Y-56157000D01*
X63970000Y-56157000D01*
X63994776Y-56154560D01*
X64018601Y-56147333D01*
X64040557Y-56135597D01*
X64059803Y-56119803D01*
X64075597Y-56100557D01*
X64087333Y-56078601D01*
X64094560Y-56054776D01*
X64097000Y-56030000D01*
X64097000Y-49807000D01*
X207353000Y-49807000D01*
X207353000Y-56030000D01*
M02*
