G04 #@! TF.GenerationSoftware,KiCad,Pcbnew,(5.1.4)-1*
G04 #@! TF.CreationDate,2019-09-08T23:28:34+01:00*
G04 #@! TF.ProjectId,orionBoard,6f72696f-6e42-46f6-9172-642e6b696361,rev?*
G04 #@! TF.SameCoordinates,Original*
G04 #@! TF.FileFunction,Soldermask,Bot*
G04 #@! TF.FilePolarity,Negative*
%FSLAX46Y46*%
G04 Gerber Fmt 4.6, Leading zero omitted, Abs format (unit mm)*
G04 Created by KiCad (PCBNEW (5.1.4)-1) date 2019-09-08 23:28:34*
%MOMM*%
%LPD*%
G04 APERTURE LIST*
%ADD10C,3.100000*%
%ADD11C,1.924000*%
%ADD12C,2.400000*%
%ADD13C,2.000000*%
%ADD14O,2.000000X2.000000*%
%ADD15C,2.200000*%
%ADD16R,2.200000X2.200000*%
G04 APERTURE END LIST*
D10*
X58600000Y-139450000D03*
X58600000Y-50550000D03*
X212240000Y-139450000D03*
X212240000Y-50550000D03*
D11*
X139154000Y-119276000D03*
X144234000Y-119276000D03*
X149314000Y-119276000D03*
X149314000Y-114196000D03*
X144234000Y-114196000D03*
X139154000Y-114196000D03*
D12*
X206210000Y-60602000D03*
X206210000Y-58102000D03*
X206210000Y-65468000D03*
X206210000Y-67968000D03*
X206210000Y-90320000D03*
X206210000Y-87820000D03*
X206210000Y-85320000D03*
X206210000Y-82820000D03*
X206210000Y-80320000D03*
X206210000Y-75320000D03*
X206210000Y-72820000D03*
X206210000Y-77820000D03*
X206210000Y-97686000D03*
X206210000Y-95186000D03*
X206210000Y-102552000D03*
X206210000Y-105052000D03*
X206210000Y-117498000D03*
X206210000Y-114998000D03*
X206210000Y-112498000D03*
X206210000Y-109998000D03*
D13*
X167856000Y-105560000D03*
D14*
X183096000Y-105560000D03*
D15*
X167856000Y-117752000D03*
X165316000Y-117752000D03*
D16*
X162776000Y-117752000D03*
D15*
X138646000Y-72540000D03*
X138646000Y-82700000D03*
D12*
X148806000Y-82700000D03*
X156426000Y-82700000D03*
X187922000Y-82954000D03*
X180302000Y-82954000D03*
D15*
X170142000Y-82954000D03*
X170142000Y-72794000D03*
M02*
