M48
; DRILL file {KiCad (5.1.4)-1} date 08/09/2019 23:28:38
; FORMAT={-:-/ absolute / inch / decimal}
; #@! TF.CreationDate,2019-09-08T23:28:38+01:00
; #@! TF.GenerationSoftware,Kicad,Pcbnew,(5.1.4)-1
; #@! TF.FileFunction,Plated,1,2,PTH
FMAT,2
INCH
T1C0.0157
T2C0.0315
T3C0.0354
T4C0.0374
T5C0.0394
T6C0.0433
T7C0.0472
%
G90
G05
T1
X7.2435Y-3.5059
T2
X6.6085Y-4.1559
X7.2085Y-4.1559
T3
X5.4585Y-2.8559
X5.4585Y-3.2559
X6.6985Y-2.8659
X6.6985Y-3.2659
T4
X5.4785Y-4.4959
X5.4785Y-4.6959
X5.6785Y-4.4959
X5.6785Y-4.6959
X5.8785Y-4.4959
X5.8785Y-4.6959
T5
X6.4085Y-4.6359
X6.5085Y-4.6359
X6.6085Y-4.6359
T6
X5.8585Y-3.2559
X6.1585Y-3.2559
X7.0985Y-3.2659
X7.3985Y-3.2659
T7
X8.1185Y-2.5775
X8.1185Y-2.6759
X8.1185Y-2.2875
X8.1185Y-2.3859
X8.1185Y-4.0375
X8.1185Y-4.1359
X8.1185Y-2.8669
X8.1185Y-2.9654
X8.1185Y-3.0638
X8.1185Y-3.1622
X8.1185Y-3.2606
X8.1185Y-3.3591
X8.1185Y-3.4575
X8.1185Y-3.5559
X8.1185Y-3.7475
X8.1185Y-3.8459
X8.1185Y-4.3306
X8.1185Y-4.4291
X8.1185Y-4.5275
X8.1185Y-4.6259
T0
M30
