M48
; DRILL file {KiCad (5.1.4-0-10_14)} date Monday, 27 July 2020 at 00:29:17
; FORMAT={-:-/ absolute / inch / decimal}
; #@! TF.CreationDate,2020-07-27T00:29:17+01:00
; #@! TF.GenerationSoftware,Kicad,Pcbnew,(5.1.4-0-10_14)
FMAT,2
INCH
T1C0.0157
T2C0.0300
T3C0.0315
T4C0.0320
T5C0.0354
T6C0.0374
T7C0.0433
T8C0.0472
T9C0.0512
T10C0.0551
T11C0.1063
%
G90
G05
T1
X3.7Y-4.84
X3.98Y-3.16
X4.3Y-4.825
X5.0Y-3.625
X5.1Y-3.775
X5.2Y-3.4
X5.24Y-3.91
X5.69Y-3.73
X5.77Y-3.73
X6.52Y-2.86
X6.52Y-2.9
X6.52Y-2.94
X6.53Y-2.99
X6.56Y-3.02
X6.58Y-3.06
X6.62Y-3.06
X6.62Y-3.1
X6.66Y-3.1
X6.66Y-3.14
X6.7Y-3.14
X6.7Y-3.18
X6.74Y-3.18
X6.76Y-3.22
X7.0327Y-5.3077
X7.075Y-5.2253
X7.44Y-2.5515
X7.48Y-3.78
X7.54Y-3.14
X7.54Y-3.28
X7.56Y-2.5515
X7.6Y-3.63
X7.6715Y-2.85
X7.7Y-2.65
X7.7Y-2.89
X7.7Y-3.11
X7.8Y-2.5
X8.025Y-5.475
X8.2Y-5.3
X8.22Y-4.04
X8.26Y-4.04
X8.3Y-4.04
X8.34Y-4.04
X8.38Y-4.04
X8.42Y-4.04
X8.46Y-4.04
X8.75Y-5.1
X8.9Y-3.12
X8.9Y-3.16
X8.9Y-3.2
X8.9Y-3.24
X8.9Y-3.28
X8.9Y-3.32
X8.9Y-3.36
X8.9Y-3.4
T2
X5.6Y-2.2
X5.6Y-2.3
X5.6Y-2.4
X5.6Y-2.5
X5.6Y-3.425
X5.6Y-3.525
X5.6Y-3.625
X4.11Y-2.72
X4.19Y-2.8
X7.675Y-2.4
X3.785Y-2.47
X7.675Y-2.2
X3.785Y-2.63
X3.785Y-2.79
X7.675Y-3.625
X5.6Y-3.725
X7.675Y-2.3
X7.675Y-2.5
X7.675Y-3.425
X7.675Y-3.525
X3.325Y-3.725
X3.865Y-2.71
X5.6Y-3.925
X5.6Y-4.025
X5.6Y-4.125
X5.6Y-4.225
X5.6Y-5.15
X5.6Y-5.25
X5.6Y-5.35
X5.6Y-5.45
X7.675Y-3.925
X7.675Y-4.025
X7.675Y-4.125
X7.675Y-4.225
X7.675Y-5.15
X7.675Y-5.25
X5.4Y-3.725
X7.675Y-5.45
X7.675Y-3.725
X7.675Y-5.35
X3.81Y-4.92
X3.89Y-5.0
X3.325Y-2.2
X3.325Y-2.3
X3.325Y-2.4
X3.325Y-2.5
X3.325Y-3.425
X3.325Y-3.525
X3.325Y-3.625
X5.4Y-2.2
X5.4Y-2.3
X5.4Y-2.4
X5.4Y-2.5
X5.4Y-3.425
X5.4Y-3.525
X5.4Y-3.625
X3.785Y-3.095
X3.785Y-3.255
X3.785Y-3.415
X3.865Y-3.175
X3.865Y-3.335
X3.865Y-3.495
X3.325Y-3.925
X3.865Y-2.55
X3.325Y-4.025
X3.81Y-4.57
X3.81Y-4.73
X3.89Y-4.65
X3.81Y-4.17
X3.81Y-4.33
X3.89Y-4.25
X3.89Y-4.41
X4.11Y-2.995
X5.4Y-5.15
X3.325Y-4.125
X3.325Y-4.225
X3.325Y-5.15
X3.325Y-5.25
X3.325Y-5.35
X3.325Y-5.45
X5.4Y-3.925
X5.4Y-4.025
X5.4Y-4.125
X5.4Y-4.225
X5.4Y-5.35
X5.4Y-5.45
X4.19Y-3.075
X5.4Y-5.25
T3
X5.075Y-2.325
X4.625Y-3.0
X5.025Y-3.0
X6.875Y-5.1525
X4.35Y-2.985
X4.35Y-3.385
X4.48Y-2.985
X4.48Y-3.385
X5.075Y-2.85
X5.1734Y-2.85
X4.6766Y-2.325
X4.775Y-2.325
X6.875Y-5.4525
X6.975Y-5.1525
X6.975Y-5.4525
X7.075Y-5.1525
X7.075Y-5.4525
X7.175Y-5.1525
X7.175Y-5.4525
X5.075Y-2.725
X6.7Y-5.1275
X6.7Y-5.2259
X6.675Y-5.3791
X6.675Y-5.4775
X4.625Y-2.55
X4.625Y-2.65
X4.625Y-2.75
X4.625Y-2.85
X4.925Y-2.55
X4.925Y-2.65
X4.925Y-2.75
X4.925Y-2.85
T4
X7.9Y-2.625
X7.9Y-2.725
X7.9Y-2.825
X7.9Y-3.0825
X7.9Y-3.1825
X7.9Y-3.2825
T5
X8.525Y-4.375
X8.525Y-4.775
X8.525Y-3.85
X8.525Y-4.25
T6
X8.1875Y-4.9925
X7.835Y-4.9925
X7.835Y-5.3925
X8.035Y-4.9925
X8.035Y-5.1925
X8.035Y-5.3925
X8.1875Y-5.1925
X7.835Y-5.1925
X8.1875Y-5.3925
X8.3875Y-4.9925
X8.3875Y-5.1925
X8.3875Y-5.3925
T7
X7.825Y-4.375
X8.125Y-4.375
X6.95Y-2.35
X7.35Y-2.35
X7.55Y-4.85
X7.55Y-5.25
X7.825Y-3.85
X8.125Y-3.85
X7.5Y-2.075
X8.425Y-2.15
X8.825Y-2.15
X7.5Y-2.475
X7.05Y-4.325
X7.45Y-4.325
X7.72Y-5.575
X8.12Y-5.575
X8.545Y-5.0
X8.545Y-5.4
T8
X8.7Y-3.825
X8.7Y-3.9234
X8.7Y-4.0219
X7.375Y-4.9525
X7.375Y-5.4525
X8.7Y-4.225
X8.7Y-4.3234
X8.7Y-4.4219
X8.7Y-4.5203
X8.725Y-2.4
X8.725Y-2.6
X8.7Y-2.925
X8.7Y-3.0234
X8.7Y-3.1219
X8.7Y-3.2203
X8.7Y-3.3187
X8.7Y-3.4171
X6.7Y-4.9775
X7.2Y-4.9775
X8.3275Y-5.57
X8.7Y-3.5156
X8.7Y-3.614
X8.8275Y-5.57
X7.0Y-2.675
X7.5Y-2.675
X8.7Y-4.725
X8.7Y-4.8234
X8.7Y-4.9219
X8.7Y-5.0203
X8.7Y-5.225
X8.7Y-5.3234
X8.19Y-2.1825
X8.19Y-2.3825
T9
X8.19Y-2.6575
X8.19Y-3.2583
X8.19Y-3.4567
X8.19Y-3.6551
X8.4853Y-2.6575
X8.4853Y-3.2583
X8.4853Y-3.4567
X8.4853Y-3.6551
T10
X6.8Y-2.75
X4.1Y-4.975
X5.1Y-4.975
X5.8Y-2.75
X4.1Y-4.625
X5.1Y-4.625
X5.8Y-3.1
X6.8Y-3.1
X4.1Y-3.925
X5.1Y-3.925
X4.1Y-3.575
X5.1Y-3.575
X4.1Y-4.275
X5.1Y-4.275
X5.8053Y-2.2874
X6.8053Y-2.2874
X4.1Y-5.325
X5.1Y-5.325
T11
X2.9732Y-2.0717
X9.022Y-5.5717
X2.9732Y-5.5717
X9.022Y-2.0717
T0
M30
