G04 #@! TF.GenerationSoftware,KiCad,Pcbnew,(5.1.4-0-10_14)*
G04 #@! TF.CreationDate,2020-07-27T00:28:24+01:00*
G04 #@! TF.ProjectId,lightsBoard,6c696768-7473-4426-9f61-72642e6b6963,rev?*
G04 #@! TF.SameCoordinates,Original*
G04 #@! TF.FileFunction,Legend,Top*
G04 #@! TF.FilePolarity,Positive*
%FSLAX46Y46*%
G04 Gerber Fmt 4.6, Leading zero omitted, Abs format (unit mm)*
G04 Created by KiCad (PCBNEW (5.1.4-0-10_14)) date 2020-07-27 00:28:24*
%MOMM*%
%LPD*%
G04 APERTURE LIST*
%ADD10C,0.150000*%
%ADD11C,0.120000*%
%ADD12C,0.152400*%
%ADD13C,0.100000*%
%ADD14C,0.200000*%
%ADD15C,0.254000*%
G04 APERTURE END LIST*
D10*
X81280000Y-142240000D02*
X81280000Y-50800000D01*
X228600000Y-142240000D02*
X81280000Y-142240000D01*
X81280000Y-50800000D02*
X228600000Y-50800000D01*
X206502000Y-138430000D02*
X206502000Y-125476000D01*
X214376000Y-138430000D02*
X206502000Y-138430000D01*
X214376000Y-125476000D02*
X214376000Y-138430000D01*
X206502000Y-125476000D02*
X214376000Y-125476000D01*
X197612000Y-138430000D02*
X197612000Y-125476000D01*
X205486000Y-138430000D02*
X197612000Y-138430000D01*
X205486000Y-125476000D02*
X205486000Y-138430000D01*
X197612000Y-125476000D02*
X205486000Y-125476000D01*
D11*
X140335000Y-96520000D02*
X140335000Y-53975000D01*
X196850000Y-96520000D02*
X140335000Y-96520000D01*
X196850000Y-53975000D02*
X196850000Y-96520000D01*
X140335000Y-53975000D02*
X196850000Y-53975000D01*
X82550000Y-96520000D02*
X82550000Y-53975000D01*
X139065000Y-96520000D02*
X82550000Y-96520000D01*
X139065000Y-53975000D02*
X139065000Y-96520000D01*
X82550000Y-53975000D02*
X139065000Y-53975000D01*
X219015000Y-66340000D02*
X219015000Y-65740000D01*
X219615000Y-66040000D02*
X219015000Y-66340000D01*
X219015000Y-65740000D02*
X219615000Y-66040000D01*
X226415000Y-68690000D02*
X226415000Y-58310000D01*
X220305000Y-64990000D02*
X220305000Y-62010000D01*
X220305000Y-58310000D02*
X220305000Y-59910000D01*
X220305000Y-68690000D02*
X220305000Y-67090000D01*
X229725000Y-58310000D02*
X220305000Y-58310000D01*
X229725000Y-68690000D02*
X229725000Y-58310000D01*
X220305000Y-68690000D02*
X229725000Y-68690000D01*
X203176000Y-63555500D02*
X203176000Y-61555500D01*
X204426000Y-63555500D02*
X203176000Y-63555500D01*
X210176000Y-53935500D02*
X210176000Y-54685500D01*
X205876000Y-53935500D02*
X210176000Y-53935500D01*
X205876000Y-54685500D02*
X205876000Y-53935500D01*
X205526000Y-54685500D02*
X205876000Y-54685500D01*
X205526000Y-54185500D02*
X205526000Y-54685500D01*
X204526000Y-53935500D02*
X205526000Y-54185500D01*
X204526000Y-56935500D02*
X204526000Y-53935500D01*
X205526000Y-56685500D02*
X204526000Y-56935500D01*
X205526000Y-56185500D02*
X205526000Y-56685500D01*
X205876000Y-56185500D02*
X205526000Y-56185500D01*
X205876000Y-56935500D02*
X205876000Y-56185500D01*
X210176000Y-56935500D02*
X205876000Y-56935500D01*
X210176000Y-56185500D02*
X210176000Y-56935500D01*
X210176000Y-59015500D02*
X210176000Y-59765500D01*
X205876000Y-59015500D02*
X210176000Y-59015500D01*
X205876000Y-59765500D02*
X205876000Y-59015500D01*
X205526000Y-59765500D02*
X205876000Y-59765500D01*
X205526000Y-59265500D02*
X205526000Y-59765500D01*
X204526000Y-59015500D02*
X205526000Y-59265500D01*
X204526000Y-62015500D02*
X204526000Y-59015500D01*
X205526000Y-61765500D02*
X204526000Y-62015500D01*
X205526000Y-61265500D02*
X205526000Y-61765500D01*
X205876000Y-61265500D02*
X205526000Y-61265500D01*
X205876000Y-62015500D02*
X205876000Y-61265500D01*
X210176000Y-62015500D02*
X205876000Y-62015500D01*
X210176000Y-61265500D02*
X210176000Y-62015500D01*
X203566000Y-52785500D02*
X203566000Y-63165500D01*
X211036000Y-52785500D02*
X203566000Y-52785500D01*
X211036000Y-63165500D02*
X211036000Y-52785500D01*
X203566000Y-63165500D02*
X211036000Y-63165500D01*
X210175845Y-54685853D02*
G75*
G03X210176000Y-56185500I1700155J-749647D01*
G01*
X210175845Y-59765853D02*
G75*
G03X210176000Y-61265500I1700155J-749647D01*
G01*
D12*
X203327000Y-74117200D02*
X203327000Y-64338200D01*
X203327000Y-64338200D02*
X198120000Y-64338200D01*
X198120000Y-64338200D02*
X198120000Y-74117200D01*
X198120000Y-74117200D02*
X203327000Y-74117200D01*
X202057000Y-65405000D02*
G75*
G03X202057000Y-65405000I-127000J0D01*
G01*
D13*
X210566000Y-70040500D02*
X211836000Y-72580500D01*
D11*
X205226000Y-64950500D02*
X205226000Y-94350500D01*
X205226000Y-94350500D02*
X218326000Y-94350500D01*
X218326000Y-94350500D02*
X218326000Y-64950500D01*
X218326000Y-64950500D02*
X205226000Y-64950500D01*
X209296000Y-70040500D02*
X209296000Y-71310500D01*
X214376000Y-70040500D02*
X209296000Y-70040500D01*
X214376000Y-72580500D02*
X214376000Y-70040500D01*
X209296000Y-72580500D02*
X214376000Y-72580500D01*
X209296000Y-71310500D02*
X209296000Y-72580500D01*
X208026000Y-71310500D02*
X209296000Y-71310500D01*
X208026000Y-70040500D02*
X208026000Y-71310500D01*
X215646000Y-71310500D02*
X215646000Y-70040500D01*
X214376000Y-71310500D02*
X215646000Y-71310500D01*
X206526000Y-64750500D02*
X205026000Y-64750500D01*
X205026000Y-64750500D02*
X205026000Y-66250500D01*
D10*
X200025000Y-137477500D02*
X200025000Y-136969500D01*
X203073000Y-137477500D02*
X200025000Y-137477500D01*
X203073000Y-136969500D02*
X203073000Y-137477500D01*
X200025000Y-136969500D02*
X203073000Y-136969500D01*
D12*
X203327000Y-85737700D02*
X203327000Y-75958700D01*
X203327000Y-75958700D02*
X198120000Y-75958700D01*
X198120000Y-75958700D02*
X198120000Y-85737700D01*
X198120000Y-85737700D02*
X203327000Y-85737700D01*
X202057000Y-77025500D02*
G75*
G03X202057000Y-77025500I-127000J0D01*
G01*
D10*
X208978500Y-137477500D02*
X208978500Y-136969500D01*
X212026500Y-137477500D02*
X208978500Y-137477500D01*
X212026500Y-136969500D02*
X212026500Y-137477500D01*
X208978500Y-136969500D02*
X212026500Y-136969500D01*
D11*
X173235000Y-129543500D02*
X173235000Y-139823500D01*
X183635000Y-129543500D02*
X173235000Y-129543500D01*
X183635000Y-139823500D02*
X183635000Y-129543500D01*
X173235000Y-139823500D02*
X183635000Y-139823500D01*
X173295000Y-132033500D02*
X173295000Y-133683500D01*
X183575000Y-132033500D02*
X173295000Y-132033500D01*
X183575000Y-137333500D02*
X183575000Y-132033500D01*
X173295000Y-137333500D02*
X183575000Y-137333500D01*
X173295000Y-135683500D02*
X173295000Y-137333500D01*
X173295000Y-133683500D02*
G75*
G02X173295000Y-135683500I0J-1000000D01*
G01*
X82550000Y-140335000D02*
X82550000Y-97790000D01*
X139065000Y-140335000D02*
X82550000Y-140335000D01*
X139065000Y-97790000D02*
X139065000Y-140335000D01*
X82550000Y-97790000D02*
X139065000Y-97790000D01*
X126425000Y-63380000D02*
X116145000Y-63380000D01*
X126425000Y-73780000D02*
X126425000Y-63380000D01*
X116145000Y-73780000D02*
X126425000Y-73780000D01*
X116145000Y-63380000D02*
X116145000Y-73780000D01*
X123935000Y-63440000D02*
X122285000Y-63440000D01*
X123935000Y-73720000D02*
X123935000Y-63440000D01*
X118635000Y-73720000D02*
X123935000Y-73720000D01*
X118635000Y-63440000D02*
X118635000Y-73720000D01*
X120285000Y-63440000D02*
X118635000Y-63440000D01*
X122285000Y-63440000D02*
G75*
G02X120285000Y-63440000I-1000000J0D01*
G01*
X140335000Y-140335000D02*
X140335000Y-97790000D01*
X196850000Y-140335000D02*
X140335000Y-140335000D01*
X196850000Y-97790000D02*
X196850000Y-140335000D01*
X140335000Y-97790000D02*
X196850000Y-97790000D01*
X95504000Y-124460000D02*
X96266000Y-123698000D01*
X100076000Y-123698000D02*
X95504000Y-123698000D01*
X100076000Y-128270000D02*
X100076000Y-123698000D01*
X95504000Y-128270000D02*
X100076000Y-128270000D01*
X95504000Y-123698000D02*
X95504000Y-128270000D01*
X94869000Y-90043000D02*
X99441000Y-90043000D01*
X94869000Y-78105000D02*
X95631000Y-77343000D01*
X99441000Y-77343000D02*
X94869000Y-77343000D01*
X99441000Y-90043000D02*
X99441000Y-77343000D01*
X94869000Y-77343000D02*
X94869000Y-90043000D01*
X94869000Y-72136000D02*
X99441000Y-72136000D01*
X94869000Y-62230000D02*
X95631000Y-61468000D01*
X99441000Y-61468000D02*
X94869000Y-61468000D01*
X99441000Y-72136000D02*
X99441000Y-61468000D01*
X94869000Y-61468000D02*
X94869000Y-72136000D01*
X95504000Y-113284000D02*
X100076000Y-113284000D01*
X95504000Y-105410000D02*
X96266000Y-104648000D01*
X100076000Y-104648000D02*
X95504000Y-104648000D01*
X100076000Y-113284000D02*
X100076000Y-104648000D01*
X95504000Y-104648000D02*
X95504000Y-113284000D01*
X95504000Y-115570000D02*
X96266000Y-114808000D01*
X100076000Y-114808000D02*
X95504000Y-114808000D01*
X100076000Y-121412000D02*
X100076000Y-114808000D01*
X95504000Y-121412000D02*
X100076000Y-121412000D01*
X95504000Y-114808000D02*
X95504000Y-121412000D01*
X171215225Y-58100000D02*
X167425225Y-58100000D01*
X149095225Y-58100000D02*
X152885225Y-58100000D01*
X167425225Y-55130000D02*
X152885225Y-55130000D01*
X167425225Y-61070000D02*
X167425225Y-55130000D01*
X152885225Y-61070000D02*
X167425225Y-61070000D01*
X152885225Y-55130000D02*
X152885225Y-61070000D01*
X222938500Y-143398000D02*
X222938500Y-142918000D01*
X212798500Y-143398000D02*
X222938500Y-143398000D01*
X212798500Y-142918000D02*
X212798500Y-143398000D01*
X222938500Y-139558000D02*
X222938500Y-140038000D01*
X212798500Y-139558000D02*
X222938500Y-139558000D01*
X212798500Y-140038000D02*
X212798500Y-139558000D01*
X181600000Y-128348500D02*
X181600000Y-127868500D01*
X171460000Y-128348500D02*
X181600000Y-128348500D01*
X171460000Y-127868500D02*
X171460000Y-128348500D01*
X181600000Y-124508500D02*
X181600000Y-124988500D01*
X171460000Y-124508500D02*
X181600000Y-124508500D01*
X171460000Y-124988500D02*
X171460000Y-124508500D01*
X189245000Y-127073500D02*
X188765000Y-127073500D01*
X189245000Y-137213500D02*
X189245000Y-127073500D01*
X188765000Y-137213500D02*
X189245000Y-137213500D01*
X185405000Y-127073500D02*
X185885000Y-127073500D01*
X185405000Y-137213500D02*
X185405000Y-127073500D01*
X185885000Y-137213500D02*
X185405000Y-137213500D01*
X105780000Y-135255000D02*
X109570000Y-135255000D01*
X127900000Y-135255000D02*
X124110000Y-135255000D01*
X109570000Y-138225000D02*
X124110000Y-138225000D01*
X109570000Y-132285000D02*
X109570000Y-138225000D01*
X124110000Y-132285000D02*
X109570000Y-132285000D01*
X124110000Y-138225000D02*
X124110000Y-132285000D01*
X105780000Y-126365000D02*
X109570000Y-126365000D01*
X127900000Y-126365000D02*
X124110000Y-126365000D01*
X109570000Y-129335000D02*
X124110000Y-129335000D01*
X109570000Y-123395000D02*
X109570000Y-129335000D01*
X124110000Y-123395000D02*
X109570000Y-123395000D01*
X124110000Y-129335000D02*
X124110000Y-123395000D01*
X105780000Y-99695000D02*
X109570000Y-99695000D01*
X127900000Y-99695000D02*
X124110000Y-99695000D01*
X109570000Y-102665000D02*
X124110000Y-102665000D01*
X109570000Y-96725000D02*
X109570000Y-102665000D01*
X124110000Y-96725000D02*
X109570000Y-96725000D01*
X124110000Y-102665000D02*
X124110000Y-96725000D01*
X148960000Y-78740000D02*
X152750000Y-78740000D01*
X171080000Y-78740000D02*
X167290000Y-78740000D01*
X152750000Y-81710000D02*
X167290000Y-81710000D01*
X152750000Y-75770000D02*
X152750000Y-81710000D01*
X167290000Y-75770000D02*
X152750000Y-75770000D01*
X167290000Y-81710000D02*
X167290000Y-75770000D01*
X105780000Y-117475000D02*
X109570000Y-117475000D01*
X127900000Y-117475000D02*
X124110000Y-117475000D01*
X109570000Y-120445000D02*
X124110000Y-120445000D01*
X109570000Y-114505000D02*
X109570000Y-120445000D01*
X124110000Y-114505000D02*
X109570000Y-114505000D01*
X124110000Y-120445000D02*
X124110000Y-114505000D01*
X105780000Y-108585000D02*
X109570000Y-108585000D01*
X127900000Y-108585000D02*
X124110000Y-108585000D01*
X109570000Y-111555000D02*
X124110000Y-111555000D01*
X109570000Y-105615000D02*
X109570000Y-111555000D01*
X124110000Y-105615000D02*
X109570000Y-105615000D01*
X124110000Y-111555000D02*
X124110000Y-105615000D01*
X105780000Y-90805000D02*
X109570000Y-90805000D01*
X127900000Y-90805000D02*
X124110000Y-90805000D01*
X109570000Y-93775000D02*
X124110000Y-93775000D01*
X109570000Y-87835000D02*
X109570000Y-93775000D01*
X124110000Y-87835000D02*
X109570000Y-87835000D01*
X124110000Y-93775000D02*
X124110000Y-87835000D01*
X148960000Y-69850000D02*
X152750000Y-69850000D01*
X171080000Y-69850000D02*
X167290000Y-69850000D01*
X152750000Y-72820000D02*
X167290000Y-72820000D01*
X152750000Y-66880000D02*
X152750000Y-72820000D01*
X167290000Y-66880000D02*
X152750000Y-66880000D01*
X167290000Y-72820000D02*
X167290000Y-66880000D01*
X189220000Y-69865000D02*
X189220000Y-69385000D01*
X179080000Y-69865000D02*
X189220000Y-69865000D01*
X179080000Y-69385000D02*
X179080000Y-69865000D01*
X189220000Y-66025000D02*
X189220000Y-66505000D01*
X179080000Y-66025000D02*
X189220000Y-66025000D01*
X179080000Y-66505000D02*
X179080000Y-66025000D01*
X128905000Y-68175000D02*
X128905000Y-67405000D01*
X128905000Y-60095000D02*
X128905000Y-60865000D01*
X130275000Y-67405000D02*
X130275000Y-60865000D01*
X127535000Y-67405000D02*
X130275000Y-67405000D01*
X127535000Y-60865000D02*
X127535000Y-67405000D01*
X130275000Y-60865000D02*
X127535000Y-60865000D01*
X126595000Y-76200000D02*
X125825000Y-76200000D01*
X118515000Y-76200000D02*
X119285000Y-76200000D01*
X125825000Y-74830000D02*
X119285000Y-74830000D01*
X125825000Y-77570000D02*
X125825000Y-74830000D01*
X119285000Y-77570000D02*
X125825000Y-77570000D01*
X119285000Y-74830000D02*
X119285000Y-77570000D01*
X113792000Y-76859000D02*
X113792000Y-77629000D01*
X113792000Y-84939000D02*
X113792000Y-84169000D01*
X112422000Y-77629000D02*
X112422000Y-84169000D01*
X115162000Y-77629000D02*
X112422000Y-77629000D01*
X115162000Y-84169000D02*
X115162000Y-77629000D01*
X112422000Y-84169000D02*
X115162000Y-84169000D01*
X110490000Y-76859000D02*
X110490000Y-77629000D01*
X110490000Y-84939000D02*
X110490000Y-84169000D01*
X109120000Y-77629000D02*
X109120000Y-84169000D01*
X111860000Y-77629000D02*
X109120000Y-77629000D01*
X111860000Y-84169000D02*
X111860000Y-77629000D01*
X109120000Y-84169000D02*
X111860000Y-84169000D01*
X217652600Y-109956600D02*
X217652600Y-122504200D01*
X217652600Y-122504200D02*
X197637400Y-122504200D01*
X197637400Y-122504200D02*
X197637400Y-109956600D01*
X197637400Y-109956600D02*
X217652600Y-109956600D01*
X218276430Y-123012200D02*
G75*
G03X218276430Y-123012200I-369830J0D01*
G01*
X217652600Y-96621600D02*
X217652600Y-109169200D01*
X217652600Y-109169200D02*
X197637400Y-109169200D01*
X197637400Y-109169200D02*
X197637400Y-96621600D01*
X197637400Y-96621600D02*
X217652600Y-96621600D01*
X218276430Y-109677200D02*
G75*
G03X218276430Y-109677200I-369830J0D01*
G01*
D14*
X219780000Y-132715000D02*
X219780000Y-137415000D01*
X219780000Y-137415000D02*
X229880000Y-137415000D01*
X229880000Y-137415000D02*
X229880000Y-130515000D01*
X229880000Y-130515000D02*
X220980000Y-130515000D01*
X219780000Y-120015000D02*
X219780000Y-129715000D01*
X219780000Y-129715000D02*
X229880000Y-129715000D01*
X229880000Y-129715000D02*
X229880000Y-117815000D01*
X229880000Y-117815000D02*
X220980000Y-117815000D01*
X219780000Y-107315000D02*
X219780000Y-117015000D01*
X219780000Y-117015000D02*
X229880000Y-117015000D01*
X229880000Y-117015000D02*
X229880000Y-105115000D01*
X229880000Y-105115000D02*
X220980000Y-105115000D01*
X219780000Y-104355000D02*
X229880000Y-104355000D01*
X219780000Y-97155000D02*
X219780000Y-104355000D01*
X229880000Y-104355000D02*
X229880000Y-94955000D01*
X229880000Y-94955000D02*
X220980000Y-94955000D01*
X219770000Y-94045000D02*
X229870000Y-94045000D01*
X229880000Y-72095000D02*
X220980000Y-72095000D01*
X229870000Y-94045000D02*
X229880000Y-72095000D01*
X219780000Y-74295000D02*
X219770000Y-94045000D01*
D11*
X203108000Y-143075000D02*
X203108000Y-140135000D01*
X202868000Y-143075000D02*
X202868000Y-140135000D01*
X202988000Y-143075000D02*
X202988000Y-140135000D01*
X197428000Y-141605000D02*
X198448000Y-141605000D01*
X204908000Y-141605000D02*
X203888000Y-141605000D01*
X198448000Y-143075000D02*
X203888000Y-143075000D01*
X198448000Y-140135000D02*
X198448000Y-143075000D01*
X203888000Y-140135000D02*
X198448000Y-140135000D01*
X203888000Y-143075000D02*
X203888000Y-140135000D01*
X217135000Y-53140000D02*
X217135000Y-56080000D01*
X217375000Y-53140000D02*
X217375000Y-56080000D01*
X217255000Y-53140000D02*
X217255000Y-56080000D01*
X222815000Y-54610000D02*
X221795000Y-54610000D01*
X215335000Y-54610000D02*
X216355000Y-54610000D01*
X221795000Y-53140000D02*
X216355000Y-53140000D01*
X221795000Y-56080000D02*
X221795000Y-53140000D01*
X216355000Y-56080000D02*
X221795000Y-56080000D01*
X216355000Y-53140000D02*
X216355000Y-56080000D01*
X218513000Y-130140000D02*
X215573000Y-130140000D01*
X218513000Y-130380000D02*
X215573000Y-130380000D01*
X218513000Y-130260000D02*
X215573000Y-130260000D01*
X217043000Y-135820000D02*
X217043000Y-134800000D01*
X217043000Y-128340000D02*
X217043000Y-129360000D01*
X218513000Y-134800000D02*
X218513000Y-129360000D01*
X215573000Y-134800000D02*
X218513000Y-134800000D01*
X215573000Y-129360000D02*
X215573000Y-134800000D01*
X218513000Y-129360000D02*
X215573000Y-129360000D01*
X179670000Y-58220000D02*
X179670000Y-61160000D01*
X179910000Y-58220000D02*
X179910000Y-61160000D01*
X179790000Y-58220000D02*
X179790000Y-61160000D01*
X185350000Y-59690000D02*
X184330000Y-59690000D01*
X177870000Y-59690000D02*
X178890000Y-59690000D01*
X184330000Y-58220000D02*
X178890000Y-58220000D01*
X184330000Y-61160000D02*
X184330000Y-58220000D01*
X178890000Y-61160000D02*
X184330000Y-61160000D01*
X178890000Y-58220000D02*
X178890000Y-61160000D01*
X193240000Y-126330000D02*
X190300000Y-126330000D01*
X193240000Y-126570000D02*
X190300000Y-126570000D01*
X193240000Y-126450000D02*
X190300000Y-126450000D01*
X191770000Y-132010000D02*
X191770000Y-130990000D01*
X191770000Y-124530000D02*
X191770000Y-125550000D01*
X193240000Y-130990000D02*
X193240000Y-125550000D01*
X190300000Y-130990000D02*
X193240000Y-130990000D01*
X190300000Y-125550000D02*
X190300000Y-130990000D01*
X193240000Y-125550000D02*
X190300000Y-125550000D01*
X186090000Y-111325000D02*
X186090000Y-108385000D01*
X185850000Y-111325000D02*
X185850000Y-108385000D01*
X185970000Y-111325000D02*
X185970000Y-108385000D01*
X180410000Y-109855000D02*
X181430000Y-109855000D01*
X187890000Y-109855000D02*
X186870000Y-109855000D01*
X181430000Y-111325000D02*
X186870000Y-111325000D01*
X181430000Y-108385000D02*
X181430000Y-111325000D01*
X186870000Y-108385000D02*
X181430000Y-108385000D01*
X186870000Y-111325000D02*
X186870000Y-108385000D01*
X189030000Y-59725000D02*
X191970000Y-59725000D01*
X189030000Y-59485000D02*
X191970000Y-59485000D01*
X189030000Y-59605000D02*
X191970000Y-59605000D01*
X190500000Y-54045000D02*
X190500000Y-55065000D01*
X190500000Y-61525000D02*
X190500000Y-60505000D01*
X189030000Y-55065000D02*
X189030000Y-60505000D01*
X191970000Y-55065000D02*
X189030000Y-55065000D01*
X191970000Y-60505000D02*
X191970000Y-55065000D01*
X189030000Y-60505000D02*
X191970000Y-60505000D01*
X103124000Y-75565000D02*
X103886000Y-74803000D01*
X107696000Y-74803000D02*
X103124000Y-74803000D01*
X107696000Y-79375000D02*
X107696000Y-74803000D01*
X103124000Y-79375000D02*
X107696000Y-79375000D01*
X103124000Y-74803000D02*
X103124000Y-79375000D01*
X103124000Y-68580000D02*
X103886000Y-67818000D01*
X107696000Y-67818000D02*
X103124000Y-67818000D01*
X107696000Y-72390000D02*
X107696000Y-67818000D01*
X103124000Y-72390000D02*
X107696000Y-72390000D01*
X103124000Y-67818000D02*
X103124000Y-72390000D01*
X171550000Y-134108500D02*
X168810000Y-134108500D01*
X171550000Y-128868500D02*
X168810000Y-128868500D01*
X168810000Y-128868500D02*
X168810000Y-134108500D01*
X171550000Y-128868500D02*
X171550000Y-134108500D01*
X167820000Y-140433275D02*
X168320000Y-140433275D01*
X168070000Y-140683275D02*
X168070000Y-140183275D01*
X169261000Y-135277500D02*
X169829000Y-135277500D01*
X169027000Y-135317500D02*
X170063000Y-135317500D01*
X168868000Y-135357500D02*
X170222000Y-135357500D01*
X168740000Y-135397500D02*
X170350000Y-135397500D01*
X168630000Y-135437500D02*
X170460000Y-135437500D01*
X168534000Y-135477500D02*
X170556000Y-135477500D01*
X168447000Y-135517500D02*
X170643000Y-135517500D01*
X168367000Y-135557500D02*
X170723000Y-135557500D01*
X170585000Y-135597500D02*
X170796000Y-135597500D01*
X168294000Y-135597500D02*
X168505000Y-135597500D01*
X170585000Y-135637500D02*
X170864000Y-135637500D01*
X168226000Y-135637500D02*
X168505000Y-135637500D01*
X170585000Y-135677500D02*
X170928000Y-135677500D01*
X168162000Y-135677500D02*
X168505000Y-135677500D01*
X170585000Y-135717500D02*
X170988000Y-135717500D01*
X168102000Y-135717500D02*
X168505000Y-135717500D01*
X170585000Y-135757500D02*
X171045000Y-135757500D01*
X168045000Y-135757500D02*
X168505000Y-135757500D01*
X170585000Y-135797500D02*
X171099000Y-135797500D01*
X167991000Y-135797500D02*
X168505000Y-135797500D01*
X170585000Y-135837500D02*
X171150000Y-135837500D01*
X167940000Y-135837500D02*
X168505000Y-135837500D01*
X170585000Y-135877500D02*
X171198000Y-135877500D01*
X167892000Y-135877500D02*
X168505000Y-135877500D01*
X170585000Y-135917500D02*
X171244000Y-135917500D01*
X167846000Y-135917500D02*
X168505000Y-135917500D01*
X170585000Y-135957500D02*
X171288000Y-135957500D01*
X167802000Y-135957500D02*
X168505000Y-135957500D01*
X170585000Y-135997500D02*
X171330000Y-135997500D01*
X167760000Y-135997500D02*
X168505000Y-135997500D01*
X170585000Y-136037500D02*
X171371000Y-136037500D01*
X167719000Y-136037500D02*
X168505000Y-136037500D01*
X170585000Y-136077500D02*
X171409000Y-136077500D01*
X167681000Y-136077500D02*
X168505000Y-136077500D01*
X170585000Y-136117500D02*
X171446000Y-136117500D01*
X167644000Y-136117500D02*
X168505000Y-136117500D01*
X170585000Y-136157500D02*
X171482000Y-136157500D01*
X167608000Y-136157500D02*
X168505000Y-136157500D01*
X170585000Y-136197500D02*
X171516000Y-136197500D01*
X167574000Y-136197500D02*
X168505000Y-136197500D01*
X170585000Y-136237500D02*
X171549000Y-136237500D01*
X167541000Y-136237500D02*
X168505000Y-136237500D01*
X170585000Y-136277500D02*
X171580000Y-136277500D01*
X167510000Y-136277500D02*
X168505000Y-136277500D01*
X170585000Y-136317500D02*
X171610000Y-136317500D01*
X167480000Y-136317500D02*
X168505000Y-136317500D01*
X170585000Y-136357500D02*
X171640000Y-136357500D01*
X167450000Y-136357500D02*
X168505000Y-136357500D01*
X170585000Y-136397500D02*
X171667000Y-136397500D01*
X167423000Y-136397500D02*
X168505000Y-136397500D01*
X170585000Y-136437500D02*
X171694000Y-136437500D01*
X167396000Y-136437500D02*
X168505000Y-136437500D01*
X170585000Y-136477500D02*
X171720000Y-136477500D01*
X167370000Y-136477500D02*
X168505000Y-136477500D01*
X170585000Y-136517500D02*
X171745000Y-136517500D01*
X167345000Y-136517500D02*
X168505000Y-136517500D01*
X170585000Y-136557500D02*
X171769000Y-136557500D01*
X167321000Y-136557500D02*
X168505000Y-136557500D01*
X170585000Y-136597500D02*
X171792000Y-136597500D01*
X167298000Y-136597500D02*
X168505000Y-136597500D01*
X170585000Y-136637500D02*
X171813000Y-136637500D01*
X167277000Y-136637500D02*
X168505000Y-136637500D01*
X170585000Y-136677500D02*
X171835000Y-136677500D01*
X167255000Y-136677500D02*
X168505000Y-136677500D01*
X170585000Y-136717500D02*
X171855000Y-136717500D01*
X167235000Y-136717500D02*
X168505000Y-136717500D01*
X170585000Y-136757500D02*
X171874000Y-136757500D01*
X167216000Y-136757500D02*
X168505000Y-136757500D01*
X170585000Y-136797500D02*
X171893000Y-136797500D01*
X167197000Y-136797500D02*
X168505000Y-136797500D01*
X170585000Y-136837500D02*
X171910000Y-136837500D01*
X167180000Y-136837500D02*
X168505000Y-136837500D01*
X170585000Y-136877500D02*
X171927000Y-136877500D01*
X167163000Y-136877500D02*
X168505000Y-136877500D01*
X170585000Y-136917500D02*
X171943000Y-136917500D01*
X167147000Y-136917500D02*
X168505000Y-136917500D01*
X170585000Y-136957500D02*
X171959000Y-136957500D01*
X167131000Y-136957500D02*
X168505000Y-136957500D01*
X170585000Y-136997500D02*
X171973000Y-136997500D01*
X167117000Y-136997500D02*
X168505000Y-136997500D01*
X170585000Y-137037500D02*
X171987000Y-137037500D01*
X167103000Y-137037500D02*
X168505000Y-137037500D01*
X170585000Y-137077500D02*
X172000000Y-137077500D01*
X167090000Y-137077500D02*
X168505000Y-137077500D01*
X170585000Y-137117500D02*
X172013000Y-137117500D01*
X167077000Y-137117500D02*
X168505000Y-137117500D01*
X170585000Y-137157500D02*
X172025000Y-137157500D01*
X167065000Y-137157500D02*
X168505000Y-137157500D01*
X170585000Y-137198500D02*
X172036000Y-137198500D01*
X167054000Y-137198500D02*
X168505000Y-137198500D01*
X170585000Y-137238500D02*
X172046000Y-137238500D01*
X167044000Y-137238500D02*
X168505000Y-137238500D01*
X170585000Y-137278500D02*
X172056000Y-137278500D01*
X167034000Y-137278500D02*
X168505000Y-137278500D01*
X170585000Y-137318500D02*
X172065000Y-137318500D01*
X167025000Y-137318500D02*
X168505000Y-137318500D01*
X170585000Y-137358500D02*
X172073000Y-137358500D01*
X167017000Y-137358500D02*
X168505000Y-137358500D01*
X170585000Y-137398500D02*
X172081000Y-137398500D01*
X167009000Y-137398500D02*
X168505000Y-137398500D01*
X170585000Y-137438500D02*
X172088000Y-137438500D01*
X167002000Y-137438500D02*
X168505000Y-137438500D01*
X170585000Y-137478500D02*
X172095000Y-137478500D01*
X166995000Y-137478500D02*
X168505000Y-137478500D01*
X170585000Y-137518500D02*
X172101000Y-137518500D01*
X166989000Y-137518500D02*
X168505000Y-137518500D01*
X170585000Y-137558500D02*
X172106000Y-137558500D01*
X166984000Y-137558500D02*
X168505000Y-137558500D01*
X170585000Y-137598500D02*
X172110000Y-137598500D01*
X166980000Y-137598500D02*
X168505000Y-137598500D01*
X170585000Y-137638500D02*
X172114000Y-137638500D01*
X166976000Y-137638500D02*
X168505000Y-137638500D01*
X166972000Y-137678500D02*
X172118000Y-137678500D01*
X166969000Y-137718500D02*
X172121000Y-137718500D01*
X166967000Y-137758500D02*
X172123000Y-137758500D01*
X166966000Y-137798500D02*
X172124000Y-137798500D01*
X166965000Y-137838500D02*
X172125000Y-137838500D01*
X166965000Y-137878500D02*
X172125000Y-137878500D01*
X172165000Y-137878500D02*
G75*
G03X172165000Y-137878500I-2620000J0D01*
G01*
X132775000Y-71020000D02*
X132775000Y-73760000D01*
X127535000Y-71020000D02*
X127535000Y-73760000D01*
X127535000Y-73760000D02*
X132775000Y-73760000D01*
X127535000Y-71020000D02*
X132775000Y-71020000D01*
X122589775Y-60780000D02*
X122589775Y-60280000D01*
X122839775Y-60530000D02*
X122339775Y-60530000D01*
X117434000Y-59339000D02*
X117434000Y-58771000D01*
X117474000Y-59573000D02*
X117474000Y-58537000D01*
X117514000Y-59732000D02*
X117514000Y-58378000D01*
X117554000Y-59860000D02*
X117554000Y-58250000D01*
X117594000Y-59970000D02*
X117594000Y-58140000D01*
X117634000Y-60066000D02*
X117634000Y-58044000D01*
X117674000Y-60153000D02*
X117674000Y-57957000D01*
X117714000Y-60233000D02*
X117714000Y-57877000D01*
X117754000Y-58015000D02*
X117754000Y-57804000D01*
X117754000Y-60306000D02*
X117754000Y-60095000D01*
X117794000Y-58015000D02*
X117794000Y-57736000D01*
X117794000Y-60374000D02*
X117794000Y-60095000D01*
X117834000Y-58015000D02*
X117834000Y-57672000D01*
X117834000Y-60438000D02*
X117834000Y-60095000D01*
X117874000Y-58015000D02*
X117874000Y-57612000D01*
X117874000Y-60498000D02*
X117874000Y-60095000D01*
X117914000Y-58015000D02*
X117914000Y-57555000D01*
X117914000Y-60555000D02*
X117914000Y-60095000D01*
X117954000Y-58015000D02*
X117954000Y-57501000D01*
X117954000Y-60609000D02*
X117954000Y-60095000D01*
X117994000Y-58015000D02*
X117994000Y-57450000D01*
X117994000Y-60660000D02*
X117994000Y-60095000D01*
X118034000Y-58015000D02*
X118034000Y-57402000D01*
X118034000Y-60708000D02*
X118034000Y-60095000D01*
X118074000Y-58015000D02*
X118074000Y-57356000D01*
X118074000Y-60754000D02*
X118074000Y-60095000D01*
X118114000Y-58015000D02*
X118114000Y-57312000D01*
X118114000Y-60798000D02*
X118114000Y-60095000D01*
X118154000Y-58015000D02*
X118154000Y-57270000D01*
X118154000Y-60840000D02*
X118154000Y-60095000D01*
X118194000Y-58015000D02*
X118194000Y-57229000D01*
X118194000Y-60881000D02*
X118194000Y-60095000D01*
X118234000Y-58015000D02*
X118234000Y-57191000D01*
X118234000Y-60919000D02*
X118234000Y-60095000D01*
X118274000Y-58015000D02*
X118274000Y-57154000D01*
X118274000Y-60956000D02*
X118274000Y-60095000D01*
X118314000Y-58015000D02*
X118314000Y-57118000D01*
X118314000Y-60992000D02*
X118314000Y-60095000D01*
X118354000Y-58015000D02*
X118354000Y-57084000D01*
X118354000Y-61026000D02*
X118354000Y-60095000D01*
X118394000Y-58015000D02*
X118394000Y-57051000D01*
X118394000Y-61059000D02*
X118394000Y-60095000D01*
X118434000Y-58015000D02*
X118434000Y-57020000D01*
X118434000Y-61090000D02*
X118434000Y-60095000D01*
X118474000Y-58015000D02*
X118474000Y-56990000D01*
X118474000Y-61120000D02*
X118474000Y-60095000D01*
X118514000Y-58015000D02*
X118514000Y-56960000D01*
X118514000Y-61150000D02*
X118514000Y-60095000D01*
X118554000Y-58015000D02*
X118554000Y-56933000D01*
X118554000Y-61177000D02*
X118554000Y-60095000D01*
X118594000Y-58015000D02*
X118594000Y-56906000D01*
X118594000Y-61204000D02*
X118594000Y-60095000D01*
X118634000Y-58015000D02*
X118634000Y-56880000D01*
X118634000Y-61230000D02*
X118634000Y-60095000D01*
X118674000Y-58015000D02*
X118674000Y-56855000D01*
X118674000Y-61255000D02*
X118674000Y-60095000D01*
X118714000Y-58015000D02*
X118714000Y-56831000D01*
X118714000Y-61279000D02*
X118714000Y-60095000D01*
X118754000Y-58015000D02*
X118754000Y-56808000D01*
X118754000Y-61302000D02*
X118754000Y-60095000D01*
X118794000Y-58015000D02*
X118794000Y-56787000D01*
X118794000Y-61323000D02*
X118794000Y-60095000D01*
X118834000Y-58015000D02*
X118834000Y-56765000D01*
X118834000Y-61345000D02*
X118834000Y-60095000D01*
X118874000Y-58015000D02*
X118874000Y-56745000D01*
X118874000Y-61365000D02*
X118874000Y-60095000D01*
X118914000Y-58015000D02*
X118914000Y-56726000D01*
X118914000Y-61384000D02*
X118914000Y-60095000D01*
X118954000Y-58015000D02*
X118954000Y-56707000D01*
X118954000Y-61403000D02*
X118954000Y-60095000D01*
X118994000Y-58015000D02*
X118994000Y-56690000D01*
X118994000Y-61420000D02*
X118994000Y-60095000D01*
X119034000Y-58015000D02*
X119034000Y-56673000D01*
X119034000Y-61437000D02*
X119034000Y-60095000D01*
X119074000Y-58015000D02*
X119074000Y-56657000D01*
X119074000Y-61453000D02*
X119074000Y-60095000D01*
X119114000Y-58015000D02*
X119114000Y-56641000D01*
X119114000Y-61469000D02*
X119114000Y-60095000D01*
X119154000Y-58015000D02*
X119154000Y-56627000D01*
X119154000Y-61483000D02*
X119154000Y-60095000D01*
X119194000Y-58015000D02*
X119194000Y-56613000D01*
X119194000Y-61497000D02*
X119194000Y-60095000D01*
X119234000Y-58015000D02*
X119234000Y-56600000D01*
X119234000Y-61510000D02*
X119234000Y-60095000D01*
X119274000Y-58015000D02*
X119274000Y-56587000D01*
X119274000Y-61523000D02*
X119274000Y-60095000D01*
X119314000Y-58015000D02*
X119314000Y-56575000D01*
X119314000Y-61535000D02*
X119314000Y-60095000D01*
X119355000Y-58015000D02*
X119355000Y-56564000D01*
X119355000Y-61546000D02*
X119355000Y-60095000D01*
X119395000Y-58015000D02*
X119395000Y-56554000D01*
X119395000Y-61556000D02*
X119395000Y-60095000D01*
X119435000Y-58015000D02*
X119435000Y-56544000D01*
X119435000Y-61566000D02*
X119435000Y-60095000D01*
X119475000Y-58015000D02*
X119475000Y-56535000D01*
X119475000Y-61575000D02*
X119475000Y-60095000D01*
X119515000Y-58015000D02*
X119515000Y-56527000D01*
X119515000Y-61583000D02*
X119515000Y-60095000D01*
X119555000Y-58015000D02*
X119555000Y-56519000D01*
X119555000Y-61591000D02*
X119555000Y-60095000D01*
X119595000Y-58015000D02*
X119595000Y-56512000D01*
X119595000Y-61598000D02*
X119595000Y-60095000D01*
X119635000Y-58015000D02*
X119635000Y-56505000D01*
X119635000Y-61605000D02*
X119635000Y-60095000D01*
X119675000Y-58015000D02*
X119675000Y-56499000D01*
X119675000Y-61611000D02*
X119675000Y-60095000D01*
X119715000Y-58015000D02*
X119715000Y-56494000D01*
X119715000Y-61616000D02*
X119715000Y-60095000D01*
X119755000Y-58015000D02*
X119755000Y-56490000D01*
X119755000Y-61620000D02*
X119755000Y-60095000D01*
X119795000Y-58015000D02*
X119795000Y-56486000D01*
X119795000Y-61624000D02*
X119795000Y-60095000D01*
X119835000Y-61628000D02*
X119835000Y-56482000D01*
X119875000Y-61631000D02*
X119875000Y-56479000D01*
X119915000Y-61633000D02*
X119915000Y-56477000D01*
X119955000Y-61634000D02*
X119955000Y-56476000D01*
X119995000Y-61635000D02*
X119995000Y-56475000D01*
X120035000Y-61635000D02*
X120035000Y-56475000D01*
X122655000Y-59055000D02*
G75*
G03X122655000Y-59055000I-2620000J0D01*
G01*
D10*
X144653095Y-94448380D02*
X144653095Y-95257904D01*
X144700714Y-95353142D01*
X144748333Y-95400761D01*
X144843571Y-95448380D01*
X145034047Y-95448380D01*
X145129285Y-95400761D01*
X145176904Y-95353142D01*
X145224523Y-95257904D01*
X145224523Y-94448380D01*
X146224523Y-95448380D02*
X145653095Y-95448380D01*
X145938809Y-95448380D02*
X145938809Y-94448380D01*
X145843571Y-94591238D01*
X145748333Y-94686476D01*
X145653095Y-94734095D01*
X86487095Y-94448380D02*
X86487095Y-95257904D01*
X86534714Y-95353142D01*
X86582333Y-95400761D01*
X86677571Y-95448380D01*
X86868047Y-95448380D01*
X86963285Y-95400761D01*
X87010904Y-95353142D01*
X87058523Y-95257904D01*
X87058523Y-94448380D01*
X88010904Y-94448380D02*
X87534714Y-94448380D01*
X87487095Y-94924571D01*
X87534714Y-94876952D01*
X87629952Y-94829333D01*
X87868047Y-94829333D01*
X87963285Y-94876952D01*
X88010904Y-94924571D01*
X88058523Y-95019809D01*
X88058523Y-95257904D01*
X88010904Y-95353142D01*
X87963285Y-95400761D01*
X87868047Y-95448380D01*
X87629952Y-95448380D01*
X87534714Y-95400761D01*
X87487095Y-95353142D01*
D15*
X217998523Y-59097333D02*
X218905666Y-59097333D01*
X219087095Y-59157809D01*
X219208047Y-59278761D01*
X219268523Y-59460190D01*
X219268523Y-59581142D01*
X219268523Y-57827333D02*
X219268523Y-58553047D01*
X219268523Y-58190190D02*
X217998523Y-58190190D01*
X218179952Y-58311142D01*
X218300904Y-58432095D01*
X218361380Y-58553047D01*
X201488523Y-53255333D02*
X202395666Y-53255333D01*
X202577095Y-53315809D01*
X202698047Y-53436761D01*
X202758523Y-53618190D01*
X202758523Y-53739142D01*
X201609476Y-52711047D02*
X201549000Y-52650571D01*
X201488523Y-52529619D01*
X201488523Y-52227238D01*
X201549000Y-52106285D01*
X201609476Y-52045809D01*
X201730428Y-51985333D01*
X201851380Y-51985333D01*
X202032809Y-52045809D01*
X202758523Y-52771523D01*
X202758523Y-51985333D01*
D10*
X204668380Y-73239238D02*
X204192190Y-73572571D01*
X204668380Y-73810666D02*
X203668380Y-73810666D01*
X203668380Y-73429714D01*
X203716000Y-73334476D01*
X203763619Y-73286857D01*
X203858857Y-73239238D01*
X204001714Y-73239238D01*
X204096952Y-73286857D01*
X204144571Y-73334476D01*
X204192190Y-73429714D01*
X204192190Y-73810666D01*
X203668380Y-72953523D02*
X204668380Y-72620190D01*
X203668380Y-72286857D01*
X203668380Y-72048761D02*
X203668380Y-71429714D01*
X204049333Y-71763047D01*
X204049333Y-71620190D01*
X204096952Y-71524952D01*
X204144571Y-71477333D01*
X204239809Y-71429714D01*
X204477904Y-71429714D01*
X204573142Y-71477333D01*
X204620761Y-71524952D01*
X204668380Y-71620190D01*
X204668380Y-71905904D01*
X204620761Y-72001142D01*
X204573142Y-72048761D01*
X219978380Y-80738595D02*
X218978380Y-80738595D01*
X219978380Y-80167166D02*
X219406952Y-80595738D01*
X218978380Y-80167166D02*
X219549809Y-80738595D01*
X219311714Y-79310023D02*
X219978380Y-79310023D01*
X218930761Y-79548119D02*
X219645047Y-79786214D01*
X219645047Y-79167166D01*
X202064880Y-132627595D02*
X201064880Y-132627595D01*
X202064880Y-132056166D02*
X201493452Y-132484738D01*
X201064880Y-132056166D02*
X201636309Y-132627595D01*
X201064880Y-131151404D02*
X201064880Y-131627595D01*
X201541071Y-131675214D01*
X201493452Y-131627595D01*
X201445833Y-131532357D01*
X201445833Y-131294261D01*
X201493452Y-131199023D01*
X201541071Y-131151404D01*
X201636309Y-131103785D01*
X201874404Y-131103785D01*
X201969642Y-131151404D01*
X202017261Y-131199023D01*
X202064880Y-131294261D01*
X202064880Y-131532357D01*
X202017261Y-131627595D01*
X201969642Y-131675214D01*
X204668380Y-84923238D02*
X204192190Y-85256571D01*
X204668380Y-85494666D02*
X203668380Y-85494666D01*
X203668380Y-85113714D01*
X203716000Y-85018476D01*
X203763619Y-84970857D01*
X203858857Y-84923238D01*
X204001714Y-84923238D01*
X204096952Y-84970857D01*
X204144571Y-85018476D01*
X204192190Y-85113714D01*
X204192190Y-85494666D01*
X203668380Y-84637523D02*
X204668380Y-84304190D01*
X203668380Y-83970857D01*
X203763619Y-83685142D02*
X203716000Y-83637523D01*
X203668380Y-83542285D01*
X203668380Y-83304190D01*
X203716000Y-83208952D01*
X203763619Y-83161333D01*
X203858857Y-83113714D01*
X203954095Y-83113714D01*
X204096952Y-83161333D01*
X204668380Y-83732761D01*
X204668380Y-83113714D01*
X211018380Y-132564095D02*
X210018380Y-132564095D01*
X211018380Y-131992666D02*
X210446952Y-132421238D01*
X210018380Y-131992666D02*
X210589809Y-132564095D01*
X210018380Y-131659333D02*
X210018380Y-131040285D01*
X210399333Y-131373619D01*
X210399333Y-131230761D01*
X210446952Y-131135523D01*
X210494571Y-131087904D01*
X210589809Y-131040285D01*
X210827904Y-131040285D01*
X210923142Y-131087904D01*
X210970761Y-131135523D01*
X211018380Y-131230761D01*
X211018380Y-131516476D01*
X210970761Y-131611714D01*
X210923142Y-131659333D01*
X177887380Y-135445404D02*
X178696904Y-135445404D01*
X178792142Y-135397785D01*
X178839761Y-135350166D01*
X178887380Y-135254928D01*
X178887380Y-135064452D01*
X178839761Y-134969214D01*
X178792142Y-134921595D01*
X178696904Y-134873976D01*
X177887380Y-134873976D01*
X177887380Y-134493023D02*
X177887380Y-133826357D01*
X178887380Y-134254928D01*
X86677595Y-138009380D02*
X86677595Y-138818904D01*
X86725214Y-138914142D01*
X86772833Y-138961761D01*
X86868071Y-139009380D01*
X87058547Y-139009380D01*
X87153785Y-138961761D01*
X87201404Y-138914142D01*
X87249023Y-138818904D01*
X87249023Y-138009380D01*
X88153785Y-138342714D02*
X88153785Y-139009380D01*
X87915690Y-137961761D02*
X87677595Y-138676047D01*
X88296642Y-138676047D01*
X120650095Y-68286380D02*
X120650095Y-69095904D01*
X120697714Y-69191142D01*
X120745333Y-69238761D01*
X120840571Y-69286380D01*
X121031047Y-69286380D01*
X121126285Y-69238761D01*
X121173904Y-69191142D01*
X121221523Y-69095904D01*
X121221523Y-68286380D01*
X121602476Y-68286380D02*
X122221523Y-68286380D01*
X121888190Y-68667333D01*
X122031047Y-68667333D01*
X122126285Y-68714952D01*
X122173904Y-68762571D01*
X122221523Y-68857809D01*
X122221523Y-69095904D01*
X122173904Y-69191142D01*
X122126285Y-69238761D01*
X122031047Y-69286380D01*
X121745333Y-69286380D01*
X121650095Y-69238761D01*
X121602476Y-69191142D01*
X144462595Y-138009380D02*
X144462595Y-138818904D01*
X144510214Y-138914142D01*
X144557833Y-138961761D01*
X144653071Y-139009380D01*
X144843547Y-139009380D01*
X144938785Y-138961761D01*
X144986404Y-138914142D01*
X145034023Y-138818904D01*
X145034023Y-138009380D01*
X145462595Y-138104619D02*
X145510214Y-138057000D01*
X145605452Y-138009380D01*
X145843547Y-138009380D01*
X145938785Y-138057000D01*
X145986404Y-138104619D01*
X146034023Y-138199857D01*
X146034023Y-138295095D01*
X145986404Y-138437952D01*
X145414976Y-139009380D01*
X146034023Y-139009380D01*
X96710666Y-123086761D02*
X96853523Y-123134380D01*
X97091619Y-123134380D01*
X97186857Y-123086761D01*
X97234476Y-123039142D01*
X97282095Y-122943904D01*
X97282095Y-122848666D01*
X97234476Y-122753428D01*
X97186857Y-122705809D01*
X97091619Y-122658190D01*
X96901142Y-122610571D01*
X96805904Y-122562952D01*
X96758285Y-122515333D01*
X96710666Y-122420095D01*
X96710666Y-122324857D01*
X96758285Y-122229619D01*
X96805904Y-122182000D01*
X96901142Y-122134380D01*
X97139238Y-122134380D01*
X97282095Y-122182000D01*
X97615428Y-122134380D02*
X97853523Y-123134380D01*
X98044000Y-122420095D01*
X98234476Y-123134380D01*
X98472571Y-122134380D01*
X99282095Y-122467714D02*
X99282095Y-123134380D01*
X99044000Y-122086761D02*
X98805904Y-122801047D01*
X99424952Y-122801047D01*
X96075666Y-76731761D02*
X96218523Y-76779380D01*
X96456619Y-76779380D01*
X96551857Y-76731761D01*
X96599476Y-76684142D01*
X96647095Y-76588904D01*
X96647095Y-76493666D01*
X96599476Y-76398428D01*
X96551857Y-76350809D01*
X96456619Y-76303190D01*
X96266142Y-76255571D01*
X96170904Y-76207952D01*
X96123285Y-76160333D01*
X96075666Y-76065095D01*
X96075666Y-75969857D01*
X96123285Y-75874619D01*
X96170904Y-75827000D01*
X96266142Y-75779380D01*
X96504238Y-75779380D01*
X96647095Y-75827000D01*
X96980428Y-75779380D02*
X97218523Y-76779380D01*
X97409000Y-76065095D01*
X97599476Y-76779380D01*
X97837571Y-75779380D01*
X98123285Y-75779380D02*
X98742333Y-75779380D01*
X98409000Y-76160333D01*
X98551857Y-76160333D01*
X98647095Y-76207952D01*
X98694714Y-76255571D01*
X98742333Y-76350809D01*
X98742333Y-76588904D01*
X98694714Y-76684142D01*
X98647095Y-76731761D01*
X98551857Y-76779380D01*
X98266142Y-76779380D01*
X98170904Y-76731761D01*
X98123285Y-76684142D01*
X96075666Y-60856761D02*
X96218523Y-60904380D01*
X96456619Y-60904380D01*
X96551857Y-60856761D01*
X96599476Y-60809142D01*
X96647095Y-60713904D01*
X96647095Y-60618666D01*
X96599476Y-60523428D01*
X96551857Y-60475809D01*
X96456619Y-60428190D01*
X96266142Y-60380571D01*
X96170904Y-60332952D01*
X96123285Y-60285333D01*
X96075666Y-60190095D01*
X96075666Y-60094857D01*
X96123285Y-59999619D01*
X96170904Y-59952000D01*
X96266142Y-59904380D01*
X96504238Y-59904380D01*
X96647095Y-59952000D01*
X96980428Y-59904380D02*
X97218523Y-60904380D01*
X97409000Y-60190095D01*
X97599476Y-60904380D01*
X97837571Y-59904380D01*
X98170904Y-59999619D02*
X98218523Y-59952000D01*
X98313761Y-59904380D01*
X98551857Y-59904380D01*
X98647095Y-59952000D01*
X98694714Y-59999619D01*
X98742333Y-60094857D01*
X98742333Y-60190095D01*
X98694714Y-60332952D01*
X98123285Y-60904380D01*
X98742333Y-60904380D01*
X96710666Y-104036761D02*
X96853523Y-104084380D01*
X97091619Y-104084380D01*
X97186857Y-104036761D01*
X97234476Y-103989142D01*
X97282095Y-103893904D01*
X97282095Y-103798666D01*
X97234476Y-103703428D01*
X97186857Y-103655809D01*
X97091619Y-103608190D01*
X96901142Y-103560571D01*
X96805904Y-103512952D01*
X96758285Y-103465333D01*
X96710666Y-103370095D01*
X96710666Y-103274857D01*
X96758285Y-103179619D01*
X96805904Y-103132000D01*
X96901142Y-103084380D01*
X97139238Y-103084380D01*
X97282095Y-103132000D01*
X97615428Y-103084380D02*
X97853523Y-104084380D01*
X98044000Y-103370095D01*
X98234476Y-104084380D01*
X98472571Y-103084380D01*
X99377333Y-104084380D02*
X98805904Y-104084380D01*
X99091619Y-104084380D02*
X99091619Y-103084380D01*
X98996380Y-103227238D01*
X98901142Y-103322476D01*
X98805904Y-103370095D01*
X97448761Y-114244380D02*
X97115428Y-113768190D01*
X96877333Y-114244380D02*
X96877333Y-113244380D01*
X97258285Y-113244380D01*
X97353523Y-113292000D01*
X97401142Y-113339619D01*
X97448761Y-113434857D01*
X97448761Y-113577714D01*
X97401142Y-113672952D01*
X97353523Y-113720571D01*
X97258285Y-113768190D01*
X96877333Y-113768190D01*
X97734476Y-113244380D02*
X98067809Y-114244380D01*
X98401142Y-113244380D01*
X99258285Y-114244380D02*
X98686857Y-114244380D01*
X98972571Y-114244380D02*
X98972571Y-113244380D01*
X98877333Y-113387238D01*
X98782095Y-113482476D01*
X98686857Y-113530095D01*
X159512367Y-58364380D02*
X159179034Y-57888190D01*
X158940939Y-58364380D02*
X158940939Y-57364380D01*
X159321891Y-57364380D01*
X159417129Y-57412000D01*
X159464748Y-57459619D01*
X159512367Y-57554857D01*
X159512367Y-57697714D01*
X159464748Y-57792952D01*
X159417129Y-57840571D01*
X159321891Y-57888190D01*
X158940939Y-57888190D01*
X160464748Y-58364380D02*
X159893320Y-58364380D01*
X160179034Y-58364380D02*
X160179034Y-57364380D01*
X160083796Y-57507238D01*
X159988558Y-57602476D01*
X159893320Y-57650095D01*
X160798082Y-57364380D02*
X161464748Y-57364380D01*
X161036177Y-58364380D01*
X217035142Y-141930380D02*
X216701809Y-141454190D01*
X216463714Y-141930380D02*
X216463714Y-140930380D01*
X216844666Y-140930380D01*
X216939904Y-140978000D01*
X216987523Y-141025619D01*
X217035142Y-141120857D01*
X217035142Y-141263714D01*
X216987523Y-141358952D01*
X216939904Y-141406571D01*
X216844666Y-141454190D01*
X216463714Y-141454190D01*
X217987523Y-141930380D02*
X217416095Y-141930380D01*
X217701809Y-141930380D02*
X217701809Y-140930380D01*
X217606571Y-141073238D01*
X217511333Y-141168476D01*
X217416095Y-141216095D01*
X218844666Y-140930380D02*
X218654190Y-140930380D01*
X218558952Y-140978000D01*
X218511333Y-141025619D01*
X218416095Y-141168476D01*
X218368476Y-141358952D01*
X218368476Y-141739904D01*
X218416095Y-141835142D01*
X218463714Y-141882761D01*
X218558952Y-141930380D01*
X218749428Y-141930380D01*
X218844666Y-141882761D01*
X218892285Y-141835142D01*
X218939904Y-141739904D01*
X218939904Y-141501809D01*
X218892285Y-141406571D01*
X218844666Y-141358952D01*
X218749428Y-141311333D01*
X218558952Y-141311333D01*
X218463714Y-141358952D01*
X218416095Y-141406571D01*
X218368476Y-141501809D01*
X175760142Y-126944380D02*
X175426809Y-126468190D01*
X175188714Y-126944380D02*
X175188714Y-125944380D01*
X175569666Y-125944380D01*
X175664904Y-125992000D01*
X175712523Y-126039619D01*
X175760142Y-126134857D01*
X175760142Y-126277714D01*
X175712523Y-126372952D01*
X175664904Y-126420571D01*
X175569666Y-126468190D01*
X175188714Y-126468190D01*
X176712523Y-126944380D02*
X176141095Y-126944380D01*
X176426809Y-126944380D02*
X176426809Y-125944380D01*
X176331571Y-126087238D01*
X176236333Y-126182476D01*
X176141095Y-126230095D01*
X177617285Y-125944380D02*
X177141095Y-125944380D01*
X177093476Y-126420571D01*
X177141095Y-126372952D01*
X177236333Y-126325333D01*
X177474428Y-126325333D01*
X177569666Y-126372952D01*
X177617285Y-126420571D01*
X177664904Y-126515809D01*
X177664904Y-126753904D01*
X177617285Y-126849142D01*
X177569666Y-126896761D01*
X177474428Y-126944380D01*
X177236333Y-126944380D01*
X177141095Y-126896761D01*
X177093476Y-126849142D01*
X187777380Y-132786357D02*
X187301190Y-133119690D01*
X187777380Y-133357785D02*
X186777380Y-133357785D01*
X186777380Y-132976833D01*
X186825000Y-132881595D01*
X186872619Y-132833976D01*
X186967857Y-132786357D01*
X187110714Y-132786357D01*
X187205952Y-132833976D01*
X187253571Y-132881595D01*
X187301190Y-132976833D01*
X187301190Y-133357785D01*
X187777380Y-131833976D02*
X187777380Y-132405404D01*
X187777380Y-132119690D02*
X186777380Y-132119690D01*
X186920238Y-132214928D01*
X187015476Y-132310166D01*
X187063095Y-132405404D01*
X187110714Y-130976833D02*
X187777380Y-130976833D01*
X186729761Y-131214928D02*
X187444047Y-131453023D01*
X187444047Y-130833976D01*
X116197142Y-139677380D02*
X115863809Y-139201190D01*
X115625714Y-139677380D02*
X115625714Y-138677380D01*
X116006666Y-138677380D01*
X116101904Y-138725000D01*
X116149523Y-138772619D01*
X116197142Y-138867857D01*
X116197142Y-139010714D01*
X116149523Y-139105952D01*
X116101904Y-139153571D01*
X116006666Y-139201190D01*
X115625714Y-139201190D01*
X117149523Y-139677380D02*
X116578095Y-139677380D01*
X116863809Y-139677380D02*
X116863809Y-138677380D01*
X116768571Y-138820238D01*
X116673333Y-138915476D01*
X116578095Y-138963095D01*
X117482857Y-138677380D02*
X118101904Y-138677380D01*
X117768571Y-139058333D01*
X117911428Y-139058333D01*
X118006666Y-139105952D01*
X118054285Y-139153571D01*
X118101904Y-139248809D01*
X118101904Y-139486904D01*
X118054285Y-139582142D01*
X118006666Y-139629761D01*
X117911428Y-139677380D01*
X117625714Y-139677380D01*
X117530476Y-139629761D01*
X117482857Y-139582142D01*
X116197142Y-130787380D02*
X115863809Y-130311190D01*
X115625714Y-130787380D02*
X115625714Y-129787380D01*
X116006666Y-129787380D01*
X116101904Y-129835000D01*
X116149523Y-129882619D01*
X116197142Y-129977857D01*
X116197142Y-130120714D01*
X116149523Y-130215952D01*
X116101904Y-130263571D01*
X116006666Y-130311190D01*
X115625714Y-130311190D01*
X117149523Y-130787380D02*
X116578095Y-130787380D01*
X116863809Y-130787380D02*
X116863809Y-129787380D01*
X116768571Y-129930238D01*
X116673333Y-130025476D01*
X116578095Y-130073095D01*
X117530476Y-129882619D02*
X117578095Y-129835000D01*
X117673333Y-129787380D01*
X117911428Y-129787380D01*
X118006666Y-129835000D01*
X118054285Y-129882619D01*
X118101904Y-129977857D01*
X118101904Y-130073095D01*
X118054285Y-130215952D01*
X117482857Y-130787380D01*
X118101904Y-130787380D01*
X116197142Y-104117380D02*
X115863809Y-103641190D01*
X115625714Y-104117380D02*
X115625714Y-103117380D01*
X116006666Y-103117380D01*
X116101904Y-103165000D01*
X116149523Y-103212619D01*
X116197142Y-103307857D01*
X116197142Y-103450714D01*
X116149523Y-103545952D01*
X116101904Y-103593571D01*
X116006666Y-103641190D01*
X115625714Y-103641190D01*
X117149523Y-104117380D02*
X116578095Y-104117380D01*
X116863809Y-104117380D02*
X116863809Y-103117380D01*
X116768571Y-103260238D01*
X116673333Y-103355476D01*
X116578095Y-103403095D01*
X118101904Y-104117380D02*
X117530476Y-104117380D01*
X117816190Y-104117380D02*
X117816190Y-103117380D01*
X117720952Y-103260238D01*
X117625714Y-103355476D01*
X117530476Y-103403095D01*
X159377142Y-83162380D02*
X159043809Y-82686190D01*
X158805714Y-83162380D02*
X158805714Y-82162380D01*
X159186666Y-82162380D01*
X159281904Y-82210000D01*
X159329523Y-82257619D01*
X159377142Y-82352857D01*
X159377142Y-82495714D01*
X159329523Y-82590952D01*
X159281904Y-82638571D01*
X159186666Y-82686190D01*
X158805714Y-82686190D01*
X160329523Y-83162380D02*
X159758095Y-83162380D01*
X160043809Y-83162380D02*
X160043809Y-82162380D01*
X159948571Y-82305238D01*
X159853333Y-82400476D01*
X159758095Y-82448095D01*
X160948571Y-82162380D02*
X161043809Y-82162380D01*
X161139047Y-82210000D01*
X161186666Y-82257619D01*
X161234285Y-82352857D01*
X161281904Y-82543333D01*
X161281904Y-82781428D01*
X161234285Y-82971904D01*
X161186666Y-83067142D01*
X161139047Y-83114761D01*
X161043809Y-83162380D01*
X160948571Y-83162380D01*
X160853333Y-83114761D01*
X160805714Y-83067142D01*
X160758095Y-82971904D01*
X160710476Y-82781428D01*
X160710476Y-82543333D01*
X160758095Y-82352857D01*
X160805714Y-82257619D01*
X160853333Y-82210000D01*
X160948571Y-82162380D01*
X116673333Y-121897380D02*
X116340000Y-121421190D01*
X116101904Y-121897380D02*
X116101904Y-120897380D01*
X116482857Y-120897380D01*
X116578095Y-120945000D01*
X116625714Y-120992619D01*
X116673333Y-121087857D01*
X116673333Y-121230714D01*
X116625714Y-121325952D01*
X116578095Y-121373571D01*
X116482857Y-121421190D01*
X116101904Y-121421190D01*
X117149523Y-121897380D02*
X117340000Y-121897380D01*
X117435238Y-121849761D01*
X117482857Y-121802142D01*
X117578095Y-121659285D01*
X117625714Y-121468809D01*
X117625714Y-121087857D01*
X117578095Y-120992619D01*
X117530476Y-120945000D01*
X117435238Y-120897380D01*
X117244761Y-120897380D01*
X117149523Y-120945000D01*
X117101904Y-120992619D01*
X117054285Y-121087857D01*
X117054285Y-121325952D01*
X117101904Y-121421190D01*
X117149523Y-121468809D01*
X117244761Y-121516428D01*
X117435238Y-121516428D01*
X117530476Y-121468809D01*
X117578095Y-121421190D01*
X117625714Y-121325952D01*
X116673333Y-113007380D02*
X116340000Y-112531190D01*
X116101904Y-113007380D02*
X116101904Y-112007380D01*
X116482857Y-112007380D01*
X116578095Y-112055000D01*
X116625714Y-112102619D01*
X116673333Y-112197857D01*
X116673333Y-112340714D01*
X116625714Y-112435952D01*
X116578095Y-112483571D01*
X116482857Y-112531190D01*
X116101904Y-112531190D01*
X117244761Y-112435952D02*
X117149523Y-112388333D01*
X117101904Y-112340714D01*
X117054285Y-112245476D01*
X117054285Y-112197857D01*
X117101904Y-112102619D01*
X117149523Y-112055000D01*
X117244761Y-112007380D01*
X117435238Y-112007380D01*
X117530476Y-112055000D01*
X117578095Y-112102619D01*
X117625714Y-112197857D01*
X117625714Y-112245476D01*
X117578095Y-112340714D01*
X117530476Y-112388333D01*
X117435238Y-112435952D01*
X117244761Y-112435952D01*
X117149523Y-112483571D01*
X117101904Y-112531190D01*
X117054285Y-112626428D01*
X117054285Y-112816904D01*
X117101904Y-112912142D01*
X117149523Y-112959761D01*
X117244761Y-113007380D01*
X117435238Y-113007380D01*
X117530476Y-112959761D01*
X117578095Y-112912142D01*
X117625714Y-112816904D01*
X117625714Y-112626428D01*
X117578095Y-112531190D01*
X117530476Y-112483571D01*
X117435238Y-112435952D01*
X116673333Y-95227380D02*
X116340000Y-94751190D01*
X116101904Y-95227380D02*
X116101904Y-94227380D01*
X116482857Y-94227380D01*
X116578095Y-94275000D01*
X116625714Y-94322619D01*
X116673333Y-94417857D01*
X116673333Y-94560714D01*
X116625714Y-94655952D01*
X116578095Y-94703571D01*
X116482857Y-94751190D01*
X116101904Y-94751190D01*
X117006666Y-94227380D02*
X117673333Y-94227380D01*
X117244761Y-95227380D01*
X159853333Y-70556380D02*
X159520000Y-70080190D01*
X159281904Y-70556380D02*
X159281904Y-69556380D01*
X159662857Y-69556380D01*
X159758095Y-69604000D01*
X159805714Y-69651619D01*
X159853333Y-69746857D01*
X159853333Y-69889714D01*
X159805714Y-69984952D01*
X159758095Y-70032571D01*
X159662857Y-70080190D01*
X159281904Y-70080190D01*
X160710476Y-69556380D02*
X160520000Y-69556380D01*
X160424761Y-69604000D01*
X160377142Y-69651619D01*
X160281904Y-69794476D01*
X160234285Y-69984952D01*
X160234285Y-70365904D01*
X160281904Y-70461142D01*
X160329523Y-70508761D01*
X160424761Y-70556380D01*
X160615238Y-70556380D01*
X160710476Y-70508761D01*
X160758095Y-70461142D01*
X160805714Y-70365904D01*
X160805714Y-70127809D01*
X160758095Y-70032571D01*
X160710476Y-69984952D01*
X160615238Y-69937333D01*
X160424761Y-69937333D01*
X160329523Y-69984952D01*
X160281904Y-70032571D01*
X160234285Y-70127809D01*
X183729333Y-68524380D02*
X183396000Y-68048190D01*
X183157904Y-68524380D02*
X183157904Y-67524380D01*
X183538857Y-67524380D01*
X183634095Y-67572000D01*
X183681714Y-67619619D01*
X183729333Y-67714857D01*
X183729333Y-67857714D01*
X183681714Y-67952952D01*
X183634095Y-68000571D01*
X183538857Y-68048190D01*
X183157904Y-68048190D01*
X184634095Y-67524380D02*
X184157904Y-67524380D01*
X184110285Y-68000571D01*
X184157904Y-67952952D01*
X184253142Y-67905333D01*
X184491238Y-67905333D01*
X184586476Y-67952952D01*
X184634095Y-68000571D01*
X184681714Y-68095809D01*
X184681714Y-68333904D01*
X184634095Y-68429142D01*
X184586476Y-68476761D01*
X184491238Y-68524380D01*
X184253142Y-68524380D01*
X184157904Y-68476761D01*
X184110285Y-68429142D01*
X129484380Y-64428666D02*
X129008190Y-64762000D01*
X129484380Y-65000095D02*
X128484380Y-65000095D01*
X128484380Y-64619142D01*
X128532000Y-64523904D01*
X128579619Y-64476285D01*
X128674857Y-64428666D01*
X128817714Y-64428666D01*
X128912952Y-64476285D01*
X128960571Y-64523904D01*
X129008190Y-64619142D01*
X129008190Y-65000095D01*
X128817714Y-63571523D02*
X129484380Y-63571523D01*
X128436761Y-63809619D02*
X129151047Y-64047714D01*
X129151047Y-63428666D01*
X122388333Y-76652380D02*
X122055000Y-76176190D01*
X121816904Y-76652380D02*
X121816904Y-75652380D01*
X122197857Y-75652380D01*
X122293095Y-75700000D01*
X122340714Y-75747619D01*
X122388333Y-75842857D01*
X122388333Y-75985714D01*
X122340714Y-76080952D01*
X122293095Y-76128571D01*
X122197857Y-76176190D01*
X121816904Y-76176190D01*
X122721666Y-75652380D02*
X123340714Y-75652380D01*
X123007380Y-76033333D01*
X123150238Y-76033333D01*
X123245476Y-76080952D01*
X123293095Y-76128571D01*
X123340714Y-76223809D01*
X123340714Y-76461904D01*
X123293095Y-76557142D01*
X123245476Y-76604761D01*
X123150238Y-76652380D01*
X122864523Y-76652380D01*
X122769285Y-76604761D01*
X122721666Y-76557142D01*
X114053880Y-81129166D02*
X113577690Y-81462500D01*
X114053880Y-81700595D02*
X113053880Y-81700595D01*
X113053880Y-81319642D01*
X113101500Y-81224404D01*
X113149119Y-81176785D01*
X113244357Y-81129166D01*
X113387214Y-81129166D01*
X113482452Y-81176785D01*
X113530071Y-81224404D01*
X113577690Y-81319642D01*
X113577690Y-81700595D01*
X113149119Y-80748214D02*
X113101500Y-80700595D01*
X113053880Y-80605357D01*
X113053880Y-80367261D01*
X113101500Y-80272023D01*
X113149119Y-80224404D01*
X113244357Y-80176785D01*
X113339595Y-80176785D01*
X113482452Y-80224404D01*
X114053880Y-80795833D01*
X114053880Y-80176785D01*
X111005880Y-81002166D02*
X110529690Y-81335500D01*
X111005880Y-81573595D02*
X110005880Y-81573595D01*
X110005880Y-81192642D01*
X110053500Y-81097404D01*
X110101119Y-81049785D01*
X110196357Y-81002166D01*
X110339214Y-81002166D01*
X110434452Y-81049785D01*
X110482071Y-81097404D01*
X110529690Y-81192642D01*
X110529690Y-81573595D01*
X111005880Y-80049785D02*
X111005880Y-80621214D01*
X111005880Y-80335500D02*
X110005880Y-80335500D01*
X110148738Y-80430738D01*
X110243976Y-80525976D01*
X110291595Y-80621214D01*
X207287904Y-116784380D02*
X207287904Y-115784380D01*
X207859333Y-116784380D02*
X207430761Y-116212952D01*
X207859333Y-115784380D02*
X207287904Y-116355809D01*
X208240285Y-115879619D02*
X208287904Y-115832000D01*
X208383142Y-115784380D01*
X208621238Y-115784380D01*
X208716476Y-115832000D01*
X208764095Y-115879619D01*
X208811714Y-115974857D01*
X208811714Y-116070095D01*
X208764095Y-116212952D01*
X208192666Y-116784380D01*
X208811714Y-116784380D01*
X207287904Y-103576380D02*
X207287904Y-102576380D01*
X207859333Y-103576380D02*
X207430761Y-103004952D01*
X207859333Y-102576380D02*
X207287904Y-103147809D01*
X208811714Y-103576380D02*
X208240285Y-103576380D01*
X208526000Y-103576380D02*
X208526000Y-102576380D01*
X208430761Y-102719238D01*
X208335523Y-102814476D01*
X208240285Y-102862095D01*
D15*
X230284523Y-134638333D02*
X231191666Y-134638333D01*
X231373095Y-134698809D01*
X231494047Y-134819761D01*
X231554523Y-135001190D01*
X231554523Y-135122142D01*
X230284523Y-134154523D02*
X230284523Y-133307857D01*
X231554523Y-133852142D01*
X230284523Y-124438333D02*
X231191666Y-124438333D01*
X231373095Y-124498809D01*
X231494047Y-124619761D01*
X231554523Y-124801190D01*
X231554523Y-124922142D01*
X230284523Y-123289285D02*
X230284523Y-123531190D01*
X230345000Y-123652142D01*
X230405476Y-123712619D01*
X230586904Y-123833571D01*
X230828809Y-123894047D01*
X231312619Y-123894047D01*
X231433571Y-123833571D01*
X231494047Y-123773095D01*
X231554523Y-123652142D01*
X231554523Y-123410238D01*
X231494047Y-123289285D01*
X231433571Y-123228809D01*
X231312619Y-123168333D01*
X231010238Y-123168333D01*
X230889285Y-123228809D01*
X230828809Y-123289285D01*
X230768333Y-123410238D01*
X230768333Y-123652142D01*
X230828809Y-123773095D01*
X230889285Y-123833571D01*
X231010238Y-123894047D01*
X230284523Y-111738333D02*
X231191666Y-111738333D01*
X231373095Y-111798809D01*
X231494047Y-111919761D01*
X231554523Y-112101190D01*
X231554523Y-112222142D01*
X230284523Y-110528809D02*
X230284523Y-111133571D01*
X230889285Y-111194047D01*
X230828809Y-111133571D01*
X230768333Y-111012619D01*
X230768333Y-110710238D01*
X230828809Y-110589285D01*
X230889285Y-110528809D01*
X231010238Y-110468333D01*
X231312619Y-110468333D01*
X231433571Y-110528809D01*
X231494047Y-110589285D01*
X231554523Y-110710238D01*
X231554523Y-111012619D01*
X231494047Y-111133571D01*
X231433571Y-111194047D01*
X230284523Y-100328333D02*
X231191666Y-100328333D01*
X231373095Y-100388809D01*
X231494047Y-100509761D01*
X231554523Y-100691190D01*
X231554523Y-100812142D01*
X230707857Y-99179285D02*
X231554523Y-99179285D01*
X230224047Y-99481666D02*
X231131190Y-99784047D01*
X231131190Y-98997857D01*
D10*
X230338380Y-83899333D02*
X231052666Y-83899333D01*
X231195523Y-83946952D01*
X231290761Y-84042190D01*
X231338380Y-84185047D01*
X231338380Y-84280285D01*
X230338380Y-83518380D02*
X230338380Y-82899333D01*
X230719333Y-83232666D01*
X230719333Y-83089809D01*
X230766952Y-82994571D01*
X230814571Y-82946952D01*
X230909809Y-82899333D01*
X231147904Y-82899333D01*
X231243142Y-82946952D01*
X231290761Y-82994571D01*
X231338380Y-83089809D01*
X231338380Y-83375523D01*
X231290761Y-83470761D01*
X231243142Y-83518380D01*
X200175904Y-142184380D02*
X200175904Y-141184380D01*
X200414000Y-141184380D01*
X200556857Y-141232000D01*
X200652095Y-141327238D01*
X200699714Y-141422476D01*
X200747333Y-141612952D01*
X200747333Y-141755809D01*
X200699714Y-141946285D01*
X200652095Y-142041523D01*
X200556857Y-142136761D01*
X200414000Y-142184380D01*
X200175904Y-142184380D01*
X201223523Y-142184380D02*
X201414000Y-142184380D01*
X201509238Y-142136761D01*
X201556857Y-142089142D01*
X201652095Y-141946285D01*
X201699714Y-141755809D01*
X201699714Y-141374857D01*
X201652095Y-141279619D01*
X201604476Y-141232000D01*
X201509238Y-141184380D01*
X201318761Y-141184380D01*
X201223523Y-141232000D01*
X201175904Y-141279619D01*
X201128285Y-141374857D01*
X201128285Y-141612952D01*
X201175904Y-141708190D01*
X201223523Y-141755809D01*
X201318761Y-141803428D01*
X201509238Y-141803428D01*
X201604476Y-141755809D01*
X201652095Y-141708190D01*
X201699714Y-141612952D01*
X218336904Y-55062380D02*
X218336904Y-54062380D01*
X218575000Y-54062380D01*
X218717857Y-54110000D01*
X218813095Y-54205238D01*
X218860714Y-54300476D01*
X218908333Y-54490952D01*
X218908333Y-54633809D01*
X218860714Y-54824285D01*
X218813095Y-54919523D01*
X218717857Y-55014761D01*
X218575000Y-55062380D01*
X218336904Y-55062380D01*
X219479761Y-54490952D02*
X219384523Y-54443333D01*
X219336904Y-54395714D01*
X219289285Y-54300476D01*
X219289285Y-54252857D01*
X219336904Y-54157619D01*
X219384523Y-54110000D01*
X219479761Y-54062380D01*
X219670238Y-54062380D01*
X219765476Y-54110000D01*
X219813095Y-54157619D01*
X219860714Y-54252857D01*
X219860714Y-54300476D01*
X219813095Y-54395714D01*
X219765476Y-54443333D01*
X219670238Y-54490952D01*
X219479761Y-54490952D01*
X219384523Y-54538571D01*
X219336904Y-54586190D01*
X219289285Y-54681428D01*
X219289285Y-54871904D01*
X219336904Y-54967142D01*
X219384523Y-55014761D01*
X219479761Y-55062380D01*
X219670238Y-55062380D01*
X219765476Y-55014761D01*
X219813095Y-54967142D01*
X219860714Y-54871904D01*
X219860714Y-54681428D01*
X219813095Y-54586190D01*
X219765476Y-54538571D01*
X219670238Y-54490952D01*
X217368380Y-133072095D02*
X216368380Y-133072095D01*
X216368380Y-132834000D01*
X216416000Y-132691142D01*
X216511238Y-132595904D01*
X216606476Y-132548285D01*
X216796952Y-132500666D01*
X216939809Y-132500666D01*
X217130285Y-132548285D01*
X217225523Y-132595904D01*
X217320761Y-132691142D01*
X217368380Y-132834000D01*
X217368380Y-133072095D01*
X216368380Y-132167333D02*
X216368380Y-131500666D01*
X217368380Y-131929238D01*
X180871904Y-59888380D02*
X180871904Y-58888380D01*
X181110000Y-58888380D01*
X181252857Y-58936000D01*
X181348095Y-59031238D01*
X181395714Y-59126476D01*
X181443333Y-59316952D01*
X181443333Y-59459809D01*
X181395714Y-59650285D01*
X181348095Y-59745523D01*
X181252857Y-59840761D01*
X181110000Y-59888380D01*
X180871904Y-59888380D01*
X182300476Y-58888380D02*
X182110000Y-58888380D01*
X182014761Y-58936000D01*
X181967142Y-58983619D01*
X181871904Y-59126476D01*
X181824285Y-59316952D01*
X181824285Y-59697904D01*
X181871904Y-59793142D01*
X181919523Y-59840761D01*
X182014761Y-59888380D01*
X182205238Y-59888380D01*
X182300476Y-59840761D01*
X182348095Y-59793142D01*
X182395714Y-59697904D01*
X182395714Y-59459809D01*
X182348095Y-59364571D01*
X182300476Y-59316952D01*
X182205238Y-59269333D01*
X182014761Y-59269333D01*
X181919523Y-59316952D01*
X181871904Y-59364571D01*
X181824285Y-59459809D01*
X192285880Y-129325595D02*
X191285880Y-129325595D01*
X191285880Y-129087500D01*
X191333500Y-128944642D01*
X191428738Y-128849404D01*
X191523976Y-128801785D01*
X191714452Y-128754166D01*
X191857309Y-128754166D01*
X192047785Y-128801785D01*
X192143023Y-128849404D01*
X192238261Y-128944642D01*
X192285880Y-129087500D01*
X192285880Y-129325595D01*
X191285880Y-127849404D02*
X191285880Y-128325595D01*
X191762071Y-128373214D01*
X191714452Y-128325595D01*
X191666833Y-128230357D01*
X191666833Y-127992261D01*
X191714452Y-127897023D01*
X191762071Y-127849404D01*
X191857309Y-127801785D01*
X192095404Y-127801785D01*
X192190642Y-127849404D01*
X192238261Y-127897023D01*
X192285880Y-127992261D01*
X192285880Y-128230357D01*
X192238261Y-128325595D01*
X192190642Y-128373214D01*
X183411904Y-112777380D02*
X183411904Y-111777380D01*
X183650000Y-111777380D01*
X183792857Y-111825000D01*
X183888095Y-111920238D01*
X183935714Y-112015476D01*
X183983333Y-112205952D01*
X183983333Y-112348809D01*
X183935714Y-112539285D01*
X183888095Y-112634523D01*
X183792857Y-112729761D01*
X183650000Y-112777380D01*
X183411904Y-112777380D01*
X184840476Y-112110714D02*
X184840476Y-112777380D01*
X184602380Y-111729761D02*
X184364285Y-112444047D01*
X184983333Y-112444047D01*
X190952380Y-58523095D02*
X189952380Y-58523095D01*
X189952380Y-58285000D01*
X190000000Y-58142142D01*
X190095238Y-58046904D01*
X190190476Y-57999285D01*
X190380952Y-57951666D01*
X190523809Y-57951666D01*
X190714285Y-57999285D01*
X190809523Y-58046904D01*
X190904761Y-58142142D01*
X190952380Y-58285000D01*
X190952380Y-58523095D01*
X189952380Y-57618333D02*
X189952380Y-56999285D01*
X190333333Y-57332619D01*
X190333333Y-57189761D01*
X190380952Y-57094523D01*
X190428571Y-57046904D01*
X190523809Y-56999285D01*
X190761904Y-56999285D01*
X190857142Y-57046904D01*
X190904761Y-57094523D01*
X190952380Y-57189761D01*
X190952380Y-57475476D01*
X190904761Y-57570714D01*
X190857142Y-57618333D01*
X104925904Y-74239380D02*
X104925904Y-73239380D01*
X105164000Y-73239380D01*
X105306857Y-73287000D01*
X105402095Y-73382238D01*
X105449714Y-73477476D01*
X105497333Y-73667952D01*
X105497333Y-73810809D01*
X105449714Y-74001285D01*
X105402095Y-74096523D01*
X105306857Y-74191761D01*
X105164000Y-74239380D01*
X104925904Y-74239380D01*
X105878285Y-73334619D02*
X105925904Y-73287000D01*
X106021142Y-73239380D01*
X106259238Y-73239380D01*
X106354476Y-73287000D01*
X106402095Y-73334619D01*
X106449714Y-73429857D01*
X106449714Y-73525095D01*
X106402095Y-73667952D01*
X105830666Y-74239380D01*
X106449714Y-74239380D01*
X104925904Y-67254380D02*
X104925904Y-66254380D01*
X105164000Y-66254380D01*
X105306857Y-66302000D01*
X105402095Y-66397238D01*
X105449714Y-66492476D01*
X105497333Y-66682952D01*
X105497333Y-66825809D01*
X105449714Y-67016285D01*
X105402095Y-67111523D01*
X105306857Y-67206761D01*
X105164000Y-67254380D01*
X104925904Y-67254380D01*
X106449714Y-67254380D02*
X105878285Y-67254380D01*
X106164000Y-67254380D02*
X106164000Y-66254380D01*
X106068761Y-66397238D01*
X105973523Y-66492476D01*
X105878285Y-66540095D01*
X168314642Y-129960666D02*
X168362261Y-130008285D01*
X168409880Y-130151142D01*
X168409880Y-130246380D01*
X168362261Y-130389238D01*
X168267023Y-130484476D01*
X168171785Y-130532095D01*
X167981309Y-130579714D01*
X167838452Y-130579714D01*
X167647976Y-130532095D01*
X167552738Y-130484476D01*
X167457500Y-130389238D01*
X167409880Y-130246380D01*
X167409880Y-130151142D01*
X167457500Y-130008285D01*
X167505119Y-129960666D01*
X167743214Y-129103523D02*
X168409880Y-129103523D01*
X167362261Y-129341619D02*
X168076547Y-129579714D01*
X168076547Y-128960666D01*
X166152142Y-138045166D02*
X166199761Y-138092785D01*
X166247380Y-138235642D01*
X166247380Y-138330880D01*
X166199761Y-138473738D01*
X166104523Y-138568976D01*
X166009285Y-138616595D01*
X165818809Y-138664214D01*
X165675952Y-138664214D01*
X165485476Y-138616595D01*
X165390238Y-138568976D01*
X165295000Y-138473738D01*
X165247380Y-138330880D01*
X165247380Y-138235642D01*
X165295000Y-138092785D01*
X165342619Y-138045166D01*
X165247380Y-137711833D02*
X165247380Y-137092785D01*
X165628333Y-137426119D01*
X165628333Y-137283261D01*
X165675952Y-137188023D01*
X165723571Y-137140404D01*
X165818809Y-137092785D01*
X166056904Y-137092785D01*
X166152142Y-137140404D01*
X166199761Y-137188023D01*
X166247380Y-137283261D01*
X166247380Y-137568976D01*
X166199761Y-137664214D01*
X166152142Y-137711833D01*
X131405333Y-70461142D02*
X131357714Y-70508761D01*
X131214857Y-70556380D01*
X131119619Y-70556380D01*
X130976761Y-70508761D01*
X130881523Y-70413523D01*
X130833904Y-70318285D01*
X130786285Y-70127809D01*
X130786285Y-69984952D01*
X130833904Y-69794476D01*
X130881523Y-69699238D01*
X130976761Y-69604000D01*
X131119619Y-69556380D01*
X131214857Y-69556380D01*
X131357714Y-69604000D01*
X131405333Y-69651619D01*
X131786285Y-69651619D02*
X131833904Y-69604000D01*
X131929142Y-69556380D01*
X132167238Y-69556380D01*
X132262476Y-69604000D01*
X132310095Y-69651619D01*
X132357714Y-69746857D01*
X132357714Y-69842095D01*
X132310095Y-69984952D01*
X131738666Y-70556380D01*
X132357714Y-70556380D01*
X123023333Y-56745142D02*
X122975714Y-56792761D01*
X122832857Y-56840380D01*
X122737619Y-56840380D01*
X122594761Y-56792761D01*
X122499523Y-56697523D01*
X122451904Y-56602285D01*
X122404285Y-56411809D01*
X122404285Y-56268952D01*
X122451904Y-56078476D01*
X122499523Y-55983238D01*
X122594761Y-55888000D01*
X122737619Y-55840380D01*
X122832857Y-55840380D01*
X122975714Y-55888000D01*
X123023333Y-55935619D01*
X123975714Y-56840380D02*
X123404285Y-56840380D01*
X123690000Y-56840380D02*
X123690000Y-55840380D01*
X123594761Y-55983238D01*
X123499523Y-56078476D01*
X123404285Y-56126095D01*
M02*
