G04 #@! TF.GenerationSoftware,KiCad,Pcbnew,(5.1.4)-1*
G04 #@! TF.CreationDate,2019-09-08T21:38:06+01:00*
G04 #@! TF.ProjectId,powerBoard,706f7765-7242-46f6-9172-642e6b696361,rev?*
G04 #@! TF.SameCoordinates,Original*
G04 #@! TF.FileFunction,Soldermask,Bot*
G04 #@! TF.FilePolarity,Negative*
%FSLAX46Y46*%
G04 Gerber Fmt 4.6, Leading zero omitted, Abs format (unit mm)*
G04 Created by KiCad (PCBNEW (5.1.4)-1) date 2019-09-08 21:38:06*
%MOMM*%
%LPD*%
G04 APERTURE LIST*
%ADD10R,2.000000X2.000000*%
%ADD11O,2.000000X2.000000*%
%ADD12C,1.924000*%
%ADD13C,4.400500*%
%ADD14C,3.100000*%
%ADD15C,2.400000*%
G04 APERTURE END LIST*
D10*
X156680000Y-82700000D03*
D11*
X164300000Y-82700000D03*
D12*
X157950000Y-63650000D03*
X157950000Y-68730000D03*
X157950000Y-73810000D03*
X163030000Y-73810000D03*
X163030000Y-68730000D03*
X163030000Y-63650000D03*
D13*
X122390000Y-115085000D03*
X90640000Y-134770000D03*
X85560000Y-92860000D03*
X85560000Y-74445000D03*
X122390000Y-107465000D03*
X90640000Y-107465000D03*
X122390000Y-66190000D03*
X105880000Y-54125000D03*
X91275000Y-66825000D03*
X91275000Y-85240000D03*
X96990000Y-92860000D03*
X105880000Y-61745000D03*
X122390000Y-85240000D03*
X122390000Y-92860000D03*
X90640000Y-127150000D03*
X96990000Y-74445000D03*
X122390000Y-73810000D03*
X90640000Y-115085000D03*
D14*
X58600000Y-139450000D03*
X58600000Y-50550000D03*
X212240000Y-139450000D03*
X212240000Y-50550000D03*
D15*
X206210000Y-73175000D03*
X206210000Y-70675000D03*
X206210000Y-68175000D03*
X206210000Y-65675000D03*
X206210000Y-63175000D03*
X206210000Y-58175000D03*
X206210000Y-55675000D03*
X206210000Y-60675000D03*
X206210000Y-80795000D03*
X206210000Y-78295000D03*
X206210000Y-88415000D03*
X206210000Y-85915000D03*
X206210000Y-93535000D03*
X206210000Y-96035000D03*
X206210000Y-103655000D03*
X206210000Y-101155000D03*
X206210000Y-108775000D03*
X206210000Y-111275000D03*
X206210000Y-118895000D03*
X206210000Y-116395000D03*
X206210000Y-124015000D03*
X206210000Y-126515000D03*
X206210000Y-131635000D03*
X206210000Y-134135000D03*
M02*
