M48
; DRILL file {KiCad (5.1.4)-1} date 08/09/2019 21:38:10
; FORMAT={-:-/ absolute / inch / decimal}
; #@! TF.CreationDate,2019-09-08T21:38:10+01:00
; #@! TF.GenerationSoftware,Kicad,Pcbnew,(5.1.4)-1
; #@! TF.FileFunction,Plated,1,2,PTH
FMAT,2
INCH
T1C0.0157
T2C0.0315
T3C0.0374
T4C0.0472
T5C0.0591
%
G90
G05
T1
X6.2185Y-2.9059
X6.3685Y-3.0309
X7.9435Y-2.6309
T2
X6.1685Y-3.2559
X6.4685Y-3.2559
T3
X6.2185Y-2.5059
X6.2185Y-2.7059
X6.2185Y-2.9059
X6.4185Y-2.5059
X6.4185Y-2.7059
X6.4185Y-2.9059
T4
X8.1185Y-3.9825
X8.1185Y-4.0809
X8.1185Y-2.1919
X8.1185Y-2.2904
X8.1185Y-2.3888
X8.1185Y-2.4872
X8.1185Y-2.5856
X8.1185Y-2.6841
X8.1185Y-2.7825
X8.1185Y-2.8809
X8.1185Y-3.6825
X8.1185Y-3.7809
X8.1185Y-5.1825
X8.1185Y-5.2809
X8.1185Y-3.0825
X8.1185Y-3.1809
X8.1185Y-4.2825
X8.1185Y-4.3809
X8.1185Y-3.3825
X8.1185Y-3.4809
X8.1185Y-4.5825
X8.1185Y-4.6809
X8.1185Y-4.8825
X8.1185Y-4.9809
T5
X3.3685Y-3.6559
X3.5685Y-4.5309
X3.5935Y-2.6309
X3.3685Y-2.9309
X3.8185Y-3.6559
X4.1685Y-2.1309
X4.8185Y-3.3559
X4.8185Y-4.5309
X3.8185Y-2.9309
X4.8185Y-4.2309
X4.8185Y-2.6059
X3.5685Y-5.0059
X3.5685Y-5.3059
X4.8185Y-3.6559
X3.5685Y-4.2309
X4.8185Y-2.9059
X3.5935Y-3.3559
X4.1685Y-2.4309
T0
M30
