G04 #@! TF.GenerationSoftware,KiCad,Pcbnew,(5.1.4)-1*
G04 #@! TF.CreationDate,2019-09-08T21:38:06+01:00*
G04 #@! TF.ProjectId,powerBoard,706f7765-7242-46f6-9172-642e6b696361,rev?*
G04 #@! TF.SameCoordinates,Original*
G04 #@! TF.FileFunction,Legend,Top*
G04 #@! TF.FilePolarity,Positive*
%FSLAX46Y46*%
G04 Gerber Fmt 4.6, Leading zero omitted, Abs format (unit mm)*
G04 Created by KiCad (PCBNEW (5.1.4)-1) date 2019-09-08 21:38:06*
%MOMM*%
%LPD*%
G04 APERTURE LIST*
%ADD10C,0.120000*%
%ADD11C,0.150000*%
G04 APERTURE END LIST*
D10*
X158370000Y-81580000D02*
X158370000Y-83820000D01*
X158370000Y-83820000D02*
X162610000Y-83820000D01*
X162610000Y-83820000D02*
X162610000Y-81580000D01*
X162610000Y-81580000D02*
X158370000Y-81580000D01*
X157720000Y-82700000D02*
X158370000Y-82700000D01*
X163260000Y-82700000D02*
X162610000Y-82700000D01*
X159090000Y-81580000D02*
X159090000Y-83820000D01*
X159210000Y-81580000D02*
X159210000Y-83820000D01*
X158970000Y-81580000D02*
X158970000Y-83820000D01*
D11*
X162014000Y-63650000D02*
X158966000Y-63650000D01*
X158966000Y-63650000D02*
X158966000Y-63142000D01*
X158966000Y-63142000D02*
X162014000Y-63142000D01*
X162014000Y-63142000D02*
X162014000Y-63650000D01*
D10*
X205003500Y-75397500D02*
X205003500Y-53475000D01*
X215163500Y-53475000D02*
X215163500Y-75397500D01*
X215163500Y-75397500D02*
X205003500Y-75397500D01*
X204940000Y-53475000D02*
X215227000Y-53475000D01*
X205003500Y-83017500D02*
X205003500Y-76032500D01*
X205003500Y-76032500D02*
X215163500Y-76096000D01*
X215163500Y-76096000D02*
X215163500Y-83017500D01*
X215163500Y-83017500D02*
X205003500Y-83017500D01*
X205003500Y-90637500D02*
X205003500Y-83652500D01*
X205003500Y-83652500D02*
X215163500Y-83716000D01*
X215163500Y-83716000D02*
X215163500Y-90637500D01*
X215163500Y-90637500D02*
X205003500Y-90637500D01*
X215163500Y-98257500D02*
X205003500Y-98257500D01*
X215163500Y-91336000D02*
X215163500Y-98257500D01*
X205003500Y-91272500D02*
X215163500Y-91336000D01*
X205003500Y-98257500D02*
X205003500Y-91272500D01*
X205003500Y-105877500D02*
X205003500Y-98892500D01*
X205003500Y-98892500D02*
X215163500Y-98956000D01*
X215163500Y-98956000D02*
X215163500Y-105877500D01*
X215163500Y-105877500D02*
X205003500Y-105877500D01*
X215163500Y-113497500D02*
X205003500Y-113497500D01*
X215163500Y-106576000D02*
X215163500Y-113497500D01*
X205003500Y-106512500D02*
X215163500Y-106576000D01*
X205003500Y-113497500D02*
X205003500Y-106512500D01*
X205003500Y-121117500D02*
X205003500Y-114132500D01*
X205003500Y-114132500D02*
X215163500Y-114196000D01*
X215163500Y-114196000D02*
X215163500Y-121117500D01*
X215163500Y-121117500D02*
X205003500Y-121117500D01*
X215163500Y-128737500D02*
X205003500Y-128737500D01*
X215163500Y-121816000D02*
X215163500Y-128737500D01*
X205003500Y-121752500D02*
X215163500Y-121816000D01*
X205003500Y-128737500D02*
X205003500Y-121752500D01*
X215163500Y-136357500D02*
X205003500Y-136357500D01*
X215163500Y-129436000D02*
X215163500Y-136357500D01*
X205003500Y-129372500D02*
X215163500Y-129436000D01*
X205003500Y-136357500D02*
X205003500Y-129372500D01*
D11*
X159751904Y-81032380D02*
X159751904Y-80032380D01*
X159990000Y-80032380D01*
X160132857Y-80080000D01*
X160228095Y-80175238D01*
X160275714Y-80270476D01*
X160323333Y-80460952D01*
X160323333Y-80603809D01*
X160275714Y-80794285D01*
X160228095Y-80889523D01*
X160132857Y-80984761D01*
X159990000Y-81032380D01*
X159751904Y-81032380D01*
X161275714Y-81032380D02*
X160704285Y-81032380D01*
X160990000Y-81032380D02*
X160990000Y-80032380D01*
X160894761Y-80175238D01*
X160799523Y-80270476D01*
X160704285Y-80318095D01*
X155227380Y-69468095D02*
X154227380Y-69468095D01*
X155227380Y-68896666D02*
X154655952Y-69325238D01*
X154227380Y-68896666D02*
X154798809Y-69468095D01*
X155227380Y-67944285D02*
X155227380Y-68515714D01*
X155227380Y-68230000D02*
X154227380Y-68230000D01*
X154370238Y-68325238D01*
X154465476Y-68420476D01*
X154513095Y-68515714D01*
X121151904Y-110727380D02*
X121151904Y-111536904D01*
X121199523Y-111632142D01*
X121247142Y-111679761D01*
X121342380Y-111727380D01*
X121532857Y-111727380D01*
X121628095Y-111679761D01*
X121675714Y-111632142D01*
X121723333Y-111536904D01*
X121723333Y-110727380D01*
X122723333Y-111727380D02*
X122151904Y-111727380D01*
X122437619Y-111727380D02*
X122437619Y-110727380D01*
X122342380Y-110870238D01*
X122247142Y-110965476D01*
X122151904Y-111013095D01*
X123580476Y-110727380D02*
X123390000Y-110727380D01*
X123294761Y-110775000D01*
X123247142Y-110822619D01*
X123151904Y-110965476D01*
X123104285Y-111155952D01*
X123104285Y-111536904D01*
X123151904Y-111632142D01*
X123199523Y-111679761D01*
X123294761Y-111727380D01*
X123485238Y-111727380D01*
X123580476Y-111679761D01*
X123628095Y-111632142D01*
X123675714Y-111536904D01*
X123675714Y-111298809D01*
X123628095Y-111203571D01*
X123580476Y-111155952D01*
X123485238Y-111108333D01*
X123294761Y-111108333D01*
X123199523Y-111155952D01*
X123151904Y-111203571D01*
X123104285Y-111298809D01*
X108595238Y-115537380D02*
X108261904Y-115061190D01*
X108023809Y-115537380D02*
X108023809Y-114537380D01*
X108404761Y-114537380D01*
X108500000Y-114585000D01*
X108547619Y-114632619D01*
X108595238Y-114727857D01*
X108595238Y-114870714D01*
X108547619Y-114965952D01*
X108500000Y-115013571D01*
X108404761Y-115061190D01*
X108023809Y-115061190D01*
X109452380Y-115537380D02*
X109452380Y-115013571D01*
X109404761Y-114918333D01*
X109309523Y-114870714D01*
X109119047Y-114870714D01*
X109023809Y-114918333D01*
X109452380Y-115489761D02*
X109357142Y-115537380D01*
X109119047Y-115537380D01*
X109023809Y-115489761D01*
X108976190Y-115394523D01*
X108976190Y-115299285D01*
X109023809Y-115204047D01*
X109119047Y-115156428D01*
X109357142Y-115156428D01*
X109452380Y-115108809D01*
X110357142Y-115537380D02*
X110357142Y-114537380D01*
X110357142Y-115489761D02*
X110261904Y-115537380D01*
X110071428Y-115537380D01*
X109976190Y-115489761D01*
X109928571Y-115442142D01*
X109880952Y-115346904D01*
X109880952Y-115061190D01*
X109928571Y-114965952D01*
X109976190Y-114918333D01*
X110071428Y-114870714D01*
X110261904Y-114870714D01*
X110357142Y-114918333D01*
X110833333Y-115537380D02*
X110833333Y-114870714D01*
X110833333Y-114537380D02*
X110785714Y-114585000D01*
X110833333Y-114632619D01*
X110880952Y-114585000D01*
X110833333Y-114537380D01*
X110833333Y-114632619D01*
X111452380Y-115537380D02*
X111357142Y-115489761D01*
X111309523Y-115442142D01*
X111261904Y-115346904D01*
X111261904Y-115061190D01*
X111309523Y-114965952D01*
X111357142Y-114918333D01*
X111452380Y-114870714D01*
X111595238Y-114870714D01*
X111690476Y-114918333D01*
X111738095Y-114965952D01*
X111785714Y-115061190D01*
X111785714Y-115346904D01*
X111738095Y-115442142D01*
X111690476Y-115489761D01*
X111595238Y-115537380D01*
X111452380Y-115537380D01*
X112833333Y-114537380D02*
X113404761Y-114537380D01*
X113119047Y-115537380D02*
X113119047Y-114537380D01*
X114119047Y-115489761D02*
X114023809Y-115537380D01*
X113833333Y-115537380D01*
X113738095Y-115489761D01*
X113690476Y-115394523D01*
X113690476Y-115013571D01*
X113738095Y-114918333D01*
X113833333Y-114870714D01*
X114023809Y-114870714D01*
X114119047Y-114918333D01*
X114166666Y-115013571D01*
X114166666Y-115108809D01*
X113690476Y-115204047D01*
X114738095Y-115537380D02*
X114642857Y-115489761D01*
X114595238Y-115394523D01*
X114595238Y-114537380D01*
X115500000Y-115489761D02*
X115404761Y-115537380D01*
X115214285Y-115537380D01*
X115119047Y-115489761D01*
X115071428Y-115394523D01*
X115071428Y-115013571D01*
X115119047Y-114918333D01*
X115214285Y-114870714D01*
X115404761Y-114870714D01*
X115500000Y-114918333D01*
X115547619Y-115013571D01*
X115547619Y-115108809D01*
X115071428Y-115204047D01*
X115976190Y-115537380D02*
X115976190Y-114870714D01*
X115976190Y-114965952D02*
X116023809Y-114918333D01*
X116119047Y-114870714D01*
X116261904Y-114870714D01*
X116357142Y-114918333D01*
X116404761Y-115013571D01*
X116404761Y-115537380D01*
X116404761Y-115013571D02*
X116452380Y-114918333D01*
X116547619Y-114870714D01*
X116690476Y-114870714D01*
X116785714Y-114918333D01*
X116833333Y-115013571D01*
X116833333Y-115537380D01*
X118071428Y-115537380D02*
X118071428Y-114537380D01*
X118547619Y-114870714D02*
X118547619Y-115537380D01*
X118547619Y-114965952D02*
X118595238Y-114918333D01*
X118690476Y-114870714D01*
X118833333Y-114870714D01*
X118928571Y-114918333D01*
X118976190Y-115013571D01*
X118976190Y-115537380D01*
X89401904Y-130412380D02*
X89401904Y-131221904D01*
X89449523Y-131317142D01*
X89497142Y-131364761D01*
X89592380Y-131412380D01*
X89782857Y-131412380D01*
X89878095Y-131364761D01*
X89925714Y-131317142D01*
X89973333Y-131221904D01*
X89973333Y-130412380D01*
X90973333Y-131412380D02*
X90401904Y-131412380D01*
X90687619Y-131412380D02*
X90687619Y-130412380D01*
X90592380Y-130555238D01*
X90497142Y-130650476D01*
X90401904Y-130698095D01*
X91354285Y-130507619D02*
X91401904Y-130460000D01*
X91497142Y-130412380D01*
X91735238Y-130412380D01*
X91830476Y-130460000D01*
X91878095Y-130507619D01*
X91925714Y-130602857D01*
X91925714Y-130698095D01*
X91878095Y-130840952D01*
X91306666Y-131412380D01*
X91925714Y-131412380D01*
X80869285Y-135222380D02*
X80869285Y-134222380D01*
X81202619Y-134936666D01*
X81535952Y-134222380D01*
X81535952Y-135222380D01*
X82012142Y-135222380D02*
X82012142Y-134222380D01*
X82393095Y-134222380D01*
X82488333Y-134270000D01*
X82535952Y-134317619D01*
X82583571Y-134412857D01*
X82583571Y-134555714D01*
X82535952Y-134650952D01*
X82488333Y-134698571D01*
X82393095Y-134746190D01*
X82012142Y-134746190D01*
X83012142Y-135222380D02*
X83012142Y-134222380D01*
X83393095Y-134222380D01*
X83488333Y-134270000D01*
X83535952Y-134317619D01*
X83583571Y-134412857D01*
X83583571Y-134555714D01*
X83535952Y-134650952D01*
X83488333Y-134698571D01*
X83393095Y-134746190D01*
X83012142Y-134746190D01*
X83869285Y-134222380D02*
X84440714Y-134222380D01*
X84155000Y-135222380D02*
X84155000Y-134222380D01*
X85535952Y-135222380D02*
X85535952Y-134222380D01*
X86012142Y-134555714D02*
X86012142Y-135222380D01*
X86012142Y-134650952D02*
X86059761Y-134603333D01*
X86155000Y-134555714D01*
X86297857Y-134555714D01*
X86393095Y-134603333D01*
X86440714Y-134698571D01*
X86440714Y-135222380D01*
X84798095Y-88502380D02*
X84798095Y-89311904D01*
X84845714Y-89407142D01*
X84893333Y-89454761D01*
X84988571Y-89502380D01*
X85179047Y-89502380D01*
X85274285Y-89454761D01*
X85321904Y-89407142D01*
X85369523Y-89311904D01*
X85369523Y-88502380D01*
X85750476Y-88502380D02*
X86417142Y-88502380D01*
X85988571Y-89502380D01*
X75098809Y-93312380D02*
X75098809Y-92312380D01*
X75479761Y-92312380D01*
X75575000Y-92360000D01*
X75622619Y-92407619D01*
X75670238Y-92502857D01*
X75670238Y-92645714D01*
X75622619Y-92740952D01*
X75575000Y-92788571D01*
X75479761Y-92836190D01*
X75098809Y-92836190D01*
X76098809Y-93312380D02*
X76098809Y-92645714D01*
X76098809Y-92836190D02*
X76146428Y-92740952D01*
X76194047Y-92693333D01*
X76289285Y-92645714D01*
X76384523Y-92645714D01*
X77098809Y-93264761D02*
X77003571Y-93312380D01*
X76813095Y-93312380D01*
X76717857Y-93264761D01*
X76670238Y-93169523D01*
X76670238Y-92788571D01*
X76717857Y-92693333D01*
X76813095Y-92645714D01*
X77003571Y-92645714D01*
X77098809Y-92693333D01*
X77146428Y-92788571D01*
X77146428Y-92883809D01*
X76670238Y-92979047D01*
X77575000Y-92931428D02*
X78336904Y-92931428D01*
X78813095Y-93312380D02*
X78813095Y-92312380D01*
X79051190Y-92312380D01*
X79194047Y-92360000D01*
X79289285Y-92455238D01*
X79336904Y-92550476D01*
X79384523Y-92740952D01*
X79384523Y-92883809D01*
X79336904Y-93074285D01*
X79289285Y-93169523D01*
X79194047Y-93264761D01*
X79051190Y-93312380D01*
X78813095Y-93312380D01*
X79813095Y-93312380D02*
X79813095Y-92645714D01*
X79813095Y-92836190D02*
X79860714Y-92740952D01*
X79908333Y-92693333D01*
X80003571Y-92645714D01*
X80098809Y-92645714D01*
X80432142Y-93312380D02*
X80432142Y-92645714D01*
X80432142Y-92312380D02*
X80384523Y-92360000D01*
X80432142Y-92407619D01*
X80479761Y-92360000D01*
X80432142Y-92312380D01*
X80432142Y-92407619D01*
X80813095Y-92645714D02*
X81051190Y-93312380D01*
X81289285Y-92645714D01*
X82051190Y-93264761D02*
X81955952Y-93312380D01*
X81765476Y-93312380D01*
X81670238Y-93264761D01*
X81622619Y-93169523D01*
X81622619Y-92788571D01*
X81670238Y-92693333D01*
X81765476Y-92645714D01*
X81955952Y-92645714D01*
X82051190Y-92693333D01*
X82098809Y-92788571D01*
X82098809Y-92883809D01*
X81622619Y-92979047D01*
X84798095Y-70087380D02*
X84798095Y-70896904D01*
X84845714Y-70992142D01*
X84893333Y-71039761D01*
X84988571Y-71087380D01*
X85179047Y-71087380D01*
X85274285Y-71039761D01*
X85321904Y-70992142D01*
X85369523Y-70896904D01*
X85369523Y-70087380D01*
X86321904Y-70087380D02*
X85845714Y-70087380D01*
X85798095Y-70563571D01*
X85845714Y-70515952D01*
X85940952Y-70468333D01*
X86179047Y-70468333D01*
X86274285Y-70515952D01*
X86321904Y-70563571D01*
X86369523Y-70658809D01*
X86369523Y-70896904D01*
X86321904Y-70992142D01*
X86274285Y-71039761D01*
X86179047Y-71087380D01*
X85940952Y-71087380D01*
X85845714Y-71039761D01*
X85798095Y-70992142D01*
X70019523Y-78659761D02*
X70162380Y-78707380D01*
X70400476Y-78707380D01*
X70495714Y-78659761D01*
X70543333Y-78612142D01*
X70590952Y-78516904D01*
X70590952Y-78421666D01*
X70543333Y-78326428D01*
X70495714Y-78278809D01*
X70400476Y-78231190D01*
X70210000Y-78183571D01*
X70114761Y-78135952D01*
X70067142Y-78088333D01*
X70019523Y-77993095D01*
X70019523Y-77897857D01*
X70067142Y-77802619D01*
X70114761Y-77755000D01*
X70210000Y-77707380D01*
X70448095Y-77707380D01*
X70590952Y-77755000D01*
X71019523Y-78707380D02*
X71019523Y-77707380D01*
X71400476Y-77707380D01*
X71495714Y-77755000D01*
X71543333Y-77802619D01*
X71590952Y-77897857D01*
X71590952Y-78040714D01*
X71543333Y-78135952D01*
X71495714Y-78183571D01*
X71400476Y-78231190D01*
X71019523Y-78231190D01*
X72019523Y-78707380D02*
X72019523Y-77707380D01*
X72257619Y-77707380D01*
X72400476Y-77755000D01*
X72495714Y-77850238D01*
X72543333Y-77945476D01*
X72590952Y-78135952D01*
X72590952Y-78278809D01*
X72543333Y-78469285D01*
X72495714Y-78564523D01*
X72400476Y-78659761D01*
X72257619Y-78707380D01*
X72019523Y-78707380D01*
X72876666Y-77707380D02*
X73448095Y-77707380D01*
X73162380Y-78707380D02*
X73162380Y-77707380D01*
X74543333Y-78707380D02*
X74543333Y-77707380D01*
X75019523Y-78040714D02*
X75019523Y-78707380D01*
X75019523Y-78135952D02*
X75067142Y-78088333D01*
X75162380Y-78040714D01*
X75305238Y-78040714D01*
X75400476Y-78088333D01*
X75448095Y-78183571D01*
X75448095Y-78707380D01*
X75781428Y-78040714D02*
X76162380Y-78040714D01*
X75924285Y-77707380D02*
X75924285Y-78564523D01*
X75971904Y-78659761D01*
X76067142Y-78707380D01*
X76162380Y-78707380D01*
X76876666Y-78659761D02*
X76781428Y-78707380D01*
X76590952Y-78707380D01*
X76495714Y-78659761D01*
X76448095Y-78564523D01*
X76448095Y-78183571D01*
X76495714Y-78088333D01*
X76590952Y-78040714D01*
X76781428Y-78040714D01*
X76876666Y-78088333D01*
X76924285Y-78183571D01*
X76924285Y-78278809D01*
X76448095Y-78374047D01*
X77352857Y-78707380D02*
X77352857Y-78040714D01*
X77352857Y-78231190D02*
X77400476Y-78135952D01*
X77448095Y-78088333D01*
X77543333Y-78040714D01*
X77638571Y-78040714D01*
X77971904Y-78040714D02*
X77971904Y-78707380D01*
X77971904Y-78135952D02*
X78019523Y-78088333D01*
X78114761Y-78040714D01*
X78257619Y-78040714D01*
X78352857Y-78088333D01*
X78400476Y-78183571D01*
X78400476Y-78707380D01*
X79305238Y-78707380D02*
X79305238Y-78183571D01*
X79257619Y-78088333D01*
X79162380Y-78040714D01*
X78971904Y-78040714D01*
X78876666Y-78088333D01*
X79305238Y-78659761D02*
X79209999Y-78707380D01*
X78971904Y-78707380D01*
X78876666Y-78659761D01*
X78829047Y-78564523D01*
X78829047Y-78469285D01*
X78876666Y-78374047D01*
X78971904Y-78326428D01*
X79209999Y-78326428D01*
X79305238Y-78278809D01*
X79924285Y-78707380D02*
X79829047Y-78659761D01*
X79781428Y-78564523D01*
X79781428Y-77707380D01*
X81019523Y-78659761D02*
X81162380Y-78707380D01*
X81400476Y-78707380D01*
X81495714Y-78659761D01*
X81543333Y-78612142D01*
X81590952Y-78516904D01*
X81590952Y-78421666D01*
X81543333Y-78326428D01*
X81495714Y-78278809D01*
X81400476Y-78231190D01*
X81209999Y-78183571D01*
X81114761Y-78135952D01*
X81067142Y-78088333D01*
X81019523Y-77993095D01*
X81019523Y-77897857D01*
X81067142Y-77802619D01*
X81114761Y-77755000D01*
X81209999Y-77707380D01*
X81448095Y-77707380D01*
X81590952Y-77755000D01*
X82448095Y-78707380D02*
X82448095Y-78183571D01*
X82400476Y-78088333D01*
X82305238Y-78040714D01*
X82114761Y-78040714D01*
X82019523Y-78088333D01*
X82448095Y-78659761D02*
X82352857Y-78707380D01*
X82114761Y-78707380D01*
X82019523Y-78659761D01*
X81971904Y-78564523D01*
X81971904Y-78469285D01*
X82019523Y-78374047D01*
X82114761Y-78326428D01*
X82352857Y-78326428D01*
X82448095Y-78278809D01*
X82781428Y-78040714D02*
X83162380Y-78040714D01*
X82924285Y-78707380D02*
X82924285Y-77850238D01*
X82971904Y-77755000D01*
X83067142Y-77707380D01*
X83162380Y-77707380D01*
X83876666Y-78659761D02*
X83781428Y-78707380D01*
X83590952Y-78707380D01*
X83495714Y-78659761D01*
X83448095Y-78564523D01*
X83448095Y-78183571D01*
X83495714Y-78088333D01*
X83590952Y-78040714D01*
X83781428Y-78040714D01*
X83876666Y-78088333D01*
X83924285Y-78183571D01*
X83924285Y-78278809D01*
X83448095Y-78374047D01*
X85114761Y-78707380D02*
X85114761Y-77707380D01*
X85352857Y-77707380D01*
X85495714Y-77755000D01*
X85590952Y-77850238D01*
X85638571Y-77945476D01*
X85686190Y-78135952D01*
X85686190Y-78278809D01*
X85638571Y-78469285D01*
X85590952Y-78564523D01*
X85495714Y-78659761D01*
X85352857Y-78707380D01*
X85114761Y-78707380D01*
X86114761Y-78707380D02*
X86114761Y-78040714D01*
X86114761Y-78231190D02*
X86162380Y-78135952D01*
X86209999Y-78088333D01*
X86305238Y-78040714D01*
X86400476Y-78040714D01*
X86733809Y-78707380D02*
X86733809Y-78040714D01*
X86733809Y-77707380D02*
X86686190Y-77755000D01*
X86733809Y-77802619D01*
X86781428Y-77755000D01*
X86733809Y-77707380D01*
X86733809Y-77802619D01*
X87114761Y-78040714D02*
X87352857Y-78707380D01*
X87590952Y-78040714D01*
X88352857Y-78659761D02*
X88257619Y-78707380D01*
X88067142Y-78707380D01*
X87971904Y-78659761D01*
X87924285Y-78564523D01*
X87924285Y-78183571D01*
X87971904Y-78088333D01*
X88067142Y-78040714D01*
X88257619Y-78040714D01*
X88352857Y-78088333D01*
X88400476Y-78183571D01*
X88400476Y-78278809D01*
X87924285Y-78374047D01*
X121151904Y-103107380D02*
X121151904Y-103916904D01*
X121199523Y-104012142D01*
X121247142Y-104059761D01*
X121342380Y-104107380D01*
X121532857Y-104107380D01*
X121628095Y-104059761D01*
X121675714Y-104012142D01*
X121723333Y-103916904D01*
X121723333Y-103107380D01*
X122723333Y-104107380D02*
X122151904Y-104107380D01*
X122437619Y-104107380D02*
X122437619Y-103107380D01*
X122342380Y-103250238D01*
X122247142Y-103345476D01*
X122151904Y-103393095D01*
X123628095Y-103107380D02*
X123151904Y-103107380D01*
X123104285Y-103583571D01*
X123151904Y-103535952D01*
X123247142Y-103488333D01*
X123485238Y-103488333D01*
X123580476Y-103535952D01*
X123628095Y-103583571D01*
X123675714Y-103678809D01*
X123675714Y-103916904D01*
X123628095Y-104012142D01*
X123580476Y-104059761D01*
X123485238Y-104107380D01*
X123247142Y-104107380D01*
X123151904Y-104059761D01*
X123104285Y-104012142D01*
X107388809Y-107917380D02*
X107055476Y-107441190D01*
X106817380Y-107917380D02*
X106817380Y-106917380D01*
X107198333Y-106917380D01*
X107293571Y-106965000D01*
X107341190Y-107012619D01*
X107388809Y-107107857D01*
X107388809Y-107250714D01*
X107341190Y-107345952D01*
X107293571Y-107393571D01*
X107198333Y-107441190D01*
X106817380Y-107441190D01*
X108245952Y-107917380D02*
X108245952Y-107393571D01*
X108198333Y-107298333D01*
X108103095Y-107250714D01*
X107912619Y-107250714D01*
X107817380Y-107298333D01*
X108245952Y-107869761D02*
X108150714Y-107917380D01*
X107912619Y-107917380D01*
X107817380Y-107869761D01*
X107769761Y-107774523D01*
X107769761Y-107679285D01*
X107817380Y-107584047D01*
X107912619Y-107536428D01*
X108150714Y-107536428D01*
X108245952Y-107488809D01*
X109150714Y-107917380D02*
X109150714Y-106917380D01*
X109150714Y-107869761D02*
X109055476Y-107917380D01*
X108865000Y-107917380D01*
X108769761Y-107869761D01*
X108722142Y-107822142D01*
X108674523Y-107726904D01*
X108674523Y-107441190D01*
X108722142Y-107345952D01*
X108769761Y-107298333D01*
X108865000Y-107250714D01*
X109055476Y-107250714D01*
X109150714Y-107298333D01*
X109626904Y-107917380D02*
X109626904Y-107250714D01*
X109626904Y-106917380D02*
X109579285Y-106965000D01*
X109626904Y-107012619D01*
X109674523Y-106965000D01*
X109626904Y-106917380D01*
X109626904Y-107012619D01*
X110245952Y-107917380D02*
X110150714Y-107869761D01*
X110103095Y-107822142D01*
X110055476Y-107726904D01*
X110055476Y-107441190D01*
X110103095Y-107345952D01*
X110150714Y-107298333D01*
X110245952Y-107250714D01*
X110388809Y-107250714D01*
X110484047Y-107298333D01*
X110531666Y-107345952D01*
X110579285Y-107441190D01*
X110579285Y-107726904D01*
X110531666Y-107822142D01*
X110484047Y-107869761D01*
X110388809Y-107917380D01*
X110245952Y-107917380D01*
X111626904Y-106917380D02*
X112198333Y-106917380D01*
X111912619Y-107917380D02*
X111912619Y-106917380D01*
X112912619Y-107869761D02*
X112817380Y-107917380D01*
X112626904Y-107917380D01*
X112531666Y-107869761D01*
X112484047Y-107774523D01*
X112484047Y-107393571D01*
X112531666Y-107298333D01*
X112626904Y-107250714D01*
X112817380Y-107250714D01*
X112912619Y-107298333D01*
X112960238Y-107393571D01*
X112960238Y-107488809D01*
X112484047Y-107584047D01*
X113531666Y-107917380D02*
X113436428Y-107869761D01*
X113388809Y-107774523D01*
X113388809Y-106917380D01*
X114293571Y-107869761D02*
X114198333Y-107917380D01*
X114007857Y-107917380D01*
X113912619Y-107869761D01*
X113865000Y-107774523D01*
X113865000Y-107393571D01*
X113912619Y-107298333D01*
X114007857Y-107250714D01*
X114198333Y-107250714D01*
X114293571Y-107298333D01*
X114341190Y-107393571D01*
X114341190Y-107488809D01*
X113865000Y-107584047D01*
X114769761Y-107917380D02*
X114769761Y-107250714D01*
X114769761Y-107345952D02*
X114817380Y-107298333D01*
X114912619Y-107250714D01*
X115055476Y-107250714D01*
X115150714Y-107298333D01*
X115198333Y-107393571D01*
X115198333Y-107917380D01*
X115198333Y-107393571D02*
X115245952Y-107298333D01*
X115341190Y-107250714D01*
X115484047Y-107250714D01*
X115579285Y-107298333D01*
X115626904Y-107393571D01*
X115626904Y-107917380D01*
X117055476Y-106917380D02*
X117245952Y-106917380D01*
X117341190Y-106965000D01*
X117436428Y-107060238D01*
X117484047Y-107250714D01*
X117484047Y-107584047D01*
X117436428Y-107774523D01*
X117341190Y-107869761D01*
X117245952Y-107917380D01*
X117055476Y-107917380D01*
X116960238Y-107869761D01*
X116865000Y-107774523D01*
X116817380Y-107584047D01*
X116817380Y-107250714D01*
X116865000Y-107060238D01*
X116960238Y-106965000D01*
X117055476Y-106917380D01*
X118341190Y-107250714D02*
X118341190Y-107917380D01*
X117912619Y-107250714D02*
X117912619Y-107774523D01*
X117960238Y-107869761D01*
X118055476Y-107917380D01*
X118198333Y-107917380D01*
X118293571Y-107869761D01*
X118341190Y-107822142D01*
X118674523Y-107250714D02*
X119055476Y-107250714D01*
X118817380Y-106917380D02*
X118817380Y-107774523D01*
X118865000Y-107869761D01*
X118960238Y-107917380D01*
X119055476Y-107917380D01*
X89401904Y-103107380D02*
X89401904Y-103916904D01*
X89449523Y-104012142D01*
X89497142Y-104059761D01*
X89592380Y-104107380D01*
X89782857Y-104107380D01*
X89878095Y-104059761D01*
X89925714Y-104012142D01*
X89973333Y-103916904D01*
X89973333Y-103107380D01*
X90973333Y-104107380D02*
X90401904Y-104107380D01*
X90687619Y-104107380D02*
X90687619Y-103107380D01*
X90592380Y-103250238D01*
X90497142Y-103345476D01*
X90401904Y-103393095D01*
X91306666Y-103107380D02*
X91973333Y-103107380D01*
X91544761Y-104107380D01*
X94283809Y-107917380D02*
X93950476Y-107441190D01*
X93712380Y-107917380D02*
X93712380Y-106917380D01*
X94093333Y-106917380D01*
X94188571Y-106965000D01*
X94236190Y-107012619D01*
X94283809Y-107107857D01*
X94283809Y-107250714D01*
X94236190Y-107345952D01*
X94188571Y-107393571D01*
X94093333Y-107441190D01*
X93712380Y-107441190D01*
X95093333Y-107869761D02*
X94998095Y-107917380D01*
X94807619Y-107917380D01*
X94712380Y-107869761D01*
X94664761Y-107774523D01*
X94664761Y-107393571D01*
X94712380Y-107298333D01*
X94807619Y-107250714D01*
X94998095Y-107250714D01*
X95093333Y-107298333D01*
X95140952Y-107393571D01*
X95140952Y-107488809D01*
X94664761Y-107584047D01*
X95998095Y-107917380D02*
X95998095Y-107393571D01*
X95950476Y-107298333D01*
X95855238Y-107250714D01*
X95664761Y-107250714D01*
X95569523Y-107298333D01*
X95998095Y-107869761D02*
X95902857Y-107917380D01*
X95664761Y-107917380D01*
X95569523Y-107869761D01*
X95521904Y-107774523D01*
X95521904Y-107679285D01*
X95569523Y-107584047D01*
X95664761Y-107536428D01*
X95902857Y-107536428D01*
X95998095Y-107488809D01*
X96474285Y-107917380D02*
X96474285Y-107250714D01*
X96474285Y-107441190D02*
X96521904Y-107345952D01*
X96569523Y-107298333D01*
X96664761Y-107250714D01*
X96760000Y-107250714D01*
X97712380Y-106917380D02*
X98045714Y-107917380D01*
X98379047Y-106917380D01*
X98712380Y-107917380D02*
X98712380Y-107250714D01*
X98712380Y-106917380D02*
X98664761Y-106965000D01*
X98712380Y-107012619D01*
X98760000Y-106965000D01*
X98712380Y-106917380D01*
X98712380Y-107012619D01*
X99140952Y-107869761D02*
X99236190Y-107917380D01*
X99426666Y-107917380D01*
X99521904Y-107869761D01*
X99569523Y-107774523D01*
X99569523Y-107726904D01*
X99521904Y-107631666D01*
X99426666Y-107584047D01*
X99283809Y-107584047D01*
X99188571Y-107536428D01*
X99140952Y-107441190D01*
X99140952Y-107393571D01*
X99188571Y-107298333D01*
X99283809Y-107250714D01*
X99426666Y-107250714D01*
X99521904Y-107298333D01*
X100950476Y-106917380D02*
X101140952Y-106917380D01*
X101236190Y-106965000D01*
X101331428Y-107060238D01*
X101379047Y-107250714D01*
X101379047Y-107584047D01*
X101331428Y-107774523D01*
X101236190Y-107869761D01*
X101140952Y-107917380D01*
X100950476Y-107917380D01*
X100855238Y-107869761D01*
X100760000Y-107774523D01*
X100712380Y-107584047D01*
X100712380Y-107250714D01*
X100760000Y-107060238D01*
X100855238Y-106965000D01*
X100950476Y-106917380D01*
X102236190Y-107250714D02*
X102236190Y-107917380D01*
X101807619Y-107250714D02*
X101807619Y-107774523D01*
X101855238Y-107869761D01*
X101950476Y-107917380D01*
X102093333Y-107917380D01*
X102188571Y-107869761D01*
X102236190Y-107822142D01*
X102569523Y-107250714D02*
X102950476Y-107250714D01*
X102712380Y-106917380D02*
X102712380Y-107774523D01*
X102760000Y-107869761D01*
X102855238Y-107917380D01*
X102950476Y-107917380D01*
X121151904Y-61832380D02*
X121151904Y-62641904D01*
X121199523Y-62737142D01*
X121247142Y-62784761D01*
X121342380Y-62832380D01*
X121532857Y-62832380D01*
X121628095Y-62784761D01*
X121675714Y-62737142D01*
X121723333Y-62641904D01*
X121723333Y-61832380D01*
X122723333Y-62832380D02*
X122151904Y-62832380D01*
X122437619Y-62832380D02*
X122437619Y-61832380D01*
X122342380Y-61975238D01*
X122247142Y-62070476D01*
X122151904Y-62118095D01*
X123056666Y-61832380D02*
X123675714Y-61832380D01*
X123342380Y-62213333D01*
X123485238Y-62213333D01*
X123580476Y-62260952D01*
X123628095Y-62308571D01*
X123675714Y-62403809D01*
X123675714Y-62641904D01*
X123628095Y-62737142D01*
X123580476Y-62784761D01*
X123485238Y-62832380D01*
X123199523Y-62832380D01*
X123104285Y-62784761D01*
X123056666Y-62737142D01*
X125660714Y-65642380D02*
X126232142Y-65642380D01*
X125946428Y-66642380D02*
X125946428Y-65642380D01*
X126946428Y-66594761D02*
X126851190Y-66642380D01*
X126660714Y-66642380D01*
X126565476Y-66594761D01*
X126517857Y-66499523D01*
X126517857Y-66118571D01*
X126565476Y-66023333D01*
X126660714Y-65975714D01*
X126851190Y-65975714D01*
X126946428Y-66023333D01*
X126994047Y-66118571D01*
X126994047Y-66213809D01*
X126517857Y-66309047D01*
X127565476Y-66642380D02*
X127470238Y-66594761D01*
X127422619Y-66499523D01*
X127422619Y-65642380D01*
X128327380Y-66594761D02*
X128232142Y-66642380D01*
X128041666Y-66642380D01*
X127946428Y-66594761D01*
X127898809Y-66499523D01*
X127898809Y-66118571D01*
X127946428Y-66023333D01*
X128041666Y-65975714D01*
X128232142Y-65975714D01*
X128327380Y-66023333D01*
X128375000Y-66118571D01*
X128375000Y-66213809D01*
X127898809Y-66309047D01*
X128803571Y-66642380D02*
X128803571Y-65975714D01*
X128803571Y-66070952D02*
X128851190Y-66023333D01*
X128946428Y-65975714D01*
X129089285Y-65975714D01*
X129184523Y-66023333D01*
X129232142Y-66118571D01*
X129232142Y-66642380D01*
X129232142Y-66118571D02*
X129279761Y-66023333D01*
X129375000Y-65975714D01*
X129517857Y-65975714D01*
X129613095Y-66023333D01*
X129660714Y-66118571D01*
X129660714Y-66642380D01*
X131089285Y-65642380D02*
X131279761Y-65642380D01*
X131375000Y-65690000D01*
X131470238Y-65785238D01*
X131517857Y-65975714D01*
X131517857Y-66309047D01*
X131470238Y-66499523D01*
X131375000Y-66594761D01*
X131279761Y-66642380D01*
X131089285Y-66642380D01*
X130994047Y-66594761D01*
X130898809Y-66499523D01*
X130851190Y-66309047D01*
X130851190Y-65975714D01*
X130898809Y-65785238D01*
X130994047Y-65690000D01*
X131089285Y-65642380D01*
X132375000Y-65975714D02*
X132375000Y-66642380D01*
X131946428Y-65975714D02*
X131946428Y-66499523D01*
X131994047Y-66594761D01*
X132089285Y-66642380D01*
X132232142Y-66642380D01*
X132327380Y-66594761D01*
X132375000Y-66547142D01*
X132708333Y-65975714D02*
X133089285Y-65975714D01*
X132851190Y-65642380D02*
X132851190Y-66499523D01*
X132898809Y-66594761D01*
X132994047Y-66642380D01*
X133089285Y-66642380D01*
X105118095Y-49767380D02*
X105118095Y-50576904D01*
X105165714Y-50672142D01*
X105213333Y-50719761D01*
X105308571Y-50767380D01*
X105499047Y-50767380D01*
X105594285Y-50719761D01*
X105641904Y-50672142D01*
X105689523Y-50576904D01*
X105689523Y-49767380D01*
X106689523Y-50767380D02*
X106118095Y-50767380D01*
X106403809Y-50767380D02*
X106403809Y-49767380D01*
X106308571Y-49910238D01*
X106213333Y-50005476D01*
X106118095Y-50053095D01*
X108913333Y-51989761D02*
X109056190Y-52037380D01*
X109294285Y-52037380D01*
X109389523Y-51989761D01*
X109437142Y-51942142D01*
X109484761Y-51846904D01*
X109484761Y-51751666D01*
X109437142Y-51656428D01*
X109389523Y-51608809D01*
X109294285Y-51561190D01*
X109103809Y-51513571D01*
X109008571Y-51465952D01*
X108960952Y-51418333D01*
X108913333Y-51323095D01*
X108913333Y-51227857D01*
X108960952Y-51132619D01*
X109008571Y-51085000D01*
X109103809Y-51037380D01*
X109341904Y-51037380D01*
X109484761Y-51085000D01*
X109913333Y-52037380D02*
X109913333Y-51037380D01*
X110294285Y-51037380D01*
X110389523Y-51085000D01*
X110437142Y-51132619D01*
X110484761Y-51227857D01*
X110484761Y-51370714D01*
X110437142Y-51465952D01*
X110389523Y-51513571D01*
X110294285Y-51561190D01*
X109913333Y-51561190D01*
X110865714Y-51989761D02*
X111008571Y-52037380D01*
X111246666Y-52037380D01*
X111341904Y-51989761D01*
X111389523Y-51942142D01*
X111437142Y-51846904D01*
X111437142Y-51751666D01*
X111389523Y-51656428D01*
X111341904Y-51608809D01*
X111246666Y-51561190D01*
X111056190Y-51513571D01*
X110960952Y-51465952D01*
X110913333Y-51418333D01*
X110865714Y-51323095D01*
X110865714Y-51227857D01*
X110913333Y-51132619D01*
X110960952Y-51085000D01*
X111056190Y-51037380D01*
X111294285Y-51037380D01*
X111437142Y-51085000D01*
X111722857Y-51037380D02*
X112294285Y-51037380D01*
X112008571Y-52037380D02*
X112008571Y-51037380D01*
X113389523Y-52037380D02*
X113389523Y-51037380D01*
X113865714Y-51370714D02*
X113865714Y-52037380D01*
X113865714Y-51465952D02*
X113913333Y-51418333D01*
X114008571Y-51370714D01*
X114151428Y-51370714D01*
X114246666Y-51418333D01*
X114294285Y-51513571D01*
X114294285Y-52037380D01*
X114627619Y-51370714D02*
X115008571Y-51370714D01*
X114770476Y-51037380D02*
X114770476Y-51894523D01*
X114818095Y-51989761D01*
X114913333Y-52037380D01*
X115008571Y-52037380D01*
X115722857Y-51989761D02*
X115627619Y-52037380D01*
X115437142Y-52037380D01*
X115341904Y-51989761D01*
X115294285Y-51894523D01*
X115294285Y-51513571D01*
X115341904Y-51418333D01*
X115437142Y-51370714D01*
X115627619Y-51370714D01*
X115722857Y-51418333D01*
X115770476Y-51513571D01*
X115770476Y-51608809D01*
X115294285Y-51704047D01*
X116199047Y-52037380D02*
X116199047Y-51370714D01*
X116199047Y-51561190D02*
X116246666Y-51465952D01*
X116294285Y-51418333D01*
X116389523Y-51370714D01*
X116484761Y-51370714D01*
X116818095Y-51370714D02*
X116818095Y-52037380D01*
X116818095Y-51465952D02*
X116865714Y-51418333D01*
X116960952Y-51370714D01*
X117103809Y-51370714D01*
X117199047Y-51418333D01*
X117246666Y-51513571D01*
X117246666Y-52037380D01*
X118151428Y-52037380D02*
X118151428Y-51513571D01*
X118103809Y-51418333D01*
X118008571Y-51370714D01*
X117818095Y-51370714D01*
X117722857Y-51418333D01*
X118151428Y-51989761D02*
X118056190Y-52037380D01*
X117818095Y-52037380D01*
X117722857Y-51989761D01*
X117675238Y-51894523D01*
X117675238Y-51799285D01*
X117722857Y-51704047D01*
X117818095Y-51656428D01*
X118056190Y-51656428D01*
X118151428Y-51608809D01*
X118770476Y-52037380D02*
X118675238Y-51989761D01*
X118627619Y-51894523D01*
X118627619Y-51037380D01*
X119913333Y-51513571D02*
X120246666Y-51513571D01*
X120389523Y-52037380D02*
X119913333Y-52037380D01*
X119913333Y-51037380D01*
X120389523Y-51037380D01*
X120818095Y-51656428D02*
X121579999Y-51656428D01*
X122008571Y-51989761D02*
X122151428Y-52037380D01*
X122389523Y-52037380D01*
X122484761Y-51989761D01*
X122532380Y-51942142D01*
X122579999Y-51846904D01*
X122579999Y-51751666D01*
X122532380Y-51656428D01*
X122484761Y-51608809D01*
X122389523Y-51561190D01*
X122199047Y-51513571D01*
X122103809Y-51465952D01*
X122056190Y-51418333D01*
X122008571Y-51323095D01*
X122008571Y-51227857D01*
X122056190Y-51132619D01*
X122103809Y-51085000D01*
X122199047Y-51037380D01*
X122437142Y-51037380D01*
X122579999Y-51085000D01*
X122865714Y-51370714D02*
X123246666Y-51370714D01*
X123008571Y-51037380D02*
X123008571Y-51894523D01*
X123056190Y-51989761D01*
X123151428Y-52037380D01*
X123246666Y-52037380D01*
X123722857Y-52037380D02*
X123627619Y-51989761D01*
X123579999Y-51942142D01*
X123532380Y-51846904D01*
X123532380Y-51561190D01*
X123579999Y-51465952D01*
X123627619Y-51418333D01*
X123722857Y-51370714D01*
X123865714Y-51370714D01*
X123960952Y-51418333D01*
X124008571Y-51465952D01*
X124056190Y-51561190D01*
X124056190Y-51846904D01*
X124008571Y-51942142D01*
X123960952Y-51989761D01*
X123865714Y-52037380D01*
X123722857Y-52037380D01*
X124484761Y-51370714D02*
X124484761Y-52370714D01*
X124484761Y-51418333D02*
X124579999Y-51370714D01*
X124770476Y-51370714D01*
X124865714Y-51418333D01*
X124913333Y-51465952D01*
X124960952Y-51561190D01*
X124960952Y-51846904D01*
X124913333Y-51942142D01*
X124865714Y-51989761D01*
X124770476Y-52037380D01*
X124579999Y-52037380D01*
X124484761Y-51989761D01*
X126341904Y-51037380D02*
X126532380Y-51037380D01*
X126627619Y-51085000D01*
X126722857Y-51180238D01*
X126770476Y-51370714D01*
X126770476Y-51704047D01*
X126722857Y-51894523D01*
X126627619Y-51989761D01*
X126532380Y-52037380D01*
X126341904Y-52037380D01*
X126246666Y-51989761D01*
X126151428Y-51894523D01*
X126103809Y-51704047D01*
X126103809Y-51370714D01*
X126151428Y-51180238D01*
X126246666Y-51085000D01*
X126341904Y-51037380D01*
X127627619Y-51370714D02*
X127627619Y-52037380D01*
X127199047Y-51370714D02*
X127199047Y-51894523D01*
X127246666Y-51989761D01*
X127341904Y-52037380D01*
X127484761Y-52037380D01*
X127580000Y-51989761D01*
X127627619Y-51942142D01*
X127960952Y-51370714D02*
X128341904Y-51370714D01*
X128103809Y-51037380D02*
X128103809Y-51894523D01*
X128151428Y-51989761D01*
X128246666Y-52037380D01*
X128341904Y-52037380D01*
X90513095Y-62467380D02*
X90513095Y-63276904D01*
X90560714Y-63372142D01*
X90608333Y-63419761D01*
X90703571Y-63467380D01*
X90894047Y-63467380D01*
X90989285Y-63419761D01*
X91036904Y-63372142D01*
X91084523Y-63276904D01*
X91084523Y-62467380D01*
X91465476Y-62467380D02*
X92084523Y-62467380D01*
X91751190Y-62848333D01*
X91894047Y-62848333D01*
X91989285Y-62895952D01*
X92036904Y-62943571D01*
X92084523Y-63038809D01*
X92084523Y-63276904D01*
X92036904Y-63372142D01*
X91989285Y-63419761D01*
X91894047Y-63467380D01*
X91608333Y-63467380D01*
X91513095Y-63419761D01*
X91465476Y-63372142D01*
X70281428Y-67229761D02*
X70424285Y-67277380D01*
X70662380Y-67277380D01*
X70757619Y-67229761D01*
X70805238Y-67182142D01*
X70852857Y-67086904D01*
X70852857Y-66991666D01*
X70805238Y-66896428D01*
X70757619Y-66848809D01*
X70662380Y-66801190D01*
X70471904Y-66753571D01*
X70376666Y-66705952D01*
X70329047Y-66658333D01*
X70281428Y-66563095D01*
X70281428Y-66467857D01*
X70329047Y-66372619D01*
X70376666Y-66325000D01*
X70471904Y-66277380D01*
X70710000Y-66277380D01*
X70852857Y-66325000D01*
X71281428Y-67277380D02*
X71281428Y-66277380D01*
X71662380Y-66277380D01*
X71757619Y-66325000D01*
X71805238Y-66372619D01*
X71852857Y-66467857D01*
X71852857Y-66610714D01*
X71805238Y-66705952D01*
X71757619Y-66753571D01*
X71662380Y-66801190D01*
X71281428Y-66801190D01*
X72281428Y-67277380D02*
X72281428Y-66277380D01*
X72519523Y-66277380D01*
X72662380Y-66325000D01*
X72757619Y-66420238D01*
X72805238Y-66515476D01*
X72852857Y-66705952D01*
X72852857Y-66848809D01*
X72805238Y-67039285D01*
X72757619Y-67134523D01*
X72662380Y-67229761D01*
X72519523Y-67277380D01*
X72281428Y-67277380D01*
X73138571Y-66277380D02*
X73710000Y-66277380D01*
X73424285Y-67277380D02*
X73424285Y-66277380D01*
X74805238Y-67277380D02*
X74805238Y-66277380D01*
X75281428Y-66610714D02*
X75281428Y-67277380D01*
X75281428Y-66705952D02*
X75329047Y-66658333D01*
X75424285Y-66610714D01*
X75567142Y-66610714D01*
X75662380Y-66658333D01*
X75710000Y-66753571D01*
X75710000Y-67277380D01*
X76043333Y-66610714D02*
X76424285Y-66610714D01*
X76186190Y-66277380D02*
X76186190Y-67134523D01*
X76233809Y-67229761D01*
X76329047Y-67277380D01*
X76424285Y-67277380D01*
X77138571Y-67229761D02*
X77043333Y-67277380D01*
X76852857Y-67277380D01*
X76757619Y-67229761D01*
X76710000Y-67134523D01*
X76710000Y-66753571D01*
X76757619Y-66658333D01*
X76852857Y-66610714D01*
X77043333Y-66610714D01*
X77138571Y-66658333D01*
X77186190Y-66753571D01*
X77186190Y-66848809D01*
X76710000Y-66944047D01*
X77614761Y-67277380D02*
X77614761Y-66610714D01*
X77614761Y-66801190D02*
X77662380Y-66705952D01*
X77710000Y-66658333D01*
X77805238Y-66610714D01*
X77900476Y-66610714D01*
X78233809Y-66610714D02*
X78233809Y-67277380D01*
X78233809Y-66705952D02*
X78281428Y-66658333D01*
X78376666Y-66610714D01*
X78519523Y-66610714D01*
X78614761Y-66658333D01*
X78662380Y-66753571D01*
X78662380Y-67277380D01*
X79567142Y-67277380D02*
X79567142Y-66753571D01*
X79519523Y-66658333D01*
X79424285Y-66610714D01*
X79233809Y-66610714D01*
X79138571Y-66658333D01*
X79567142Y-67229761D02*
X79471904Y-67277380D01*
X79233809Y-67277380D01*
X79138571Y-67229761D01*
X79090952Y-67134523D01*
X79090952Y-67039285D01*
X79138571Y-66944047D01*
X79233809Y-66896428D01*
X79471904Y-66896428D01*
X79567142Y-66848809D01*
X80186190Y-67277380D02*
X80090952Y-67229761D01*
X80043333Y-67134523D01*
X80043333Y-66277380D01*
X81281428Y-67229761D02*
X81424285Y-67277380D01*
X81662380Y-67277380D01*
X81757619Y-67229761D01*
X81805238Y-67182142D01*
X81852857Y-67086904D01*
X81852857Y-66991666D01*
X81805238Y-66896428D01*
X81757619Y-66848809D01*
X81662380Y-66801190D01*
X81471904Y-66753571D01*
X81376666Y-66705952D01*
X81329047Y-66658333D01*
X81281428Y-66563095D01*
X81281428Y-66467857D01*
X81329047Y-66372619D01*
X81376666Y-66325000D01*
X81471904Y-66277380D01*
X81710000Y-66277380D01*
X81852857Y-66325000D01*
X82710000Y-67277380D02*
X82710000Y-66753571D01*
X82662380Y-66658333D01*
X82567142Y-66610714D01*
X82376666Y-66610714D01*
X82281428Y-66658333D01*
X82710000Y-67229761D02*
X82614761Y-67277380D01*
X82376666Y-67277380D01*
X82281428Y-67229761D01*
X82233809Y-67134523D01*
X82233809Y-67039285D01*
X82281428Y-66944047D01*
X82376666Y-66896428D01*
X82614761Y-66896428D01*
X82710000Y-66848809D01*
X83043333Y-66610714D02*
X83424285Y-66610714D01*
X83186190Y-67277380D02*
X83186190Y-66420238D01*
X83233809Y-66325000D01*
X83329047Y-66277380D01*
X83424285Y-66277380D01*
X84138571Y-67229761D02*
X84043333Y-67277380D01*
X83852857Y-67277380D01*
X83757619Y-67229761D01*
X83710000Y-67134523D01*
X83710000Y-66753571D01*
X83757619Y-66658333D01*
X83852857Y-66610714D01*
X84043333Y-66610714D01*
X84138571Y-66658333D01*
X84186190Y-66753571D01*
X84186190Y-66848809D01*
X83710000Y-66944047D01*
X85948095Y-67182142D02*
X85900476Y-67229761D01*
X85757619Y-67277380D01*
X85662380Y-67277380D01*
X85519523Y-67229761D01*
X85424285Y-67134523D01*
X85376666Y-67039285D01*
X85329047Y-66848809D01*
X85329047Y-66705952D01*
X85376666Y-66515476D01*
X85424285Y-66420238D01*
X85519523Y-66325000D01*
X85662380Y-66277380D01*
X85757619Y-66277380D01*
X85900476Y-66325000D01*
X85948095Y-66372619D01*
X86567142Y-66277380D02*
X86757619Y-66277380D01*
X86852857Y-66325000D01*
X86948095Y-66420238D01*
X86995714Y-66610714D01*
X86995714Y-66944047D01*
X86948095Y-67134523D01*
X86852857Y-67229761D01*
X86757619Y-67277380D01*
X86567142Y-67277380D01*
X86471904Y-67229761D01*
X86376666Y-67134523D01*
X86329047Y-66944047D01*
X86329047Y-66610714D01*
X86376666Y-66420238D01*
X86471904Y-66325000D01*
X86567142Y-66277380D01*
X87424285Y-67277380D02*
X87424285Y-66277380D01*
X87757619Y-66991666D01*
X88090952Y-66277380D01*
X88090952Y-67277380D01*
X90513095Y-80882380D02*
X90513095Y-81691904D01*
X90560714Y-81787142D01*
X90608333Y-81834761D01*
X90703571Y-81882380D01*
X90894047Y-81882380D01*
X90989285Y-81834761D01*
X91036904Y-81787142D01*
X91084523Y-81691904D01*
X91084523Y-80882380D01*
X91989285Y-80882380D02*
X91798809Y-80882380D01*
X91703571Y-80930000D01*
X91655952Y-80977619D01*
X91560714Y-81120476D01*
X91513095Y-81310952D01*
X91513095Y-81691904D01*
X91560714Y-81787142D01*
X91608333Y-81834761D01*
X91703571Y-81882380D01*
X91894047Y-81882380D01*
X91989285Y-81834761D01*
X92036904Y-81787142D01*
X92084523Y-81691904D01*
X92084523Y-81453809D01*
X92036904Y-81358571D01*
X91989285Y-81310952D01*
X91894047Y-81263333D01*
X91703571Y-81263333D01*
X91608333Y-81310952D01*
X91560714Y-81358571D01*
X91513095Y-81453809D01*
X94029761Y-85692380D02*
X94029761Y-84692380D01*
X94267857Y-84692380D01*
X94410714Y-84740000D01*
X94505952Y-84835238D01*
X94553571Y-84930476D01*
X94601190Y-85120952D01*
X94601190Y-85263809D01*
X94553571Y-85454285D01*
X94505952Y-85549523D01*
X94410714Y-85644761D01*
X94267857Y-85692380D01*
X94029761Y-85692380D01*
X95029761Y-85692380D02*
X95029761Y-85025714D01*
X95029761Y-85216190D02*
X95077380Y-85120952D01*
X95125000Y-85073333D01*
X95220238Y-85025714D01*
X95315476Y-85025714D01*
X95648809Y-85692380D02*
X95648809Y-85025714D01*
X95648809Y-84692380D02*
X95601190Y-84740000D01*
X95648809Y-84787619D01*
X95696428Y-84740000D01*
X95648809Y-84692380D01*
X95648809Y-84787619D01*
X96029761Y-85025714D02*
X96267857Y-85692380D01*
X96505952Y-85025714D01*
X97267857Y-85644761D02*
X97172619Y-85692380D01*
X96982142Y-85692380D01*
X96886904Y-85644761D01*
X96839285Y-85549523D01*
X96839285Y-85168571D01*
X96886904Y-85073333D01*
X96982142Y-85025714D01*
X97172619Y-85025714D01*
X97267857Y-85073333D01*
X97315476Y-85168571D01*
X97315476Y-85263809D01*
X96839285Y-85359047D01*
X99077380Y-85597142D02*
X99029761Y-85644761D01*
X98886904Y-85692380D01*
X98791666Y-85692380D01*
X98648809Y-85644761D01*
X98553571Y-85549523D01*
X98505952Y-85454285D01*
X98458333Y-85263809D01*
X98458333Y-85120952D01*
X98505952Y-84930476D01*
X98553571Y-84835238D01*
X98648809Y-84740000D01*
X98791666Y-84692380D01*
X98886904Y-84692380D01*
X99029761Y-84740000D01*
X99077380Y-84787619D01*
X99696428Y-84692380D02*
X99886904Y-84692380D01*
X99982142Y-84740000D01*
X100077380Y-84835238D01*
X100125000Y-85025714D01*
X100125000Y-85359047D01*
X100077380Y-85549523D01*
X99982142Y-85644761D01*
X99886904Y-85692380D01*
X99696428Y-85692380D01*
X99601190Y-85644761D01*
X99505952Y-85549523D01*
X99458333Y-85359047D01*
X99458333Y-85025714D01*
X99505952Y-84835238D01*
X99601190Y-84740000D01*
X99696428Y-84692380D01*
X100553571Y-85692380D02*
X100553571Y-84692380D01*
X100886904Y-85406666D01*
X101220238Y-84692380D01*
X101220238Y-85692380D01*
X96228095Y-88502380D02*
X96228095Y-89311904D01*
X96275714Y-89407142D01*
X96323333Y-89454761D01*
X96418571Y-89502380D01*
X96609047Y-89502380D01*
X96704285Y-89454761D01*
X96751904Y-89407142D01*
X96799523Y-89311904D01*
X96799523Y-88502380D01*
X97418571Y-88930952D02*
X97323333Y-88883333D01*
X97275714Y-88835714D01*
X97228095Y-88740476D01*
X97228095Y-88692857D01*
X97275714Y-88597619D01*
X97323333Y-88550000D01*
X97418571Y-88502380D01*
X97609047Y-88502380D01*
X97704285Y-88550000D01*
X97751904Y-88597619D01*
X97799523Y-88692857D01*
X97799523Y-88740476D01*
X97751904Y-88835714D01*
X97704285Y-88883333D01*
X97609047Y-88930952D01*
X97418571Y-88930952D01*
X97323333Y-88978571D01*
X97275714Y-89026190D01*
X97228095Y-89121428D01*
X97228095Y-89311904D01*
X97275714Y-89407142D01*
X97323333Y-89454761D01*
X97418571Y-89502380D01*
X97609047Y-89502380D01*
X97704285Y-89454761D01*
X97751904Y-89407142D01*
X97799523Y-89311904D01*
X97799523Y-89121428D01*
X97751904Y-89026190D01*
X97704285Y-88978571D01*
X97609047Y-88930952D01*
X101085952Y-93312380D02*
X101085952Y-92312380D01*
X101324047Y-92312380D01*
X101466904Y-92360000D01*
X101562142Y-92455238D01*
X101609761Y-92550476D01*
X101657380Y-92740952D01*
X101657380Y-92883809D01*
X101609761Y-93074285D01*
X101562142Y-93169523D01*
X101466904Y-93264761D01*
X101324047Y-93312380D01*
X101085952Y-93312380D01*
X102085952Y-93312380D02*
X102085952Y-92645714D01*
X102085952Y-92836190D02*
X102133571Y-92740952D01*
X102181190Y-92693333D01*
X102276428Y-92645714D01*
X102371666Y-92645714D01*
X102705000Y-93312380D02*
X102705000Y-92645714D01*
X102705000Y-92312380D02*
X102657380Y-92360000D01*
X102705000Y-92407619D01*
X102752619Y-92360000D01*
X102705000Y-92312380D01*
X102705000Y-92407619D01*
X103085952Y-92645714D02*
X103324047Y-93312380D01*
X103562142Y-92645714D01*
X104324047Y-93264761D02*
X104228809Y-93312380D01*
X104038333Y-93312380D01*
X103943095Y-93264761D01*
X103895476Y-93169523D01*
X103895476Y-92788571D01*
X103943095Y-92693333D01*
X104038333Y-92645714D01*
X104228809Y-92645714D01*
X104324047Y-92693333D01*
X104371666Y-92788571D01*
X104371666Y-92883809D01*
X103895476Y-92979047D01*
X105118095Y-57387380D02*
X105118095Y-58196904D01*
X105165714Y-58292142D01*
X105213333Y-58339761D01*
X105308571Y-58387380D01*
X105499047Y-58387380D01*
X105594285Y-58339761D01*
X105641904Y-58292142D01*
X105689523Y-58196904D01*
X105689523Y-57387380D01*
X106118095Y-57482619D02*
X106165714Y-57435000D01*
X106260952Y-57387380D01*
X106499047Y-57387380D01*
X106594285Y-57435000D01*
X106641904Y-57482619D01*
X106689523Y-57577857D01*
X106689523Y-57673095D01*
X106641904Y-57815952D01*
X106070476Y-58387380D01*
X106689523Y-58387380D01*
X108921190Y-60244761D02*
X109064047Y-60292380D01*
X109302142Y-60292380D01*
X109397380Y-60244761D01*
X109445000Y-60197142D01*
X109492619Y-60101904D01*
X109492619Y-60006666D01*
X109445000Y-59911428D01*
X109397380Y-59863809D01*
X109302142Y-59816190D01*
X109111666Y-59768571D01*
X109016428Y-59720952D01*
X108968809Y-59673333D01*
X108921190Y-59578095D01*
X108921190Y-59482857D01*
X108968809Y-59387619D01*
X109016428Y-59340000D01*
X109111666Y-59292380D01*
X109349761Y-59292380D01*
X109492619Y-59340000D01*
X109921190Y-60292380D02*
X109921190Y-59292380D01*
X110302142Y-59292380D01*
X110397380Y-59340000D01*
X110445000Y-59387619D01*
X110492619Y-59482857D01*
X110492619Y-59625714D01*
X110445000Y-59720952D01*
X110397380Y-59768571D01*
X110302142Y-59816190D01*
X109921190Y-59816190D01*
X110873571Y-60244761D02*
X111016428Y-60292380D01*
X111254523Y-60292380D01*
X111349761Y-60244761D01*
X111397380Y-60197142D01*
X111445000Y-60101904D01*
X111445000Y-60006666D01*
X111397380Y-59911428D01*
X111349761Y-59863809D01*
X111254523Y-59816190D01*
X111064047Y-59768571D01*
X110968809Y-59720952D01*
X110921190Y-59673333D01*
X110873571Y-59578095D01*
X110873571Y-59482857D01*
X110921190Y-59387619D01*
X110968809Y-59340000D01*
X111064047Y-59292380D01*
X111302142Y-59292380D01*
X111445000Y-59340000D01*
X111730714Y-59292380D02*
X112302142Y-59292380D01*
X112016428Y-60292380D02*
X112016428Y-59292380D01*
X113397380Y-60292380D02*
X113397380Y-59292380D01*
X113873571Y-59625714D02*
X113873571Y-60292380D01*
X113873571Y-59720952D02*
X113921190Y-59673333D01*
X114016428Y-59625714D01*
X114159285Y-59625714D01*
X114254523Y-59673333D01*
X114302142Y-59768571D01*
X114302142Y-60292380D01*
X114635476Y-59625714D02*
X115016428Y-59625714D01*
X114778333Y-59292380D02*
X114778333Y-60149523D01*
X114825952Y-60244761D01*
X114921190Y-60292380D01*
X115016428Y-60292380D01*
X115730714Y-60244761D02*
X115635476Y-60292380D01*
X115445000Y-60292380D01*
X115349761Y-60244761D01*
X115302142Y-60149523D01*
X115302142Y-59768571D01*
X115349761Y-59673333D01*
X115445000Y-59625714D01*
X115635476Y-59625714D01*
X115730714Y-59673333D01*
X115778333Y-59768571D01*
X115778333Y-59863809D01*
X115302142Y-59959047D01*
X116206904Y-60292380D02*
X116206904Y-59625714D01*
X116206904Y-59816190D02*
X116254523Y-59720952D01*
X116302142Y-59673333D01*
X116397380Y-59625714D01*
X116492619Y-59625714D01*
X116825952Y-59625714D02*
X116825952Y-60292380D01*
X116825952Y-59720952D02*
X116873571Y-59673333D01*
X116968809Y-59625714D01*
X117111666Y-59625714D01*
X117206904Y-59673333D01*
X117254523Y-59768571D01*
X117254523Y-60292380D01*
X118159285Y-60292380D02*
X118159285Y-59768571D01*
X118111666Y-59673333D01*
X118016428Y-59625714D01*
X117825952Y-59625714D01*
X117730714Y-59673333D01*
X118159285Y-60244761D02*
X118064047Y-60292380D01*
X117825952Y-60292380D01*
X117730714Y-60244761D01*
X117683095Y-60149523D01*
X117683095Y-60054285D01*
X117730714Y-59959047D01*
X117825952Y-59911428D01*
X118064047Y-59911428D01*
X118159285Y-59863809D01*
X118778333Y-60292380D02*
X118683095Y-60244761D01*
X118635476Y-60149523D01*
X118635476Y-59292380D01*
X119921190Y-59768571D02*
X120254523Y-59768571D01*
X120397380Y-60292380D02*
X119921190Y-60292380D01*
X119921190Y-59292380D01*
X120397380Y-59292380D01*
X120825952Y-59911428D02*
X121587857Y-59911428D01*
X122016428Y-60244761D02*
X122111666Y-60292380D01*
X122302142Y-60292380D01*
X122397380Y-60244761D01*
X122445000Y-60149523D01*
X122445000Y-60101904D01*
X122397380Y-60006666D01*
X122302142Y-59959047D01*
X122159285Y-59959047D01*
X122064047Y-59911428D01*
X122016428Y-59816190D01*
X122016428Y-59768571D01*
X122064047Y-59673333D01*
X122159285Y-59625714D01*
X122302142Y-59625714D01*
X122397380Y-59673333D01*
X122730714Y-59625714D02*
X123111666Y-59625714D01*
X122873571Y-59292380D02*
X122873571Y-60149523D01*
X122921190Y-60244761D01*
X123016428Y-60292380D01*
X123111666Y-60292380D01*
X123587857Y-60292380D02*
X123492619Y-60244761D01*
X123445000Y-60197142D01*
X123397380Y-60101904D01*
X123397380Y-59816190D01*
X123445000Y-59720952D01*
X123492619Y-59673333D01*
X123587857Y-59625714D01*
X123730714Y-59625714D01*
X123825952Y-59673333D01*
X123873571Y-59720952D01*
X123921190Y-59816190D01*
X123921190Y-60101904D01*
X123873571Y-60197142D01*
X123825952Y-60244761D01*
X123730714Y-60292380D01*
X123587857Y-60292380D01*
X124349761Y-59625714D02*
X124349761Y-60625714D01*
X124349761Y-59673333D02*
X124445000Y-59625714D01*
X124635476Y-59625714D01*
X124730714Y-59673333D01*
X124778333Y-59720952D01*
X124825952Y-59816190D01*
X124825952Y-60101904D01*
X124778333Y-60197142D01*
X124730714Y-60244761D01*
X124635476Y-60292380D01*
X124445000Y-60292380D01*
X124349761Y-60244761D01*
X126016428Y-60292380D02*
X126016428Y-59292380D01*
X126492619Y-59625714D02*
X126492619Y-60292380D01*
X126492619Y-59720952D02*
X126540238Y-59673333D01*
X126635476Y-59625714D01*
X126778333Y-59625714D01*
X126873571Y-59673333D01*
X126921190Y-59768571D01*
X126921190Y-60292380D01*
X121628095Y-80882380D02*
X121628095Y-81691904D01*
X121675714Y-81787142D01*
X121723333Y-81834761D01*
X121818571Y-81882380D01*
X122009047Y-81882380D01*
X122104285Y-81834761D01*
X122151904Y-81787142D01*
X122199523Y-81691904D01*
X122199523Y-80882380D01*
X122723333Y-81882380D02*
X122913809Y-81882380D01*
X123009047Y-81834761D01*
X123056666Y-81787142D01*
X123151904Y-81644285D01*
X123199523Y-81453809D01*
X123199523Y-81072857D01*
X123151904Y-80977619D01*
X123104285Y-80930000D01*
X123009047Y-80882380D01*
X122818571Y-80882380D01*
X122723333Y-80930000D01*
X122675714Y-80977619D01*
X122628095Y-81072857D01*
X122628095Y-81310952D01*
X122675714Y-81406190D01*
X122723333Y-81453809D01*
X122818571Y-81501428D01*
X123009047Y-81501428D01*
X123104285Y-81453809D01*
X123151904Y-81406190D01*
X123199523Y-81310952D01*
X111341428Y-85597142D02*
X111293809Y-85644761D01*
X111150952Y-85692380D01*
X111055714Y-85692380D01*
X110912857Y-85644761D01*
X110817619Y-85549523D01*
X110770000Y-85454285D01*
X110722380Y-85263809D01*
X110722380Y-85120952D01*
X110770000Y-84930476D01*
X110817619Y-84835238D01*
X110912857Y-84740000D01*
X111055714Y-84692380D01*
X111150952Y-84692380D01*
X111293809Y-84740000D01*
X111341428Y-84787619D01*
X111770000Y-85692380D02*
X111770000Y-84692380D01*
X112198571Y-85692380D02*
X112198571Y-85168571D01*
X112150952Y-85073333D01*
X112055714Y-85025714D01*
X111912857Y-85025714D01*
X111817619Y-85073333D01*
X111770000Y-85120952D01*
X113103333Y-85692380D02*
X113103333Y-85168571D01*
X113055714Y-85073333D01*
X112960476Y-85025714D01*
X112770000Y-85025714D01*
X112674761Y-85073333D01*
X113103333Y-85644761D02*
X113008095Y-85692380D01*
X112770000Y-85692380D01*
X112674761Y-85644761D01*
X112627142Y-85549523D01*
X112627142Y-85454285D01*
X112674761Y-85359047D01*
X112770000Y-85311428D01*
X113008095Y-85311428D01*
X113103333Y-85263809D01*
X113579523Y-85692380D02*
X113579523Y-85025714D01*
X113579523Y-85216190D02*
X113627142Y-85120952D01*
X113674761Y-85073333D01*
X113770000Y-85025714D01*
X113865238Y-85025714D01*
X114627142Y-85025714D02*
X114627142Y-85835238D01*
X114579523Y-85930476D01*
X114531904Y-85978095D01*
X114436666Y-86025714D01*
X114293809Y-86025714D01*
X114198571Y-85978095D01*
X114627142Y-85644761D02*
X114531904Y-85692380D01*
X114341428Y-85692380D01*
X114246190Y-85644761D01*
X114198571Y-85597142D01*
X114150952Y-85501904D01*
X114150952Y-85216190D01*
X114198571Y-85120952D01*
X114246190Y-85073333D01*
X114341428Y-85025714D01*
X114531904Y-85025714D01*
X114627142Y-85073333D01*
X115484285Y-85644761D02*
X115389047Y-85692380D01*
X115198571Y-85692380D01*
X115103333Y-85644761D01*
X115055714Y-85549523D01*
X115055714Y-85168571D01*
X115103333Y-85073333D01*
X115198571Y-85025714D01*
X115389047Y-85025714D01*
X115484285Y-85073333D01*
X115531904Y-85168571D01*
X115531904Y-85263809D01*
X115055714Y-85359047D01*
X116912857Y-84692380D02*
X117103333Y-84692380D01*
X117198571Y-84740000D01*
X117293809Y-84835238D01*
X117341428Y-85025714D01*
X117341428Y-85359047D01*
X117293809Y-85549523D01*
X117198571Y-85644761D01*
X117103333Y-85692380D01*
X116912857Y-85692380D01*
X116817619Y-85644761D01*
X116722380Y-85549523D01*
X116674761Y-85359047D01*
X116674761Y-85025714D01*
X116722380Y-84835238D01*
X116817619Y-84740000D01*
X116912857Y-84692380D01*
X118198571Y-85025714D02*
X118198571Y-85692380D01*
X117770000Y-85025714D02*
X117770000Y-85549523D01*
X117817619Y-85644761D01*
X117912857Y-85692380D01*
X118055714Y-85692380D01*
X118150952Y-85644761D01*
X118198571Y-85597142D01*
X118531904Y-85025714D02*
X118912857Y-85025714D01*
X118674761Y-84692380D02*
X118674761Y-85549523D01*
X118722380Y-85644761D01*
X118817619Y-85692380D01*
X118912857Y-85692380D01*
X121151904Y-88502380D02*
X121151904Y-89311904D01*
X121199523Y-89407142D01*
X121247142Y-89454761D01*
X121342380Y-89502380D01*
X121532857Y-89502380D01*
X121628095Y-89454761D01*
X121675714Y-89407142D01*
X121723333Y-89311904D01*
X121723333Y-88502380D01*
X122723333Y-89502380D02*
X122151904Y-89502380D01*
X122437619Y-89502380D02*
X122437619Y-88502380D01*
X122342380Y-88645238D01*
X122247142Y-88740476D01*
X122151904Y-88788095D01*
X123342380Y-88502380D02*
X123437619Y-88502380D01*
X123532857Y-88550000D01*
X123580476Y-88597619D01*
X123628095Y-88692857D01*
X123675714Y-88883333D01*
X123675714Y-89121428D01*
X123628095Y-89311904D01*
X123580476Y-89407142D01*
X123532857Y-89454761D01*
X123437619Y-89502380D01*
X123342380Y-89502380D01*
X123247142Y-89454761D01*
X123199523Y-89407142D01*
X123151904Y-89311904D01*
X123104285Y-89121428D01*
X123104285Y-88883333D01*
X123151904Y-88692857D01*
X123199523Y-88597619D01*
X123247142Y-88550000D01*
X123342380Y-88502380D01*
X112547857Y-93217142D02*
X112500238Y-93264761D01*
X112357380Y-93312380D01*
X112262142Y-93312380D01*
X112119285Y-93264761D01*
X112024047Y-93169523D01*
X111976428Y-93074285D01*
X111928809Y-92883809D01*
X111928809Y-92740952D01*
X111976428Y-92550476D01*
X112024047Y-92455238D01*
X112119285Y-92360000D01*
X112262142Y-92312380D01*
X112357380Y-92312380D01*
X112500238Y-92360000D01*
X112547857Y-92407619D01*
X112976428Y-93312380D02*
X112976428Y-92312380D01*
X113405000Y-93312380D02*
X113405000Y-92788571D01*
X113357380Y-92693333D01*
X113262142Y-92645714D01*
X113119285Y-92645714D01*
X113024047Y-92693333D01*
X112976428Y-92740952D01*
X114309761Y-93312380D02*
X114309761Y-92788571D01*
X114262142Y-92693333D01*
X114166904Y-92645714D01*
X113976428Y-92645714D01*
X113881190Y-92693333D01*
X114309761Y-93264761D02*
X114214523Y-93312380D01*
X113976428Y-93312380D01*
X113881190Y-93264761D01*
X113833571Y-93169523D01*
X113833571Y-93074285D01*
X113881190Y-92979047D01*
X113976428Y-92931428D01*
X114214523Y-92931428D01*
X114309761Y-92883809D01*
X114785952Y-93312380D02*
X114785952Y-92645714D01*
X114785952Y-92836190D02*
X114833571Y-92740952D01*
X114881190Y-92693333D01*
X114976428Y-92645714D01*
X115071666Y-92645714D01*
X115833571Y-92645714D02*
X115833571Y-93455238D01*
X115785952Y-93550476D01*
X115738333Y-93598095D01*
X115643095Y-93645714D01*
X115500238Y-93645714D01*
X115405000Y-93598095D01*
X115833571Y-93264761D02*
X115738333Y-93312380D01*
X115547857Y-93312380D01*
X115452619Y-93264761D01*
X115405000Y-93217142D01*
X115357380Y-93121904D01*
X115357380Y-92836190D01*
X115405000Y-92740952D01*
X115452619Y-92693333D01*
X115547857Y-92645714D01*
X115738333Y-92645714D01*
X115833571Y-92693333D01*
X116690714Y-93264761D02*
X116595476Y-93312380D01*
X116405000Y-93312380D01*
X116309761Y-93264761D01*
X116262142Y-93169523D01*
X116262142Y-92788571D01*
X116309761Y-92693333D01*
X116405000Y-92645714D01*
X116595476Y-92645714D01*
X116690714Y-92693333D01*
X116738333Y-92788571D01*
X116738333Y-92883809D01*
X116262142Y-92979047D01*
X117928809Y-93312380D02*
X117928809Y-92312380D01*
X118405000Y-92645714D02*
X118405000Y-93312380D01*
X118405000Y-92740952D02*
X118452619Y-92693333D01*
X118547857Y-92645714D01*
X118690714Y-92645714D01*
X118785952Y-92693333D01*
X118833571Y-92788571D01*
X118833571Y-93312380D01*
X89401904Y-122792380D02*
X89401904Y-123601904D01*
X89449523Y-123697142D01*
X89497142Y-123744761D01*
X89592380Y-123792380D01*
X89782857Y-123792380D01*
X89878095Y-123744761D01*
X89925714Y-123697142D01*
X89973333Y-123601904D01*
X89973333Y-122792380D01*
X90973333Y-123792380D02*
X90401904Y-123792380D01*
X90687619Y-123792380D02*
X90687619Y-122792380D01*
X90592380Y-122935238D01*
X90497142Y-123030476D01*
X90401904Y-123078095D01*
X91925714Y-123792380D02*
X91354285Y-123792380D01*
X91640000Y-123792380D02*
X91640000Y-122792380D01*
X91544761Y-122935238D01*
X91449523Y-123030476D01*
X91354285Y-123078095D01*
X80297857Y-127602380D02*
X80297857Y-126602380D01*
X80631190Y-127316666D01*
X80964523Y-126602380D01*
X80964523Y-127602380D01*
X81440714Y-127602380D02*
X81440714Y-126602380D01*
X81821666Y-126602380D01*
X81916904Y-126650000D01*
X81964523Y-126697619D01*
X82012142Y-126792857D01*
X82012142Y-126935714D01*
X81964523Y-127030952D01*
X81916904Y-127078571D01*
X81821666Y-127126190D01*
X81440714Y-127126190D01*
X82440714Y-127602380D02*
X82440714Y-126602380D01*
X82821666Y-126602380D01*
X82916904Y-126650000D01*
X82964523Y-126697619D01*
X83012142Y-126792857D01*
X83012142Y-126935714D01*
X82964523Y-127030952D01*
X82916904Y-127078571D01*
X82821666Y-127126190D01*
X82440714Y-127126190D01*
X83297857Y-126602380D02*
X83869285Y-126602380D01*
X83583571Y-127602380D02*
X83583571Y-126602380D01*
X85155000Y-126602380D02*
X85345476Y-126602380D01*
X85440714Y-126650000D01*
X85535952Y-126745238D01*
X85583571Y-126935714D01*
X85583571Y-127269047D01*
X85535952Y-127459523D01*
X85440714Y-127554761D01*
X85345476Y-127602380D01*
X85155000Y-127602380D01*
X85059761Y-127554761D01*
X84964523Y-127459523D01*
X84916904Y-127269047D01*
X84916904Y-126935714D01*
X84964523Y-126745238D01*
X85059761Y-126650000D01*
X85155000Y-126602380D01*
X86440714Y-126935714D02*
X86440714Y-127602380D01*
X86012142Y-126935714D02*
X86012142Y-127459523D01*
X86059761Y-127554761D01*
X86155000Y-127602380D01*
X86297857Y-127602380D01*
X86393095Y-127554761D01*
X86440714Y-127507142D01*
X86774047Y-126935714D02*
X87155000Y-126935714D01*
X86916904Y-126602380D02*
X86916904Y-127459523D01*
X86964523Y-127554761D01*
X87059761Y-127602380D01*
X87155000Y-127602380D01*
X96228095Y-70087380D02*
X96228095Y-70896904D01*
X96275714Y-70992142D01*
X96323333Y-71039761D01*
X96418571Y-71087380D01*
X96609047Y-71087380D01*
X96704285Y-71039761D01*
X96751904Y-70992142D01*
X96799523Y-70896904D01*
X96799523Y-70087380D01*
X97704285Y-70420714D02*
X97704285Y-71087380D01*
X97466190Y-70039761D02*
X97228095Y-70754047D01*
X97847142Y-70754047D01*
X93959047Y-78659761D02*
X94101904Y-78707380D01*
X94340000Y-78707380D01*
X94435238Y-78659761D01*
X94482857Y-78612142D01*
X94530476Y-78516904D01*
X94530476Y-78421666D01*
X94482857Y-78326428D01*
X94435238Y-78278809D01*
X94340000Y-78231190D01*
X94149523Y-78183571D01*
X94054285Y-78135952D01*
X94006666Y-78088333D01*
X93959047Y-77993095D01*
X93959047Y-77897857D01*
X94006666Y-77802619D01*
X94054285Y-77755000D01*
X94149523Y-77707380D01*
X94387619Y-77707380D01*
X94530476Y-77755000D01*
X94959047Y-78707380D02*
X94959047Y-77707380D01*
X95340000Y-77707380D01*
X95435238Y-77755000D01*
X95482857Y-77802619D01*
X95530476Y-77897857D01*
X95530476Y-78040714D01*
X95482857Y-78135952D01*
X95435238Y-78183571D01*
X95340000Y-78231190D01*
X94959047Y-78231190D01*
X95959047Y-78707380D02*
X95959047Y-77707380D01*
X96197142Y-77707380D01*
X96340000Y-77755000D01*
X96435238Y-77850238D01*
X96482857Y-77945476D01*
X96530476Y-78135952D01*
X96530476Y-78278809D01*
X96482857Y-78469285D01*
X96435238Y-78564523D01*
X96340000Y-78659761D01*
X96197142Y-78707380D01*
X95959047Y-78707380D01*
X96816190Y-77707380D02*
X97387619Y-77707380D01*
X97101904Y-78707380D02*
X97101904Y-77707380D01*
X98482857Y-78707380D02*
X98482857Y-77707380D01*
X98959047Y-78040714D02*
X98959047Y-78707380D01*
X98959047Y-78135952D02*
X99006666Y-78088333D01*
X99101904Y-78040714D01*
X99244761Y-78040714D01*
X99340000Y-78088333D01*
X99387619Y-78183571D01*
X99387619Y-78707380D01*
X99720952Y-78040714D02*
X100101904Y-78040714D01*
X99863809Y-77707380D02*
X99863809Y-78564523D01*
X99911428Y-78659761D01*
X100006666Y-78707380D01*
X100101904Y-78707380D01*
X100816190Y-78659761D02*
X100720952Y-78707380D01*
X100530476Y-78707380D01*
X100435238Y-78659761D01*
X100387619Y-78564523D01*
X100387619Y-78183571D01*
X100435238Y-78088333D01*
X100530476Y-78040714D01*
X100720952Y-78040714D01*
X100816190Y-78088333D01*
X100863809Y-78183571D01*
X100863809Y-78278809D01*
X100387619Y-78374047D01*
X101292380Y-78707380D02*
X101292380Y-78040714D01*
X101292380Y-78231190D02*
X101340000Y-78135952D01*
X101387619Y-78088333D01*
X101482857Y-78040714D01*
X101578095Y-78040714D01*
X101911428Y-78040714D02*
X101911428Y-78707380D01*
X101911428Y-78135952D02*
X101959047Y-78088333D01*
X102054285Y-78040714D01*
X102197142Y-78040714D01*
X102292380Y-78088333D01*
X102340000Y-78183571D01*
X102340000Y-78707380D01*
X103244761Y-78707380D02*
X103244761Y-78183571D01*
X103197142Y-78088333D01*
X103101904Y-78040714D01*
X102911428Y-78040714D01*
X102816190Y-78088333D01*
X103244761Y-78659761D02*
X103149523Y-78707380D01*
X102911428Y-78707380D01*
X102816190Y-78659761D01*
X102768571Y-78564523D01*
X102768571Y-78469285D01*
X102816190Y-78374047D01*
X102911428Y-78326428D01*
X103149523Y-78326428D01*
X103244761Y-78278809D01*
X103863809Y-78707380D02*
X103768571Y-78659761D01*
X103720952Y-78564523D01*
X103720952Y-77707380D01*
X104959047Y-78659761D02*
X105101904Y-78707380D01*
X105340000Y-78707380D01*
X105435238Y-78659761D01*
X105482857Y-78612142D01*
X105530476Y-78516904D01*
X105530476Y-78421666D01*
X105482857Y-78326428D01*
X105435238Y-78278809D01*
X105340000Y-78231190D01*
X105149523Y-78183571D01*
X105054285Y-78135952D01*
X105006666Y-78088333D01*
X104959047Y-77993095D01*
X104959047Y-77897857D01*
X105006666Y-77802619D01*
X105054285Y-77755000D01*
X105149523Y-77707380D01*
X105387619Y-77707380D01*
X105530476Y-77755000D01*
X106387619Y-78707380D02*
X106387619Y-78183571D01*
X106340000Y-78088333D01*
X106244761Y-78040714D01*
X106054285Y-78040714D01*
X105959047Y-78088333D01*
X106387619Y-78659761D02*
X106292380Y-78707380D01*
X106054285Y-78707380D01*
X105959047Y-78659761D01*
X105911428Y-78564523D01*
X105911428Y-78469285D01*
X105959047Y-78374047D01*
X106054285Y-78326428D01*
X106292380Y-78326428D01*
X106387619Y-78278809D01*
X106720952Y-78040714D02*
X107101904Y-78040714D01*
X106863809Y-78707380D02*
X106863809Y-77850238D01*
X106911428Y-77755000D01*
X107006666Y-77707380D01*
X107101904Y-77707380D01*
X107816190Y-78659761D02*
X107720952Y-78707380D01*
X107530476Y-78707380D01*
X107435238Y-78659761D01*
X107387619Y-78564523D01*
X107387619Y-78183571D01*
X107435238Y-78088333D01*
X107530476Y-78040714D01*
X107720952Y-78040714D01*
X107816190Y-78088333D01*
X107863809Y-78183571D01*
X107863809Y-78278809D01*
X107387619Y-78374047D01*
X109625714Y-78707380D02*
X109292380Y-78231190D01*
X109054285Y-78707380D02*
X109054285Y-77707380D01*
X109435238Y-77707380D01*
X109530476Y-77755000D01*
X109578095Y-77802619D01*
X109625714Y-77897857D01*
X109625714Y-78040714D01*
X109578095Y-78135952D01*
X109530476Y-78183571D01*
X109435238Y-78231190D01*
X109054285Y-78231190D01*
X110435238Y-78659761D02*
X110340000Y-78707380D01*
X110149523Y-78707380D01*
X110054285Y-78659761D01*
X110006666Y-78564523D01*
X110006666Y-78183571D01*
X110054285Y-78088333D01*
X110149523Y-78040714D01*
X110340000Y-78040714D01*
X110435238Y-78088333D01*
X110482857Y-78183571D01*
X110482857Y-78278809D01*
X110006666Y-78374047D01*
X110863809Y-78659761D02*
X110959047Y-78707380D01*
X111149523Y-78707380D01*
X111244761Y-78659761D01*
X111292380Y-78564523D01*
X111292380Y-78516904D01*
X111244761Y-78421666D01*
X111149523Y-78374047D01*
X111006666Y-78374047D01*
X110911428Y-78326428D01*
X110863809Y-78231190D01*
X110863809Y-78183571D01*
X110911428Y-78088333D01*
X111006666Y-78040714D01*
X111149523Y-78040714D01*
X111244761Y-78088333D01*
X112101904Y-78659761D02*
X112006666Y-78707380D01*
X111816190Y-78707380D01*
X111720952Y-78659761D01*
X111673333Y-78564523D01*
X111673333Y-78183571D01*
X111720952Y-78088333D01*
X111816190Y-78040714D01*
X112006666Y-78040714D01*
X112101904Y-78088333D01*
X112149523Y-78183571D01*
X112149523Y-78278809D01*
X111673333Y-78374047D01*
X112435238Y-78040714D02*
X112816190Y-78040714D01*
X112578095Y-77707380D02*
X112578095Y-78564523D01*
X112625714Y-78659761D01*
X112720952Y-78707380D01*
X112816190Y-78707380D01*
X121151904Y-69452380D02*
X121151904Y-70261904D01*
X121199523Y-70357142D01*
X121247142Y-70404761D01*
X121342380Y-70452380D01*
X121532857Y-70452380D01*
X121628095Y-70404761D01*
X121675714Y-70357142D01*
X121723333Y-70261904D01*
X121723333Y-69452380D01*
X122723333Y-70452380D02*
X122151904Y-70452380D01*
X122437619Y-70452380D02*
X122437619Y-69452380D01*
X122342380Y-69595238D01*
X122247142Y-69690476D01*
X122151904Y-69738095D01*
X123580476Y-69785714D02*
X123580476Y-70452380D01*
X123342380Y-69404761D02*
X123104285Y-70119047D01*
X123723333Y-70119047D01*
X125597142Y-73262380D02*
X126168571Y-73262380D01*
X125882857Y-74262380D02*
X125882857Y-73262380D01*
X126882857Y-74214761D02*
X126787619Y-74262380D01*
X126597142Y-74262380D01*
X126501904Y-74214761D01*
X126454285Y-74119523D01*
X126454285Y-73738571D01*
X126501904Y-73643333D01*
X126597142Y-73595714D01*
X126787619Y-73595714D01*
X126882857Y-73643333D01*
X126930476Y-73738571D01*
X126930476Y-73833809D01*
X126454285Y-73929047D01*
X127501904Y-74262380D02*
X127406666Y-74214761D01*
X127359047Y-74119523D01*
X127359047Y-73262380D01*
X128263809Y-74214761D02*
X128168571Y-74262380D01*
X127978095Y-74262380D01*
X127882857Y-74214761D01*
X127835238Y-74119523D01*
X127835238Y-73738571D01*
X127882857Y-73643333D01*
X127978095Y-73595714D01*
X128168571Y-73595714D01*
X128263809Y-73643333D01*
X128311428Y-73738571D01*
X128311428Y-73833809D01*
X127835238Y-73929047D01*
X128740000Y-74262380D02*
X128740000Y-73595714D01*
X128740000Y-73690952D02*
X128787619Y-73643333D01*
X128882857Y-73595714D01*
X129025714Y-73595714D01*
X129120952Y-73643333D01*
X129168571Y-73738571D01*
X129168571Y-74262380D01*
X129168571Y-73738571D02*
X129216190Y-73643333D01*
X129311428Y-73595714D01*
X129454285Y-73595714D01*
X129549523Y-73643333D01*
X129597142Y-73738571D01*
X129597142Y-74262380D01*
X130835238Y-74262380D02*
X130835238Y-73262380D01*
X131311428Y-73595714D02*
X131311428Y-74262380D01*
X131311428Y-73690952D02*
X131359047Y-73643333D01*
X131454285Y-73595714D01*
X131597142Y-73595714D01*
X131692380Y-73643333D01*
X131740000Y-73738571D01*
X131740000Y-74262380D01*
X89401904Y-110727380D02*
X89401904Y-111536904D01*
X89449523Y-111632142D01*
X89497142Y-111679761D01*
X89592380Y-111727380D01*
X89782857Y-111727380D01*
X89878095Y-111679761D01*
X89925714Y-111632142D01*
X89973333Y-111536904D01*
X89973333Y-110727380D01*
X90973333Y-111727380D02*
X90401904Y-111727380D01*
X90687619Y-111727380D02*
X90687619Y-110727380D01*
X90592380Y-110870238D01*
X90497142Y-110965476D01*
X90401904Y-111013095D01*
X91544761Y-111155952D02*
X91449523Y-111108333D01*
X91401904Y-111060714D01*
X91354285Y-110965476D01*
X91354285Y-110917857D01*
X91401904Y-110822619D01*
X91449523Y-110775000D01*
X91544761Y-110727380D01*
X91735238Y-110727380D01*
X91830476Y-110775000D01*
X91878095Y-110822619D01*
X91925714Y-110917857D01*
X91925714Y-110965476D01*
X91878095Y-111060714D01*
X91830476Y-111108333D01*
X91735238Y-111155952D01*
X91544761Y-111155952D01*
X91449523Y-111203571D01*
X91401904Y-111251190D01*
X91354285Y-111346428D01*
X91354285Y-111536904D01*
X91401904Y-111632142D01*
X91449523Y-111679761D01*
X91544761Y-111727380D01*
X91735238Y-111727380D01*
X91830476Y-111679761D01*
X91878095Y-111632142D01*
X91925714Y-111536904D01*
X91925714Y-111346428D01*
X91878095Y-111251190D01*
X91830476Y-111203571D01*
X91735238Y-111155952D01*
X94220238Y-115537380D02*
X93886904Y-115061190D01*
X93648809Y-115537380D02*
X93648809Y-114537380D01*
X94029761Y-114537380D01*
X94125000Y-114585000D01*
X94172619Y-114632619D01*
X94220238Y-114727857D01*
X94220238Y-114870714D01*
X94172619Y-114965952D01*
X94125000Y-115013571D01*
X94029761Y-115061190D01*
X93648809Y-115061190D01*
X95029761Y-115489761D02*
X94934523Y-115537380D01*
X94744047Y-115537380D01*
X94648809Y-115489761D01*
X94601190Y-115394523D01*
X94601190Y-115013571D01*
X94648809Y-114918333D01*
X94744047Y-114870714D01*
X94934523Y-114870714D01*
X95029761Y-114918333D01*
X95077380Y-115013571D01*
X95077380Y-115108809D01*
X94601190Y-115204047D01*
X95934523Y-115537380D02*
X95934523Y-115013571D01*
X95886904Y-114918333D01*
X95791666Y-114870714D01*
X95601190Y-114870714D01*
X95505952Y-114918333D01*
X95934523Y-115489761D02*
X95839285Y-115537380D01*
X95601190Y-115537380D01*
X95505952Y-115489761D01*
X95458333Y-115394523D01*
X95458333Y-115299285D01*
X95505952Y-115204047D01*
X95601190Y-115156428D01*
X95839285Y-115156428D01*
X95934523Y-115108809D01*
X96410714Y-115537380D02*
X96410714Y-114870714D01*
X96410714Y-115061190D02*
X96458333Y-114965952D01*
X96505952Y-114918333D01*
X96601190Y-114870714D01*
X96696428Y-114870714D01*
X97648809Y-114537380D02*
X97982142Y-115537380D01*
X98315476Y-114537380D01*
X98648809Y-115537380D02*
X98648809Y-114870714D01*
X98648809Y-114537380D02*
X98601190Y-114585000D01*
X98648809Y-114632619D01*
X98696428Y-114585000D01*
X98648809Y-114537380D01*
X98648809Y-114632619D01*
X99077380Y-115489761D02*
X99172619Y-115537380D01*
X99363095Y-115537380D01*
X99458333Y-115489761D01*
X99505952Y-115394523D01*
X99505952Y-115346904D01*
X99458333Y-115251666D01*
X99363095Y-115204047D01*
X99220238Y-115204047D01*
X99125000Y-115156428D01*
X99077380Y-115061190D01*
X99077380Y-115013571D01*
X99125000Y-114918333D01*
X99220238Y-114870714D01*
X99363095Y-114870714D01*
X99458333Y-114918333D01*
X100696428Y-115537380D02*
X100696428Y-114537380D01*
X101172619Y-114870714D02*
X101172619Y-115537380D01*
X101172619Y-114965952D02*
X101220238Y-114918333D01*
X101315476Y-114870714D01*
X101458333Y-114870714D01*
X101553571Y-114918333D01*
X101601190Y-115013571D01*
X101601190Y-115537380D01*
X204122380Y-65023095D02*
X203122380Y-65023095D01*
X203122380Y-64642142D01*
X203170000Y-64546904D01*
X203217619Y-64499285D01*
X203312857Y-64451666D01*
X203455714Y-64451666D01*
X203550952Y-64499285D01*
X203598571Y-64546904D01*
X203646190Y-64642142D01*
X203646190Y-65023095D01*
X204122380Y-63499285D02*
X204122380Y-64070714D01*
X204122380Y-63785000D02*
X203122380Y-63785000D01*
X203265238Y-63880238D01*
X203360476Y-63975476D01*
X203408095Y-64070714D01*
X201693571Y-68094523D02*
X201741190Y-67951666D01*
X201788809Y-67904047D01*
X201884047Y-67856428D01*
X202026904Y-67856428D01*
X202122142Y-67904047D01*
X202169761Y-67951666D01*
X202217380Y-68046904D01*
X202217380Y-68427857D01*
X201217380Y-68427857D01*
X201217380Y-68094523D01*
X201265000Y-67999285D01*
X201312619Y-67951666D01*
X201407857Y-67904047D01*
X201503095Y-67904047D01*
X201598333Y-67951666D01*
X201645952Y-67999285D01*
X201693571Y-68094523D01*
X201693571Y-68427857D01*
X202217380Y-66999285D02*
X201693571Y-66999285D01*
X201598333Y-67046904D01*
X201550714Y-67142142D01*
X201550714Y-67332619D01*
X201598333Y-67427857D01*
X202169761Y-66999285D02*
X202217380Y-67094523D01*
X202217380Y-67332619D01*
X202169761Y-67427857D01*
X202074523Y-67475476D01*
X201979285Y-67475476D01*
X201884047Y-67427857D01*
X201836428Y-67332619D01*
X201836428Y-67094523D01*
X201788809Y-66999285D01*
X201550714Y-66665952D02*
X201550714Y-66285000D01*
X201217380Y-66523095D02*
X202074523Y-66523095D01*
X202169761Y-66475476D01*
X202217380Y-66380238D01*
X202217380Y-66285000D01*
X201550714Y-66094523D02*
X201550714Y-65713571D01*
X201217380Y-65951666D02*
X202074523Y-65951666D01*
X202169761Y-65904047D01*
X202217380Y-65808809D01*
X202217380Y-65713571D01*
X202169761Y-64999285D02*
X202217380Y-65094523D01*
X202217380Y-65285000D01*
X202169761Y-65380238D01*
X202074523Y-65427857D01*
X201693571Y-65427857D01*
X201598333Y-65380238D01*
X201550714Y-65285000D01*
X201550714Y-65094523D01*
X201598333Y-64999285D01*
X201693571Y-64951666D01*
X201788809Y-64951666D01*
X201884047Y-65427857D01*
X202217380Y-64523095D02*
X201550714Y-64523095D01*
X201741190Y-64523095D02*
X201645952Y-64475476D01*
X201598333Y-64427857D01*
X201550714Y-64332619D01*
X201550714Y-64237380D01*
X201550714Y-63999285D02*
X202217380Y-63761190D01*
X201550714Y-63523095D02*
X202217380Y-63761190D01*
X202455476Y-63856428D01*
X202503095Y-63904047D01*
X202550714Y-63999285D01*
X201693571Y-62046904D02*
X201741190Y-61904047D01*
X201788809Y-61856428D01*
X201884047Y-61808809D01*
X202026904Y-61808809D01*
X202122142Y-61856428D01*
X202169761Y-61904047D01*
X202217380Y-61999285D01*
X202217380Y-62380238D01*
X201217380Y-62380238D01*
X201217380Y-62046904D01*
X201265000Y-61951666D01*
X201312619Y-61904047D01*
X201407857Y-61856428D01*
X201503095Y-61856428D01*
X201598333Y-61904047D01*
X201645952Y-61951666D01*
X201693571Y-62046904D01*
X201693571Y-62380238D01*
X202217380Y-61237380D02*
X202169761Y-61332619D01*
X202122142Y-61380238D01*
X202026904Y-61427857D01*
X201741190Y-61427857D01*
X201645952Y-61380238D01*
X201598333Y-61332619D01*
X201550714Y-61237380D01*
X201550714Y-61094523D01*
X201598333Y-60999285D01*
X201645952Y-60951666D01*
X201741190Y-60904047D01*
X202026904Y-60904047D01*
X202122142Y-60951666D01*
X202169761Y-60999285D01*
X202217380Y-61094523D01*
X202217380Y-61237380D01*
X202217380Y-60570714D02*
X201550714Y-60046904D01*
X201550714Y-60570714D02*
X202217380Y-60046904D01*
X204122380Y-80263095D02*
X203122380Y-80263095D01*
X203122380Y-79882142D01*
X203170000Y-79786904D01*
X203217619Y-79739285D01*
X203312857Y-79691666D01*
X203455714Y-79691666D01*
X203550952Y-79739285D01*
X203598571Y-79786904D01*
X203646190Y-79882142D01*
X203646190Y-80263095D01*
X203217619Y-79310714D02*
X203170000Y-79263095D01*
X203122380Y-79167857D01*
X203122380Y-78929761D01*
X203170000Y-78834523D01*
X203217619Y-78786904D01*
X203312857Y-78739285D01*
X203408095Y-78739285D01*
X203550952Y-78786904D01*
X204122380Y-79358333D01*
X204122380Y-78739285D01*
X201693571Y-83548809D02*
X201693571Y-83215476D01*
X202217380Y-83072619D02*
X202217380Y-83548809D01*
X201217380Y-83548809D01*
X201217380Y-83072619D01*
X202217380Y-82739285D02*
X201550714Y-82215476D01*
X201550714Y-82739285D02*
X202217380Y-82215476D01*
X201550714Y-81977380D02*
X201550714Y-81596428D01*
X201217380Y-81834523D02*
X202074523Y-81834523D01*
X202169761Y-81786904D01*
X202217380Y-81691666D01*
X202217380Y-81596428D01*
X201693571Y-80501190D02*
X201693571Y-80167857D01*
X202217380Y-80025000D02*
X202217380Y-80501190D01*
X201217380Y-80501190D01*
X201217380Y-80025000D01*
X201836428Y-79596428D02*
X201836428Y-78834523D01*
X202169761Y-78405952D02*
X202217380Y-78263095D01*
X202217380Y-78025000D01*
X202169761Y-77929761D01*
X202122142Y-77882142D01*
X202026904Y-77834523D01*
X201931666Y-77834523D01*
X201836428Y-77882142D01*
X201788809Y-77929761D01*
X201741190Y-78025000D01*
X201693571Y-78215476D01*
X201645952Y-78310714D01*
X201598333Y-78358333D01*
X201503095Y-78405952D01*
X201407857Y-78405952D01*
X201312619Y-78358333D01*
X201265000Y-78310714D01*
X201217380Y-78215476D01*
X201217380Y-77977380D01*
X201265000Y-77834523D01*
X201550714Y-77548809D02*
X201550714Y-77167857D01*
X201217380Y-77405952D02*
X202074523Y-77405952D01*
X202169761Y-77358333D01*
X202217380Y-77263095D01*
X202217380Y-77167857D01*
X202217380Y-76691666D02*
X202169761Y-76786904D01*
X202122142Y-76834523D01*
X202026904Y-76882142D01*
X201741190Y-76882142D01*
X201645952Y-76834523D01*
X201598333Y-76786904D01*
X201550714Y-76691666D01*
X201550714Y-76548809D01*
X201598333Y-76453571D01*
X201645952Y-76405952D01*
X201741190Y-76358333D01*
X202026904Y-76358333D01*
X202122142Y-76405952D01*
X202169761Y-76453571D01*
X202217380Y-76548809D01*
X202217380Y-76691666D01*
X201550714Y-75929761D02*
X202550714Y-75929761D01*
X201598333Y-75929761D02*
X201550714Y-75834523D01*
X201550714Y-75644047D01*
X201598333Y-75548809D01*
X201645952Y-75501190D01*
X201741190Y-75453571D01*
X202026904Y-75453571D01*
X202122142Y-75501190D01*
X202169761Y-75548809D01*
X202217380Y-75644047D01*
X202217380Y-75834523D01*
X202169761Y-75929761D01*
X204122380Y-87883095D02*
X203122380Y-87883095D01*
X203122380Y-87502142D01*
X203170000Y-87406904D01*
X203217619Y-87359285D01*
X203312857Y-87311666D01*
X203455714Y-87311666D01*
X203550952Y-87359285D01*
X203598571Y-87406904D01*
X203646190Y-87502142D01*
X203646190Y-87883095D01*
X203122380Y-86978333D02*
X203122380Y-86359285D01*
X203503333Y-86692619D01*
X203503333Y-86549761D01*
X203550952Y-86454523D01*
X203598571Y-86406904D01*
X203693809Y-86359285D01*
X203931904Y-86359285D01*
X204027142Y-86406904D01*
X204074761Y-86454523D01*
X204122380Y-86549761D01*
X204122380Y-86835476D01*
X204074761Y-86930714D01*
X204027142Y-86978333D01*
X200312380Y-88859285D02*
X199312380Y-88859285D01*
X200026666Y-88525952D01*
X199312380Y-88192619D01*
X200312380Y-88192619D01*
X200312380Y-87716428D02*
X199312380Y-87716428D01*
X199312380Y-87335476D01*
X199360000Y-87240238D01*
X199407619Y-87192619D01*
X199502857Y-87145000D01*
X199645714Y-87145000D01*
X199740952Y-87192619D01*
X199788571Y-87240238D01*
X199836190Y-87335476D01*
X199836190Y-87716428D01*
X200312380Y-86716428D02*
X199312380Y-86716428D01*
X199312380Y-86335476D01*
X199360000Y-86240238D01*
X199407619Y-86192619D01*
X199502857Y-86145000D01*
X199645714Y-86145000D01*
X199740952Y-86192619D01*
X199788571Y-86240238D01*
X199836190Y-86335476D01*
X199836190Y-86716428D01*
X199312380Y-85859285D02*
X199312380Y-85287857D01*
X200312380Y-85573571D02*
X199312380Y-85573571D01*
X204122380Y-95503095D02*
X203122380Y-95503095D01*
X203122380Y-95122142D01*
X203170000Y-95026904D01*
X203217619Y-94979285D01*
X203312857Y-94931666D01*
X203455714Y-94931666D01*
X203550952Y-94979285D01*
X203598571Y-95026904D01*
X203646190Y-95122142D01*
X203646190Y-95503095D01*
X203455714Y-94074523D02*
X204122380Y-94074523D01*
X203074761Y-94312619D02*
X203789047Y-94550714D01*
X203789047Y-93931666D01*
X201217380Y-95741190D02*
X201217380Y-95169761D01*
X202217380Y-95455476D02*
X201217380Y-95455476D01*
X202169761Y-94455476D02*
X202217380Y-94550714D01*
X202217380Y-94741190D01*
X202169761Y-94836428D01*
X202074523Y-94884047D01*
X201693571Y-94884047D01*
X201598333Y-94836428D01*
X201550714Y-94741190D01*
X201550714Y-94550714D01*
X201598333Y-94455476D01*
X201693571Y-94407857D01*
X201788809Y-94407857D01*
X201884047Y-94884047D01*
X202217380Y-93836428D02*
X202169761Y-93931666D01*
X202074523Y-93979285D01*
X201217380Y-93979285D01*
X204122380Y-103123095D02*
X203122380Y-103123095D01*
X203122380Y-102742142D01*
X203170000Y-102646904D01*
X203217619Y-102599285D01*
X203312857Y-102551666D01*
X203455714Y-102551666D01*
X203550952Y-102599285D01*
X203598571Y-102646904D01*
X203646190Y-102742142D01*
X203646190Y-103123095D01*
X203122380Y-101646904D02*
X203122380Y-102123095D01*
X203598571Y-102170714D01*
X203550952Y-102123095D01*
X203503333Y-102027857D01*
X203503333Y-101789761D01*
X203550952Y-101694523D01*
X203598571Y-101646904D01*
X203693809Y-101599285D01*
X203931904Y-101599285D01*
X204027142Y-101646904D01*
X204074761Y-101694523D01*
X204122380Y-101789761D01*
X204122380Y-102027857D01*
X204074761Y-102123095D01*
X204027142Y-102170714D01*
X200312380Y-104107142D02*
X199836190Y-104440476D01*
X200312380Y-104678571D02*
X199312380Y-104678571D01*
X199312380Y-104297619D01*
X199360000Y-104202380D01*
X199407619Y-104154761D01*
X199502857Y-104107142D01*
X199645714Y-104107142D01*
X199740952Y-104154761D01*
X199788571Y-104202380D01*
X199836190Y-104297619D01*
X199836190Y-104678571D01*
X200312380Y-103250000D02*
X199788571Y-103250000D01*
X199693333Y-103297619D01*
X199645714Y-103392857D01*
X199645714Y-103583333D01*
X199693333Y-103678571D01*
X200264761Y-103250000D02*
X200312380Y-103345238D01*
X200312380Y-103583333D01*
X200264761Y-103678571D01*
X200169523Y-103726190D01*
X200074285Y-103726190D01*
X199979047Y-103678571D01*
X199931428Y-103583333D01*
X199931428Y-103345238D01*
X199883809Y-103250000D01*
X200312380Y-102345238D02*
X199312380Y-102345238D01*
X200264761Y-102345238D02*
X200312380Y-102440476D01*
X200312380Y-102630952D01*
X200264761Y-102726190D01*
X200217142Y-102773809D01*
X200121904Y-102821428D01*
X199836190Y-102821428D01*
X199740952Y-102773809D01*
X199693333Y-102726190D01*
X199645714Y-102630952D01*
X199645714Y-102440476D01*
X199693333Y-102345238D01*
X200312380Y-101869047D02*
X199645714Y-101869047D01*
X199312380Y-101869047D02*
X199360000Y-101916666D01*
X199407619Y-101869047D01*
X199360000Y-101821428D01*
X199312380Y-101869047D01*
X199407619Y-101869047D01*
X200312380Y-101250000D02*
X200264761Y-101345238D01*
X200217142Y-101392857D01*
X200121904Y-101440476D01*
X199836190Y-101440476D01*
X199740952Y-101392857D01*
X199693333Y-101345238D01*
X199645714Y-101250000D01*
X199645714Y-101107142D01*
X199693333Y-101011904D01*
X199740952Y-100964285D01*
X199836190Y-100916666D01*
X200121904Y-100916666D01*
X200217142Y-100964285D01*
X200264761Y-101011904D01*
X200312380Y-101107142D01*
X200312380Y-101250000D01*
X199312380Y-100630952D02*
X199312380Y-100059523D01*
X200312380Y-100345238D02*
X199312380Y-100345238D01*
X200264761Y-99345238D02*
X200312380Y-99440476D01*
X200312380Y-99630952D01*
X200264761Y-99726190D01*
X200169523Y-99773809D01*
X199788571Y-99773809D01*
X199693333Y-99726190D01*
X199645714Y-99630952D01*
X199645714Y-99440476D01*
X199693333Y-99345238D01*
X199788571Y-99297619D01*
X199883809Y-99297619D01*
X199979047Y-99773809D01*
X200312380Y-98726190D02*
X200264761Y-98821428D01*
X200169523Y-98869047D01*
X199312380Y-98869047D01*
X204122380Y-110743095D02*
X203122380Y-110743095D01*
X203122380Y-110362142D01*
X203170000Y-110266904D01*
X203217619Y-110219285D01*
X203312857Y-110171666D01*
X203455714Y-110171666D01*
X203550952Y-110219285D01*
X203598571Y-110266904D01*
X203646190Y-110362142D01*
X203646190Y-110743095D01*
X203122380Y-109314523D02*
X203122380Y-109505000D01*
X203170000Y-109600238D01*
X203217619Y-109647857D01*
X203360476Y-109743095D01*
X203550952Y-109790714D01*
X203931904Y-109790714D01*
X204027142Y-109743095D01*
X204074761Y-109695476D01*
X204122380Y-109600238D01*
X204122380Y-109409761D01*
X204074761Y-109314523D01*
X204027142Y-109266904D01*
X203931904Y-109219285D01*
X203693809Y-109219285D01*
X203598571Y-109266904D01*
X203550952Y-109314523D01*
X203503333Y-109409761D01*
X203503333Y-109600238D01*
X203550952Y-109695476D01*
X203598571Y-109743095D01*
X203693809Y-109790714D01*
X202217380Y-112385952D02*
X201741190Y-112719285D01*
X202217380Y-112957380D02*
X201217380Y-112957380D01*
X201217380Y-112576428D01*
X201265000Y-112481190D01*
X201312619Y-112433571D01*
X201407857Y-112385952D01*
X201550714Y-112385952D01*
X201645952Y-112433571D01*
X201693571Y-112481190D01*
X201741190Y-112576428D01*
X201741190Y-112957380D01*
X201217380Y-112100238D02*
X202217380Y-111766904D01*
X201217380Y-111433571D01*
X202217380Y-111100238D02*
X201550714Y-111100238D01*
X201217380Y-111100238D02*
X201265000Y-111147857D01*
X201312619Y-111100238D01*
X201265000Y-111052619D01*
X201217380Y-111100238D01*
X201312619Y-111100238D01*
X202169761Y-110671666D02*
X202217380Y-110576428D01*
X202217380Y-110385952D01*
X202169761Y-110290714D01*
X202074523Y-110243095D01*
X202026904Y-110243095D01*
X201931666Y-110290714D01*
X201884047Y-110385952D01*
X201884047Y-110528809D01*
X201836428Y-110624047D01*
X201741190Y-110671666D01*
X201693571Y-110671666D01*
X201598333Y-110624047D01*
X201550714Y-110528809D01*
X201550714Y-110385952D01*
X201598333Y-110290714D01*
X202122142Y-109243095D02*
X202169761Y-109290714D01*
X202217380Y-109433571D01*
X202217380Y-109528809D01*
X202169761Y-109671666D01*
X202074523Y-109766904D01*
X201979285Y-109814523D01*
X201788809Y-109862142D01*
X201645952Y-109862142D01*
X201455476Y-109814523D01*
X201360238Y-109766904D01*
X201265000Y-109671666D01*
X201217380Y-109528809D01*
X201217380Y-109433571D01*
X201265000Y-109290714D01*
X201312619Y-109243095D01*
X202217380Y-108385952D02*
X201693571Y-108385952D01*
X201598333Y-108433571D01*
X201550714Y-108528809D01*
X201550714Y-108719285D01*
X201598333Y-108814523D01*
X202169761Y-108385952D02*
X202217380Y-108481190D01*
X202217380Y-108719285D01*
X202169761Y-108814523D01*
X202074523Y-108862142D01*
X201979285Y-108862142D01*
X201884047Y-108814523D01*
X201836428Y-108719285D01*
X201836428Y-108481190D01*
X201788809Y-108385952D01*
X202217380Y-107909761D02*
X201550714Y-107909761D01*
X201645952Y-107909761D02*
X201598333Y-107862142D01*
X201550714Y-107766904D01*
X201550714Y-107624047D01*
X201598333Y-107528809D01*
X201693571Y-107481190D01*
X202217380Y-107481190D01*
X201693571Y-107481190D02*
X201598333Y-107433571D01*
X201550714Y-107338333D01*
X201550714Y-107195476D01*
X201598333Y-107100238D01*
X201693571Y-107052619D01*
X202217380Y-107052619D01*
X204122380Y-118363095D02*
X203122380Y-118363095D01*
X203122380Y-117982142D01*
X203170000Y-117886904D01*
X203217619Y-117839285D01*
X203312857Y-117791666D01*
X203455714Y-117791666D01*
X203550952Y-117839285D01*
X203598571Y-117886904D01*
X203646190Y-117982142D01*
X203646190Y-118363095D01*
X203122380Y-117458333D02*
X203122380Y-116791666D01*
X204122380Y-117220238D01*
X200312380Y-120236190D02*
X199836190Y-120569523D01*
X200312380Y-120807619D02*
X199312380Y-120807619D01*
X199312380Y-120426666D01*
X199360000Y-120331428D01*
X199407619Y-120283809D01*
X199502857Y-120236190D01*
X199645714Y-120236190D01*
X199740952Y-120283809D01*
X199788571Y-120331428D01*
X199836190Y-120426666D01*
X199836190Y-120807619D01*
X199312380Y-119950476D02*
X200312380Y-119617142D01*
X199312380Y-119283809D01*
X200312380Y-118950476D02*
X199645714Y-118950476D01*
X199312380Y-118950476D02*
X199360000Y-118998095D01*
X199407619Y-118950476D01*
X199360000Y-118902857D01*
X199312380Y-118950476D01*
X199407619Y-118950476D01*
X200264761Y-118521904D02*
X200312380Y-118426666D01*
X200312380Y-118236190D01*
X200264761Y-118140952D01*
X200169523Y-118093333D01*
X200121904Y-118093333D01*
X200026666Y-118140952D01*
X199979047Y-118236190D01*
X199979047Y-118379047D01*
X199931428Y-118474285D01*
X199836190Y-118521904D01*
X199788571Y-118521904D01*
X199693333Y-118474285D01*
X199645714Y-118379047D01*
X199645714Y-118236190D01*
X199693333Y-118140952D01*
X200264761Y-117712380D02*
X200312380Y-117569523D01*
X200312380Y-117331428D01*
X200264761Y-117236190D01*
X200217142Y-117188571D01*
X200121904Y-117140952D01*
X200026666Y-117140952D01*
X199931428Y-117188571D01*
X199883809Y-117236190D01*
X199836190Y-117331428D01*
X199788571Y-117521904D01*
X199740952Y-117617142D01*
X199693333Y-117664761D01*
X199598095Y-117712380D01*
X199502857Y-117712380D01*
X199407619Y-117664761D01*
X199360000Y-117617142D01*
X199312380Y-117521904D01*
X199312380Y-117283809D01*
X199360000Y-117140952D01*
X200264761Y-116283809D02*
X200312380Y-116379047D01*
X200312380Y-116569523D01*
X200264761Y-116664761D01*
X200217142Y-116712380D01*
X200121904Y-116760000D01*
X199836190Y-116760000D01*
X199740952Y-116712380D01*
X199693333Y-116664761D01*
X199645714Y-116569523D01*
X199645714Y-116379047D01*
X199693333Y-116283809D01*
X200312380Y-115855238D02*
X199645714Y-115855238D01*
X199836190Y-115855238D02*
X199740952Y-115807619D01*
X199693333Y-115760000D01*
X199645714Y-115664761D01*
X199645714Y-115569523D01*
X204122380Y-125983095D02*
X203122380Y-125983095D01*
X203122380Y-125602142D01*
X203170000Y-125506904D01*
X203217619Y-125459285D01*
X203312857Y-125411666D01*
X203455714Y-125411666D01*
X203550952Y-125459285D01*
X203598571Y-125506904D01*
X203646190Y-125602142D01*
X203646190Y-125983095D01*
X203550952Y-124840238D02*
X203503333Y-124935476D01*
X203455714Y-124983095D01*
X203360476Y-125030714D01*
X203312857Y-125030714D01*
X203217619Y-124983095D01*
X203170000Y-124935476D01*
X203122380Y-124840238D01*
X203122380Y-124649761D01*
X203170000Y-124554523D01*
X203217619Y-124506904D01*
X203312857Y-124459285D01*
X203360476Y-124459285D01*
X203455714Y-124506904D01*
X203503333Y-124554523D01*
X203550952Y-124649761D01*
X203550952Y-124840238D01*
X203598571Y-124935476D01*
X203646190Y-124983095D01*
X203741428Y-125030714D01*
X203931904Y-125030714D01*
X204027142Y-124983095D01*
X204074761Y-124935476D01*
X204122380Y-124840238D01*
X204122380Y-124649761D01*
X204074761Y-124554523D01*
X204027142Y-124506904D01*
X203931904Y-124459285D01*
X203741428Y-124459285D01*
X203646190Y-124506904D01*
X203598571Y-124554523D01*
X203550952Y-124649761D01*
X202217380Y-126768809D02*
X202217380Y-127245000D01*
X201217380Y-127245000D01*
X202217380Y-126435476D02*
X201550714Y-126435476D01*
X201217380Y-126435476D02*
X201265000Y-126483095D01*
X201312619Y-126435476D01*
X201265000Y-126387857D01*
X201217380Y-126435476D01*
X201312619Y-126435476D01*
X201550714Y-125530714D02*
X202360238Y-125530714D01*
X202455476Y-125578333D01*
X202503095Y-125625952D01*
X202550714Y-125721190D01*
X202550714Y-125864047D01*
X202503095Y-125959285D01*
X202169761Y-125530714D02*
X202217380Y-125625952D01*
X202217380Y-125816428D01*
X202169761Y-125911666D01*
X202122142Y-125959285D01*
X202026904Y-126006904D01*
X201741190Y-126006904D01*
X201645952Y-125959285D01*
X201598333Y-125911666D01*
X201550714Y-125816428D01*
X201550714Y-125625952D01*
X201598333Y-125530714D01*
X202217380Y-125054523D02*
X201217380Y-125054523D01*
X202217380Y-124625952D02*
X201693571Y-124625952D01*
X201598333Y-124673571D01*
X201550714Y-124768809D01*
X201550714Y-124911666D01*
X201598333Y-125006904D01*
X201645952Y-125054523D01*
X201550714Y-124292619D02*
X201550714Y-123911666D01*
X201217380Y-124149761D02*
X202074523Y-124149761D01*
X202169761Y-124102142D01*
X202217380Y-124006904D01*
X202217380Y-123911666D01*
X202169761Y-123625952D02*
X202217380Y-123530714D01*
X202217380Y-123340238D01*
X202169761Y-123245000D01*
X202074523Y-123197380D01*
X202026904Y-123197380D01*
X201931666Y-123245000D01*
X201884047Y-123340238D01*
X201884047Y-123483095D01*
X201836428Y-123578333D01*
X201741190Y-123625952D01*
X201693571Y-123625952D01*
X201598333Y-123578333D01*
X201550714Y-123483095D01*
X201550714Y-123340238D01*
X201598333Y-123245000D01*
X204122380Y-133603095D02*
X203122380Y-133603095D01*
X203122380Y-133222142D01*
X203170000Y-133126904D01*
X203217619Y-133079285D01*
X203312857Y-133031666D01*
X203455714Y-133031666D01*
X203550952Y-133079285D01*
X203598571Y-133126904D01*
X203646190Y-133222142D01*
X203646190Y-133603095D01*
X204122380Y-132555476D02*
X204122380Y-132365000D01*
X204074761Y-132269761D01*
X204027142Y-132222142D01*
X203884285Y-132126904D01*
X203693809Y-132079285D01*
X203312857Y-132079285D01*
X203217619Y-132126904D01*
X203170000Y-132174523D01*
X203122380Y-132269761D01*
X203122380Y-132460238D01*
X203170000Y-132555476D01*
X203217619Y-132603095D01*
X203312857Y-132650714D01*
X203550952Y-132650714D01*
X203646190Y-132603095D01*
X203693809Y-132555476D01*
X203741428Y-132460238D01*
X203741428Y-132269761D01*
X203693809Y-132174523D01*
X203646190Y-132126904D01*
X203550952Y-132079285D01*
X199312380Y-135341190D02*
X199312380Y-134769761D01*
X200312380Y-135055476D02*
X199312380Y-135055476D01*
X200312380Y-134436428D02*
X199645714Y-134436428D01*
X199836190Y-134436428D02*
X199740952Y-134388809D01*
X199693333Y-134341190D01*
X199645714Y-134245952D01*
X199645714Y-134150714D01*
X200312380Y-133817380D02*
X199645714Y-133817380D01*
X199312380Y-133817380D02*
X199360000Y-133865000D01*
X199407619Y-133817380D01*
X199360000Y-133769761D01*
X199312380Y-133817380D01*
X199407619Y-133817380D01*
X199645714Y-133484047D02*
X199645714Y-133103095D01*
X199312380Y-133341190D02*
X200169523Y-133341190D01*
X200264761Y-133293571D01*
X200312380Y-133198333D01*
X200312380Y-133103095D01*
X200312380Y-132769761D02*
X199645714Y-132769761D01*
X199312380Y-132769761D02*
X199360000Y-132817380D01*
X199407619Y-132769761D01*
X199360000Y-132722142D01*
X199312380Y-132769761D01*
X199407619Y-132769761D01*
X199645714Y-131865000D02*
X200312380Y-131865000D01*
X199645714Y-132293571D02*
X200169523Y-132293571D01*
X200264761Y-132245952D01*
X200312380Y-132150714D01*
X200312380Y-132007857D01*
X200264761Y-131912619D01*
X200217142Y-131865000D01*
X200312380Y-131388809D02*
X199645714Y-131388809D01*
X199740952Y-131388809D02*
X199693333Y-131341190D01*
X199645714Y-131245952D01*
X199645714Y-131103095D01*
X199693333Y-131007857D01*
X199788571Y-130960238D01*
X200312380Y-130960238D01*
X199788571Y-130960238D02*
X199693333Y-130912619D01*
X199645714Y-130817380D01*
X199645714Y-130674523D01*
X199693333Y-130579285D01*
X199788571Y-130531666D01*
X200312380Y-130531666D01*
M02*
