G04 #@! TF.GenerationSoftware,KiCad,Pcbnew,(5.1.4)-1*
G04 #@! TF.CreationDate,2019-09-08T21:38:06+01:00*
G04 #@! TF.ProjectId,powerBoard,706f7765-7242-46f6-9172-642e6b696361,rev?*
G04 #@! TF.SameCoordinates,Original*
G04 #@! TF.FileFunction,Copper,L2,Bot*
G04 #@! TF.FilePolarity,Positive*
%FSLAX46Y46*%
G04 Gerber Fmt 4.6, Leading zero omitted, Abs format (unit mm)*
G04 Created by KiCad (PCBNEW (5.1.4)-1) date 2019-09-08 21:38:06*
%MOMM*%
%LPD*%
G04 APERTURE LIST*
%ADD10R,1.600000X1.600000*%
%ADD11O,1.600000X1.600000*%
%ADD12C,1.524000*%
%ADD13C,4.000500*%
%ADD14C,2.000000*%
%ADD15C,0.800000*%
%ADD16C,0.500000*%
%ADD17C,0.254000*%
G04 APERTURE END LIST*
D10*
X156680000Y-82700000D03*
D11*
X164300000Y-82700000D03*
D12*
X157950000Y-63650000D03*
X157950000Y-68730000D03*
X157950000Y-73810000D03*
X163030000Y-73810000D03*
X163030000Y-68730000D03*
X163030000Y-63650000D03*
D13*
X122390000Y-115085000D03*
X90640000Y-134770000D03*
X85560000Y-92860000D03*
X85560000Y-74445000D03*
X122390000Y-107465000D03*
X90640000Y-107465000D03*
X122390000Y-66190000D03*
X105880000Y-54125000D03*
X91275000Y-66825000D03*
X91275000Y-85240000D03*
X96990000Y-92860000D03*
X105880000Y-61745000D03*
X122390000Y-85240000D03*
X122390000Y-92860000D03*
X90640000Y-127150000D03*
X96990000Y-74445000D03*
X122390000Y-73810000D03*
X90640000Y-115085000D03*
D14*
X206210000Y-73175000D03*
X206210000Y-70675000D03*
X206210000Y-68175000D03*
X206210000Y-65675000D03*
X206210000Y-63175000D03*
X206210000Y-58175000D03*
X206210000Y-55675000D03*
X206210000Y-60675000D03*
X206210000Y-80795000D03*
X206210000Y-78295000D03*
X206210000Y-88415000D03*
X206210000Y-85915000D03*
X206210000Y-93535000D03*
X206210000Y-96035000D03*
X206210000Y-103655000D03*
X206210000Y-101155000D03*
X206210000Y-108775000D03*
X206210000Y-111275000D03*
X206210000Y-118895000D03*
X206210000Y-116395000D03*
X206210000Y-124015000D03*
X206210000Y-126515000D03*
X206210000Y-131635000D03*
X206210000Y-134135000D03*
D15*
X157950000Y-73810000D03*
X161760000Y-76985000D03*
X201765000Y-66825000D03*
D16*
X158585000Y-73810000D02*
X157950000Y-73810000D01*
X161760000Y-76985000D02*
X158585000Y-73810000D01*
X201765000Y-66825000D02*
X193510000Y-58570000D01*
X134108780Y-58570000D02*
X193510000Y-58570000D01*
X99818780Y-92860000D02*
X134108780Y-58570000D01*
X96990000Y-92860000D02*
X99818780Y-92860000D01*
X206130000Y-68175000D02*
X206210000Y-68175000D01*
X175730000Y-98575000D02*
X206130000Y-68175000D01*
X91275000Y-98575000D02*
X175730000Y-98575000D01*
X85560000Y-92860000D02*
X91275000Y-98575000D01*
X179025000Y-92860000D02*
X206210000Y-65675000D01*
X122390000Y-92860000D02*
X179025000Y-92860000D01*
D17*
G36*
X207988000Y-54125000D02*
G01*
X207990440Y-54149776D01*
X207997667Y-54173601D01*
X208009403Y-54195557D01*
X208025197Y-54214803D01*
X208044443Y-54230597D01*
X208066399Y-54242333D01*
X208090224Y-54249560D01*
X208115000Y-54252000D01*
X213068000Y-54252000D01*
X213068000Y-135913000D01*
X208115000Y-135913000D01*
X208090224Y-135915440D01*
X208066399Y-135922667D01*
X208044443Y-135934403D01*
X208025197Y-135950197D01*
X208009403Y-135969443D01*
X207997667Y-135991399D01*
X207990440Y-136015224D01*
X207988000Y-136040000D01*
X207988000Y-141628000D01*
X62192000Y-141628000D01*
X62192000Y-134770000D01*
X62189560Y-134745224D01*
X62182333Y-134721399D01*
X62170597Y-134699443D01*
X62154803Y-134680197D01*
X62135557Y-134664403D01*
X62113601Y-134652667D01*
X62089776Y-134645440D01*
X62065000Y-134643000D01*
X56477000Y-134643000D01*
X56477000Y-134510451D01*
X88004750Y-134510451D01*
X88004750Y-135029549D01*
X88106021Y-135538674D01*
X88304672Y-136018259D01*
X88593068Y-136449874D01*
X88960126Y-136816932D01*
X89391741Y-137105328D01*
X89871326Y-137303979D01*
X90380451Y-137405250D01*
X90899549Y-137405250D01*
X91408674Y-137303979D01*
X91888259Y-137105328D01*
X92319874Y-136816932D01*
X92686932Y-136449874D01*
X92975328Y-136018259D01*
X93173979Y-135538674D01*
X93227339Y-135270413D01*
X205254192Y-135270413D01*
X205349956Y-135534814D01*
X205639571Y-135675704D01*
X205951108Y-135757384D01*
X206272595Y-135776718D01*
X206591675Y-135732961D01*
X206896088Y-135627795D01*
X207070044Y-135534814D01*
X207165808Y-135270413D01*
X206210000Y-134314605D01*
X205254192Y-135270413D01*
X93227339Y-135270413D01*
X93275250Y-135029549D01*
X93275250Y-134510451D01*
X93213020Y-134197595D01*
X204568282Y-134197595D01*
X204612039Y-134516675D01*
X204717205Y-134821088D01*
X204810186Y-134995044D01*
X205074587Y-135090808D01*
X206030395Y-134135000D01*
X206389605Y-134135000D01*
X207345413Y-135090808D01*
X207609814Y-134995044D01*
X207750704Y-134705429D01*
X207832384Y-134393892D01*
X207851718Y-134072405D01*
X207807961Y-133753325D01*
X207702795Y-133448912D01*
X207609814Y-133274956D01*
X207345413Y-133179192D01*
X206389605Y-134135000D01*
X206030395Y-134135000D01*
X205074587Y-133179192D01*
X204810186Y-133274956D01*
X204669296Y-133564571D01*
X204587616Y-133876108D01*
X204568282Y-134197595D01*
X93213020Y-134197595D01*
X93173979Y-134001326D01*
X92975328Y-133521741D01*
X92686932Y-133090126D01*
X92319874Y-132723068D01*
X91888259Y-132434672D01*
X91408674Y-132236021D01*
X90899549Y-132134750D01*
X90380451Y-132134750D01*
X89871326Y-132236021D01*
X89391741Y-132434672D01*
X88960126Y-132723068D01*
X88593068Y-133090126D01*
X88304672Y-133521741D01*
X88106021Y-134001326D01*
X88004750Y-134510451D01*
X56477000Y-134510451D01*
X56477000Y-131473967D01*
X204575000Y-131473967D01*
X204575000Y-131796033D01*
X204637832Y-132111912D01*
X204761082Y-132409463D01*
X204940013Y-132677252D01*
X205167748Y-132904987D01*
X205264935Y-132969925D01*
X205254192Y-132999587D01*
X206210000Y-133955395D01*
X207165808Y-132999587D01*
X207155065Y-132969925D01*
X207252252Y-132904987D01*
X207479987Y-132677252D01*
X207658918Y-132409463D01*
X207782168Y-132111912D01*
X207845000Y-131796033D01*
X207845000Y-131473967D01*
X207782168Y-131158088D01*
X207658918Y-130860537D01*
X207479987Y-130592748D01*
X207252252Y-130365013D01*
X206984463Y-130186082D01*
X206686912Y-130062832D01*
X206371033Y-130000000D01*
X206048967Y-130000000D01*
X205733088Y-130062832D01*
X205435537Y-130186082D01*
X205167748Y-130365013D01*
X204940013Y-130592748D01*
X204761082Y-130860537D01*
X204637832Y-131158088D01*
X204575000Y-131473967D01*
X56477000Y-131473967D01*
X56477000Y-126890451D01*
X88004750Y-126890451D01*
X88004750Y-127409549D01*
X88106021Y-127918674D01*
X88304672Y-128398259D01*
X88593068Y-128829874D01*
X88960126Y-129196932D01*
X89391741Y-129485328D01*
X89871326Y-129683979D01*
X90380451Y-129785250D01*
X90899549Y-129785250D01*
X91408674Y-129683979D01*
X91888259Y-129485328D01*
X92319874Y-129196932D01*
X92686932Y-128829874D01*
X92975328Y-128398259D01*
X93173979Y-127918674D01*
X93227339Y-127650413D01*
X205254192Y-127650413D01*
X205349956Y-127914814D01*
X205639571Y-128055704D01*
X205951108Y-128137384D01*
X206272595Y-128156718D01*
X206591675Y-128112961D01*
X206896088Y-128007795D01*
X207070044Y-127914814D01*
X207165808Y-127650413D01*
X206210000Y-126694605D01*
X205254192Y-127650413D01*
X93227339Y-127650413D01*
X93275250Y-127409549D01*
X93275250Y-126890451D01*
X93213020Y-126577595D01*
X204568282Y-126577595D01*
X204612039Y-126896675D01*
X204717205Y-127201088D01*
X204810186Y-127375044D01*
X205074587Y-127470808D01*
X206030395Y-126515000D01*
X206389605Y-126515000D01*
X207345413Y-127470808D01*
X207609814Y-127375044D01*
X207750704Y-127085429D01*
X207832384Y-126773892D01*
X207851718Y-126452405D01*
X207807961Y-126133325D01*
X207702795Y-125828912D01*
X207609814Y-125654956D01*
X207345413Y-125559192D01*
X206389605Y-126515000D01*
X206030395Y-126515000D01*
X205074587Y-125559192D01*
X204810186Y-125654956D01*
X204669296Y-125944571D01*
X204587616Y-126256108D01*
X204568282Y-126577595D01*
X93213020Y-126577595D01*
X93173979Y-126381326D01*
X92975328Y-125901741D01*
X92686932Y-125470126D01*
X92319874Y-125103068D01*
X91888259Y-124814672D01*
X91408674Y-124616021D01*
X90899549Y-124514750D01*
X90380451Y-124514750D01*
X89871326Y-124616021D01*
X89391741Y-124814672D01*
X88960126Y-125103068D01*
X88593068Y-125470126D01*
X88304672Y-125901741D01*
X88106021Y-126381326D01*
X88004750Y-126890451D01*
X56477000Y-126890451D01*
X56477000Y-123853967D01*
X204575000Y-123853967D01*
X204575000Y-124176033D01*
X204637832Y-124491912D01*
X204761082Y-124789463D01*
X204940013Y-125057252D01*
X205167748Y-125284987D01*
X205264935Y-125349925D01*
X205254192Y-125379587D01*
X206210000Y-126335395D01*
X207165808Y-125379587D01*
X207155065Y-125349925D01*
X207252252Y-125284987D01*
X207479987Y-125057252D01*
X207658918Y-124789463D01*
X207782168Y-124491912D01*
X207845000Y-124176033D01*
X207845000Y-123853967D01*
X207782168Y-123538088D01*
X207658918Y-123240537D01*
X207479987Y-122972748D01*
X207252252Y-122745013D01*
X206984463Y-122566082D01*
X206686912Y-122442832D01*
X206371033Y-122380000D01*
X206048967Y-122380000D01*
X205733088Y-122442832D01*
X205435537Y-122566082D01*
X205167748Y-122745013D01*
X204940013Y-122972748D01*
X204761082Y-123240537D01*
X204637832Y-123538088D01*
X204575000Y-123853967D01*
X56477000Y-123853967D01*
X56477000Y-120030413D01*
X205254192Y-120030413D01*
X205349956Y-120294814D01*
X205639571Y-120435704D01*
X205951108Y-120517384D01*
X206272595Y-120536718D01*
X206591675Y-120492961D01*
X206896088Y-120387795D01*
X207070044Y-120294814D01*
X207165808Y-120030413D01*
X206210000Y-119074605D01*
X205254192Y-120030413D01*
X56477000Y-120030413D01*
X56477000Y-118957595D01*
X204568282Y-118957595D01*
X204612039Y-119276675D01*
X204717205Y-119581088D01*
X204810186Y-119755044D01*
X205074587Y-119850808D01*
X206030395Y-118895000D01*
X206389605Y-118895000D01*
X207345413Y-119850808D01*
X207609814Y-119755044D01*
X207750704Y-119465429D01*
X207832384Y-119153892D01*
X207851718Y-118832405D01*
X207807961Y-118513325D01*
X207702795Y-118208912D01*
X207609814Y-118034956D01*
X207345413Y-117939192D01*
X206389605Y-118895000D01*
X206030395Y-118895000D01*
X205074587Y-117939192D01*
X204810186Y-118034956D01*
X204669296Y-118324571D01*
X204587616Y-118636108D01*
X204568282Y-118957595D01*
X56477000Y-118957595D01*
X56477000Y-114825451D01*
X88004750Y-114825451D01*
X88004750Y-115344549D01*
X88106021Y-115853674D01*
X88304672Y-116333259D01*
X88593068Y-116764874D01*
X88960126Y-117131932D01*
X89391741Y-117420328D01*
X89871326Y-117618979D01*
X90380451Y-117720250D01*
X90899549Y-117720250D01*
X91408674Y-117618979D01*
X91888259Y-117420328D01*
X92319874Y-117131932D01*
X92686932Y-116764874D01*
X92975328Y-116333259D01*
X93173979Y-115853674D01*
X93275250Y-115344549D01*
X93275250Y-114825451D01*
X119754750Y-114825451D01*
X119754750Y-115344549D01*
X119856021Y-115853674D01*
X120054672Y-116333259D01*
X120343068Y-116764874D01*
X120710126Y-117131932D01*
X121141741Y-117420328D01*
X121621326Y-117618979D01*
X122130451Y-117720250D01*
X122649549Y-117720250D01*
X123158674Y-117618979D01*
X123638259Y-117420328D01*
X124069874Y-117131932D01*
X124436932Y-116764874D01*
X124725328Y-116333259D01*
X124766456Y-116233967D01*
X204575000Y-116233967D01*
X204575000Y-116556033D01*
X204637832Y-116871912D01*
X204761082Y-117169463D01*
X204940013Y-117437252D01*
X205167748Y-117664987D01*
X205264935Y-117729925D01*
X205254192Y-117759587D01*
X206210000Y-118715395D01*
X207165808Y-117759587D01*
X207155065Y-117729925D01*
X207252252Y-117664987D01*
X207479987Y-117437252D01*
X207658918Y-117169463D01*
X207782168Y-116871912D01*
X207845000Y-116556033D01*
X207845000Y-116233967D01*
X207782168Y-115918088D01*
X207658918Y-115620537D01*
X207479987Y-115352748D01*
X207252252Y-115125013D01*
X206984463Y-114946082D01*
X206686912Y-114822832D01*
X206371033Y-114760000D01*
X206048967Y-114760000D01*
X205733088Y-114822832D01*
X205435537Y-114946082D01*
X205167748Y-115125013D01*
X204940013Y-115352748D01*
X204761082Y-115620537D01*
X204637832Y-115918088D01*
X204575000Y-116233967D01*
X124766456Y-116233967D01*
X124923979Y-115853674D01*
X125025250Y-115344549D01*
X125025250Y-114825451D01*
X124923979Y-114316326D01*
X124725328Y-113836741D01*
X124436932Y-113405126D01*
X124069874Y-113038068D01*
X123638259Y-112749672D01*
X123158674Y-112551021D01*
X122649549Y-112449750D01*
X122130451Y-112449750D01*
X121621326Y-112551021D01*
X121141741Y-112749672D01*
X120710126Y-113038068D01*
X120343068Y-113405126D01*
X120054672Y-113836741D01*
X119856021Y-114316326D01*
X119754750Y-114825451D01*
X93275250Y-114825451D01*
X93173979Y-114316326D01*
X92975328Y-113836741D01*
X92686932Y-113405126D01*
X92319874Y-113038068D01*
X91888259Y-112749672D01*
X91408674Y-112551021D01*
X90899549Y-112449750D01*
X90380451Y-112449750D01*
X89871326Y-112551021D01*
X89391741Y-112749672D01*
X88960126Y-113038068D01*
X88593068Y-113405126D01*
X88304672Y-113836741D01*
X88106021Y-114316326D01*
X88004750Y-114825451D01*
X56477000Y-114825451D01*
X56477000Y-112410413D01*
X205254192Y-112410413D01*
X205349956Y-112674814D01*
X205639571Y-112815704D01*
X205951108Y-112897384D01*
X206272595Y-112916718D01*
X206591675Y-112872961D01*
X206896088Y-112767795D01*
X207070044Y-112674814D01*
X207165808Y-112410413D01*
X206210000Y-111454605D01*
X205254192Y-112410413D01*
X56477000Y-112410413D01*
X56477000Y-111337595D01*
X204568282Y-111337595D01*
X204612039Y-111656675D01*
X204717205Y-111961088D01*
X204810186Y-112135044D01*
X205074587Y-112230808D01*
X206030395Y-111275000D01*
X206389605Y-111275000D01*
X207345413Y-112230808D01*
X207609814Y-112135044D01*
X207750704Y-111845429D01*
X207832384Y-111533892D01*
X207851718Y-111212405D01*
X207807961Y-110893325D01*
X207702795Y-110588912D01*
X207609814Y-110414956D01*
X207345413Y-110319192D01*
X206389605Y-111275000D01*
X206030395Y-111275000D01*
X205074587Y-110319192D01*
X204810186Y-110414956D01*
X204669296Y-110704571D01*
X204587616Y-111016108D01*
X204568282Y-111337595D01*
X56477000Y-111337595D01*
X56477000Y-107205451D01*
X88004750Y-107205451D01*
X88004750Y-107724549D01*
X88106021Y-108233674D01*
X88304672Y-108713259D01*
X88593068Y-109144874D01*
X88960126Y-109511932D01*
X89391741Y-109800328D01*
X89871326Y-109998979D01*
X90380451Y-110100250D01*
X90899549Y-110100250D01*
X91408674Y-109998979D01*
X91888259Y-109800328D01*
X92319874Y-109511932D01*
X92686932Y-109144874D01*
X92975328Y-108713259D01*
X93173979Y-108233674D01*
X93275250Y-107724549D01*
X93275250Y-107205451D01*
X119754750Y-107205451D01*
X119754750Y-107724549D01*
X119856021Y-108233674D01*
X120054672Y-108713259D01*
X120343068Y-109144874D01*
X120710126Y-109511932D01*
X121141741Y-109800328D01*
X121621326Y-109998979D01*
X122130451Y-110100250D01*
X122649549Y-110100250D01*
X123158674Y-109998979D01*
X123638259Y-109800328D01*
X124069874Y-109511932D01*
X124436932Y-109144874D01*
X124725328Y-108713259D01*
X124766456Y-108613967D01*
X204575000Y-108613967D01*
X204575000Y-108936033D01*
X204637832Y-109251912D01*
X204761082Y-109549463D01*
X204940013Y-109817252D01*
X205167748Y-110044987D01*
X205264935Y-110109925D01*
X205254192Y-110139587D01*
X206210000Y-111095395D01*
X207165808Y-110139587D01*
X207155065Y-110109925D01*
X207252252Y-110044987D01*
X207479987Y-109817252D01*
X207658918Y-109549463D01*
X207782168Y-109251912D01*
X207845000Y-108936033D01*
X207845000Y-108613967D01*
X207782168Y-108298088D01*
X207658918Y-108000537D01*
X207479987Y-107732748D01*
X207252252Y-107505013D01*
X206984463Y-107326082D01*
X206686912Y-107202832D01*
X206371033Y-107140000D01*
X206048967Y-107140000D01*
X205733088Y-107202832D01*
X205435537Y-107326082D01*
X205167748Y-107505013D01*
X204940013Y-107732748D01*
X204761082Y-108000537D01*
X204637832Y-108298088D01*
X204575000Y-108613967D01*
X124766456Y-108613967D01*
X124923979Y-108233674D01*
X125025250Y-107724549D01*
X125025250Y-107205451D01*
X124923979Y-106696326D01*
X124725328Y-106216741D01*
X124436932Y-105785126D01*
X124069874Y-105418068D01*
X123638259Y-105129672D01*
X123158674Y-104931021D01*
X122649549Y-104829750D01*
X122130451Y-104829750D01*
X121621326Y-104931021D01*
X121141741Y-105129672D01*
X120710126Y-105418068D01*
X120343068Y-105785126D01*
X120054672Y-106216741D01*
X119856021Y-106696326D01*
X119754750Y-107205451D01*
X93275250Y-107205451D01*
X93173979Y-106696326D01*
X92975328Y-106216741D01*
X92686932Y-105785126D01*
X92319874Y-105418068D01*
X91888259Y-105129672D01*
X91408674Y-104931021D01*
X90899549Y-104829750D01*
X90380451Y-104829750D01*
X89871326Y-104931021D01*
X89391741Y-105129672D01*
X88960126Y-105418068D01*
X88593068Y-105785126D01*
X88304672Y-106216741D01*
X88106021Y-106696326D01*
X88004750Y-107205451D01*
X56477000Y-107205451D01*
X56477000Y-104790413D01*
X205254192Y-104790413D01*
X205349956Y-105054814D01*
X205639571Y-105195704D01*
X205951108Y-105277384D01*
X206272595Y-105296718D01*
X206591675Y-105252961D01*
X206896088Y-105147795D01*
X207070044Y-105054814D01*
X207165808Y-104790413D01*
X206210000Y-103834605D01*
X205254192Y-104790413D01*
X56477000Y-104790413D01*
X56477000Y-103717595D01*
X204568282Y-103717595D01*
X204612039Y-104036675D01*
X204717205Y-104341088D01*
X204810186Y-104515044D01*
X205074587Y-104610808D01*
X206030395Y-103655000D01*
X206389605Y-103655000D01*
X207345413Y-104610808D01*
X207609814Y-104515044D01*
X207750704Y-104225429D01*
X207832384Y-103913892D01*
X207851718Y-103592405D01*
X207807961Y-103273325D01*
X207702795Y-102968912D01*
X207609814Y-102794956D01*
X207345413Y-102699192D01*
X206389605Y-103655000D01*
X206030395Y-103655000D01*
X205074587Y-102699192D01*
X204810186Y-102794956D01*
X204669296Y-103084571D01*
X204587616Y-103396108D01*
X204568282Y-103717595D01*
X56477000Y-103717595D01*
X56477000Y-100993967D01*
X204575000Y-100993967D01*
X204575000Y-101316033D01*
X204637832Y-101631912D01*
X204761082Y-101929463D01*
X204940013Y-102197252D01*
X205167748Y-102424987D01*
X205264935Y-102489925D01*
X205254192Y-102519587D01*
X206210000Y-103475395D01*
X207165808Y-102519587D01*
X207155065Y-102489925D01*
X207252252Y-102424987D01*
X207479987Y-102197252D01*
X207658918Y-101929463D01*
X207782168Y-101631912D01*
X207845000Y-101316033D01*
X207845000Y-100993967D01*
X207782168Y-100678088D01*
X207658918Y-100380537D01*
X207479987Y-100112748D01*
X207252252Y-99885013D01*
X206984463Y-99706082D01*
X206686912Y-99582832D01*
X206371033Y-99520000D01*
X206048967Y-99520000D01*
X205733088Y-99582832D01*
X205435537Y-99706082D01*
X205167748Y-99885013D01*
X204940013Y-100112748D01*
X204761082Y-100380537D01*
X204637832Y-100678088D01*
X204575000Y-100993967D01*
X56477000Y-100993967D01*
X56477000Y-92600451D01*
X82924750Y-92600451D01*
X82924750Y-93119549D01*
X83026021Y-93628674D01*
X83224672Y-94108259D01*
X83513068Y-94539874D01*
X83880126Y-94906932D01*
X84311741Y-95195328D01*
X84791326Y-95393979D01*
X85300451Y-95495250D01*
X85819549Y-95495250D01*
X86328674Y-95393979D01*
X86691933Y-95243512D01*
X90618470Y-99170049D01*
X90646183Y-99203817D01*
X90679951Y-99231530D01*
X90679953Y-99231532D01*
X90780941Y-99314411D01*
X90934686Y-99396589D01*
X91101510Y-99447195D01*
X91231523Y-99460000D01*
X91231531Y-99460000D01*
X91275000Y-99464281D01*
X91318469Y-99460000D01*
X175686531Y-99460000D01*
X175730000Y-99464281D01*
X175773469Y-99460000D01*
X175773477Y-99460000D01*
X175903490Y-99447195D01*
X176070313Y-99396589D01*
X176224059Y-99314411D01*
X176358817Y-99203817D01*
X176386534Y-99170044D01*
X178386165Y-97170413D01*
X205254192Y-97170413D01*
X205349956Y-97434814D01*
X205639571Y-97575704D01*
X205951108Y-97657384D01*
X206272595Y-97676718D01*
X206591675Y-97632961D01*
X206896088Y-97527795D01*
X207070044Y-97434814D01*
X207165808Y-97170413D01*
X206210000Y-96214605D01*
X205254192Y-97170413D01*
X178386165Y-97170413D01*
X179458983Y-96097595D01*
X204568282Y-96097595D01*
X204612039Y-96416675D01*
X204717205Y-96721088D01*
X204810186Y-96895044D01*
X205074587Y-96990808D01*
X206030395Y-96035000D01*
X206389605Y-96035000D01*
X207345413Y-96990808D01*
X207609814Y-96895044D01*
X207750704Y-96605429D01*
X207832384Y-96293892D01*
X207851718Y-95972405D01*
X207807961Y-95653325D01*
X207702795Y-95348912D01*
X207609814Y-95174956D01*
X207345413Y-95079192D01*
X206389605Y-96035000D01*
X206030395Y-96035000D01*
X205074587Y-95079192D01*
X204810186Y-95174956D01*
X204669296Y-95464571D01*
X204587616Y-95776108D01*
X204568282Y-96097595D01*
X179458983Y-96097595D01*
X182182611Y-93373967D01*
X204575000Y-93373967D01*
X204575000Y-93696033D01*
X204637832Y-94011912D01*
X204761082Y-94309463D01*
X204940013Y-94577252D01*
X205167748Y-94804987D01*
X205264935Y-94869925D01*
X205254192Y-94899587D01*
X206210000Y-95855395D01*
X207165808Y-94899587D01*
X207155065Y-94869925D01*
X207252252Y-94804987D01*
X207479987Y-94577252D01*
X207658918Y-94309463D01*
X207782168Y-94011912D01*
X207845000Y-93696033D01*
X207845000Y-93373967D01*
X207782168Y-93058088D01*
X207658918Y-92760537D01*
X207479987Y-92492748D01*
X207252252Y-92265013D01*
X206984463Y-92086082D01*
X206686912Y-91962832D01*
X206371033Y-91900000D01*
X206048967Y-91900000D01*
X205733088Y-91962832D01*
X205435537Y-92086082D01*
X205167748Y-92265013D01*
X204940013Y-92492748D01*
X204761082Y-92760537D01*
X204637832Y-93058088D01*
X204575000Y-93373967D01*
X182182611Y-93373967D01*
X186006165Y-89550413D01*
X205254192Y-89550413D01*
X205349956Y-89814814D01*
X205639571Y-89955704D01*
X205951108Y-90037384D01*
X206272595Y-90056718D01*
X206591675Y-90012961D01*
X206896088Y-89907795D01*
X207070044Y-89814814D01*
X207165808Y-89550413D01*
X206210000Y-88594605D01*
X205254192Y-89550413D01*
X186006165Y-89550413D01*
X187078983Y-88477595D01*
X204568282Y-88477595D01*
X204612039Y-88796675D01*
X204717205Y-89101088D01*
X204810186Y-89275044D01*
X205074587Y-89370808D01*
X206030395Y-88415000D01*
X206389605Y-88415000D01*
X207345413Y-89370808D01*
X207609814Y-89275044D01*
X207750704Y-88985429D01*
X207832384Y-88673892D01*
X207851718Y-88352405D01*
X207807961Y-88033325D01*
X207702795Y-87728912D01*
X207609814Y-87554956D01*
X207345413Y-87459192D01*
X206389605Y-88415000D01*
X206030395Y-88415000D01*
X205074587Y-87459192D01*
X204810186Y-87554956D01*
X204669296Y-87844571D01*
X204587616Y-88156108D01*
X204568282Y-88477595D01*
X187078983Y-88477595D01*
X189802611Y-85753967D01*
X204575000Y-85753967D01*
X204575000Y-86076033D01*
X204637832Y-86391912D01*
X204761082Y-86689463D01*
X204940013Y-86957252D01*
X205167748Y-87184987D01*
X205264935Y-87249925D01*
X205254192Y-87279587D01*
X206210000Y-88235395D01*
X207165808Y-87279587D01*
X207155065Y-87249925D01*
X207252252Y-87184987D01*
X207479987Y-86957252D01*
X207658918Y-86689463D01*
X207782168Y-86391912D01*
X207845000Y-86076033D01*
X207845000Y-85753967D01*
X207782168Y-85438088D01*
X207658918Y-85140537D01*
X207479987Y-84872748D01*
X207252252Y-84645013D01*
X206984463Y-84466082D01*
X206686912Y-84342832D01*
X206371033Y-84280000D01*
X206048967Y-84280000D01*
X205733088Y-84342832D01*
X205435537Y-84466082D01*
X205167748Y-84645013D01*
X204940013Y-84872748D01*
X204761082Y-85140537D01*
X204637832Y-85438088D01*
X204575000Y-85753967D01*
X189802611Y-85753967D01*
X197422611Y-78133967D01*
X204575000Y-78133967D01*
X204575000Y-78456033D01*
X204637832Y-78771912D01*
X204761082Y-79069463D01*
X204940013Y-79337252D01*
X205147761Y-79545000D01*
X204940013Y-79752748D01*
X204761082Y-80020537D01*
X204637832Y-80318088D01*
X204575000Y-80633967D01*
X204575000Y-80956033D01*
X204637832Y-81271912D01*
X204761082Y-81569463D01*
X204940013Y-81837252D01*
X205167748Y-82064987D01*
X205435537Y-82243918D01*
X205733088Y-82367168D01*
X206048967Y-82430000D01*
X206371033Y-82430000D01*
X206686912Y-82367168D01*
X206984463Y-82243918D01*
X207252252Y-82064987D01*
X207479987Y-81837252D01*
X207658918Y-81569463D01*
X207782168Y-81271912D01*
X207845000Y-80956033D01*
X207845000Y-80633967D01*
X207782168Y-80318088D01*
X207658918Y-80020537D01*
X207479987Y-79752748D01*
X207272239Y-79545000D01*
X207479987Y-79337252D01*
X207658918Y-79069463D01*
X207782168Y-78771912D01*
X207845000Y-78456033D01*
X207845000Y-78133967D01*
X207782168Y-77818088D01*
X207658918Y-77520537D01*
X207479987Y-77252748D01*
X207252252Y-77025013D01*
X206984463Y-76846082D01*
X206686912Y-76722832D01*
X206371033Y-76660000D01*
X206048967Y-76660000D01*
X205733088Y-76722832D01*
X205435537Y-76846082D01*
X205167748Y-77025013D01*
X204940013Y-77252748D01*
X204761082Y-77520537D01*
X204637832Y-77818088D01*
X204575000Y-78133967D01*
X197422611Y-78133967D01*
X204599148Y-70957431D01*
X204637832Y-71151912D01*
X204761082Y-71449463D01*
X204940013Y-71717252D01*
X205147761Y-71925000D01*
X204940013Y-72132748D01*
X204761082Y-72400537D01*
X204637832Y-72698088D01*
X204575000Y-73013967D01*
X204575000Y-73336033D01*
X204637832Y-73651912D01*
X204761082Y-73949463D01*
X204940013Y-74217252D01*
X205167748Y-74444987D01*
X205435537Y-74623918D01*
X205733088Y-74747168D01*
X206048967Y-74810000D01*
X206371033Y-74810000D01*
X206686912Y-74747168D01*
X206984463Y-74623918D01*
X207252252Y-74444987D01*
X207479987Y-74217252D01*
X207658918Y-73949463D01*
X207782168Y-73651912D01*
X207845000Y-73336033D01*
X207845000Y-73013967D01*
X207782168Y-72698088D01*
X207658918Y-72400537D01*
X207479987Y-72132748D01*
X207272239Y-71925000D01*
X207479987Y-71717252D01*
X207658918Y-71449463D01*
X207782168Y-71151912D01*
X207845000Y-70836033D01*
X207845000Y-70513967D01*
X207782168Y-70198088D01*
X207658918Y-69900537D01*
X207479987Y-69632748D01*
X207272239Y-69425000D01*
X207479987Y-69217252D01*
X207658918Y-68949463D01*
X207782168Y-68651912D01*
X207845000Y-68336033D01*
X207845000Y-68013967D01*
X207782168Y-67698088D01*
X207658918Y-67400537D01*
X207479987Y-67132748D01*
X207272239Y-66925000D01*
X207479987Y-66717252D01*
X207658918Y-66449463D01*
X207782168Y-66151912D01*
X207845000Y-65836033D01*
X207845000Y-65513967D01*
X207782168Y-65198088D01*
X207658918Y-64900537D01*
X207479987Y-64632748D01*
X207272239Y-64425000D01*
X207479987Y-64217252D01*
X207658918Y-63949463D01*
X207782168Y-63651912D01*
X207845000Y-63336033D01*
X207845000Y-63013967D01*
X207782168Y-62698088D01*
X207658918Y-62400537D01*
X207479987Y-62132748D01*
X207272239Y-61925000D01*
X207479987Y-61717252D01*
X207658918Y-61449463D01*
X207782168Y-61151912D01*
X207845000Y-60836033D01*
X207845000Y-60513967D01*
X207782168Y-60198088D01*
X207658918Y-59900537D01*
X207479987Y-59632748D01*
X207252252Y-59405013D01*
X207155065Y-59340075D01*
X207165808Y-59310413D01*
X206210000Y-58354605D01*
X205254192Y-59310413D01*
X205264935Y-59340075D01*
X205167748Y-59405013D01*
X204940013Y-59632748D01*
X204761082Y-59900537D01*
X204637832Y-60198088D01*
X204575000Y-60513967D01*
X204575000Y-60836033D01*
X204637832Y-61151912D01*
X204761082Y-61449463D01*
X204940013Y-61717252D01*
X205147761Y-61925000D01*
X204940013Y-62132748D01*
X204761082Y-62400537D01*
X204637832Y-62698088D01*
X204575000Y-63013967D01*
X204575000Y-63336033D01*
X204637832Y-63651912D01*
X204761082Y-63949463D01*
X204940013Y-64217252D01*
X205147761Y-64425000D01*
X204940013Y-64632748D01*
X204761082Y-64900537D01*
X204637832Y-65198088D01*
X204575000Y-65513967D01*
X204575000Y-65836033D01*
X204611896Y-66021525D01*
X178658422Y-91975000D01*
X124875795Y-91975000D01*
X124725328Y-91611741D01*
X124436932Y-91180126D01*
X124069874Y-90813068D01*
X123638259Y-90524672D01*
X123158674Y-90326021D01*
X122649549Y-90224750D01*
X122130451Y-90224750D01*
X121621326Y-90326021D01*
X121141741Y-90524672D01*
X120710126Y-90813068D01*
X120343068Y-91180126D01*
X120054672Y-91611741D01*
X119856021Y-92091326D01*
X119754750Y-92600451D01*
X119754750Y-93119549D01*
X119856021Y-93628674D01*
X120054672Y-94108259D01*
X120343068Y-94539874D01*
X120710126Y-94906932D01*
X121141741Y-95195328D01*
X121621326Y-95393979D01*
X122130451Y-95495250D01*
X122649549Y-95495250D01*
X123158674Y-95393979D01*
X123638259Y-95195328D01*
X124069874Y-94906932D01*
X124436932Y-94539874D01*
X124725328Y-94108259D01*
X124875795Y-93745000D01*
X178981531Y-93745000D01*
X179025000Y-93749281D01*
X179068469Y-93745000D01*
X179068477Y-93745000D01*
X179198490Y-93732195D01*
X179365313Y-93681589D01*
X179379319Y-93674103D01*
X175363422Y-97690000D01*
X91641579Y-97690000D01*
X87943512Y-93991933D01*
X88093979Y-93628674D01*
X88195250Y-93119549D01*
X88195250Y-92600451D01*
X94354750Y-92600451D01*
X94354750Y-93119549D01*
X94456021Y-93628674D01*
X94654672Y-94108259D01*
X94943068Y-94539874D01*
X95310126Y-94906932D01*
X95741741Y-95195328D01*
X96221326Y-95393979D01*
X96730451Y-95495250D01*
X97249549Y-95495250D01*
X97758674Y-95393979D01*
X98238259Y-95195328D01*
X98669874Y-94906932D01*
X99036932Y-94539874D01*
X99325328Y-94108259D01*
X99475795Y-93745000D01*
X99775311Y-93745000D01*
X99818780Y-93749281D01*
X99862249Y-93745000D01*
X99862257Y-93745000D01*
X99992270Y-93732195D01*
X100159093Y-93681589D01*
X100312839Y-93599411D01*
X100447597Y-93488817D01*
X100475314Y-93455044D01*
X108949907Y-84980451D01*
X119754750Y-84980451D01*
X119754750Y-85499549D01*
X119856021Y-86008674D01*
X120054672Y-86488259D01*
X120343068Y-86919874D01*
X120710126Y-87286932D01*
X121141741Y-87575328D01*
X121621326Y-87773979D01*
X122130451Y-87875250D01*
X122649549Y-87875250D01*
X123158674Y-87773979D01*
X123638259Y-87575328D01*
X124069874Y-87286932D01*
X124436932Y-86919874D01*
X124725328Y-86488259D01*
X124923979Y-86008674D01*
X125025250Y-85499549D01*
X125025250Y-84980451D01*
X124923979Y-84471326D01*
X124725328Y-83991741D01*
X124436932Y-83560126D01*
X124069874Y-83193068D01*
X123638259Y-82904672D01*
X123158674Y-82706021D01*
X122649549Y-82604750D01*
X122130451Y-82604750D01*
X121621326Y-82706021D01*
X121141741Y-82904672D01*
X120710126Y-83193068D01*
X120343068Y-83560126D01*
X120054672Y-83991741D01*
X119856021Y-84471326D01*
X119754750Y-84980451D01*
X108949907Y-84980451D01*
X112030358Y-81900000D01*
X155241928Y-81900000D01*
X155241928Y-83500000D01*
X155254188Y-83624482D01*
X155290498Y-83744180D01*
X155349463Y-83854494D01*
X155428815Y-83951185D01*
X155525506Y-84030537D01*
X155635820Y-84089502D01*
X155755518Y-84125812D01*
X155880000Y-84138072D01*
X157480000Y-84138072D01*
X157604482Y-84125812D01*
X157724180Y-84089502D01*
X157834494Y-84030537D01*
X157931185Y-83951185D01*
X158010537Y-83854494D01*
X158069502Y-83744180D01*
X158105812Y-83624482D01*
X158118072Y-83500000D01*
X158118072Y-83049039D01*
X162908096Y-83049039D01*
X162948754Y-83183087D01*
X163068963Y-83437420D01*
X163236481Y-83663414D01*
X163444869Y-83852385D01*
X163686119Y-83997070D01*
X163950960Y-84091909D01*
X164173000Y-83970624D01*
X164173000Y-82827000D01*
X164427000Y-82827000D01*
X164427000Y-83970624D01*
X164649040Y-84091909D01*
X164913881Y-83997070D01*
X165155131Y-83852385D01*
X165363519Y-83663414D01*
X165531037Y-83437420D01*
X165651246Y-83183087D01*
X165691904Y-83049039D01*
X165569915Y-82827000D01*
X164427000Y-82827000D01*
X164173000Y-82827000D01*
X163030085Y-82827000D01*
X162908096Y-83049039D01*
X158118072Y-83049039D01*
X158118072Y-82350961D01*
X162908096Y-82350961D01*
X163030085Y-82573000D01*
X164173000Y-82573000D01*
X164173000Y-81429376D01*
X164427000Y-81429376D01*
X164427000Y-82573000D01*
X165569915Y-82573000D01*
X165691904Y-82350961D01*
X165651246Y-82216913D01*
X165531037Y-81962580D01*
X165363519Y-81736586D01*
X165155131Y-81547615D01*
X164913881Y-81402930D01*
X164649040Y-81308091D01*
X164427000Y-81429376D01*
X164173000Y-81429376D01*
X163950960Y-81308091D01*
X163686119Y-81402930D01*
X163444869Y-81547615D01*
X163236481Y-81736586D01*
X163068963Y-81962580D01*
X162948754Y-82216913D01*
X162908096Y-82350961D01*
X158118072Y-82350961D01*
X158118072Y-81900000D01*
X158105812Y-81775518D01*
X158069502Y-81655820D01*
X158010537Y-81545506D01*
X157931185Y-81448815D01*
X157834494Y-81369463D01*
X157724180Y-81310498D01*
X157604482Y-81274188D01*
X157480000Y-81261928D01*
X155880000Y-81261928D01*
X155755518Y-81274188D01*
X155635820Y-81310498D01*
X155525506Y-81369463D01*
X155428815Y-81448815D01*
X155349463Y-81545506D01*
X155290498Y-81655820D01*
X155254188Y-81775518D01*
X155241928Y-81900000D01*
X112030358Y-81900000D01*
X119772346Y-74158012D01*
X119856021Y-74578674D01*
X120054672Y-75058259D01*
X120343068Y-75489874D01*
X120710126Y-75856932D01*
X121141741Y-76145328D01*
X121621326Y-76343979D01*
X122130451Y-76445250D01*
X122649549Y-76445250D01*
X123158674Y-76343979D01*
X123638259Y-76145328D01*
X124069874Y-75856932D01*
X124436932Y-75489874D01*
X124725328Y-75058259D01*
X124923979Y-74578674D01*
X125025250Y-74069549D01*
X125025250Y-73672408D01*
X156553000Y-73672408D01*
X156553000Y-73947592D01*
X156606686Y-74217490D01*
X156711995Y-74471727D01*
X156864880Y-74700535D01*
X157059465Y-74895120D01*
X157288273Y-75048005D01*
X157542510Y-75153314D01*
X157812408Y-75207000D01*
X158087592Y-75207000D01*
X158357490Y-75153314D01*
X158583231Y-75059809D01*
X160753465Y-77230044D01*
X160764774Y-77286898D01*
X160842795Y-77475256D01*
X160956063Y-77644774D01*
X161100226Y-77788937D01*
X161269744Y-77902205D01*
X161458102Y-77980226D01*
X161658061Y-78020000D01*
X161861939Y-78020000D01*
X162061898Y-77980226D01*
X162250256Y-77902205D01*
X162419774Y-77788937D01*
X162563937Y-77644774D01*
X162677205Y-77475256D01*
X162755226Y-77286898D01*
X162795000Y-77086939D01*
X162795000Y-76883061D01*
X162755226Y-76683102D01*
X162677205Y-76494744D01*
X162563937Y-76325226D01*
X162419774Y-76181063D01*
X162250256Y-76067795D01*
X162061898Y-75989774D01*
X162005044Y-75978465D01*
X159698987Y-73672408D01*
X161633000Y-73672408D01*
X161633000Y-73947592D01*
X161686686Y-74217490D01*
X161791995Y-74471727D01*
X161944880Y-74700535D01*
X162139465Y-74895120D01*
X162368273Y-75048005D01*
X162622510Y-75153314D01*
X162892408Y-75207000D01*
X163167592Y-75207000D01*
X163437490Y-75153314D01*
X163691727Y-75048005D01*
X163920535Y-74895120D01*
X164115120Y-74700535D01*
X164268005Y-74471727D01*
X164373314Y-74217490D01*
X164427000Y-73947592D01*
X164427000Y-73672408D01*
X164373314Y-73402510D01*
X164268005Y-73148273D01*
X164115120Y-72919465D01*
X163920535Y-72724880D01*
X163691727Y-72571995D01*
X163437490Y-72466686D01*
X163167592Y-72413000D01*
X162892408Y-72413000D01*
X162622510Y-72466686D01*
X162368273Y-72571995D01*
X162139465Y-72724880D01*
X161944880Y-72919465D01*
X161791995Y-73148273D01*
X161686686Y-73402510D01*
X161633000Y-73672408D01*
X159698987Y-73672408D01*
X159241534Y-73214956D01*
X159213817Y-73181183D01*
X159195364Y-73166039D01*
X159188005Y-73148273D01*
X159035120Y-72919465D01*
X158840535Y-72724880D01*
X158611727Y-72571995D01*
X158357490Y-72466686D01*
X158087592Y-72413000D01*
X157812408Y-72413000D01*
X157542510Y-72466686D01*
X157288273Y-72571995D01*
X157059465Y-72724880D01*
X156864880Y-72919465D01*
X156711995Y-73148273D01*
X156606686Y-73402510D01*
X156553000Y-73672408D01*
X125025250Y-73672408D01*
X125025250Y-73550451D01*
X124923979Y-73041326D01*
X124725328Y-72561741D01*
X124436932Y-72130126D01*
X124069874Y-71763068D01*
X123638259Y-71474672D01*
X123158674Y-71276021D01*
X122738012Y-71192346D01*
X125337950Y-68592408D01*
X156553000Y-68592408D01*
X156553000Y-68867592D01*
X156606686Y-69137490D01*
X156711995Y-69391727D01*
X156864880Y-69620535D01*
X157059465Y-69815120D01*
X157288273Y-69968005D01*
X157542510Y-70073314D01*
X157812408Y-70127000D01*
X158087592Y-70127000D01*
X158357490Y-70073314D01*
X158611727Y-69968005D01*
X158840535Y-69815120D01*
X158960090Y-69695565D01*
X162244040Y-69695565D01*
X162311020Y-69935656D01*
X162560048Y-70052756D01*
X162827135Y-70119023D01*
X163102017Y-70131910D01*
X163374133Y-70090922D01*
X163633023Y-69997636D01*
X163748980Y-69935656D01*
X163815960Y-69695565D01*
X163030000Y-68909605D01*
X162244040Y-69695565D01*
X158960090Y-69695565D01*
X159035120Y-69620535D01*
X159188005Y-69391727D01*
X159293314Y-69137490D01*
X159347000Y-68867592D01*
X159347000Y-68802017D01*
X161628090Y-68802017D01*
X161669078Y-69074133D01*
X161762364Y-69333023D01*
X161824344Y-69448980D01*
X162064435Y-69515960D01*
X162850395Y-68730000D01*
X163209605Y-68730000D01*
X163995565Y-69515960D01*
X164235656Y-69448980D01*
X164352756Y-69199952D01*
X164419023Y-68932865D01*
X164431910Y-68657983D01*
X164390922Y-68385867D01*
X164297636Y-68126977D01*
X164235656Y-68011020D01*
X163995565Y-67944040D01*
X163209605Y-68730000D01*
X162850395Y-68730000D01*
X162064435Y-67944040D01*
X161824344Y-68011020D01*
X161707244Y-68260048D01*
X161640977Y-68527135D01*
X161628090Y-68802017D01*
X159347000Y-68802017D01*
X159347000Y-68592408D01*
X159293314Y-68322510D01*
X159188005Y-68068273D01*
X159035120Y-67839465D01*
X158960090Y-67764435D01*
X162244040Y-67764435D01*
X163030000Y-68550395D01*
X163815960Y-67764435D01*
X163748980Y-67524344D01*
X163499952Y-67407244D01*
X163232865Y-67340977D01*
X162957983Y-67328090D01*
X162685867Y-67369078D01*
X162426977Y-67462364D01*
X162311020Y-67524344D01*
X162244040Y-67764435D01*
X158960090Y-67764435D01*
X158840535Y-67644880D01*
X158611727Y-67491995D01*
X158357490Y-67386686D01*
X158087592Y-67333000D01*
X157812408Y-67333000D01*
X157542510Y-67386686D01*
X157288273Y-67491995D01*
X157059465Y-67644880D01*
X156864880Y-67839465D01*
X156711995Y-68068273D01*
X156606686Y-68322510D01*
X156553000Y-68592408D01*
X125337950Y-68592408D01*
X130417950Y-63512408D01*
X156553000Y-63512408D01*
X156553000Y-63787592D01*
X156606686Y-64057490D01*
X156711995Y-64311727D01*
X156864880Y-64540535D01*
X157059465Y-64735120D01*
X157288273Y-64888005D01*
X157542510Y-64993314D01*
X157812408Y-65047000D01*
X158087592Y-65047000D01*
X158357490Y-64993314D01*
X158611727Y-64888005D01*
X158840535Y-64735120D01*
X159035120Y-64540535D01*
X159188005Y-64311727D01*
X159293314Y-64057490D01*
X159347000Y-63787592D01*
X159347000Y-63512408D01*
X161633000Y-63512408D01*
X161633000Y-63787592D01*
X161686686Y-64057490D01*
X161791995Y-64311727D01*
X161944880Y-64540535D01*
X162139465Y-64735120D01*
X162368273Y-64888005D01*
X162622510Y-64993314D01*
X162892408Y-65047000D01*
X163167592Y-65047000D01*
X163437490Y-64993314D01*
X163691727Y-64888005D01*
X163920535Y-64735120D01*
X164115120Y-64540535D01*
X164268005Y-64311727D01*
X164373314Y-64057490D01*
X164427000Y-63787592D01*
X164427000Y-63512408D01*
X164373314Y-63242510D01*
X164268005Y-62988273D01*
X164115120Y-62759465D01*
X163920535Y-62564880D01*
X163691727Y-62411995D01*
X163437490Y-62306686D01*
X163167592Y-62253000D01*
X162892408Y-62253000D01*
X162622510Y-62306686D01*
X162368273Y-62411995D01*
X162139465Y-62564880D01*
X161944880Y-62759465D01*
X161791995Y-62988273D01*
X161686686Y-63242510D01*
X161633000Y-63512408D01*
X159347000Y-63512408D01*
X159293314Y-63242510D01*
X159188005Y-62988273D01*
X159035120Y-62759465D01*
X158840535Y-62564880D01*
X158611727Y-62411995D01*
X158357490Y-62306686D01*
X158087592Y-62253000D01*
X157812408Y-62253000D01*
X157542510Y-62306686D01*
X157288273Y-62411995D01*
X157059465Y-62564880D01*
X156864880Y-62759465D01*
X156711995Y-62988273D01*
X156606686Y-63242510D01*
X156553000Y-63512408D01*
X130417950Y-63512408D01*
X134475359Y-59455000D01*
X193143422Y-59455000D01*
X200758465Y-67070044D01*
X200769774Y-67126898D01*
X200847795Y-67315256D01*
X200961063Y-67484774D01*
X201105226Y-67628937D01*
X201274744Y-67742205D01*
X201463102Y-67820226D01*
X201663061Y-67860000D01*
X201866939Y-67860000D01*
X202066898Y-67820226D01*
X202255256Y-67742205D01*
X202424774Y-67628937D01*
X202568937Y-67484774D01*
X202682205Y-67315256D01*
X202760226Y-67126898D01*
X202800000Y-66926939D01*
X202800000Y-66723061D01*
X202760226Y-66523102D01*
X202682205Y-66334744D01*
X202568937Y-66165226D01*
X202424774Y-66021063D01*
X202255256Y-65907795D01*
X202066898Y-65829774D01*
X202010044Y-65818465D01*
X194429174Y-58237595D01*
X204568282Y-58237595D01*
X204612039Y-58556675D01*
X204717205Y-58861088D01*
X204810186Y-59035044D01*
X205074587Y-59130808D01*
X206030395Y-58175000D01*
X206389605Y-58175000D01*
X207345413Y-59130808D01*
X207609814Y-59035044D01*
X207750704Y-58745429D01*
X207832384Y-58433892D01*
X207851718Y-58112405D01*
X207807961Y-57793325D01*
X207702795Y-57488912D01*
X207609814Y-57314956D01*
X207345413Y-57219192D01*
X206389605Y-58175000D01*
X206030395Y-58175000D01*
X205074587Y-57219192D01*
X204810186Y-57314956D01*
X204669296Y-57604571D01*
X204587616Y-57916108D01*
X204568282Y-58237595D01*
X194429174Y-58237595D01*
X194166534Y-57974956D01*
X194138817Y-57941183D01*
X194004059Y-57830589D01*
X193850313Y-57748411D01*
X193683490Y-57697805D01*
X193553477Y-57685000D01*
X193553469Y-57685000D01*
X193510000Y-57680719D01*
X193466531Y-57685000D01*
X134152246Y-57685000D01*
X134108779Y-57680719D01*
X134065313Y-57685000D01*
X134065303Y-57685000D01*
X133935290Y-57697805D01*
X133768467Y-57748411D01*
X133614721Y-57830589D01*
X133614719Y-57830590D01*
X133614720Y-57830590D01*
X133513733Y-57913468D01*
X133513731Y-57913470D01*
X133479963Y-57941183D01*
X133452250Y-57974951D01*
X125025250Y-66401951D01*
X125025250Y-65930451D01*
X124923979Y-65421326D01*
X124725328Y-64941741D01*
X124436932Y-64510126D01*
X124069874Y-64143068D01*
X123638259Y-63854672D01*
X123158674Y-63656021D01*
X122649549Y-63554750D01*
X122130451Y-63554750D01*
X121621326Y-63656021D01*
X121141741Y-63854672D01*
X120710126Y-64143068D01*
X120343068Y-64510126D01*
X120054672Y-64941741D01*
X119856021Y-65421326D01*
X119754750Y-65930451D01*
X119754750Y-66449549D01*
X119856021Y-66958674D01*
X120054672Y-67438259D01*
X120343068Y-67869874D01*
X120710126Y-68236932D01*
X121141741Y-68525328D01*
X121621326Y-68723979D01*
X122130451Y-68825250D01*
X122601951Y-68825250D01*
X99468885Y-91958317D01*
X99325328Y-91611741D01*
X99036932Y-91180126D01*
X98669874Y-90813068D01*
X98238259Y-90524672D01*
X97758674Y-90326021D01*
X97249549Y-90224750D01*
X96730451Y-90224750D01*
X96221326Y-90326021D01*
X95741741Y-90524672D01*
X95310126Y-90813068D01*
X94943068Y-91180126D01*
X94654672Y-91611741D01*
X94456021Y-92091326D01*
X94354750Y-92600451D01*
X88195250Y-92600451D01*
X88093979Y-92091326D01*
X87895328Y-91611741D01*
X87606932Y-91180126D01*
X87239874Y-90813068D01*
X86808259Y-90524672D01*
X86328674Y-90326021D01*
X85819549Y-90224750D01*
X85300451Y-90224750D01*
X84791326Y-90326021D01*
X84311741Y-90524672D01*
X83880126Y-90813068D01*
X83513068Y-91180126D01*
X83224672Y-91611741D01*
X83026021Y-92091326D01*
X82924750Y-92600451D01*
X56477000Y-92600451D01*
X56477000Y-84980451D01*
X88639750Y-84980451D01*
X88639750Y-85499549D01*
X88741021Y-86008674D01*
X88939672Y-86488259D01*
X89228068Y-86919874D01*
X89595126Y-87286932D01*
X90026741Y-87575328D01*
X90506326Y-87773979D01*
X91015451Y-87875250D01*
X91534549Y-87875250D01*
X92043674Y-87773979D01*
X92523259Y-87575328D01*
X92954874Y-87286932D01*
X93321932Y-86919874D01*
X93610328Y-86488259D01*
X93808979Y-86008674D01*
X93910250Y-85499549D01*
X93910250Y-84980451D01*
X93808979Y-84471326D01*
X93610328Y-83991741D01*
X93321932Y-83560126D01*
X92954874Y-83193068D01*
X92523259Y-82904672D01*
X92043674Y-82706021D01*
X91534549Y-82604750D01*
X91015451Y-82604750D01*
X90506326Y-82706021D01*
X90026741Y-82904672D01*
X89595126Y-83193068D01*
X89228068Y-83560126D01*
X88939672Y-83991741D01*
X88741021Y-84471326D01*
X88639750Y-84980451D01*
X56477000Y-84980451D01*
X56477000Y-74185451D01*
X82924750Y-74185451D01*
X82924750Y-74704549D01*
X83026021Y-75213674D01*
X83224672Y-75693259D01*
X83513068Y-76124874D01*
X83880126Y-76491932D01*
X84311741Y-76780328D01*
X84791326Y-76978979D01*
X85300451Y-77080250D01*
X85819549Y-77080250D01*
X86328674Y-76978979D01*
X86808259Y-76780328D01*
X87239874Y-76491932D01*
X87606932Y-76124874D01*
X87895328Y-75693259D01*
X88093979Y-75213674D01*
X88195250Y-74704549D01*
X88195250Y-74185451D01*
X94354750Y-74185451D01*
X94354750Y-74704549D01*
X94456021Y-75213674D01*
X94654672Y-75693259D01*
X94943068Y-76124874D01*
X95310126Y-76491932D01*
X95741741Y-76780328D01*
X96221326Y-76978979D01*
X96730451Y-77080250D01*
X97249549Y-77080250D01*
X97758674Y-76978979D01*
X98238259Y-76780328D01*
X98669874Y-76491932D01*
X99036932Y-76124874D01*
X99325328Y-75693259D01*
X99523979Y-75213674D01*
X99625250Y-74704549D01*
X99625250Y-74185451D01*
X99523979Y-73676326D01*
X99325328Y-73196741D01*
X99036932Y-72765126D01*
X98669874Y-72398068D01*
X98238259Y-72109672D01*
X97758674Y-71911021D01*
X97249549Y-71809750D01*
X96730451Y-71809750D01*
X96221326Y-71911021D01*
X95741741Y-72109672D01*
X95310126Y-72398068D01*
X94943068Y-72765126D01*
X94654672Y-73196741D01*
X94456021Y-73676326D01*
X94354750Y-74185451D01*
X88195250Y-74185451D01*
X88093979Y-73676326D01*
X87895328Y-73196741D01*
X87606932Y-72765126D01*
X87239874Y-72398068D01*
X86808259Y-72109672D01*
X86328674Y-71911021D01*
X85819549Y-71809750D01*
X85300451Y-71809750D01*
X84791326Y-71911021D01*
X84311741Y-72109672D01*
X83880126Y-72398068D01*
X83513068Y-72765126D01*
X83224672Y-73196741D01*
X83026021Y-73676326D01*
X82924750Y-74185451D01*
X56477000Y-74185451D01*
X56477000Y-66565451D01*
X88639750Y-66565451D01*
X88639750Y-67084549D01*
X88741021Y-67593674D01*
X88939672Y-68073259D01*
X89228068Y-68504874D01*
X89595126Y-68871932D01*
X90026741Y-69160328D01*
X90506326Y-69358979D01*
X91015451Y-69460250D01*
X91534549Y-69460250D01*
X92043674Y-69358979D01*
X92523259Y-69160328D01*
X92954874Y-68871932D01*
X93321932Y-68504874D01*
X93610328Y-68073259D01*
X93808979Y-67593674D01*
X93910250Y-67084549D01*
X93910250Y-66565451D01*
X93808979Y-66056326D01*
X93610328Y-65576741D01*
X93321932Y-65145126D01*
X92954874Y-64778068D01*
X92523259Y-64489672D01*
X92043674Y-64291021D01*
X91534549Y-64189750D01*
X91015451Y-64189750D01*
X90506326Y-64291021D01*
X90026741Y-64489672D01*
X89595126Y-64778068D01*
X89228068Y-65145126D01*
X88939672Y-65576741D01*
X88741021Y-66056326D01*
X88639750Y-66565451D01*
X56477000Y-66565451D01*
X56477000Y-61485451D01*
X103244750Y-61485451D01*
X103244750Y-62004549D01*
X103346021Y-62513674D01*
X103544672Y-62993259D01*
X103833068Y-63424874D01*
X104200126Y-63791932D01*
X104631741Y-64080328D01*
X105111326Y-64278979D01*
X105620451Y-64380250D01*
X106139549Y-64380250D01*
X106648674Y-64278979D01*
X107128259Y-64080328D01*
X107559874Y-63791932D01*
X107926932Y-63424874D01*
X108215328Y-62993259D01*
X108413979Y-62513674D01*
X108515250Y-62004549D01*
X108515250Y-61485451D01*
X108413979Y-60976326D01*
X108215328Y-60496741D01*
X107926932Y-60065126D01*
X107559874Y-59698068D01*
X107128259Y-59409672D01*
X106648674Y-59211021D01*
X106139549Y-59109750D01*
X105620451Y-59109750D01*
X105111326Y-59211021D01*
X104631741Y-59409672D01*
X104200126Y-59698068D01*
X103833068Y-60065126D01*
X103544672Y-60496741D01*
X103346021Y-60976326D01*
X103244750Y-61485451D01*
X56477000Y-61485451D01*
X56477000Y-54887000D01*
X62700000Y-54887000D01*
X62724776Y-54884560D01*
X62748601Y-54877333D01*
X62770557Y-54865597D01*
X62789803Y-54849803D01*
X62805597Y-54830557D01*
X62817333Y-54808601D01*
X62824560Y-54784776D01*
X62827000Y-54760000D01*
X62827000Y-53865451D01*
X103244750Y-53865451D01*
X103244750Y-54384549D01*
X103346021Y-54893674D01*
X103544672Y-55373259D01*
X103833068Y-55804874D01*
X104200126Y-56171932D01*
X104631741Y-56460328D01*
X105111326Y-56658979D01*
X105620451Y-56760250D01*
X106139549Y-56760250D01*
X106648674Y-56658979D01*
X107128259Y-56460328D01*
X107559874Y-56171932D01*
X107926932Y-55804874D01*
X108121309Y-55513967D01*
X204575000Y-55513967D01*
X204575000Y-55836033D01*
X204637832Y-56151912D01*
X204761082Y-56449463D01*
X204940013Y-56717252D01*
X205167748Y-56944987D01*
X205264935Y-57009925D01*
X205254192Y-57039587D01*
X206210000Y-57995395D01*
X207165808Y-57039587D01*
X207155065Y-57009925D01*
X207252252Y-56944987D01*
X207479987Y-56717252D01*
X207658918Y-56449463D01*
X207782168Y-56151912D01*
X207845000Y-55836033D01*
X207845000Y-55513967D01*
X207782168Y-55198088D01*
X207658918Y-54900537D01*
X207479987Y-54632748D01*
X207252252Y-54405013D01*
X206984463Y-54226082D01*
X206686912Y-54102832D01*
X206371033Y-54040000D01*
X206048967Y-54040000D01*
X205733088Y-54102832D01*
X205435537Y-54226082D01*
X205167748Y-54405013D01*
X204940013Y-54632748D01*
X204761082Y-54900537D01*
X204637832Y-55198088D01*
X204575000Y-55513967D01*
X108121309Y-55513967D01*
X108215328Y-55373259D01*
X108413979Y-54893674D01*
X108515250Y-54384549D01*
X108515250Y-53865451D01*
X108413979Y-53356326D01*
X108215328Y-52876741D01*
X107926932Y-52445126D01*
X107559874Y-52078068D01*
X107128259Y-51789672D01*
X106648674Y-51591021D01*
X106139549Y-51489750D01*
X105620451Y-51489750D01*
X105111326Y-51591021D01*
X104631741Y-51789672D01*
X104200126Y-52078068D01*
X103833068Y-52445126D01*
X103544672Y-52876741D01*
X103346021Y-53356326D01*
X103244750Y-53865451D01*
X62827000Y-53865451D01*
X62827000Y-48537000D01*
X207988000Y-48537000D01*
X207988000Y-54125000D01*
X207988000Y-54125000D01*
G37*
X207988000Y-54125000D02*
X207990440Y-54149776D01*
X207997667Y-54173601D01*
X208009403Y-54195557D01*
X208025197Y-54214803D01*
X208044443Y-54230597D01*
X208066399Y-54242333D01*
X208090224Y-54249560D01*
X208115000Y-54252000D01*
X213068000Y-54252000D01*
X213068000Y-135913000D01*
X208115000Y-135913000D01*
X208090224Y-135915440D01*
X208066399Y-135922667D01*
X208044443Y-135934403D01*
X208025197Y-135950197D01*
X208009403Y-135969443D01*
X207997667Y-135991399D01*
X207990440Y-136015224D01*
X207988000Y-136040000D01*
X207988000Y-141628000D01*
X62192000Y-141628000D01*
X62192000Y-134770000D01*
X62189560Y-134745224D01*
X62182333Y-134721399D01*
X62170597Y-134699443D01*
X62154803Y-134680197D01*
X62135557Y-134664403D01*
X62113601Y-134652667D01*
X62089776Y-134645440D01*
X62065000Y-134643000D01*
X56477000Y-134643000D01*
X56477000Y-134510451D01*
X88004750Y-134510451D01*
X88004750Y-135029549D01*
X88106021Y-135538674D01*
X88304672Y-136018259D01*
X88593068Y-136449874D01*
X88960126Y-136816932D01*
X89391741Y-137105328D01*
X89871326Y-137303979D01*
X90380451Y-137405250D01*
X90899549Y-137405250D01*
X91408674Y-137303979D01*
X91888259Y-137105328D01*
X92319874Y-136816932D01*
X92686932Y-136449874D01*
X92975328Y-136018259D01*
X93173979Y-135538674D01*
X93227339Y-135270413D01*
X205254192Y-135270413D01*
X205349956Y-135534814D01*
X205639571Y-135675704D01*
X205951108Y-135757384D01*
X206272595Y-135776718D01*
X206591675Y-135732961D01*
X206896088Y-135627795D01*
X207070044Y-135534814D01*
X207165808Y-135270413D01*
X206210000Y-134314605D01*
X205254192Y-135270413D01*
X93227339Y-135270413D01*
X93275250Y-135029549D01*
X93275250Y-134510451D01*
X93213020Y-134197595D01*
X204568282Y-134197595D01*
X204612039Y-134516675D01*
X204717205Y-134821088D01*
X204810186Y-134995044D01*
X205074587Y-135090808D01*
X206030395Y-134135000D01*
X206389605Y-134135000D01*
X207345413Y-135090808D01*
X207609814Y-134995044D01*
X207750704Y-134705429D01*
X207832384Y-134393892D01*
X207851718Y-134072405D01*
X207807961Y-133753325D01*
X207702795Y-133448912D01*
X207609814Y-133274956D01*
X207345413Y-133179192D01*
X206389605Y-134135000D01*
X206030395Y-134135000D01*
X205074587Y-133179192D01*
X204810186Y-133274956D01*
X204669296Y-133564571D01*
X204587616Y-133876108D01*
X204568282Y-134197595D01*
X93213020Y-134197595D01*
X93173979Y-134001326D01*
X92975328Y-133521741D01*
X92686932Y-133090126D01*
X92319874Y-132723068D01*
X91888259Y-132434672D01*
X91408674Y-132236021D01*
X90899549Y-132134750D01*
X90380451Y-132134750D01*
X89871326Y-132236021D01*
X89391741Y-132434672D01*
X88960126Y-132723068D01*
X88593068Y-133090126D01*
X88304672Y-133521741D01*
X88106021Y-134001326D01*
X88004750Y-134510451D01*
X56477000Y-134510451D01*
X56477000Y-131473967D01*
X204575000Y-131473967D01*
X204575000Y-131796033D01*
X204637832Y-132111912D01*
X204761082Y-132409463D01*
X204940013Y-132677252D01*
X205167748Y-132904987D01*
X205264935Y-132969925D01*
X205254192Y-132999587D01*
X206210000Y-133955395D01*
X207165808Y-132999587D01*
X207155065Y-132969925D01*
X207252252Y-132904987D01*
X207479987Y-132677252D01*
X207658918Y-132409463D01*
X207782168Y-132111912D01*
X207845000Y-131796033D01*
X207845000Y-131473967D01*
X207782168Y-131158088D01*
X207658918Y-130860537D01*
X207479987Y-130592748D01*
X207252252Y-130365013D01*
X206984463Y-130186082D01*
X206686912Y-130062832D01*
X206371033Y-130000000D01*
X206048967Y-130000000D01*
X205733088Y-130062832D01*
X205435537Y-130186082D01*
X205167748Y-130365013D01*
X204940013Y-130592748D01*
X204761082Y-130860537D01*
X204637832Y-131158088D01*
X204575000Y-131473967D01*
X56477000Y-131473967D01*
X56477000Y-126890451D01*
X88004750Y-126890451D01*
X88004750Y-127409549D01*
X88106021Y-127918674D01*
X88304672Y-128398259D01*
X88593068Y-128829874D01*
X88960126Y-129196932D01*
X89391741Y-129485328D01*
X89871326Y-129683979D01*
X90380451Y-129785250D01*
X90899549Y-129785250D01*
X91408674Y-129683979D01*
X91888259Y-129485328D01*
X92319874Y-129196932D01*
X92686932Y-128829874D01*
X92975328Y-128398259D01*
X93173979Y-127918674D01*
X93227339Y-127650413D01*
X205254192Y-127650413D01*
X205349956Y-127914814D01*
X205639571Y-128055704D01*
X205951108Y-128137384D01*
X206272595Y-128156718D01*
X206591675Y-128112961D01*
X206896088Y-128007795D01*
X207070044Y-127914814D01*
X207165808Y-127650413D01*
X206210000Y-126694605D01*
X205254192Y-127650413D01*
X93227339Y-127650413D01*
X93275250Y-127409549D01*
X93275250Y-126890451D01*
X93213020Y-126577595D01*
X204568282Y-126577595D01*
X204612039Y-126896675D01*
X204717205Y-127201088D01*
X204810186Y-127375044D01*
X205074587Y-127470808D01*
X206030395Y-126515000D01*
X206389605Y-126515000D01*
X207345413Y-127470808D01*
X207609814Y-127375044D01*
X207750704Y-127085429D01*
X207832384Y-126773892D01*
X207851718Y-126452405D01*
X207807961Y-126133325D01*
X207702795Y-125828912D01*
X207609814Y-125654956D01*
X207345413Y-125559192D01*
X206389605Y-126515000D01*
X206030395Y-126515000D01*
X205074587Y-125559192D01*
X204810186Y-125654956D01*
X204669296Y-125944571D01*
X204587616Y-126256108D01*
X204568282Y-126577595D01*
X93213020Y-126577595D01*
X93173979Y-126381326D01*
X92975328Y-125901741D01*
X92686932Y-125470126D01*
X92319874Y-125103068D01*
X91888259Y-124814672D01*
X91408674Y-124616021D01*
X90899549Y-124514750D01*
X90380451Y-124514750D01*
X89871326Y-124616021D01*
X89391741Y-124814672D01*
X88960126Y-125103068D01*
X88593068Y-125470126D01*
X88304672Y-125901741D01*
X88106021Y-126381326D01*
X88004750Y-126890451D01*
X56477000Y-126890451D01*
X56477000Y-123853967D01*
X204575000Y-123853967D01*
X204575000Y-124176033D01*
X204637832Y-124491912D01*
X204761082Y-124789463D01*
X204940013Y-125057252D01*
X205167748Y-125284987D01*
X205264935Y-125349925D01*
X205254192Y-125379587D01*
X206210000Y-126335395D01*
X207165808Y-125379587D01*
X207155065Y-125349925D01*
X207252252Y-125284987D01*
X207479987Y-125057252D01*
X207658918Y-124789463D01*
X207782168Y-124491912D01*
X207845000Y-124176033D01*
X207845000Y-123853967D01*
X207782168Y-123538088D01*
X207658918Y-123240537D01*
X207479987Y-122972748D01*
X207252252Y-122745013D01*
X206984463Y-122566082D01*
X206686912Y-122442832D01*
X206371033Y-122380000D01*
X206048967Y-122380000D01*
X205733088Y-122442832D01*
X205435537Y-122566082D01*
X205167748Y-122745013D01*
X204940013Y-122972748D01*
X204761082Y-123240537D01*
X204637832Y-123538088D01*
X204575000Y-123853967D01*
X56477000Y-123853967D01*
X56477000Y-120030413D01*
X205254192Y-120030413D01*
X205349956Y-120294814D01*
X205639571Y-120435704D01*
X205951108Y-120517384D01*
X206272595Y-120536718D01*
X206591675Y-120492961D01*
X206896088Y-120387795D01*
X207070044Y-120294814D01*
X207165808Y-120030413D01*
X206210000Y-119074605D01*
X205254192Y-120030413D01*
X56477000Y-120030413D01*
X56477000Y-118957595D01*
X204568282Y-118957595D01*
X204612039Y-119276675D01*
X204717205Y-119581088D01*
X204810186Y-119755044D01*
X205074587Y-119850808D01*
X206030395Y-118895000D01*
X206389605Y-118895000D01*
X207345413Y-119850808D01*
X207609814Y-119755044D01*
X207750704Y-119465429D01*
X207832384Y-119153892D01*
X207851718Y-118832405D01*
X207807961Y-118513325D01*
X207702795Y-118208912D01*
X207609814Y-118034956D01*
X207345413Y-117939192D01*
X206389605Y-118895000D01*
X206030395Y-118895000D01*
X205074587Y-117939192D01*
X204810186Y-118034956D01*
X204669296Y-118324571D01*
X204587616Y-118636108D01*
X204568282Y-118957595D01*
X56477000Y-118957595D01*
X56477000Y-114825451D01*
X88004750Y-114825451D01*
X88004750Y-115344549D01*
X88106021Y-115853674D01*
X88304672Y-116333259D01*
X88593068Y-116764874D01*
X88960126Y-117131932D01*
X89391741Y-117420328D01*
X89871326Y-117618979D01*
X90380451Y-117720250D01*
X90899549Y-117720250D01*
X91408674Y-117618979D01*
X91888259Y-117420328D01*
X92319874Y-117131932D01*
X92686932Y-116764874D01*
X92975328Y-116333259D01*
X93173979Y-115853674D01*
X93275250Y-115344549D01*
X93275250Y-114825451D01*
X119754750Y-114825451D01*
X119754750Y-115344549D01*
X119856021Y-115853674D01*
X120054672Y-116333259D01*
X120343068Y-116764874D01*
X120710126Y-117131932D01*
X121141741Y-117420328D01*
X121621326Y-117618979D01*
X122130451Y-117720250D01*
X122649549Y-117720250D01*
X123158674Y-117618979D01*
X123638259Y-117420328D01*
X124069874Y-117131932D01*
X124436932Y-116764874D01*
X124725328Y-116333259D01*
X124766456Y-116233967D01*
X204575000Y-116233967D01*
X204575000Y-116556033D01*
X204637832Y-116871912D01*
X204761082Y-117169463D01*
X204940013Y-117437252D01*
X205167748Y-117664987D01*
X205264935Y-117729925D01*
X205254192Y-117759587D01*
X206210000Y-118715395D01*
X207165808Y-117759587D01*
X207155065Y-117729925D01*
X207252252Y-117664987D01*
X207479987Y-117437252D01*
X207658918Y-117169463D01*
X207782168Y-116871912D01*
X207845000Y-116556033D01*
X207845000Y-116233967D01*
X207782168Y-115918088D01*
X207658918Y-115620537D01*
X207479987Y-115352748D01*
X207252252Y-115125013D01*
X206984463Y-114946082D01*
X206686912Y-114822832D01*
X206371033Y-114760000D01*
X206048967Y-114760000D01*
X205733088Y-114822832D01*
X205435537Y-114946082D01*
X205167748Y-115125013D01*
X204940013Y-115352748D01*
X204761082Y-115620537D01*
X204637832Y-115918088D01*
X204575000Y-116233967D01*
X124766456Y-116233967D01*
X124923979Y-115853674D01*
X125025250Y-115344549D01*
X125025250Y-114825451D01*
X124923979Y-114316326D01*
X124725328Y-113836741D01*
X124436932Y-113405126D01*
X124069874Y-113038068D01*
X123638259Y-112749672D01*
X123158674Y-112551021D01*
X122649549Y-112449750D01*
X122130451Y-112449750D01*
X121621326Y-112551021D01*
X121141741Y-112749672D01*
X120710126Y-113038068D01*
X120343068Y-113405126D01*
X120054672Y-113836741D01*
X119856021Y-114316326D01*
X119754750Y-114825451D01*
X93275250Y-114825451D01*
X93173979Y-114316326D01*
X92975328Y-113836741D01*
X92686932Y-113405126D01*
X92319874Y-113038068D01*
X91888259Y-112749672D01*
X91408674Y-112551021D01*
X90899549Y-112449750D01*
X90380451Y-112449750D01*
X89871326Y-112551021D01*
X89391741Y-112749672D01*
X88960126Y-113038068D01*
X88593068Y-113405126D01*
X88304672Y-113836741D01*
X88106021Y-114316326D01*
X88004750Y-114825451D01*
X56477000Y-114825451D01*
X56477000Y-112410413D01*
X205254192Y-112410413D01*
X205349956Y-112674814D01*
X205639571Y-112815704D01*
X205951108Y-112897384D01*
X206272595Y-112916718D01*
X206591675Y-112872961D01*
X206896088Y-112767795D01*
X207070044Y-112674814D01*
X207165808Y-112410413D01*
X206210000Y-111454605D01*
X205254192Y-112410413D01*
X56477000Y-112410413D01*
X56477000Y-111337595D01*
X204568282Y-111337595D01*
X204612039Y-111656675D01*
X204717205Y-111961088D01*
X204810186Y-112135044D01*
X205074587Y-112230808D01*
X206030395Y-111275000D01*
X206389605Y-111275000D01*
X207345413Y-112230808D01*
X207609814Y-112135044D01*
X207750704Y-111845429D01*
X207832384Y-111533892D01*
X207851718Y-111212405D01*
X207807961Y-110893325D01*
X207702795Y-110588912D01*
X207609814Y-110414956D01*
X207345413Y-110319192D01*
X206389605Y-111275000D01*
X206030395Y-111275000D01*
X205074587Y-110319192D01*
X204810186Y-110414956D01*
X204669296Y-110704571D01*
X204587616Y-111016108D01*
X204568282Y-111337595D01*
X56477000Y-111337595D01*
X56477000Y-107205451D01*
X88004750Y-107205451D01*
X88004750Y-107724549D01*
X88106021Y-108233674D01*
X88304672Y-108713259D01*
X88593068Y-109144874D01*
X88960126Y-109511932D01*
X89391741Y-109800328D01*
X89871326Y-109998979D01*
X90380451Y-110100250D01*
X90899549Y-110100250D01*
X91408674Y-109998979D01*
X91888259Y-109800328D01*
X92319874Y-109511932D01*
X92686932Y-109144874D01*
X92975328Y-108713259D01*
X93173979Y-108233674D01*
X93275250Y-107724549D01*
X93275250Y-107205451D01*
X119754750Y-107205451D01*
X119754750Y-107724549D01*
X119856021Y-108233674D01*
X120054672Y-108713259D01*
X120343068Y-109144874D01*
X120710126Y-109511932D01*
X121141741Y-109800328D01*
X121621326Y-109998979D01*
X122130451Y-110100250D01*
X122649549Y-110100250D01*
X123158674Y-109998979D01*
X123638259Y-109800328D01*
X124069874Y-109511932D01*
X124436932Y-109144874D01*
X124725328Y-108713259D01*
X124766456Y-108613967D01*
X204575000Y-108613967D01*
X204575000Y-108936033D01*
X204637832Y-109251912D01*
X204761082Y-109549463D01*
X204940013Y-109817252D01*
X205167748Y-110044987D01*
X205264935Y-110109925D01*
X205254192Y-110139587D01*
X206210000Y-111095395D01*
X207165808Y-110139587D01*
X207155065Y-110109925D01*
X207252252Y-110044987D01*
X207479987Y-109817252D01*
X207658918Y-109549463D01*
X207782168Y-109251912D01*
X207845000Y-108936033D01*
X207845000Y-108613967D01*
X207782168Y-108298088D01*
X207658918Y-108000537D01*
X207479987Y-107732748D01*
X207252252Y-107505013D01*
X206984463Y-107326082D01*
X206686912Y-107202832D01*
X206371033Y-107140000D01*
X206048967Y-107140000D01*
X205733088Y-107202832D01*
X205435537Y-107326082D01*
X205167748Y-107505013D01*
X204940013Y-107732748D01*
X204761082Y-108000537D01*
X204637832Y-108298088D01*
X204575000Y-108613967D01*
X124766456Y-108613967D01*
X124923979Y-108233674D01*
X125025250Y-107724549D01*
X125025250Y-107205451D01*
X124923979Y-106696326D01*
X124725328Y-106216741D01*
X124436932Y-105785126D01*
X124069874Y-105418068D01*
X123638259Y-105129672D01*
X123158674Y-104931021D01*
X122649549Y-104829750D01*
X122130451Y-104829750D01*
X121621326Y-104931021D01*
X121141741Y-105129672D01*
X120710126Y-105418068D01*
X120343068Y-105785126D01*
X120054672Y-106216741D01*
X119856021Y-106696326D01*
X119754750Y-107205451D01*
X93275250Y-107205451D01*
X93173979Y-106696326D01*
X92975328Y-106216741D01*
X92686932Y-105785126D01*
X92319874Y-105418068D01*
X91888259Y-105129672D01*
X91408674Y-104931021D01*
X90899549Y-104829750D01*
X90380451Y-104829750D01*
X89871326Y-104931021D01*
X89391741Y-105129672D01*
X88960126Y-105418068D01*
X88593068Y-105785126D01*
X88304672Y-106216741D01*
X88106021Y-106696326D01*
X88004750Y-107205451D01*
X56477000Y-107205451D01*
X56477000Y-104790413D01*
X205254192Y-104790413D01*
X205349956Y-105054814D01*
X205639571Y-105195704D01*
X205951108Y-105277384D01*
X206272595Y-105296718D01*
X206591675Y-105252961D01*
X206896088Y-105147795D01*
X207070044Y-105054814D01*
X207165808Y-104790413D01*
X206210000Y-103834605D01*
X205254192Y-104790413D01*
X56477000Y-104790413D01*
X56477000Y-103717595D01*
X204568282Y-103717595D01*
X204612039Y-104036675D01*
X204717205Y-104341088D01*
X204810186Y-104515044D01*
X205074587Y-104610808D01*
X206030395Y-103655000D01*
X206389605Y-103655000D01*
X207345413Y-104610808D01*
X207609814Y-104515044D01*
X207750704Y-104225429D01*
X207832384Y-103913892D01*
X207851718Y-103592405D01*
X207807961Y-103273325D01*
X207702795Y-102968912D01*
X207609814Y-102794956D01*
X207345413Y-102699192D01*
X206389605Y-103655000D01*
X206030395Y-103655000D01*
X205074587Y-102699192D01*
X204810186Y-102794956D01*
X204669296Y-103084571D01*
X204587616Y-103396108D01*
X204568282Y-103717595D01*
X56477000Y-103717595D01*
X56477000Y-100993967D01*
X204575000Y-100993967D01*
X204575000Y-101316033D01*
X204637832Y-101631912D01*
X204761082Y-101929463D01*
X204940013Y-102197252D01*
X205167748Y-102424987D01*
X205264935Y-102489925D01*
X205254192Y-102519587D01*
X206210000Y-103475395D01*
X207165808Y-102519587D01*
X207155065Y-102489925D01*
X207252252Y-102424987D01*
X207479987Y-102197252D01*
X207658918Y-101929463D01*
X207782168Y-101631912D01*
X207845000Y-101316033D01*
X207845000Y-100993967D01*
X207782168Y-100678088D01*
X207658918Y-100380537D01*
X207479987Y-100112748D01*
X207252252Y-99885013D01*
X206984463Y-99706082D01*
X206686912Y-99582832D01*
X206371033Y-99520000D01*
X206048967Y-99520000D01*
X205733088Y-99582832D01*
X205435537Y-99706082D01*
X205167748Y-99885013D01*
X204940013Y-100112748D01*
X204761082Y-100380537D01*
X204637832Y-100678088D01*
X204575000Y-100993967D01*
X56477000Y-100993967D01*
X56477000Y-92600451D01*
X82924750Y-92600451D01*
X82924750Y-93119549D01*
X83026021Y-93628674D01*
X83224672Y-94108259D01*
X83513068Y-94539874D01*
X83880126Y-94906932D01*
X84311741Y-95195328D01*
X84791326Y-95393979D01*
X85300451Y-95495250D01*
X85819549Y-95495250D01*
X86328674Y-95393979D01*
X86691933Y-95243512D01*
X90618470Y-99170049D01*
X90646183Y-99203817D01*
X90679951Y-99231530D01*
X90679953Y-99231532D01*
X90780941Y-99314411D01*
X90934686Y-99396589D01*
X91101510Y-99447195D01*
X91231523Y-99460000D01*
X91231531Y-99460000D01*
X91275000Y-99464281D01*
X91318469Y-99460000D01*
X175686531Y-99460000D01*
X175730000Y-99464281D01*
X175773469Y-99460000D01*
X175773477Y-99460000D01*
X175903490Y-99447195D01*
X176070313Y-99396589D01*
X176224059Y-99314411D01*
X176358817Y-99203817D01*
X176386534Y-99170044D01*
X178386165Y-97170413D01*
X205254192Y-97170413D01*
X205349956Y-97434814D01*
X205639571Y-97575704D01*
X205951108Y-97657384D01*
X206272595Y-97676718D01*
X206591675Y-97632961D01*
X206896088Y-97527795D01*
X207070044Y-97434814D01*
X207165808Y-97170413D01*
X206210000Y-96214605D01*
X205254192Y-97170413D01*
X178386165Y-97170413D01*
X179458983Y-96097595D01*
X204568282Y-96097595D01*
X204612039Y-96416675D01*
X204717205Y-96721088D01*
X204810186Y-96895044D01*
X205074587Y-96990808D01*
X206030395Y-96035000D01*
X206389605Y-96035000D01*
X207345413Y-96990808D01*
X207609814Y-96895044D01*
X207750704Y-96605429D01*
X207832384Y-96293892D01*
X207851718Y-95972405D01*
X207807961Y-95653325D01*
X207702795Y-95348912D01*
X207609814Y-95174956D01*
X207345413Y-95079192D01*
X206389605Y-96035000D01*
X206030395Y-96035000D01*
X205074587Y-95079192D01*
X204810186Y-95174956D01*
X204669296Y-95464571D01*
X204587616Y-95776108D01*
X204568282Y-96097595D01*
X179458983Y-96097595D01*
X182182611Y-93373967D01*
X204575000Y-93373967D01*
X204575000Y-93696033D01*
X204637832Y-94011912D01*
X204761082Y-94309463D01*
X204940013Y-94577252D01*
X205167748Y-94804987D01*
X205264935Y-94869925D01*
X205254192Y-94899587D01*
X206210000Y-95855395D01*
X207165808Y-94899587D01*
X207155065Y-94869925D01*
X207252252Y-94804987D01*
X207479987Y-94577252D01*
X207658918Y-94309463D01*
X207782168Y-94011912D01*
X207845000Y-93696033D01*
X207845000Y-93373967D01*
X207782168Y-93058088D01*
X207658918Y-92760537D01*
X207479987Y-92492748D01*
X207252252Y-92265013D01*
X206984463Y-92086082D01*
X206686912Y-91962832D01*
X206371033Y-91900000D01*
X206048967Y-91900000D01*
X205733088Y-91962832D01*
X205435537Y-92086082D01*
X205167748Y-92265013D01*
X204940013Y-92492748D01*
X204761082Y-92760537D01*
X204637832Y-93058088D01*
X204575000Y-93373967D01*
X182182611Y-93373967D01*
X186006165Y-89550413D01*
X205254192Y-89550413D01*
X205349956Y-89814814D01*
X205639571Y-89955704D01*
X205951108Y-90037384D01*
X206272595Y-90056718D01*
X206591675Y-90012961D01*
X206896088Y-89907795D01*
X207070044Y-89814814D01*
X207165808Y-89550413D01*
X206210000Y-88594605D01*
X205254192Y-89550413D01*
X186006165Y-89550413D01*
X187078983Y-88477595D01*
X204568282Y-88477595D01*
X204612039Y-88796675D01*
X204717205Y-89101088D01*
X204810186Y-89275044D01*
X205074587Y-89370808D01*
X206030395Y-88415000D01*
X206389605Y-88415000D01*
X207345413Y-89370808D01*
X207609814Y-89275044D01*
X207750704Y-88985429D01*
X207832384Y-88673892D01*
X207851718Y-88352405D01*
X207807961Y-88033325D01*
X207702795Y-87728912D01*
X207609814Y-87554956D01*
X207345413Y-87459192D01*
X206389605Y-88415000D01*
X206030395Y-88415000D01*
X205074587Y-87459192D01*
X204810186Y-87554956D01*
X204669296Y-87844571D01*
X204587616Y-88156108D01*
X204568282Y-88477595D01*
X187078983Y-88477595D01*
X189802611Y-85753967D01*
X204575000Y-85753967D01*
X204575000Y-86076033D01*
X204637832Y-86391912D01*
X204761082Y-86689463D01*
X204940013Y-86957252D01*
X205167748Y-87184987D01*
X205264935Y-87249925D01*
X205254192Y-87279587D01*
X206210000Y-88235395D01*
X207165808Y-87279587D01*
X207155065Y-87249925D01*
X207252252Y-87184987D01*
X207479987Y-86957252D01*
X207658918Y-86689463D01*
X207782168Y-86391912D01*
X207845000Y-86076033D01*
X207845000Y-85753967D01*
X207782168Y-85438088D01*
X207658918Y-85140537D01*
X207479987Y-84872748D01*
X207252252Y-84645013D01*
X206984463Y-84466082D01*
X206686912Y-84342832D01*
X206371033Y-84280000D01*
X206048967Y-84280000D01*
X205733088Y-84342832D01*
X205435537Y-84466082D01*
X205167748Y-84645013D01*
X204940013Y-84872748D01*
X204761082Y-85140537D01*
X204637832Y-85438088D01*
X204575000Y-85753967D01*
X189802611Y-85753967D01*
X197422611Y-78133967D01*
X204575000Y-78133967D01*
X204575000Y-78456033D01*
X204637832Y-78771912D01*
X204761082Y-79069463D01*
X204940013Y-79337252D01*
X205147761Y-79545000D01*
X204940013Y-79752748D01*
X204761082Y-80020537D01*
X204637832Y-80318088D01*
X204575000Y-80633967D01*
X204575000Y-80956033D01*
X204637832Y-81271912D01*
X204761082Y-81569463D01*
X204940013Y-81837252D01*
X205167748Y-82064987D01*
X205435537Y-82243918D01*
X205733088Y-82367168D01*
X206048967Y-82430000D01*
X206371033Y-82430000D01*
X206686912Y-82367168D01*
X206984463Y-82243918D01*
X207252252Y-82064987D01*
X207479987Y-81837252D01*
X207658918Y-81569463D01*
X207782168Y-81271912D01*
X207845000Y-80956033D01*
X207845000Y-80633967D01*
X207782168Y-80318088D01*
X207658918Y-80020537D01*
X207479987Y-79752748D01*
X207272239Y-79545000D01*
X207479987Y-79337252D01*
X207658918Y-79069463D01*
X207782168Y-78771912D01*
X207845000Y-78456033D01*
X207845000Y-78133967D01*
X207782168Y-77818088D01*
X207658918Y-77520537D01*
X207479987Y-77252748D01*
X207252252Y-77025013D01*
X206984463Y-76846082D01*
X206686912Y-76722832D01*
X206371033Y-76660000D01*
X206048967Y-76660000D01*
X205733088Y-76722832D01*
X205435537Y-76846082D01*
X205167748Y-77025013D01*
X204940013Y-77252748D01*
X204761082Y-77520537D01*
X204637832Y-77818088D01*
X204575000Y-78133967D01*
X197422611Y-78133967D01*
X204599148Y-70957431D01*
X204637832Y-71151912D01*
X204761082Y-71449463D01*
X204940013Y-71717252D01*
X205147761Y-71925000D01*
X204940013Y-72132748D01*
X204761082Y-72400537D01*
X204637832Y-72698088D01*
X204575000Y-73013967D01*
X204575000Y-73336033D01*
X204637832Y-73651912D01*
X204761082Y-73949463D01*
X204940013Y-74217252D01*
X205167748Y-74444987D01*
X205435537Y-74623918D01*
X205733088Y-74747168D01*
X206048967Y-74810000D01*
X206371033Y-74810000D01*
X206686912Y-74747168D01*
X206984463Y-74623918D01*
X207252252Y-74444987D01*
X207479987Y-74217252D01*
X207658918Y-73949463D01*
X207782168Y-73651912D01*
X207845000Y-73336033D01*
X207845000Y-73013967D01*
X207782168Y-72698088D01*
X207658918Y-72400537D01*
X207479987Y-72132748D01*
X207272239Y-71925000D01*
X207479987Y-71717252D01*
X207658918Y-71449463D01*
X207782168Y-71151912D01*
X207845000Y-70836033D01*
X207845000Y-70513967D01*
X207782168Y-70198088D01*
X207658918Y-69900537D01*
X207479987Y-69632748D01*
X207272239Y-69425000D01*
X207479987Y-69217252D01*
X207658918Y-68949463D01*
X207782168Y-68651912D01*
X207845000Y-68336033D01*
X207845000Y-68013967D01*
X207782168Y-67698088D01*
X207658918Y-67400537D01*
X207479987Y-67132748D01*
X207272239Y-66925000D01*
X207479987Y-66717252D01*
X207658918Y-66449463D01*
X207782168Y-66151912D01*
X207845000Y-65836033D01*
X207845000Y-65513967D01*
X207782168Y-65198088D01*
X207658918Y-64900537D01*
X207479987Y-64632748D01*
X207272239Y-64425000D01*
X207479987Y-64217252D01*
X207658918Y-63949463D01*
X207782168Y-63651912D01*
X207845000Y-63336033D01*
X207845000Y-63013967D01*
X207782168Y-62698088D01*
X207658918Y-62400537D01*
X207479987Y-62132748D01*
X207272239Y-61925000D01*
X207479987Y-61717252D01*
X207658918Y-61449463D01*
X207782168Y-61151912D01*
X207845000Y-60836033D01*
X207845000Y-60513967D01*
X207782168Y-60198088D01*
X207658918Y-59900537D01*
X207479987Y-59632748D01*
X207252252Y-59405013D01*
X207155065Y-59340075D01*
X207165808Y-59310413D01*
X206210000Y-58354605D01*
X205254192Y-59310413D01*
X205264935Y-59340075D01*
X205167748Y-59405013D01*
X204940013Y-59632748D01*
X204761082Y-59900537D01*
X204637832Y-60198088D01*
X204575000Y-60513967D01*
X204575000Y-60836033D01*
X204637832Y-61151912D01*
X204761082Y-61449463D01*
X204940013Y-61717252D01*
X205147761Y-61925000D01*
X204940013Y-62132748D01*
X204761082Y-62400537D01*
X204637832Y-62698088D01*
X204575000Y-63013967D01*
X204575000Y-63336033D01*
X204637832Y-63651912D01*
X204761082Y-63949463D01*
X204940013Y-64217252D01*
X205147761Y-64425000D01*
X204940013Y-64632748D01*
X204761082Y-64900537D01*
X204637832Y-65198088D01*
X204575000Y-65513967D01*
X204575000Y-65836033D01*
X204611896Y-66021525D01*
X178658422Y-91975000D01*
X124875795Y-91975000D01*
X124725328Y-91611741D01*
X124436932Y-91180126D01*
X124069874Y-90813068D01*
X123638259Y-90524672D01*
X123158674Y-90326021D01*
X122649549Y-90224750D01*
X122130451Y-90224750D01*
X121621326Y-90326021D01*
X121141741Y-90524672D01*
X120710126Y-90813068D01*
X120343068Y-91180126D01*
X120054672Y-91611741D01*
X119856021Y-92091326D01*
X119754750Y-92600451D01*
X119754750Y-93119549D01*
X119856021Y-93628674D01*
X120054672Y-94108259D01*
X120343068Y-94539874D01*
X120710126Y-94906932D01*
X121141741Y-95195328D01*
X121621326Y-95393979D01*
X122130451Y-95495250D01*
X122649549Y-95495250D01*
X123158674Y-95393979D01*
X123638259Y-95195328D01*
X124069874Y-94906932D01*
X124436932Y-94539874D01*
X124725328Y-94108259D01*
X124875795Y-93745000D01*
X178981531Y-93745000D01*
X179025000Y-93749281D01*
X179068469Y-93745000D01*
X179068477Y-93745000D01*
X179198490Y-93732195D01*
X179365313Y-93681589D01*
X179379319Y-93674103D01*
X175363422Y-97690000D01*
X91641579Y-97690000D01*
X87943512Y-93991933D01*
X88093979Y-93628674D01*
X88195250Y-93119549D01*
X88195250Y-92600451D01*
X94354750Y-92600451D01*
X94354750Y-93119549D01*
X94456021Y-93628674D01*
X94654672Y-94108259D01*
X94943068Y-94539874D01*
X95310126Y-94906932D01*
X95741741Y-95195328D01*
X96221326Y-95393979D01*
X96730451Y-95495250D01*
X97249549Y-95495250D01*
X97758674Y-95393979D01*
X98238259Y-95195328D01*
X98669874Y-94906932D01*
X99036932Y-94539874D01*
X99325328Y-94108259D01*
X99475795Y-93745000D01*
X99775311Y-93745000D01*
X99818780Y-93749281D01*
X99862249Y-93745000D01*
X99862257Y-93745000D01*
X99992270Y-93732195D01*
X100159093Y-93681589D01*
X100312839Y-93599411D01*
X100447597Y-93488817D01*
X100475314Y-93455044D01*
X108949907Y-84980451D01*
X119754750Y-84980451D01*
X119754750Y-85499549D01*
X119856021Y-86008674D01*
X120054672Y-86488259D01*
X120343068Y-86919874D01*
X120710126Y-87286932D01*
X121141741Y-87575328D01*
X121621326Y-87773979D01*
X122130451Y-87875250D01*
X122649549Y-87875250D01*
X123158674Y-87773979D01*
X123638259Y-87575328D01*
X124069874Y-87286932D01*
X124436932Y-86919874D01*
X124725328Y-86488259D01*
X124923979Y-86008674D01*
X125025250Y-85499549D01*
X125025250Y-84980451D01*
X124923979Y-84471326D01*
X124725328Y-83991741D01*
X124436932Y-83560126D01*
X124069874Y-83193068D01*
X123638259Y-82904672D01*
X123158674Y-82706021D01*
X122649549Y-82604750D01*
X122130451Y-82604750D01*
X121621326Y-82706021D01*
X121141741Y-82904672D01*
X120710126Y-83193068D01*
X120343068Y-83560126D01*
X120054672Y-83991741D01*
X119856021Y-84471326D01*
X119754750Y-84980451D01*
X108949907Y-84980451D01*
X112030358Y-81900000D01*
X155241928Y-81900000D01*
X155241928Y-83500000D01*
X155254188Y-83624482D01*
X155290498Y-83744180D01*
X155349463Y-83854494D01*
X155428815Y-83951185D01*
X155525506Y-84030537D01*
X155635820Y-84089502D01*
X155755518Y-84125812D01*
X155880000Y-84138072D01*
X157480000Y-84138072D01*
X157604482Y-84125812D01*
X157724180Y-84089502D01*
X157834494Y-84030537D01*
X157931185Y-83951185D01*
X158010537Y-83854494D01*
X158069502Y-83744180D01*
X158105812Y-83624482D01*
X158118072Y-83500000D01*
X158118072Y-83049039D01*
X162908096Y-83049039D01*
X162948754Y-83183087D01*
X163068963Y-83437420D01*
X163236481Y-83663414D01*
X163444869Y-83852385D01*
X163686119Y-83997070D01*
X163950960Y-84091909D01*
X164173000Y-83970624D01*
X164173000Y-82827000D01*
X164427000Y-82827000D01*
X164427000Y-83970624D01*
X164649040Y-84091909D01*
X164913881Y-83997070D01*
X165155131Y-83852385D01*
X165363519Y-83663414D01*
X165531037Y-83437420D01*
X165651246Y-83183087D01*
X165691904Y-83049039D01*
X165569915Y-82827000D01*
X164427000Y-82827000D01*
X164173000Y-82827000D01*
X163030085Y-82827000D01*
X162908096Y-83049039D01*
X158118072Y-83049039D01*
X158118072Y-82350961D01*
X162908096Y-82350961D01*
X163030085Y-82573000D01*
X164173000Y-82573000D01*
X164173000Y-81429376D01*
X164427000Y-81429376D01*
X164427000Y-82573000D01*
X165569915Y-82573000D01*
X165691904Y-82350961D01*
X165651246Y-82216913D01*
X165531037Y-81962580D01*
X165363519Y-81736586D01*
X165155131Y-81547615D01*
X164913881Y-81402930D01*
X164649040Y-81308091D01*
X164427000Y-81429376D01*
X164173000Y-81429376D01*
X163950960Y-81308091D01*
X163686119Y-81402930D01*
X163444869Y-81547615D01*
X163236481Y-81736586D01*
X163068963Y-81962580D01*
X162948754Y-82216913D01*
X162908096Y-82350961D01*
X158118072Y-82350961D01*
X158118072Y-81900000D01*
X158105812Y-81775518D01*
X158069502Y-81655820D01*
X158010537Y-81545506D01*
X157931185Y-81448815D01*
X157834494Y-81369463D01*
X157724180Y-81310498D01*
X157604482Y-81274188D01*
X157480000Y-81261928D01*
X155880000Y-81261928D01*
X155755518Y-81274188D01*
X155635820Y-81310498D01*
X155525506Y-81369463D01*
X155428815Y-81448815D01*
X155349463Y-81545506D01*
X155290498Y-81655820D01*
X155254188Y-81775518D01*
X155241928Y-81900000D01*
X112030358Y-81900000D01*
X119772346Y-74158012D01*
X119856021Y-74578674D01*
X120054672Y-75058259D01*
X120343068Y-75489874D01*
X120710126Y-75856932D01*
X121141741Y-76145328D01*
X121621326Y-76343979D01*
X122130451Y-76445250D01*
X122649549Y-76445250D01*
X123158674Y-76343979D01*
X123638259Y-76145328D01*
X124069874Y-75856932D01*
X124436932Y-75489874D01*
X124725328Y-75058259D01*
X124923979Y-74578674D01*
X125025250Y-74069549D01*
X125025250Y-73672408D01*
X156553000Y-73672408D01*
X156553000Y-73947592D01*
X156606686Y-74217490D01*
X156711995Y-74471727D01*
X156864880Y-74700535D01*
X157059465Y-74895120D01*
X157288273Y-75048005D01*
X157542510Y-75153314D01*
X157812408Y-75207000D01*
X158087592Y-75207000D01*
X158357490Y-75153314D01*
X158583231Y-75059809D01*
X160753465Y-77230044D01*
X160764774Y-77286898D01*
X160842795Y-77475256D01*
X160956063Y-77644774D01*
X161100226Y-77788937D01*
X161269744Y-77902205D01*
X161458102Y-77980226D01*
X161658061Y-78020000D01*
X161861939Y-78020000D01*
X162061898Y-77980226D01*
X162250256Y-77902205D01*
X162419774Y-77788937D01*
X162563937Y-77644774D01*
X162677205Y-77475256D01*
X162755226Y-77286898D01*
X162795000Y-77086939D01*
X162795000Y-76883061D01*
X162755226Y-76683102D01*
X162677205Y-76494744D01*
X162563937Y-76325226D01*
X162419774Y-76181063D01*
X162250256Y-76067795D01*
X162061898Y-75989774D01*
X162005044Y-75978465D01*
X159698987Y-73672408D01*
X161633000Y-73672408D01*
X161633000Y-73947592D01*
X161686686Y-74217490D01*
X161791995Y-74471727D01*
X161944880Y-74700535D01*
X162139465Y-74895120D01*
X162368273Y-75048005D01*
X162622510Y-75153314D01*
X162892408Y-75207000D01*
X163167592Y-75207000D01*
X163437490Y-75153314D01*
X163691727Y-75048005D01*
X163920535Y-74895120D01*
X164115120Y-74700535D01*
X164268005Y-74471727D01*
X164373314Y-74217490D01*
X164427000Y-73947592D01*
X164427000Y-73672408D01*
X164373314Y-73402510D01*
X164268005Y-73148273D01*
X164115120Y-72919465D01*
X163920535Y-72724880D01*
X163691727Y-72571995D01*
X163437490Y-72466686D01*
X163167592Y-72413000D01*
X162892408Y-72413000D01*
X162622510Y-72466686D01*
X162368273Y-72571995D01*
X162139465Y-72724880D01*
X161944880Y-72919465D01*
X161791995Y-73148273D01*
X161686686Y-73402510D01*
X161633000Y-73672408D01*
X159698987Y-73672408D01*
X159241534Y-73214956D01*
X159213817Y-73181183D01*
X159195364Y-73166039D01*
X159188005Y-73148273D01*
X159035120Y-72919465D01*
X158840535Y-72724880D01*
X158611727Y-72571995D01*
X158357490Y-72466686D01*
X158087592Y-72413000D01*
X157812408Y-72413000D01*
X157542510Y-72466686D01*
X157288273Y-72571995D01*
X157059465Y-72724880D01*
X156864880Y-72919465D01*
X156711995Y-73148273D01*
X156606686Y-73402510D01*
X156553000Y-73672408D01*
X125025250Y-73672408D01*
X125025250Y-73550451D01*
X124923979Y-73041326D01*
X124725328Y-72561741D01*
X124436932Y-72130126D01*
X124069874Y-71763068D01*
X123638259Y-71474672D01*
X123158674Y-71276021D01*
X122738012Y-71192346D01*
X125337950Y-68592408D01*
X156553000Y-68592408D01*
X156553000Y-68867592D01*
X156606686Y-69137490D01*
X156711995Y-69391727D01*
X156864880Y-69620535D01*
X157059465Y-69815120D01*
X157288273Y-69968005D01*
X157542510Y-70073314D01*
X157812408Y-70127000D01*
X158087592Y-70127000D01*
X158357490Y-70073314D01*
X158611727Y-69968005D01*
X158840535Y-69815120D01*
X158960090Y-69695565D01*
X162244040Y-69695565D01*
X162311020Y-69935656D01*
X162560048Y-70052756D01*
X162827135Y-70119023D01*
X163102017Y-70131910D01*
X163374133Y-70090922D01*
X163633023Y-69997636D01*
X163748980Y-69935656D01*
X163815960Y-69695565D01*
X163030000Y-68909605D01*
X162244040Y-69695565D01*
X158960090Y-69695565D01*
X159035120Y-69620535D01*
X159188005Y-69391727D01*
X159293314Y-69137490D01*
X159347000Y-68867592D01*
X159347000Y-68802017D01*
X161628090Y-68802017D01*
X161669078Y-69074133D01*
X161762364Y-69333023D01*
X161824344Y-69448980D01*
X162064435Y-69515960D01*
X162850395Y-68730000D01*
X163209605Y-68730000D01*
X163995565Y-69515960D01*
X164235656Y-69448980D01*
X164352756Y-69199952D01*
X164419023Y-68932865D01*
X164431910Y-68657983D01*
X164390922Y-68385867D01*
X164297636Y-68126977D01*
X164235656Y-68011020D01*
X163995565Y-67944040D01*
X163209605Y-68730000D01*
X162850395Y-68730000D01*
X162064435Y-67944040D01*
X161824344Y-68011020D01*
X161707244Y-68260048D01*
X161640977Y-68527135D01*
X161628090Y-68802017D01*
X159347000Y-68802017D01*
X159347000Y-68592408D01*
X159293314Y-68322510D01*
X159188005Y-68068273D01*
X159035120Y-67839465D01*
X158960090Y-67764435D01*
X162244040Y-67764435D01*
X163030000Y-68550395D01*
X163815960Y-67764435D01*
X163748980Y-67524344D01*
X163499952Y-67407244D01*
X163232865Y-67340977D01*
X162957983Y-67328090D01*
X162685867Y-67369078D01*
X162426977Y-67462364D01*
X162311020Y-67524344D01*
X162244040Y-67764435D01*
X158960090Y-67764435D01*
X158840535Y-67644880D01*
X158611727Y-67491995D01*
X158357490Y-67386686D01*
X158087592Y-67333000D01*
X157812408Y-67333000D01*
X157542510Y-67386686D01*
X157288273Y-67491995D01*
X157059465Y-67644880D01*
X156864880Y-67839465D01*
X156711995Y-68068273D01*
X156606686Y-68322510D01*
X156553000Y-68592408D01*
X125337950Y-68592408D01*
X130417950Y-63512408D01*
X156553000Y-63512408D01*
X156553000Y-63787592D01*
X156606686Y-64057490D01*
X156711995Y-64311727D01*
X156864880Y-64540535D01*
X157059465Y-64735120D01*
X157288273Y-64888005D01*
X157542510Y-64993314D01*
X157812408Y-65047000D01*
X158087592Y-65047000D01*
X158357490Y-64993314D01*
X158611727Y-64888005D01*
X158840535Y-64735120D01*
X159035120Y-64540535D01*
X159188005Y-64311727D01*
X159293314Y-64057490D01*
X159347000Y-63787592D01*
X159347000Y-63512408D01*
X161633000Y-63512408D01*
X161633000Y-63787592D01*
X161686686Y-64057490D01*
X161791995Y-64311727D01*
X161944880Y-64540535D01*
X162139465Y-64735120D01*
X162368273Y-64888005D01*
X162622510Y-64993314D01*
X162892408Y-65047000D01*
X163167592Y-65047000D01*
X163437490Y-64993314D01*
X163691727Y-64888005D01*
X163920535Y-64735120D01*
X164115120Y-64540535D01*
X164268005Y-64311727D01*
X164373314Y-64057490D01*
X164427000Y-63787592D01*
X164427000Y-63512408D01*
X164373314Y-63242510D01*
X164268005Y-62988273D01*
X164115120Y-62759465D01*
X163920535Y-62564880D01*
X163691727Y-62411995D01*
X163437490Y-62306686D01*
X163167592Y-62253000D01*
X162892408Y-62253000D01*
X162622510Y-62306686D01*
X162368273Y-62411995D01*
X162139465Y-62564880D01*
X161944880Y-62759465D01*
X161791995Y-62988273D01*
X161686686Y-63242510D01*
X161633000Y-63512408D01*
X159347000Y-63512408D01*
X159293314Y-63242510D01*
X159188005Y-62988273D01*
X159035120Y-62759465D01*
X158840535Y-62564880D01*
X158611727Y-62411995D01*
X158357490Y-62306686D01*
X158087592Y-62253000D01*
X157812408Y-62253000D01*
X157542510Y-62306686D01*
X157288273Y-62411995D01*
X157059465Y-62564880D01*
X156864880Y-62759465D01*
X156711995Y-62988273D01*
X156606686Y-63242510D01*
X156553000Y-63512408D01*
X130417950Y-63512408D01*
X134475359Y-59455000D01*
X193143422Y-59455000D01*
X200758465Y-67070044D01*
X200769774Y-67126898D01*
X200847795Y-67315256D01*
X200961063Y-67484774D01*
X201105226Y-67628937D01*
X201274744Y-67742205D01*
X201463102Y-67820226D01*
X201663061Y-67860000D01*
X201866939Y-67860000D01*
X202066898Y-67820226D01*
X202255256Y-67742205D01*
X202424774Y-67628937D01*
X202568937Y-67484774D01*
X202682205Y-67315256D01*
X202760226Y-67126898D01*
X202800000Y-66926939D01*
X202800000Y-66723061D01*
X202760226Y-66523102D01*
X202682205Y-66334744D01*
X202568937Y-66165226D01*
X202424774Y-66021063D01*
X202255256Y-65907795D01*
X202066898Y-65829774D01*
X202010044Y-65818465D01*
X194429174Y-58237595D01*
X204568282Y-58237595D01*
X204612039Y-58556675D01*
X204717205Y-58861088D01*
X204810186Y-59035044D01*
X205074587Y-59130808D01*
X206030395Y-58175000D01*
X206389605Y-58175000D01*
X207345413Y-59130808D01*
X207609814Y-59035044D01*
X207750704Y-58745429D01*
X207832384Y-58433892D01*
X207851718Y-58112405D01*
X207807961Y-57793325D01*
X207702795Y-57488912D01*
X207609814Y-57314956D01*
X207345413Y-57219192D01*
X206389605Y-58175000D01*
X206030395Y-58175000D01*
X205074587Y-57219192D01*
X204810186Y-57314956D01*
X204669296Y-57604571D01*
X204587616Y-57916108D01*
X204568282Y-58237595D01*
X194429174Y-58237595D01*
X194166534Y-57974956D01*
X194138817Y-57941183D01*
X194004059Y-57830589D01*
X193850313Y-57748411D01*
X193683490Y-57697805D01*
X193553477Y-57685000D01*
X193553469Y-57685000D01*
X193510000Y-57680719D01*
X193466531Y-57685000D01*
X134152246Y-57685000D01*
X134108779Y-57680719D01*
X134065313Y-57685000D01*
X134065303Y-57685000D01*
X133935290Y-57697805D01*
X133768467Y-57748411D01*
X133614721Y-57830589D01*
X133614719Y-57830590D01*
X133614720Y-57830590D01*
X133513733Y-57913468D01*
X133513731Y-57913470D01*
X133479963Y-57941183D01*
X133452250Y-57974951D01*
X125025250Y-66401951D01*
X125025250Y-65930451D01*
X124923979Y-65421326D01*
X124725328Y-64941741D01*
X124436932Y-64510126D01*
X124069874Y-64143068D01*
X123638259Y-63854672D01*
X123158674Y-63656021D01*
X122649549Y-63554750D01*
X122130451Y-63554750D01*
X121621326Y-63656021D01*
X121141741Y-63854672D01*
X120710126Y-64143068D01*
X120343068Y-64510126D01*
X120054672Y-64941741D01*
X119856021Y-65421326D01*
X119754750Y-65930451D01*
X119754750Y-66449549D01*
X119856021Y-66958674D01*
X120054672Y-67438259D01*
X120343068Y-67869874D01*
X120710126Y-68236932D01*
X121141741Y-68525328D01*
X121621326Y-68723979D01*
X122130451Y-68825250D01*
X122601951Y-68825250D01*
X99468885Y-91958317D01*
X99325328Y-91611741D01*
X99036932Y-91180126D01*
X98669874Y-90813068D01*
X98238259Y-90524672D01*
X97758674Y-90326021D01*
X97249549Y-90224750D01*
X96730451Y-90224750D01*
X96221326Y-90326021D01*
X95741741Y-90524672D01*
X95310126Y-90813068D01*
X94943068Y-91180126D01*
X94654672Y-91611741D01*
X94456021Y-92091326D01*
X94354750Y-92600451D01*
X88195250Y-92600451D01*
X88093979Y-92091326D01*
X87895328Y-91611741D01*
X87606932Y-91180126D01*
X87239874Y-90813068D01*
X86808259Y-90524672D01*
X86328674Y-90326021D01*
X85819549Y-90224750D01*
X85300451Y-90224750D01*
X84791326Y-90326021D01*
X84311741Y-90524672D01*
X83880126Y-90813068D01*
X83513068Y-91180126D01*
X83224672Y-91611741D01*
X83026021Y-92091326D01*
X82924750Y-92600451D01*
X56477000Y-92600451D01*
X56477000Y-84980451D01*
X88639750Y-84980451D01*
X88639750Y-85499549D01*
X88741021Y-86008674D01*
X88939672Y-86488259D01*
X89228068Y-86919874D01*
X89595126Y-87286932D01*
X90026741Y-87575328D01*
X90506326Y-87773979D01*
X91015451Y-87875250D01*
X91534549Y-87875250D01*
X92043674Y-87773979D01*
X92523259Y-87575328D01*
X92954874Y-87286932D01*
X93321932Y-86919874D01*
X93610328Y-86488259D01*
X93808979Y-86008674D01*
X93910250Y-85499549D01*
X93910250Y-84980451D01*
X93808979Y-84471326D01*
X93610328Y-83991741D01*
X93321932Y-83560126D01*
X92954874Y-83193068D01*
X92523259Y-82904672D01*
X92043674Y-82706021D01*
X91534549Y-82604750D01*
X91015451Y-82604750D01*
X90506326Y-82706021D01*
X90026741Y-82904672D01*
X89595126Y-83193068D01*
X89228068Y-83560126D01*
X88939672Y-83991741D01*
X88741021Y-84471326D01*
X88639750Y-84980451D01*
X56477000Y-84980451D01*
X56477000Y-74185451D01*
X82924750Y-74185451D01*
X82924750Y-74704549D01*
X83026021Y-75213674D01*
X83224672Y-75693259D01*
X83513068Y-76124874D01*
X83880126Y-76491932D01*
X84311741Y-76780328D01*
X84791326Y-76978979D01*
X85300451Y-77080250D01*
X85819549Y-77080250D01*
X86328674Y-76978979D01*
X86808259Y-76780328D01*
X87239874Y-76491932D01*
X87606932Y-76124874D01*
X87895328Y-75693259D01*
X88093979Y-75213674D01*
X88195250Y-74704549D01*
X88195250Y-74185451D01*
X94354750Y-74185451D01*
X94354750Y-74704549D01*
X94456021Y-75213674D01*
X94654672Y-75693259D01*
X94943068Y-76124874D01*
X95310126Y-76491932D01*
X95741741Y-76780328D01*
X96221326Y-76978979D01*
X96730451Y-77080250D01*
X97249549Y-77080250D01*
X97758674Y-76978979D01*
X98238259Y-76780328D01*
X98669874Y-76491932D01*
X99036932Y-76124874D01*
X99325328Y-75693259D01*
X99523979Y-75213674D01*
X99625250Y-74704549D01*
X99625250Y-74185451D01*
X99523979Y-73676326D01*
X99325328Y-73196741D01*
X99036932Y-72765126D01*
X98669874Y-72398068D01*
X98238259Y-72109672D01*
X97758674Y-71911021D01*
X97249549Y-71809750D01*
X96730451Y-71809750D01*
X96221326Y-71911021D01*
X95741741Y-72109672D01*
X95310126Y-72398068D01*
X94943068Y-72765126D01*
X94654672Y-73196741D01*
X94456021Y-73676326D01*
X94354750Y-74185451D01*
X88195250Y-74185451D01*
X88093979Y-73676326D01*
X87895328Y-73196741D01*
X87606932Y-72765126D01*
X87239874Y-72398068D01*
X86808259Y-72109672D01*
X86328674Y-71911021D01*
X85819549Y-71809750D01*
X85300451Y-71809750D01*
X84791326Y-71911021D01*
X84311741Y-72109672D01*
X83880126Y-72398068D01*
X83513068Y-72765126D01*
X83224672Y-73196741D01*
X83026021Y-73676326D01*
X82924750Y-74185451D01*
X56477000Y-74185451D01*
X56477000Y-66565451D01*
X88639750Y-66565451D01*
X88639750Y-67084549D01*
X88741021Y-67593674D01*
X88939672Y-68073259D01*
X89228068Y-68504874D01*
X89595126Y-68871932D01*
X90026741Y-69160328D01*
X90506326Y-69358979D01*
X91015451Y-69460250D01*
X91534549Y-69460250D01*
X92043674Y-69358979D01*
X92523259Y-69160328D01*
X92954874Y-68871932D01*
X93321932Y-68504874D01*
X93610328Y-68073259D01*
X93808979Y-67593674D01*
X93910250Y-67084549D01*
X93910250Y-66565451D01*
X93808979Y-66056326D01*
X93610328Y-65576741D01*
X93321932Y-65145126D01*
X92954874Y-64778068D01*
X92523259Y-64489672D01*
X92043674Y-64291021D01*
X91534549Y-64189750D01*
X91015451Y-64189750D01*
X90506326Y-64291021D01*
X90026741Y-64489672D01*
X89595126Y-64778068D01*
X89228068Y-65145126D01*
X88939672Y-65576741D01*
X88741021Y-66056326D01*
X88639750Y-66565451D01*
X56477000Y-66565451D01*
X56477000Y-61485451D01*
X103244750Y-61485451D01*
X103244750Y-62004549D01*
X103346021Y-62513674D01*
X103544672Y-62993259D01*
X103833068Y-63424874D01*
X104200126Y-63791932D01*
X104631741Y-64080328D01*
X105111326Y-64278979D01*
X105620451Y-64380250D01*
X106139549Y-64380250D01*
X106648674Y-64278979D01*
X107128259Y-64080328D01*
X107559874Y-63791932D01*
X107926932Y-63424874D01*
X108215328Y-62993259D01*
X108413979Y-62513674D01*
X108515250Y-62004549D01*
X108515250Y-61485451D01*
X108413979Y-60976326D01*
X108215328Y-60496741D01*
X107926932Y-60065126D01*
X107559874Y-59698068D01*
X107128259Y-59409672D01*
X106648674Y-59211021D01*
X106139549Y-59109750D01*
X105620451Y-59109750D01*
X105111326Y-59211021D01*
X104631741Y-59409672D01*
X104200126Y-59698068D01*
X103833068Y-60065126D01*
X103544672Y-60496741D01*
X103346021Y-60976326D01*
X103244750Y-61485451D01*
X56477000Y-61485451D01*
X56477000Y-54887000D01*
X62700000Y-54887000D01*
X62724776Y-54884560D01*
X62748601Y-54877333D01*
X62770557Y-54865597D01*
X62789803Y-54849803D01*
X62805597Y-54830557D01*
X62817333Y-54808601D01*
X62824560Y-54784776D01*
X62827000Y-54760000D01*
X62827000Y-53865451D01*
X103244750Y-53865451D01*
X103244750Y-54384549D01*
X103346021Y-54893674D01*
X103544672Y-55373259D01*
X103833068Y-55804874D01*
X104200126Y-56171932D01*
X104631741Y-56460328D01*
X105111326Y-56658979D01*
X105620451Y-56760250D01*
X106139549Y-56760250D01*
X106648674Y-56658979D01*
X107128259Y-56460328D01*
X107559874Y-56171932D01*
X107926932Y-55804874D01*
X108121309Y-55513967D01*
X204575000Y-55513967D01*
X204575000Y-55836033D01*
X204637832Y-56151912D01*
X204761082Y-56449463D01*
X204940013Y-56717252D01*
X205167748Y-56944987D01*
X205264935Y-57009925D01*
X205254192Y-57039587D01*
X206210000Y-57995395D01*
X207165808Y-57039587D01*
X207155065Y-57009925D01*
X207252252Y-56944987D01*
X207479987Y-56717252D01*
X207658918Y-56449463D01*
X207782168Y-56151912D01*
X207845000Y-55836033D01*
X207845000Y-55513967D01*
X207782168Y-55198088D01*
X207658918Y-54900537D01*
X207479987Y-54632748D01*
X207252252Y-54405013D01*
X206984463Y-54226082D01*
X206686912Y-54102832D01*
X206371033Y-54040000D01*
X206048967Y-54040000D01*
X205733088Y-54102832D01*
X205435537Y-54226082D01*
X205167748Y-54405013D01*
X204940013Y-54632748D01*
X204761082Y-54900537D01*
X204637832Y-55198088D01*
X204575000Y-55513967D01*
X108121309Y-55513967D01*
X108215328Y-55373259D01*
X108413979Y-54893674D01*
X108515250Y-54384549D01*
X108515250Y-53865451D01*
X108413979Y-53356326D01*
X108215328Y-52876741D01*
X107926932Y-52445126D01*
X107559874Y-52078068D01*
X107128259Y-51789672D01*
X106648674Y-51591021D01*
X106139549Y-51489750D01*
X105620451Y-51489750D01*
X105111326Y-51591021D01*
X104631741Y-51789672D01*
X104200126Y-52078068D01*
X103833068Y-52445126D01*
X103544672Y-52876741D01*
X103346021Y-53356326D01*
X103244750Y-53865451D01*
X62827000Y-53865451D01*
X62827000Y-48537000D01*
X207988000Y-48537000D01*
X207988000Y-54125000D01*
M02*
