G04 #@! TF.GenerationSoftware,KiCad,Pcbnew,(5.1.5)-3*
G04 #@! TF.CreationDate,2020-04-06T18:20:06+01:00*
G04 #@! TF.ProjectId,SafeBoard,53616665-426f-4617-9264-2e6b69636164,rev?*
G04 #@! TF.SameCoordinates,Original*
G04 #@! TF.FileFunction,Legend,Top*
G04 #@! TF.FilePolarity,Positive*
%FSLAX46Y46*%
G04 Gerber Fmt 4.6, Leading zero omitted, Abs format (unit mm)*
G04 Created by KiCad (PCBNEW (5.1.5)-3) date 2020-04-06 18:20:06*
%MOMM*%
%LPD*%
G04 APERTURE LIST*
%ADD10C,0.150000*%
%ADD11C,0.120000*%
G04 APERTURE END LIST*
D10*
X194349080Y-139959480D02*
X194349080Y-138959480D01*
X194777652Y-139911861D02*
X194872890Y-139959480D01*
X195063366Y-139959480D01*
X195158604Y-139911861D01*
X195206223Y-139816623D01*
X195206223Y-139769004D01*
X195158604Y-139673766D01*
X195063366Y-139626147D01*
X194920509Y-139626147D01*
X194825271Y-139578528D01*
X194777652Y-139483290D01*
X194777652Y-139435671D01*
X194825271Y-139340433D01*
X194920509Y-139292814D01*
X195063366Y-139292814D01*
X195158604Y-139340433D01*
X195587176Y-139911861D02*
X195682414Y-139959480D01*
X195872890Y-139959480D01*
X195968128Y-139911861D01*
X196015747Y-139816623D01*
X196015747Y-139769004D01*
X195968128Y-139673766D01*
X195872890Y-139626147D01*
X195730033Y-139626147D01*
X195634795Y-139578528D01*
X195587176Y-139483290D01*
X195587176Y-139435671D01*
X195634795Y-139340433D01*
X195730033Y-139292814D01*
X195872890Y-139292814D01*
X195968128Y-139340433D01*
X196872890Y-139292814D02*
X196872890Y-139959480D01*
X196444319Y-139292814D02*
X196444319Y-139816623D01*
X196491938Y-139911861D01*
X196587176Y-139959480D01*
X196730033Y-139959480D01*
X196825271Y-139911861D01*
X196872890Y-139864242D01*
X197730033Y-139911861D02*
X197634795Y-139959480D01*
X197444319Y-139959480D01*
X197349080Y-139911861D01*
X197301461Y-139816623D01*
X197301461Y-139435671D01*
X197349080Y-139340433D01*
X197444319Y-139292814D01*
X197634795Y-139292814D01*
X197730033Y-139340433D01*
X197777652Y-139435671D01*
X197777652Y-139530909D01*
X197301461Y-139626147D01*
X198634795Y-139959480D02*
X198634795Y-138959480D01*
X198634795Y-139911861D02*
X198539557Y-139959480D01*
X198349080Y-139959480D01*
X198253842Y-139911861D01*
X198206223Y-139864242D01*
X198158604Y-139769004D01*
X198158604Y-139483290D01*
X198206223Y-139388052D01*
X198253842Y-139340433D01*
X198349080Y-139292814D01*
X198539557Y-139292814D01*
X198634795Y-139340433D01*
X199110985Y-139864242D02*
X199158604Y-139911861D01*
X199110985Y-139959480D01*
X199063366Y-139911861D01*
X199110985Y-139864242D01*
X199110985Y-139959480D01*
X199110985Y-139340433D02*
X199158604Y-139388052D01*
X199110985Y-139435671D01*
X199063366Y-139388052D01*
X199110985Y-139340433D01*
X199110985Y-139435671D01*
X200539557Y-138959480D02*
X200634795Y-138959480D01*
X200730033Y-139007100D01*
X200777652Y-139054719D01*
X200825271Y-139149957D01*
X200872890Y-139340433D01*
X200872890Y-139578528D01*
X200825271Y-139769004D01*
X200777652Y-139864242D01*
X200730033Y-139911861D01*
X200634795Y-139959480D01*
X200539557Y-139959480D01*
X200444319Y-139911861D01*
X200396700Y-139864242D01*
X200349080Y-139769004D01*
X200301461Y-139578528D01*
X200301461Y-139340433D01*
X200349080Y-139149957D01*
X200396700Y-139054719D01*
X200444319Y-139007100D01*
X200539557Y-138959480D01*
X201730033Y-138959480D02*
X201539557Y-138959480D01*
X201444319Y-139007100D01*
X201396700Y-139054719D01*
X201301461Y-139197576D01*
X201253842Y-139388052D01*
X201253842Y-139769004D01*
X201301461Y-139864242D01*
X201349080Y-139911861D01*
X201444319Y-139959480D01*
X201634795Y-139959480D01*
X201730033Y-139911861D01*
X201777652Y-139864242D01*
X201825271Y-139769004D01*
X201825271Y-139530909D01*
X201777652Y-139435671D01*
X201730033Y-139388052D01*
X201634795Y-139340433D01*
X201444319Y-139340433D01*
X201349080Y-139388052D01*
X201301461Y-139435671D01*
X201253842Y-139530909D01*
X202253842Y-139864242D02*
X202301461Y-139911861D01*
X202253842Y-139959480D01*
X202206223Y-139911861D01*
X202253842Y-139864242D01*
X202253842Y-139959480D01*
X202920509Y-138959480D02*
X203015747Y-138959480D01*
X203110985Y-139007100D01*
X203158604Y-139054719D01*
X203206223Y-139149957D01*
X203253842Y-139340433D01*
X203253842Y-139578528D01*
X203206223Y-139769004D01*
X203158604Y-139864242D01*
X203110985Y-139911861D01*
X203015747Y-139959480D01*
X202920509Y-139959480D01*
X202825271Y-139911861D01*
X202777652Y-139864242D01*
X202730033Y-139769004D01*
X202682414Y-139578528D01*
X202682414Y-139340433D01*
X202730033Y-139149957D01*
X202777652Y-139054719D01*
X202825271Y-139007100D01*
X202920509Y-138959480D01*
X204110985Y-139292814D02*
X204110985Y-139959480D01*
X203872890Y-138911861D02*
X203634795Y-139626147D01*
X204253842Y-139626147D01*
X204634795Y-139864242D02*
X204682414Y-139911861D01*
X204634795Y-139959480D01*
X204587176Y-139911861D01*
X204634795Y-139864242D01*
X204634795Y-139959480D01*
X205063366Y-139054719D02*
X205110985Y-139007100D01*
X205206223Y-138959480D01*
X205444319Y-138959480D01*
X205539557Y-139007100D01*
X205587176Y-139054719D01*
X205634795Y-139149957D01*
X205634795Y-139245195D01*
X205587176Y-139388052D01*
X205015747Y-139959480D01*
X205634795Y-139959480D01*
X206253842Y-138959480D02*
X206349080Y-138959480D01*
X206444319Y-139007100D01*
X206491938Y-139054719D01*
X206539557Y-139149957D01*
X206587176Y-139340433D01*
X206587176Y-139578528D01*
X206539557Y-139769004D01*
X206491938Y-139864242D01*
X206444319Y-139911861D01*
X206349080Y-139959480D01*
X206253842Y-139959480D01*
X206158604Y-139911861D01*
X206110985Y-139864242D01*
X206063366Y-139769004D01*
X206015747Y-139578528D01*
X206015747Y-139340433D01*
X206063366Y-139149957D01*
X206110985Y-139054719D01*
X206158604Y-139007100D01*
X206253842Y-138959480D01*
X206968128Y-139054719D02*
X207015747Y-139007100D01*
X207110985Y-138959480D01*
X207349080Y-138959480D01*
X207444319Y-139007100D01*
X207491938Y-139054719D01*
X207539557Y-139149957D01*
X207539557Y-139245195D01*
X207491938Y-139388052D01*
X206920509Y-139959480D01*
X207539557Y-139959480D01*
X208158604Y-138959480D02*
X208253842Y-138959480D01*
X208349080Y-139007100D01*
X208396699Y-139054719D01*
X208444319Y-139149957D01*
X208491938Y-139340433D01*
X208491938Y-139578528D01*
X208444319Y-139769004D01*
X208396699Y-139864242D01*
X208349080Y-139911861D01*
X208253842Y-139959480D01*
X208158604Y-139959480D01*
X208063366Y-139911861D01*
X208015747Y-139864242D01*
X207968128Y-139769004D01*
X207920509Y-139578528D01*
X207920509Y-139340433D01*
X207968128Y-139149957D01*
X208015747Y-139054719D01*
X208063366Y-139007100D01*
X208158604Y-138959480D01*
X196052376Y-50770561D02*
X196195233Y-50818180D01*
X196433328Y-50818180D01*
X196528566Y-50770561D01*
X196576185Y-50722942D01*
X196623804Y-50627704D01*
X196623804Y-50532466D01*
X196576185Y-50437228D01*
X196528566Y-50389609D01*
X196433328Y-50341990D01*
X196242852Y-50294371D01*
X196147614Y-50246752D01*
X196099995Y-50199133D01*
X196052376Y-50103895D01*
X196052376Y-50008657D01*
X196099995Y-49913419D01*
X196147614Y-49865800D01*
X196242852Y-49818180D01*
X196480947Y-49818180D01*
X196623804Y-49865800D01*
X197480947Y-50818180D02*
X197480947Y-50294371D01*
X197433328Y-50199133D01*
X197338090Y-50151514D01*
X197147614Y-50151514D01*
X197052376Y-50199133D01*
X197480947Y-50770561D02*
X197385709Y-50818180D01*
X197147614Y-50818180D01*
X197052376Y-50770561D01*
X197004757Y-50675323D01*
X197004757Y-50580085D01*
X197052376Y-50484847D01*
X197147614Y-50437228D01*
X197385709Y-50437228D01*
X197480947Y-50389609D01*
X197814280Y-50151514D02*
X198195233Y-50151514D01*
X197957138Y-50818180D02*
X197957138Y-49961038D01*
X198004757Y-49865800D01*
X198099995Y-49818180D01*
X198195233Y-49818180D01*
X198909519Y-50770561D02*
X198814280Y-50818180D01*
X198623804Y-50818180D01*
X198528566Y-50770561D01*
X198480947Y-50675323D01*
X198480947Y-50294371D01*
X198528566Y-50199133D01*
X198623804Y-50151514D01*
X198814280Y-50151514D01*
X198909519Y-50199133D01*
X198957138Y-50294371D01*
X198957138Y-50389609D01*
X198480947Y-50484847D01*
X200099995Y-50770561D02*
X200242852Y-50818180D01*
X200480947Y-50818180D01*
X200576185Y-50770561D01*
X200623804Y-50722942D01*
X200671423Y-50627704D01*
X200671423Y-50532466D01*
X200623804Y-50437228D01*
X200576185Y-50389609D01*
X200480947Y-50341990D01*
X200290471Y-50294371D01*
X200195233Y-50246752D01*
X200147614Y-50199133D01*
X200099995Y-50103895D01*
X200099995Y-50008657D01*
X200147614Y-49913419D01*
X200195233Y-49865800D01*
X200290471Y-49818180D01*
X200528566Y-49818180D01*
X200671423Y-49865800D01*
X200957138Y-50151514D02*
X201338090Y-50151514D01*
X201099995Y-49818180D02*
X201099995Y-50675323D01*
X201147614Y-50770561D01*
X201242852Y-50818180D01*
X201338090Y-50818180D01*
X202099995Y-50818180D02*
X202099995Y-50294371D01*
X202052376Y-50199133D01*
X201957138Y-50151514D01*
X201766661Y-50151514D01*
X201671423Y-50199133D01*
X202099995Y-50770561D02*
X202004757Y-50818180D01*
X201766661Y-50818180D01*
X201671423Y-50770561D01*
X201623804Y-50675323D01*
X201623804Y-50580085D01*
X201671423Y-50484847D01*
X201766661Y-50437228D01*
X202004757Y-50437228D01*
X202099995Y-50389609D01*
X202433328Y-50151514D02*
X202814280Y-50151514D01*
X202576185Y-49818180D02*
X202576185Y-50675323D01*
X202623804Y-50770561D01*
X202719042Y-50818180D01*
X202814280Y-50818180D01*
X203528566Y-50770561D02*
X203433328Y-50818180D01*
X203242852Y-50818180D01*
X203147614Y-50770561D01*
X203099995Y-50675323D01*
X203099995Y-50294371D01*
X203147614Y-50199133D01*
X203242852Y-50151514D01*
X203433328Y-50151514D01*
X203528566Y-50199133D01*
X203576185Y-50294371D01*
X203576185Y-50389609D01*
X203099995Y-50484847D01*
X205099995Y-50294371D02*
X205242852Y-50341990D01*
X205290471Y-50389609D01*
X205338090Y-50484847D01*
X205338090Y-50627704D01*
X205290471Y-50722942D01*
X205242852Y-50770561D01*
X205147614Y-50818180D01*
X204766661Y-50818180D01*
X204766661Y-49818180D01*
X205099995Y-49818180D01*
X205195233Y-49865800D01*
X205242852Y-49913419D01*
X205290471Y-50008657D01*
X205290471Y-50103895D01*
X205242852Y-50199133D01*
X205195233Y-50246752D01*
X205099995Y-50294371D01*
X204766661Y-50294371D01*
X205909519Y-50818180D02*
X205814280Y-50770561D01*
X205766661Y-50722942D01*
X205719042Y-50627704D01*
X205719042Y-50341990D01*
X205766661Y-50246752D01*
X205814280Y-50199133D01*
X205909519Y-50151514D01*
X206052376Y-50151514D01*
X206147614Y-50199133D01*
X206195233Y-50246752D01*
X206242852Y-50341990D01*
X206242852Y-50627704D01*
X206195233Y-50722942D01*
X206147614Y-50770561D01*
X206052376Y-50818180D01*
X205909519Y-50818180D01*
X207099995Y-50818180D02*
X207099995Y-50294371D01*
X207052376Y-50199133D01*
X206957138Y-50151514D01*
X206766661Y-50151514D01*
X206671423Y-50199133D01*
X207099995Y-50770561D02*
X207004757Y-50818180D01*
X206766661Y-50818180D01*
X206671423Y-50770561D01*
X206623804Y-50675323D01*
X206623804Y-50580085D01*
X206671423Y-50484847D01*
X206766661Y-50437228D01*
X207004757Y-50437228D01*
X207099995Y-50389609D01*
X207576185Y-50818180D02*
X207576185Y-50151514D01*
X207576185Y-50341990D02*
X207623804Y-50246752D01*
X207671423Y-50199133D01*
X207766661Y-50151514D01*
X207861900Y-50151514D01*
X208623804Y-50818180D02*
X208623804Y-49818180D01*
X208623804Y-50770561D02*
X208528566Y-50818180D01*
X208338090Y-50818180D01*
X208242852Y-50770561D01*
X208195233Y-50722942D01*
X208147614Y-50627704D01*
X208147614Y-50341990D01*
X208195233Y-50246752D01*
X208242852Y-50199133D01*
X208338090Y-50151514D01*
X208528566Y-50151514D01*
X208623804Y-50199133D01*
X63657561Y-51376980D02*
X63657561Y-50376980D01*
X63895657Y-50376980D01*
X64038514Y-50424600D01*
X64133752Y-50519838D01*
X64181371Y-50615076D01*
X64228990Y-50805552D01*
X64228990Y-50948409D01*
X64181371Y-51138885D01*
X64133752Y-51234123D01*
X64038514Y-51329361D01*
X63895657Y-51376980D01*
X63657561Y-51376980D01*
X65086133Y-50710314D02*
X65086133Y-51376980D01*
X64657561Y-50710314D02*
X64657561Y-51234123D01*
X64705180Y-51329361D01*
X64800419Y-51376980D01*
X64943276Y-51376980D01*
X65038514Y-51329361D01*
X65086133Y-51281742D01*
X65562323Y-51376980D02*
X65562323Y-50710314D01*
X65562323Y-50900790D02*
X65609942Y-50805552D01*
X65657561Y-50757933D01*
X65752800Y-50710314D01*
X65848038Y-50710314D01*
X66181371Y-51376980D02*
X66181371Y-50376980D01*
X66609942Y-51376980D02*
X66609942Y-50853171D01*
X66562323Y-50757933D01*
X66467085Y-50710314D01*
X66324228Y-50710314D01*
X66228990Y-50757933D01*
X66181371Y-50805552D01*
X67514704Y-51376980D02*
X67514704Y-50853171D01*
X67467085Y-50757933D01*
X67371847Y-50710314D01*
X67181371Y-50710314D01*
X67086133Y-50757933D01*
X67514704Y-51329361D02*
X67419466Y-51376980D01*
X67181371Y-51376980D01*
X67086133Y-51329361D01*
X67038514Y-51234123D01*
X67038514Y-51138885D01*
X67086133Y-51043647D01*
X67181371Y-50996028D01*
X67419466Y-50996028D01*
X67514704Y-50948409D01*
X67990895Y-51376980D02*
X67990895Y-50710314D01*
X67990895Y-50805552D02*
X68038514Y-50757933D01*
X68133752Y-50710314D01*
X68276609Y-50710314D01*
X68371847Y-50757933D01*
X68419466Y-50853171D01*
X68419466Y-51376980D01*
X68419466Y-50853171D02*
X68467085Y-50757933D01*
X68562323Y-50710314D01*
X68705180Y-50710314D01*
X68800419Y-50757933D01*
X68848038Y-50853171D01*
X68848038Y-51376980D01*
X70086133Y-50376980D02*
X70086133Y-51186504D01*
X70133752Y-51281742D01*
X70181371Y-51329361D01*
X70276609Y-51376980D01*
X70467085Y-51376980D01*
X70562323Y-51329361D01*
X70609942Y-51281742D01*
X70657561Y-51186504D01*
X70657561Y-50376980D01*
X71133752Y-50710314D02*
X71133752Y-51376980D01*
X71133752Y-50805552D02*
X71181371Y-50757933D01*
X71276609Y-50710314D01*
X71419466Y-50710314D01*
X71514704Y-50757933D01*
X71562323Y-50853171D01*
X71562323Y-51376980D01*
X72038514Y-51376980D02*
X72038514Y-50710314D01*
X72038514Y-50376980D02*
X71990895Y-50424600D01*
X72038514Y-50472219D01*
X72086133Y-50424600D01*
X72038514Y-50376980D01*
X72038514Y-50472219D01*
X72419466Y-50710314D02*
X72657561Y-51376980D01*
X72895657Y-50710314D01*
X73657561Y-51329361D02*
X73562323Y-51376980D01*
X73371847Y-51376980D01*
X73276609Y-51329361D01*
X73228990Y-51234123D01*
X73228990Y-50853171D01*
X73276609Y-50757933D01*
X73371847Y-50710314D01*
X73562323Y-50710314D01*
X73657561Y-50757933D01*
X73705180Y-50853171D01*
X73705180Y-50948409D01*
X73228990Y-51043647D01*
X74133752Y-51376980D02*
X74133752Y-50710314D01*
X74133752Y-50900790D02*
X74181371Y-50805552D01*
X74228990Y-50757933D01*
X74324228Y-50710314D01*
X74419466Y-50710314D01*
X74705180Y-51329361D02*
X74800419Y-51376980D01*
X74990895Y-51376980D01*
X75086133Y-51329361D01*
X75133752Y-51234123D01*
X75133752Y-51186504D01*
X75086133Y-51091266D01*
X74990895Y-51043647D01*
X74848038Y-51043647D01*
X74752800Y-50996028D01*
X74705180Y-50900790D01*
X74705180Y-50853171D01*
X74752800Y-50757933D01*
X74848038Y-50710314D01*
X74990895Y-50710314D01*
X75086133Y-50757933D01*
X75562323Y-51376980D02*
X75562323Y-50710314D01*
X75562323Y-50376980D02*
X75514704Y-50424600D01*
X75562323Y-50472219D01*
X75609942Y-50424600D01*
X75562323Y-50376980D01*
X75562323Y-50472219D01*
X75895657Y-50710314D02*
X76276609Y-50710314D01*
X76038514Y-50376980D02*
X76038514Y-51234123D01*
X76086133Y-51329361D01*
X76181371Y-51376980D01*
X76276609Y-51376980D01*
X76514704Y-50710314D02*
X76752800Y-51376980D01*
X76990895Y-50710314D02*
X76752800Y-51376980D01*
X76657561Y-51615076D01*
X76609942Y-51662695D01*
X76514704Y-51710314D01*
X78133752Y-50853171D02*
X78467085Y-50853171D01*
X78609942Y-51376980D02*
X78133752Y-51376980D01*
X78133752Y-50376980D01*
X78609942Y-50376980D01*
X79181371Y-51376980D02*
X79086133Y-51329361D01*
X79038514Y-51234123D01*
X79038514Y-50376980D01*
X79943276Y-51329361D02*
X79848038Y-51376980D01*
X79657561Y-51376980D01*
X79562323Y-51329361D01*
X79514704Y-51234123D01*
X79514704Y-50853171D01*
X79562323Y-50757933D01*
X79657561Y-50710314D01*
X79848038Y-50710314D01*
X79943276Y-50757933D01*
X79990895Y-50853171D01*
X79990895Y-50948409D01*
X79514704Y-51043647D01*
X80848038Y-51329361D02*
X80752800Y-51376980D01*
X80562323Y-51376980D01*
X80467085Y-51329361D01*
X80419466Y-51281742D01*
X80371847Y-51186504D01*
X80371847Y-50900790D01*
X80419466Y-50805552D01*
X80467085Y-50757933D01*
X80562323Y-50710314D01*
X80752800Y-50710314D01*
X80848038Y-50757933D01*
X81133752Y-50710314D02*
X81514704Y-50710314D01*
X81276609Y-50376980D02*
X81276609Y-51234123D01*
X81324228Y-51329361D01*
X81419466Y-51376980D01*
X81514704Y-51376980D01*
X81848038Y-51376980D02*
X81848038Y-50710314D01*
X81848038Y-50900790D02*
X81895657Y-50805552D01*
X81943276Y-50757933D01*
X82038514Y-50710314D01*
X82133752Y-50710314D01*
X82609942Y-51376980D02*
X82514704Y-51329361D01*
X82467085Y-51281742D01*
X82419466Y-51186504D01*
X82419466Y-50900790D01*
X82467085Y-50805552D01*
X82514704Y-50757933D01*
X82609942Y-50710314D01*
X82752800Y-50710314D01*
X82848038Y-50757933D01*
X82895657Y-50805552D01*
X82943276Y-50900790D01*
X82943276Y-51186504D01*
X82895657Y-51281742D01*
X82848038Y-51329361D01*
X82752800Y-51376980D01*
X82609942Y-51376980D01*
X83371847Y-50710314D02*
X83371847Y-51376980D01*
X83371847Y-50805552D02*
X83419466Y-50757933D01*
X83514704Y-50710314D01*
X83657561Y-50710314D01*
X83752800Y-50757933D01*
X83800419Y-50853171D01*
X83800419Y-51376980D01*
X84276609Y-51376980D02*
X84276609Y-50710314D01*
X84276609Y-50376980D02*
X84228990Y-50424600D01*
X84276609Y-50472219D01*
X84324228Y-50424600D01*
X84276609Y-50376980D01*
X84276609Y-50472219D01*
X85181371Y-51329361D02*
X85086133Y-51376980D01*
X84895657Y-51376980D01*
X84800419Y-51329361D01*
X84752800Y-51281742D01*
X84705180Y-51186504D01*
X84705180Y-50900790D01*
X84752800Y-50805552D01*
X84800419Y-50757933D01*
X84895657Y-50710314D01*
X85086133Y-50710314D01*
X85181371Y-50757933D01*
X86371847Y-51376980D02*
X86371847Y-50376980D01*
X86705180Y-51091266D01*
X87038514Y-50376980D01*
X87038514Y-51376980D01*
X87657561Y-51376980D02*
X87562323Y-51329361D01*
X87514704Y-51281742D01*
X87467085Y-51186504D01*
X87467085Y-50900790D01*
X87514704Y-50805552D01*
X87562323Y-50757933D01*
X87657561Y-50710314D01*
X87800419Y-50710314D01*
X87895657Y-50757933D01*
X87943276Y-50805552D01*
X87990895Y-50900790D01*
X87990895Y-51186504D01*
X87943276Y-51281742D01*
X87895657Y-51329361D01*
X87800419Y-51376980D01*
X87657561Y-51376980D01*
X88276609Y-50710314D02*
X88657561Y-50710314D01*
X88419466Y-50376980D02*
X88419466Y-51234123D01*
X88467085Y-51329361D01*
X88562323Y-51376980D01*
X88657561Y-51376980D01*
X89133752Y-51376980D02*
X89038514Y-51329361D01*
X88990895Y-51281742D01*
X88943276Y-51186504D01*
X88943276Y-50900790D01*
X88990895Y-50805552D01*
X89038514Y-50757933D01*
X89133752Y-50710314D01*
X89276609Y-50710314D01*
X89371847Y-50757933D01*
X89419466Y-50805552D01*
X89467085Y-50900790D01*
X89467085Y-51186504D01*
X89419466Y-51281742D01*
X89371847Y-51329361D01*
X89276609Y-51376980D01*
X89133752Y-51376980D01*
X89895657Y-51376980D02*
X89895657Y-50710314D01*
X89895657Y-50900790D02*
X89943276Y-50805552D01*
X89990895Y-50757933D01*
X90086133Y-50710314D01*
X90181371Y-50710314D01*
X90467085Y-51329361D02*
X90562323Y-51376980D01*
X90752799Y-51376980D01*
X90848038Y-51329361D01*
X90895657Y-51234123D01*
X90895657Y-51186504D01*
X90848038Y-51091266D01*
X90752799Y-51043647D01*
X90609942Y-51043647D01*
X90514704Y-50996028D01*
X90467085Y-50900790D01*
X90467085Y-50853171D01*
X90514704Y-50757933D01*
X90609942Y-50710314D01*
X90752799Y-50710314D01*
X90848038Y-50757933D01*
X91324228Y-50710314D02*
X91324228Y-51710314D01*
X91324228Y-50757933D02*
X91419466Y-50710314D01*
X91609942Y-50710314D01*
X91705180Y-50757933D01*
X91752799Y-50805552D01*
X91800419Y-50900790D01*
X91800419Y-51186504D01*
X91752799Y-51281742D01*
X91705180Y-51329361D01*
X91609942Y-51376980D01*
X91419466Y-51376980D01*
X91324228Y-51329361D01*
X92371847Y-51376980D02*
X92276609Y-51329361D01*
X92228990Y-51281742D01*
X92181371Y-51186504D01*
X92181371Y-50900790D01*
X92228990Y-50805552D01*
X92276609Y-50757933D01*
X92371847Y-50710314D01*
X92514704Y-50710314D01*
X92609942Y-50757933D01*
X92657561Y-50805552D01*
X92705180Y-50900790D01*
X92705180Y-51186504D01*
X92657561Y-51281742D01*
X92609942Y-51329361D01*
X92514704Y-51376980D01*
X92371847Y-51376980D01*
X93133752Y-51376980D02*
X93133752Y-50710314D01*
X93133752Y-50900790D02*
X93181371Y-50805552D01*
X93228990Y-50757933D01*
X93324228Y-50710314D01*
X93419466Y-50710314D01*
X93609942Y-50710314D02*
X93990895Y-50710314D01*
X93752799Y-50376980D02*
X93752799Y-51234123D01*
X93800419Y-51329361D01*
X93895657Y-51376980D01*
X93990895Y-51376980D01*
D11*
X146432000Y-96312000D02*
X146432000Y-98552000D01*
X146432000Y-98552000D02*
X150672000Y-98552000D01*
X150672000Y-98552000D02*
X150672000Y-96312000D01*
X150672000Y-96312000D02*
X146432000Y-96312000D01*
X145782000Y-97432000D02*
X146432000Y-97432000D01*
X151322000Y-97432000D02*
X150672000Y-97432000D01*
X147152000Y-96312000D02*
X147152000Y-98552000D01*
X147272000Y-96312000D02*
X147272000Y-98552000D01*
X147032000Y-96312000D02*
X147032000Y-98552000D01*
X205003500Y-62697500D02*
X205003500Y-55712500D01*
X205003500Y-55712500D02*
X215163500Y-55776000D01*
X215163500Y-55776000D02*
X215163500Y-62697500D01*
X215163500Y-62697500D02*
X205003500Y-62697500D01*
X205003500Y-85557500D02*
X205003500Y-63635000D01*
X215163500Y-63635000D02*
X215163500Y-85557500D01*
X215163500Y-85557500D02*
X205003500Y-85557500D01*
X204940000Y-63635000D02*
X215227000Y-63635000D01*
X205003500Y-95717500D02*
X205003500Y-88732500D01*
X205003500Y-86295000D02*
X215163500Y-86295000D01*
X215163500Y-88796000D02*
X215163500Y-95717500D01*
X215163500Y-95717500D02*
X205003500Y-95717500D01*
X205003500Y-86295000D02*
X205003500Y-88732500D01*
X215163500Y-86295000D02*
X215163500Y-88796000D01*
X205003500Y-108417500D02*
X205003500Y-101432500D01*
X215163500Y-101496000D02*
X215163500Y-108417500D01*
X215163500Y-108417500D02*
X205003500Y-108417500D01*
X205003500Y-98995000D02*
X205003500Y-101432500D01*
X215163500Y-98995000D02*
X215163500Y-101496000D01*
X205003500Y-98995000D02*
X204940000Y-96416000D01*
X204940000Y-96416000D02*
X215227000Y-96416000D01*
X215227000Y-96416000D02*
X215163500Y-98995000D01*
X215163500Y-116037500D02*
X205003500Y-116037500D01*
X215163500Y-109116000D02*
X215163500Y-116037500D01*
X205003500Y-109052500D02*
X215163500Y-109116000D01*
X205003500Y-116037500D02*
X205003500Y-109052500D01*
X205003500Y-123657500D02*
X205003500Y-116672500D01*
X205003500Y-116672500D02*
X215163500Y-116736000D01*
X215163500Y-116736000D02*
X215163500Y-123657500D01*
X215163500Y-123657500D02*
X205003500Y-123657500D01*
X215163500Y-131277500D02*
X205003500Y-131277500D01*
X215163500Y-124356000D02*
X215163500Y-131277500D01*
X205003500Y-124292500D02*
X215163500Y-124356000D01*
X205003500Y-131277500D02*
X205003500Y-124292500D01*
X171185000Y-67555000D02*
X173925000Y-67555000D01*
X173925000Y-67555000D02*
X173925000Y-61015000D01*
X173925000Y-61015000D02*
X171185000Y-61015000D01*
X171185000Y-61015000D02*
X171185000Y-67555000D01*
X172555000Y-70865000D02*
X172555000Y-67555000D01*
X172555000Y-57705000D02*
X172555000Y-61015000D01*
X154165400Y-89913600D02*
X141617800Y-89913600D01*
X141617800Y-89913600D02*
X141617800Y-69898400D01*
X141617800Y-69898400D02*
X154165400Y-69898400D01*
X154165400Y-69898400D02*
X154165400Y-89913600D01*
X141479630Y-90167600D02*
G75*
G03X141479630Y-90167600I-369830J0D01*
G01*
D10*
X147813904Y-95764380D02*
X147813904Y-94764380D01*
X148052000Y-94764380D01*
X148194857Y-94812000D01*
X148290095Y-94907238D01*
X148337714Y-95002476D01*
X148385333Y-95192952D01*
X148385333Y-95335809D01*
X148337714Y-95526285D01*
X148290095Y-95621523D01*
X148194857Y-95716761D01*
X148052000Y-95764380D01*
X147813904Y-95764380D01*
X149337714Y-95764380D02*
X148766285Y-95764380D01*
X149052000Y-95764380D02*
X149052000Y-94764380D01*
X148956761Y-94907238D01*
X148861523Y-95002476D01*
X148766285Y-95050095D01*
X144480095Y-96084380D02*
X144480095Y-95084380D01*
X145051523Y-96084380D02*
X144622952Y-95512952D01*
X145051523Y-95084380D02*
X144480095Y-95655809D01*
X204122380Y-59943095D02*
X203122380Y-59943095D01*
X203122380Y-59562142D01*
X203170000Y-59466904D01*
X203217619Y-59419285D01*
X203312857Y-59371666D01*
X203455714Y-59371666D01*
X203550952Y-59419285D01*
X203598571Y-59466904D01*
X203646190Y-59562142D01*
X203646190Y-59943095D01*
X204122380Y-58419285D02*
X204122380Y-58990714D01*
X204122380Y-58705000D02*
X203122380Y-58705000D01*
X203265238Y-58800238D01*
X203360476Y-58895476D01*
X203408095Y-58990714D01*
X202217380Y-61490714D02*
X201217380Y-61490714D01*
X201217380Y-61252619D01*
X201265000Y-61109761D01*
X201360238Y-61014523D01*
X201455476Y-60966904D01*
X201645952Y-60919285D01*
X201788809Y-60919285D01*
X201979285Y-60966904D01*
X202074523Y-61014523D01*
X202169761Y-61109761D01*
X202217380Y-61252619D01*
X202217380Y-61490714D01*
X202122142Y-59919285D02*
X202169761Y-59966904D01*
X202217380Y-60109761D01*
X202217380Y-60205000D01*
X202169761Y-60347857D01*
X202074523Y-60443095D01*
X201979285Y-60490714D01*
X201788809Y-60538333D01*
X201645952Y-60538333D01*
X201455476Y-60490714D01*
X201360238Y-60443095D01*
X201265000Y-60347857D01*
X201217380Y-60205000D01*
X201217380Y-60109761D01*
X201265000Y-59966904D01*
X201312619Y-59919285D01*
X201169761Y-58776428D02*
X202455476Y-59633571D01*
X202217380Y-58443095D02*
X201217380Y-58443095D01*
X201217380Y-58205000D01*
X201265000Y-58062142D01*
X201360238Y-57966904D01*
X201455476Y-57919285D01*
X201645952Y-57871666D01*
X201788809Y-57871666D01*
X201979285Y-57919285D01*
X202074523Y-57966904D01*
X202169761Y-58062142D01*
X202217380Y-58205000D01*
X202217380Y-58443095D01*
X202122142Y-56871666D02*
X202169761Y-56919285D01*
X202217380Y-57062142D01*
X202217380Y-57157380D01*
X202169761Y-57300238D01*
X202074523Y-57395476D01*
X201979285Y-57443095D01*
X201788809Y-57490714D01*
X201645952Y-57490714D01*
X201455476Y-57443095D01*
X201360238Y-57395476D01*
X201265000Y-57300238D01*
X201217380Y-57157380D01*
X201217380Y-57062142D01*
X201265000Y-56919285D01*
X201312619Y-56871666D01*
X204122380Y-75183095D02*
X203122380Y-75183095D01*
X203122380Y-74802142D01*
X203170000Y-74706904D01*
X203217619Y-74659285D01*
X203312857Y-74611666D01*
X203455714Y-74611666D01*
X203550952Y-74659285D01*
X203598571Y-74706904D01*
X203646190Y-74802142D01*
X203646190Y-75183095D01*
X203217619Y-74230714D02*
X203170000Y-74183095D01*
X203122380Y-74087857D01*
X203122380Y-73849761D01*
X203170000Y-73754523D01*
X203217619Y-73706904D01*
X203312857Y-73659285D01*
X203408095Y-73659285D01*
X203550952Y-73706904D01*
X204122380Y-74278333D01*
X204122380Y-73659285D01*
X202217380Y-78135476D02*
X201217380Y-78135476D01*
X201217380Y-77897380D01*
X201265000Y-77754523D01*
X201360238Y-77659285D01*
X201455476Y-77611666D01*
X201645952Y-77564047D01*
X201788809Y-77564047D01*
X201979285Y-77611666D01*
X202074523Y-77659285D01*
X202169761Y-77754523D01*
X202217380Y-77897380D01*
X202217380Y-78135476D01*
X202217380Y-76706904D02*
X201693571Y-76706904D01*
X201598333Y-76754523D01*
X201550714Y-76849761D01*
X201550714Y-77040238D01*
X201598333Y-77135476D01*
X202169761Y-76706904D02*
X202217380Y-76802142D01*
X202217380Y-77040238D01*
X202169761Y-77135476D01*
X202074523Y-77183095D01*
X201979285Y-77183095D01*
X201884047Y-77135476D01*
X201836428Y-77040238D01*
X201836428Y-76802142D01*
X201788809Y-76706904D01*
X202169761Y-76278333D02*
X202217380Y-76183095D01*
X202217380Y-75992619D01*
X202169761Y-75897380D01*
X202074523Y-75849761D01*
X202026904Y-75849761D01*
X201931666Y-75897380D01*
X201884047Y-75992619D01*
X201884047Y-76135476D01*
X201836428Y-76230714D01*
X201741190Y-76278333D01*
X201693571Y-76278333D01*
X201598333Y-76230714D01*
X201550714Y-76135476D01*
X201550714Y-75992619D01*
X201598333Y-75897380D01*
X202217380Y-75421190D02*
X201217380Y-75421190D01*
X202217380Y-74992619D02*
X201693571Y-74992619D01*
X201598333Y-75040238D01*
X201550714Y-75135476D01*
X201550714Y-75278333D01*
X201598333Y-75373571D01*
X201645952Y-75421190D01*
X202217380Y-74516428D02*
X201217380Y-74516428D01*
X201598333Y-74516428D02*
X201550714Y-74421190D01*
X201550714Y-74230714D01*
X201598333Y-74135476D01*
X201645952Y-74087857D01*
X201741190Y-74040238D01*
X202026904Y-74040238D01*
X202122142Y-74087857D01*
X202169761Y-74135476D01*
X202217380Y-74230714D01*
X202217380Y-74421190D01*
X202169761Y-74516428D01*
X202217380Y-73468809D02*
X202169761Y-73564047D01*
X202122142Y-73611666D01*
X202026904Y-73659285D01*
X201741190Y-73659285D01*
X201645952Y-73611666D01*
X201598333Y-73564047D01*
X201550714Y-73468809D01*
X201550714Y-73325952D01*
X201598333Y-73230714D01*
X201645952Y-73183095D01*
X201741190Y-73135476D01*
X202026904Y-73135476D01*
X202122142Y-73183095D01*
X202169761Y-73230714D01*
X202217380Y-73325952D01*
X202217380Y-73468809D01*
X202217380Y-72278333D02*
X201693571Y-72278333D01*
X201598333Y-72325952D01*
X201550714Y-72421190D01*
X201550714Y-72611666D01*
X201598333Y-72706904D01*
X202169761Y-72278333D02*
X202217380Y-72373571D01*
X202217380Y-72611666D01*
X202169761Y-72706904D01*
X202074523Y-72754523D01*
X201979285Y-72754523D01*
X201884047Y-72706904D01*
X201836428Y-72611666D01*
X201836428Y-72373571D01*
X201788809Y-72278333D01*
X202217380Y-71802142D02*
X201550714Y-71802142D01*
X201741190Y-71802142D02*
X201645952Y-71754523D01*
X201598333Y-71706904D01*
X201550714Y-71611666D01*
X201550714Y-71516428D01*
X202217380Y-70754523D02*
X201217380Y-70754523D01*
X202169761Y-70754523D02*
X202217380Y-70849761D01*
X202217380Y-71040238D01*
X202169761Y-71135476D01*
X202122142Y-71183095D01*
X202026904Y-71230714D01*
X201741190Y-71230714D01*
X201645952Y-71183095D01*
X201598333Y-71135476D01*
X201550714Y-71040238D01*
X201550714Y-70849761D01*
X201598333Y-70754523D01*
X204122380Y-91693095D02*
X203122380Y-91693095D01*
X203122380Y-91312142D01*
X203170000Y-91216904D01*
X203217619Y-91169285D01*
X203312857Y-91121666D01*
X203455714Y-91121666D01*
X203550952Y-91169285D01*
X203598571Y-91216904D01*
X203646190Y-91312142D01*
X203646190Y-91693095D01*
X203122380Y-90788333D02*
X203122380Y-90169285D01*
X203503333Y-90502619D01*
X203503333Y-90359761D01*
X203550952Y-90264523D01*
X203598571Y-90216904D01*
X203693809Y-90169285D01*
X203931904Y-90169285D01*
X204027142Y-90216904D01*
X204074761Y-90264523D01*
X204122380Y-90359761D01*
X204122380Y-90645476D01*
X204074761Y-90740714D01*
X204027142Y-90788333D01*
X202217380Y-97955000D02*
X201217380Y-97955000D01*
X201217380Y-97574047D01*
X201265000Y-97478809D01*
X201312619Y-97431190D01*
X201407857Y-97383571D01*
X201550714Y-97383571D01*
X201645952Y-97431190D01*
X201693571Y-97478809D01*
X201741190Y-97574047D01*
X201741190Y-97955000D01*
X202217380Y-96955000D02*
X201550714Y-96955000D01*
X201741190Y-96955000D02*
X201645952Y-96907380D01*
X201598333Y-96859761D01*
X201550714Y-96764523D01*
X201550714Y-96669285D01*
X202169761Y-95955000D02*
X202217380Y-96050238D01*
X202217380Y-96240714D01*
X202169761Y-96335952D01*
X202074523Y-96383571D01*
X201693571Y-96383571D01*
X201598333Y-96335952D01*
X201550714Y-96240714D01*
X201550714Y-96050238D01*
X201598333Y-95955000D01*
X201693571Y-95907380D01*
X201788809Y-95907380D01*
X201884047Y-96383571D01*
X202217380Y-95050238D02*
X201217380Y-95050238D01*
X202169761Y-95050238D02*
X202217380Y-95145476D01*
X202217380Y-95335952D01*
X202169761Y-95431190D01*
X202122142Y-95478809D01*
X202026904Y-95526428D01*
X201741190Y-95526428D01*
X201645952Y-95478809D01*
X201598333Y-95431190D01*
X201550714Y-95335952D01*
X201550714Y-95145476D01*
X201598333Y-95050238D01*
X202217380Y-94574047D02*
X201550714Y-94574047D01*
X201741190Y-94574047D02*
X201645952Y-94526428D01*
X201598333Y-94478809D01*
X201550714Y-94383571D01*
X201550714Y-94288333D01*
X202217380Y-93955000D02*
X201550714Y-93955000D01*
X201217380Y-93955000D02*
X201265000Y-94002619D01*
X201312619Y-93955000D01*
X201265000Y-93907380D01*
X201217380Y-93955000D01*
X201312619Y-93955000D01*
X201550714Y-93574047D02*
X202217380Y-93335952D01*
X201550714Y-93097857D01*
X202169761Y-92335952D02*
X202217380Y-92431190D01*
X202217380Y-92621666D01*
X202169761Y-92716904D01*
X202074523Y-92764523D01*
X201693571Y-92764523D01*
X201598333Y-92716904D01*
X201550714Y-92621666D01*
X201550714Y-92431190D01*
X201598333Y-92335952D01*
X201693571Y-92288333D01*
X201788809Y-92288333D01*
X201884047Y-92764523D01*
X201169761Y-91145476D02*
X202455476Y-92002619D01*
X202217380Y-90812142D02*
X201217380Y-90812142D01*
X201217380Y-90574047D01*
X201265000Y-90431190D01*
X201360238Y-90335952D01*
X201455476Y-90288333D01*
X201645952Y-90240714D01*
X201788809Y-90240714D01*
X201979285Y-90288333D01*
X202074523Y-90335952D01*
X202169761Y-90431190D01*
X202217380Y-90574047D01*
X202217380Y-90812142D01*
X202217380Y-89812142D02*
X201550714Y-89812142D01*
X201217380Y-89812142D02*
X201265000Y-89859761D01*
X201312619Y-89812142D01*
X201265000Y-89764523D01*
X201217380Y-89812142D01*
X201312619Y-89812142D01*
X202169761Y-89383571D02*
X202217380Y-89288333D01*
X202217380Y-89097857D01*
X202169761Y-89002619D01*
X202074523Y-88955000D01*
X202026904Y-88955000D01*
X201931666Y-89002619D01*
X201884047Y-89097857D01*
X201884047Y-89240714D01*
X201836428Y-89335952D01*
X201741190Y-89383571D01*
X201693571Y-89383571D01*
X201598333Y-89335952D01*
X201550714Y-89240714D01*
X201550714Y-89097857D01*
X201598333Y-89002619D01*
X202169761Y-88097857D02*
X202217380Y-88193095D01*
X202217380Y-88383571D01*
X202169761Y-88478809D01*
X202122142Y-88526428D01*
X202026904Y-88574047D01*
X201741190Y-88574047D01*
X201645952Y-88526428D01*
X201598333Y-88478809D01*
X201550714Y-88383571D01*
X201550714Y-88193095D01*
X201598333Y-88097857D01*
X202217380Y-87669285D02*
X201217380Y-87669285D01*
X202217380Y-87240714D02*
X201693571Y-87240714D01*
X201598333Y-87288333D01*
X201550714Y-87383571D01*
X201550714Y-87526428D01*
X201598333Y-87621666D01*
X201645952Y-87669285D01*
X202217380Y-86335952D02*
X201693571Y-86335952D01*
X201598333Y-86383571D01*
X201550714Y-86478809D01*
X201550714Y-86669285D01*
X201598333Y-86764523D01*
X202169761Y-86335952D02*
X202217380Y-86431190D01*
X202217380Y-86669285D01*
X202169761Y-86764523D01*
X202074523Y-86812142D01*
X201979285Y-86812142D01*
X201884047Y-86764523D01*
X201836428Y-86669285D01*
X201836428Y-86431190D01*
X201788809Y-86335952D01*
X202217380Y-85859761D02*
X201550714Y-85859761D01*
X201741190Y-85859761D02*
X201645952Y-85812142D01*
X201598333Y-85764523D01*
X201550714Y-85669285D01*
X201550714Y-85574047D01*
X201550714Y-84812142D02*
X202360238Y-84812142D01*
X202455476Y-84859761D01*
X202503095Y-84907380D01*
X202550714Y-85002619D01*
X202550714Y-85145476D01*
X202503095Y-85240714D01*
X202169761Y-84812142D02*
X202217380Y-84907380D01*
X202217380Y-85097857D01*
X202169761Y-85193095D01*
X202122142Y-85240714D01*
X202026904Y-85288333D01*
X201741190Y-85288333D01*
X201645952Y-85240714D01*
X201598333Y-85193095D01*
X201550714Y-85097857D01*
X201550714Y-84907380D01*
X201598333Y-84812142D01*
X202169761Y-83955000D02*
X202217380Y-84050238D01*
X202217380Y-84240714D01*
X202169761Y-84335952D01*
X202074523Y-84383571D01*
X201693571Y-84383571D01*
X201598333Y-84335952D01*
X201550714Y-84240714D01*
X201550714Y-84050238D01*
X201598333Y-83955000D01*
X201693571Y-83907380D01*
X201788809Y-83907380D01*
X201884047Y-84383571D01*
X204122380Y-103123095D02*
X203122380Y-103123095D01*
X203122380Y-102742142D01*
X203170000Y-102646904D01*
X203217619Y-102599285D01*
X203312857Y-102551666D01*
X203455714Y-102551666D01*
X203550952Y-102599285D01*
X203598571Y-102646904D01*
X203646190Y-102742142D01*
X203646190Y-103123095D01*
X203455714Y-101694523D02*
X204122380Y-101694523D01*
X203074761Y-101932619D02*
X203789047Y-102170714D01*
X203789047Y-101551666D01*
X201217380Y-103932619D02*
X201217380Y-103742142D01*
X201265000Y-103646904D01*
X201360238Y-103551666D01*
X201550714Y-103504047D01*
X201884047Y-103504047D01*
X202074523Y-103551666D01*
X202169761Y-103646904D01*
X202217380Y-103742142D01*
X202217380Y-103932619D01*
X202169761Y-104027857D01*
X202074523Y-104123095D01*
X201884047Y-104170714D01*
X201550714Y-104170714D01*
X201360238Y-104123095D01*
X201265000Y-104027857D01*
X201217380Y-103932619D01*
X202217380Y-103075476D02*
X201550714Y-103075476D01*
X201741190Y-103075476D02*
X201645952Y-103027857D01*
X201598333Y-102980238D01*
X201550714Y-102885000D01*
X201550714Y-102789761D01*
X202217380Y-102456428D02*
X201550714Y-102456428D01*
X201217380Y-102456428D02*
X201265000Y-102504047D01*
X201312619Y-102456428D01*
X201265000Y-102408809D01*
X201217380Y-102456428D01*
X201312619Y-102456428D01*
X202217380Y-101837380D02*
X202169761Y-101932619D01*
X202122142Y-101980238D01*
X202026904Y-102027857D01*
X201741190Y-102027857D01*
X201645952Y-101980238D01*
X201598333Y-101932619D01*
X201550714Y-101837380D01*
X201550714Y-101694523D01*
X201598333Y-101599285D01*
X201645952Y-101551666D01*
X201741190Y-101504047D01*
X202026904Y-101504047D01*
X202122142Y-101551666D01*
X202169761Y-101599285D01*
X202217380Y-101694523D01*
X202217380Y-101837380D01*
X201550714Y-101075476D02*
X202217380Y-101075476D01*
X201645952Y-101075476D02*
X201598333Y-101027857D01*
X201550714Y-100932619D01*
X201550714Y-100789761D01*
X201598333Y-100694523D01*
X201693571Y-100646904D01*
X202217380Y-100646904D01*
X204122380Y-113283095D02*
X203122380Y-113283095D01*
X203122380Y-112902142D01*
X203170000Y-112806904D01*
X203217619Y-112759285D01*
X203312857Y-112711666D01*
X203455714Y-112711666D01*
X203550952Y-112759285D01*
X203598571Y-112806904D01*
X203646190Y-112902142D01*
X203646190Y-113283095D01*
X203122380Y-111806904D02*
X203122380Y-112283095D01*
X203598571Y-112330714D01*
X203550952Y-112283095D01*
X203503333Y-112187857D01*
X203503333Y-111949761D01*
X203550952Y-111854523D01*
X203598571Y-111806904D01*
X203693809Y-111759285D01*
X203931904Y-111759285D01*
X204027142Y-111806904D01*
X204074761Y-111854523D01*
X204122380Y-111949761D01*
X204122380Y-112187857D01*
X204074761Y-112283095D01*
X204027142Y-112330714D01*
X201217380Y-117021190D02*
X201217380Y-116925952D01*
X201265000Y-116830714D01*
X201312619Y-116783095D01*
X201407857Y-116735476D01*
X201598333Y-116687857D01*
X201836428Y-116687857D01*
X202026904Y-116735476D01*
X202122142Y-116783095D01*
X202169761Y-116830714D01*
X202217380Y-116925952D01*
X202217380Y-117021190D01*
X202169761Y-117116428D01*
X202122142Y-117164047D01*
X202026904Y-117211666D01*
X201836428Y-117259285D01*
X201598333Y-117259285D01*
X201407857Y-117211666D01*
X201312619Y-117164047D01*
X201265000Y-117116428D01*
X201217380Y-117021190D01*
X201217380Y-116402142D02*
X202217380Y-116068809D01*
X201217380Y-115735476D01*
X202122142Y-114068809D02*
X202169761Y-114116428D01*
X202217380Y-114259285D01*
X202217380Y-114354523D01*
X202169761Y-114497380D01*
X202074523Y-114592619D01*
X201979285Y-114640238D01*
X201788809Y-114687857D01*
X201645952Y-114687857D01*
X201455476Y-114640238D01*
X201360238Y-114592619D01*
X201265000Y-114497380D01*
X201217380Y-114354523D01*
X201217380Y-114259285D01*
X201265000Y-114116428D01*
X201312619Y-114068809D01*
X202217380Y-113497380D02*
X202169761Y-113592619D01*
X202122142Y-113640238D01*
X202026904Y-113687857D01*
X201741190Y-113687857D01*
X201645952Y-113640238D01*
X201598333Y-113592619D01*
X201550714Y-113497380D01*
X201550714Y-113354523D01*
X201598333Y-113259285D01*
X201645952Y-113211666D01*
X201741190Y-113164047D01*
X202026904Y-113164047D01*
X202122142Y-113211666D01*
X202169761Y-113259285D01*
X202217380Y-113354523D01*
X202217380Y-113497380D01*
X201550714Y-112735476D02*
X202217380Y-112735476D01*
X201645952Y-112735476D02*
X201598333Y-112687857D01*
X201550714Y-112592619D01*
X201550714Y-112449761D01*
X201598333Y-112354523D01*
X201693571Y-112306904D01*
X202217380Y-112306904D01*
X201550714Y-111973571D02*
X201550714Y-111592619D01*
X201217380Y-111830714D02*
X202074523Y-111830714D01*
X202169761Y-111783095D01*
X202217380Y-111687857D01*
X202217380Y-111592619D01*
X202217380Y-110830714D02*
X201693571Y-110830714D01*
X201598333Y-110878333D01*
X201550714Y-110973571D01*
X201550714Y-111164047D01*
X201598333Y-111259285D01*
X202169761Y-110830714D02*
X202217380Y-110925952D01*
X202217380Y-111164047D01*
X202169761Y-111259285D01*
X202074523Y-111306904D01*
X201979285Y-111306904D01*
X201884047Y-111259285D01*
X201836428Y-111164047D01*
X201836428Y-110925952D01*
X201788809Y-110830714D01*
X202169761Y-109925952D02*
X202217380Y-110021190D01*
X202217380Y-110211666D01*
X202169761Y-110306904D01*
X202122142Y-110354523D01*
X202026904Y-110402142D01*
X201741190Y-110402142D01*
X201645952Y-110354523D01*
X201598333Y-110306904D01*
X201550714Y-110211666D01*
X201550714Y-110021190D01*
X201598333Y-109925952D01*
X201550714Y-109640238D02*
X201550714Y-109259285D01*
X201217380Y-109497380D02*
X202074523Y-109497380D01*
X202169761Y-109449761D01*
X202217380Y-109354523D01*
X202217380Y-109259285D01*
X202217380Y-108783095D02*
X202169761Y-108878333D01*
X202122142Y-108925952D01*
X202026904Y-108973571D01*
X201741190Y-108973571D01*
X201645952Y-108925952D01*
X201598333Y-108878333D01*
X201550714Y-108783095D01*
X201550714Y-108640238D01*
X201598333Y-108545000D01*
X201645952Y-108497380D01*
X201741190Y-108449761D01*
X202026904Y-108449761D01*
X202122142Y-108497380D01*
X202169761Y-108545000D01*
X202217380Y-108640238D01*
X202217380Y-108783095D01*
X202217380Y-108021190D02*
X201550714Y-108021190D01*
X201741190Y-108021190D02*
X201645952Y-107973571D01*
X201598333Y-107925952D01*
X201550714Y-107830714D01*
X201550714Y-107735476D01*
X204122380Y-120903095D02*
X203122380Y-120903095D01*
X203122380Y-120522142D01*
X203170000Y-120426904D01*
X203217619Y-120379285D01*
X203312857Y-120331666D01*
X203455714Y-120331666D01*
X203550952Y-120379285D01*
X203598571Y-120426904D01*
X203646190Y-120522142D01*
X203646190Y-120903095D01*
X203122380Y-119474523D02*
X203122380Y-119665000D01*
X203170000Y-119760238D01*
X203217619Y-119807857D01*
X203360476Y-119903095D01*
X203550952Y-119950714D01*
X203931904Y-119950714D01*
X204027142Y-119903095D01*
X204074761Y-119855476D01*
X204122380Y-119760238D01*
X204122380Y-119569761D01*
X204074761Y-119474523D01*
X204027142Y-119426904D01*
X203931904Y-119379285D01*
X203693809Y-119379285D01*
X203598571Y-119426904D01*
X203550952Y-119474523D01*
X203503333Y-119569761D01*
X203503333Y-119760238D01*
X203550952Y-119855476D01*
X203598571Y-119903095D01*
X203693809Y-119950714D01*
X199312380Y-125284047D02*
X199312380Y-124712619D01*
X200312380Y-124998333D02*
X199312380Y-124998333D01*
X200312380Y-124379285D02*
X199645714Y-124379285D01*
X199836190Y-124379285D02*
X199740952Y-124331666D01*
X199693333Y-124284047D01*
X199645714Y-124188809D01*
X199645714Y-124093571D01*
X200312380Y-123760238D02*
X199645714Y-123760238D01*
X199312380Y-123760238D02*
X199360000Y-123807857D01*
X199407619Y-123760238D01*
X199360000Y-123712619D01*
X199312380Y-123760238D01*
X199407619Y-123760238D01*
X199645714Y-123426904D02*
X199645714Y-123045952D01*
X199312380Y-123284047D02*
X200169523Y-123284047D01*
X200264761Y-123236428D01*
X200312380Y-123141190D01*
X200312380Y-123045952D01*
X200217142Y-121379285D02*
X200264761Y-121426904D01*
X200312380Y-121569761D01*
X200312380Y-121665000D01*
X200264761Y-121807857D01*
X200169523Y-121903095D01*
X200074285Y-121950714D01*
X199883809Y-121998333D01*
X199740952Y-121998333D01*
X199550476Y-121950714D01*
X199455238Y-121903095D01*
X199360000Y-121807857D01*
X199312380Y-121665000D01*
X199312380Y-121569761D01*
X199360000Y-121426904D01*
X199407619Y-121379285D01*
X200312380Y-120807857D02*
X200264761Y-120903095D01*
X200217142Y-120950714D01*
X200121904Y-120998333D01*
X199836190Y-120998333D01*
X199740952Y-120950714D01*
X199693333Y-120903095D01*
X199645714Y-120807857D01*
X199645714Y-120665000D01*
X199693333Y-120569761D01*
X199740952Y-120522142D01*
X199836190Y-120474523D01*
X200121904Y-120474523D01*
X200217142Y-120522142D01*
X200264761Y-120569761D01*
X200312380Y-120665000D01*
X200312380Y-120807857D01*
X199645714Y-120045952D02*
X200312380Y-120045952D01*
X199740952Y-120045952D02*
X199693333Y-119998333D01*
X199645714Y-119903095D01*
X199645714Y-119760238D01*
X199693333Y-119665000D01*
X199788571Y-119617380D01*
X200312380Y-119617380D01*
X199645714Y-119284047D02*
X199645714Y-118903095D01*
X199312380Y-119141190D02*
X200169523Y-119141190D01*
X200264761Y-119093571D01*
X200312380Y-118998333D01*
X200312380Y-118903095D01*
X200312380Y-118141190D02*
X199788571Y-118141190D01*
X199693333Y-118188809D01*
X199645714Y-118284047D01*
X199645714Y-118474523D01*
X199693333Y-118569761D01*
X200264761Y-118141190D02*
X200312380Y-118236428D01*
X200312380Y-118474523D01*
X200264761Y-118569761D01*
X200169523Y-118617380D01*
X200074285Y-118617380D01*
X199979047Y-118569761D01*
X199931428Y-118474523D01*
X199931428Y-118236428D01*
X199883809Y-118141190D01*
X200264761Y-117236428D02*
X200312380Y-117331666D01*
X200312380Y-117522142D01*
X200264761Y-117617380D01*
X200217142Y-117665000D01*
X200121904Y-117712619D01*
X199836190Y-117712619D01*
X199740952Y-117665000D01*
X199693333Y-117617380D01*
X199645714Y-117522142D01*
X199645714Y-117331666D01*
X199693333Y-117236428D01*
X199645714Y-116950714D02*
X199645714Y-116569761D01*
X199312380Y-116807857D02*
X200169523Y-116807857D01*
X200264761Y-116760238D01*
X200312380Y-116665000D01*
X200312380Y-116569761D01*
X200312380Y-116093571D02*
X200264761Y-116188809D01*
X200217142Y-116236428D01*
X200121904Y-116284047D01*
X199836190Y-116284047D01*
X199740952Y-116236428D01*
X199693333Y-116188809D01*
X199645714Y-116093571D01*
X199645714Y-115950714D01*
X199693333Y-115855476D01*
X199740952Y-115807857D01*
X199836190Y-115760238D01*
X200121904Y-115760238D01*
X200217142Y-115807857D01*
X200264761Y-115855476D01*
X200312380Y-115950714D01*
X200312380Y-116093571D01*
X200312380Y-115331666D02*
X199645714Y-115331666D01*
X199836190Y-115331666D02*
X199740952Y-115284047D01*
X199693333Y-115236428D01*
X199645714Y-115141190D01*
X199645714Y-115045952D01*
X204122380Y-128523095D02*
X203122380Y-128523095D01*
X203122380Y-128142142D01*
X203170000Y-128046904D01*
X203217619Y-127999285D01*
X203312857Y-127951666D01*
X203455714Y-127951666D01*
X203550952Y-127999285D01*
X203598571Y-128046904D01*
X203646190Y-128142142D01*
X203646190Y-128523095D01*
X203122380Y-127618333D02*
X203122380Y-126951666D01*
X204122380Y-127380238D01*
X201931666Y-133475476D02*
X201931666Y-132999285D01*
X202217380Y-133570714D02*
X201217380Y-133237380D01*
X202217380Y-132904047D01*
X202217380Y-132570714D02*
X201550714Y-132570714D01*
X201741190Y-132570714D02*
X201645952Y-132523095D01*
X201598333Y-132475476D01*
X201550714Y-132380238D01*
X201550714Y-132285000D01*
X202217380Y-131951666D02*
X201550714Y-131951666D01*
X201741190Y-131951666D02*
X201645952Y-131904047D01*
X201598333Y-131856428D01*
X201550714Y-131761190D01*
X201550714Y-131665952D01*
X202217380Y-130904047D02*
X201693571Y-130904047D01*
X201598333Y-130951666D01*
X201550714Y-131046904D01*
X201550714Y-131237380D01*
X201598333Y-131332619D01*
X202169761Y-130904047D02*
X202217380Y-130999285D01*
X202217380Y-131237380D01*
X202169761Y-131332619D01*
X202074523Y-131380238D01*
X201979285Y-131380238D01*
X201884047Y-131332619D01*
X201836428Y-131237380D01*
X201836428Y-130999285D01*
X201788809Y-130904047D01*
X201550714Y-130523095D02*
X202217380Y-130285000D01*
X201550714Y-130046904D02*
X202217380Y-130285000D01*
X202455476Y-130380238D01*
X202503095Y-130427857D01*
X202550714Y-130523095D01*
X202122142Y-128332619D02*
X202169761Y-128380238D01*
X202217380Y-128523095D01*
X202217380Y-128618333D01*
X202169761Y-128761190D01*
X202074523Y-128856428D01*
X201979285Y-128904047D01*
X201788809Y-128951666D01*
X201645952Y-128951666D01*
X201455476Y-128904047D01*
X201360238Y-128856428D01*
X201265000Y-128761190D01*
X201217380Y-128618333D01*
X201217380Y-128523095D01*
X201265000Y-128380238D01*
X201312619Y-128332619D01*
X202217380Y-127761190D02*
X202169761Y-127856428D01*
X202122142Y-127904047D01*
X202026904Y-127951666D01*
X201741190Y-127951666D01*
X201645952Y-127904047D01*
X201598333Y-127856428D01*
X201550714Y-127761190D01*
X201550714Y-127618333D01*
X201598333Y-127523095D01*
X201645952Y-127475476D01*
X201741190Y-127427857D01*
X202026904Y-127427857D01*
X202122142Y-127475476D01*
X202169761Y-127523095D01*
X202217380Y-127618333D01*
X202217380Y-127761190D01*
X201550714Y-126999285D02*
X202217380Y-126999285D01*
X201645952Y-126999285D02*
X201598333Y-126951666D01*
X201550714Y-126856428D01*
X201550714Y-126713571D01*
X201598333Y-126618333D01*
X201693571Y-126570714D01*
X202217380Y-126570714D01*
X201550714Y-126237380D02*
X201550714Y-125856428D01*
X201217380Y-126094523D02*
X202074523Y-126094523D01*
X202169761Y-126046904D01*
X202217380Y-125951666D01*
X202217380Y-125856428D01*
X202217380Y-125094523D02*
X201693571Y-125094523D01*
X201598333Y-125142142D01*
X201550714Y-125237380D01*
X201550714Y-125427857D01*
X201598333Y-125523095D01*
X202169761Y-125094523D02*
X202217380Y-125189761D01*
X202217380Y-125427857D01*
X202169761Y-125523095D01*
X202074523Y-125570714D01*
X201979285Y-125570714D01*
X201884047Y-125523095D01*
X201836428Y-125427857D01*
X201836428Y-125189761D01*
X201788809Y-125094523D01*
X202169761Y-124189761D02*
X202217380Y-124285000D01*
X202217380Y-124475476D01*
X202169761Y-124570714D01*
X202122142Y-124618333D01*
X202026904Y-124665952D01*
X201741190Y-124665952D01*
X201645952Y-124618333D01*
X201598333Y-124570714D01*
X201550714Y-124475476D01*
X201550714Y-124285000D01*
X201598333Y-124189761D01*
X201550714Y-123904047D02*
X201550714Y-123523095D01*
X201217380Y-123761190D02*
X202074523Y-123761190D01*
X202169761Y-123713571D01*
X202217380Y-123618333D01*
X202217380Y-123523095D01*
X202217380Y-123046904D02*
X202169761Y-123142142D01*
X202122142Y-123189761D01*
X202026904Y-123237380D01*
X201741190Y-123237380D01*
X201645952Y-123189761D01*
X201598333Y-123142142D01*
X201550714Y-123046904D01*
X201550714Y-122904047D01*
X201598333Y-122808809D01*
X201645952Y-122761190D01*
X201741190Y-122713571D01*
X202026904Y-122713571D01*
X202122142Y-122761190D01*
X202169761Y-122808809D01*
X202217380Y-122904047D01*
X202217380Y-123046904D01*
X202217380Y-122285000D02*
X201550714Y-122285000D01*
X201741190Y-122285000D02*
X201645952Y-122237380D01*
X201598333Y-122189761D01*
X201550714Y-122094523D01*
X201550714Y-121999285D01*
X170637380Y-64451666D02*
X170161190Y-64785000D01*
X170637380Y-65023095D02*
X169637380Y-65023095D01*
X169637380Y-64642142D01*
X169685000Y-64546904D01*
X169732619Y-64499285D01*
X169827857Y-64451666D01*
X169970714Y-64451666D01*
X170065952Y-64499285D01*
X170113571Y-64546904D01*
X170161190Y-64642142D01*
X170161190Y-65023095D01*
X170637380Y-63499285D02*
X170637380Y-64070714D01*
X170637380Y-63785000D02*
X169637380Y-63785000D01*
X169780238Y-63880238D01*
X169875476Y-63975476D01*
X169923095Y-64070714D01*
X174642619Y-65523095D02*
X174595000Y-65475476D01*
X174547380Y-65380238D01*
X174547380Y-65142142D01*
X174595000Y-65046904D01*
X174642619Y-64999285D01*
X174737857Y-64951666D01*
X174833095Y-64951666D01*
X174975952Y-64999285D01*
X175547380Y-65570714D01*
X175547380Y-64951666D01*
X174547380Y-64618333D02*
X174547380Y-63951666D01*
X175547380Y-64380238D01*
X174547380Y-63380238D02*
X174547380Y-63285000D01*
X174595000Y-63189761D01*
X174642619Y-63142142D01*
X174737857Y-63094523D01*
X174928333Y-63046904D01*
X175166428Y-63046904D01*
X175356904Y-63094523D01*
X175452142Y-63142142D01*
X175499761Y-63189761D01*
X175547380Y-63285000D01*
X175547380Y-63380238D01*
X175499761Y-63475476D01*
X175452142Y-63523095D01*
X175356904Y-63570714D01*
X175166428Y-63618333D01*
X174928333Y-63618333D01*
X174737857Y-63570714D01*
X174642619Y-63523095D01*
X174595000Y-63475476D01*
X174547380Y-63380238D01*
X141104980Y-79882095D02*
X140104980Y-79882095D01*
X141104980Y-79310666D02*
X140533552Y-79739238D01*
X140104980Y-79310666D02*
X140676409Y-79882095D01*
X141104980Y-78358285D02*
X141104980Y-78929714D01*
X141104980Y-78644000D02*
X140104980Y-78644000D01*
X140247838Y-78739238D01*
X140343076Y-78834476D01*
X140390695Y-78929714D01*
M02*
