M48
; DRILL file {KiCad (5.1.4)-1} date 08/09/2019 23:37:19
; FORMAT={-:-/ absolute / inch / decimal}
; #@! TF.CreationDate,2019-09-08T23:37:19+01:00
; #@! TF.GenerationSoftware,Kicad,Pcbnew,(5.1.4)-1
; #@! TF.FileFunction,Plated,1,2,PTH
FMAT,2
INCH
T1C0.0157
T2C0.0315
T3C0.0354
T4C0.0433
T5C0.0472
%
G90
G05
T1
X6.1492Y-2.8872
X8.3685Y-4.5309
T2
X5.6985Y-3.8359
X5.9985Y-3.8359
X6.7935Y-2.2309
X6.7935Y-2.8309
T3
X5.6235Y-3.4959
X6.0235Y-3.4959
T4
X6.0235Y-2.7959
X6.0235Y-3.0959
T5
X8.1185Y-4.9825
X8.1185Y-5.0809
X8.1185Y-3.8856
X8.1185Y-3.9841
X8.1185Y-4.0825
X8.1185Y-4.1809
X8.1185Y-2.5919
X8.1185Y-2.6904
X8.1185Y-2.7888
X8.1185Y-2.8872
X8.1185Y-2.9856
X8.1185Y-3.0841
X8.1185Y-3.1825
X8.1185Y-3.2809
X8.1185Y-2.2825
X8.1185Y-2.3809
X8.1185Y-4.3825
X8.1185Y-4.4809
X8.1185Y-4.6825
X8.1185Y-4.7809
X8.1185Y-3.4841
X8.1185Y-3.5825
X8.1185Y-3.6809
T0
M30
